<?xml version="1.0" encoding="utf-8" standalone="no"?>
<!DOCTYPE svg PUBLIC "-//W3C//DTD SVG 1.1//EN"
  "http://www.w3.org/Graphics/SVG/1.1/DTD/svg11.dtd">
<svg xmlns:xlink="http://www.w3.org/1999/xlink" width="1000.178125pt" height="330.541644pt" viewBox="0 0 1000.178125 330.541644" xmlns="http://www.w3.org/2000/svg" version="1.1">
 <metadata>
  <rdf:RDF xmlns:dc="http://purl.org/dc/elements/1.1/" xmlns:cc="http://creativecommons.org/ns#" xmlns:rdf="http://www.w3.org/1999/02/22-rdf-syntax-ns#">
   <cc:Work>
    <dc:type rdf:resource="http://purl.org/dc/dcmitype/StillImage"/>
    <dc:date>2023-03-08T12:55:19.796436</dc:date>
    <dc:format>image/svg+xml</dc:format>
    <dc:creator>
     <cc:Agent>
      <dc:title>Matplotlib v3.5.3, https://matplotlib.org/</dc:title>
     </cc:Agent>
    </dc:creator>
   </cc:Work>
  </rdf:RDF>
 </metadata>
 <defs>
  <style type="text/css">*{stroke-linejoin: round; stroke-linecap: butt}</style>
 </defs>
 <g id="figure_1">
  <g id="axes_1">
   <g id="patch_1">
    <path d="M 48.238125 273.99006 
L 985.343125 273.99006 
L 985.343125 31.48286 
L 48.238125 31.48286 
z
" style="fill: #ffffff"/>
   </g>
   <g id="matplotlib.axis_1">
    <g id="xtick_1">
     <g id="text_1">
      <!-- 0 -->
      <g transform="translate(45.693125 287.06881)scale(0.08 -0.08)">
       <defs>
        <path id="DejaVuSans-30" d="M 2034 4250 
Q 1547 4250 1301 3770 
Q 1056 3291 1056 2328 
Q 1056 1369 1301 889 
Q 1547 409 2034 409 
Q 2525 409 2770 889 
Q 3016 1369 3016 2328 
Q 3016 3291 2770 3770 
Q 2525 4250 2034 4250 
z
M 2034 4750 
Q 2819 4750 3233 4129 
Q 3647 3509 3647 2328 
Q 3647 1150 3233 529 
Q 2819 -91 2034 -91 
Q 1250 -91 836 529 
Q 422 1150 422 2328 
Q 422 3509 836 4129 
Q 1250 4750 2034 4750 
z
" transform="scale(0.015625)"/>
       </defs>
       <use xlink:href="#DejaVuSans-30"/>
      </g>
     </g>
    </g>
    <g id="xtick_2">
     <g id="text_2">
      <!-- 20 -->
      <g transform="translate(230.569125 287.06881)scale(0.08 -0.08)">
       <defs>
        <path id="DejaVuSans-32" d="M 1228 531 
L 3431 531 
L 3431 0 
L 469 0 
L 469 531 
Q 828 903 1448 1529 
Q 2069 2156 2228 2338 
Q 2531 2678 2651 2914 
Q 2772 3150 2772 3378 
Q 2772 3750 2511 3984 
Q 2250 4219 1831 4219 
Q 1534 4219 1204 4116 
Q 875 4013 500 3803 
L 500 4441 
Q 881 4594 1212 4672 
Q 1544 4750 1819 4750 
Q 2544 4750 2975 4387 
Q 3406 4025 3406 3419 
Q 3406 3131 3298 2873 
Q 3191 2616 2906 2266 
Q 2828 2175 2409 1742 
Q 1991 1309 1228 531 
z
" transform="scale(0.015625)"/>
       </defs>
       <use xlink:href="#DejaVuSans-32"/>
       <use xlink:href="#DejaVuSans-30" x="63.623047"/>
      </g>
     </g>
    </g>
    <g id="xtick_3">
     <g id="text_3">
      <!-- 40 -->
      <g transform="translate(417.990125 287.06881)scale(0.08 -0.08)">
       <defs>
        <path id="DejaVuSans-34" d="M 2419 4116 
L 825 1625 
L 2419 1625 
L 2419 4116 
z
M 2253 4666 
L 3047 4666 
L 3047 1625 
L 3713 1625 
L 3713 1100 
L 3047 1100 
L 3047 0 
L 2419 0 
L 2419 1100 
L 313 1100 
L 313 1709 
L 2253 4666 
z
" transform="scale(0.015625)"/>
       </defs>
       <use xlink:href="#DejaVuSans-34"/>
       <use xlink:href="#DejaVuSans-30" x="63.623047"/>
      </g>
     </g>
    </g>
    <g id="xtick_4">
     <g id="text_4">
      <!-- 60 -->
      <g transform="translate(605.411125 287.06881)scale(0.08 -0.08)">
       <defs>
        <path id="DejaVuSans-36" d="M 2113 2584 
Q 1688 2584 1439 2293 
Q 1191 2003 1191 1497 
Q 1191 994 1439 701 
Q 1688 409 2113 409 
Q 2538 409 2786 701 
Q 3034 994 3034 1497 
Q 3034 2003 2786 2293 
Q 2538 2584 2113 2584 
z
M 3366 4563 
L 3366 3988 
Q 3128 4100 2886 4159 
Q 2644 4219 2406 4219 
Q 1781 4219 1451 3797 
Q 1122 3375 1075 2522 
Q 1259 2794 1537 2939 
Q 1816 3084 2150 3084 
Q 2853 3084 3261 2657 
Q 3669 2231 3669 1497 
Q 3669 778 3244 343 
Q 2819 -91 2113 -91 
Q 1303 -91 875 529 
Q 447 1150 447 2328 
Q 447 3434 972 4092 
Q 1497 4750 2381 4750 
Q 2619 4750 2861 4703 
Q 3103 4656 3366 4563 
z
" transform="scale(0.015625)"/>
       </defs>
       <use xlink:href="#DejaVuSans-36"/>
       <use xlink:href="#DejaVuSans-30" x="63.623047"/>
      </g>
     </g>
    </g>
    <g id="xtick_5">
     <g id="text_5">
      <!-- 80 -->
      <g transform="translate(792.832125 287.06881)scale(0.08 -0.08)">
       <defs>
        <path id="DejaVuSans-38" d="M 2034 2216 
Q 1584 2216 1326 1975 
Q 1069 1734 1069 1313 
Q 1069 891 1326 650 
Q 1584 409 2034 409 
Q 2484 409 2743 651 
Q 3003 894 3003 1313 
Q 3003 1734 2745 1975 
Q 2488 2216 2034 2216 
z
M 1403 2484 
Q 997 2584 770 2862 
Q 544 3141 544 3541 
Q 544 4100 942 4425 
Q 1341 4750 2034 4750 
Q 2731 4750 3128 4425 
Q 3525 4100 3525 3541 
Q 3525 3141 3298 2862 
Q 3072 2584 2669 2484 
Q 3125 2378 3379 2068 
Q 3634 1759 3634 1313 
Q 3634 634 3220 271 
Q 2806 -91 2034 -91 
Q 1263 -91 848 271 
Q 434 634 434 1313 
Q 434 1759 690 2068 
Q 947 2378 1403 2484 
z
M 1172 3481 
Q 1172 3119 1398 2916 
Q 1625 2713 2034 2713 
Q 2441 2713 2670 2916 
Q 2900 3119 2900 3481 
Q 2900 3844 2670 4047 
Q 2441 4250 2034 4250 
Q 1625 4250 1398 4047 
Q 1172 3844 1172 3481 
z
" transform="scale(0.015625)"/>
       </defs>
       <use xlink:href="#DejaVuSans-38"/>
       <use xlink:href="#DejaVuSans-30" x="63.623047"/>
      </g>
     </g>
    </g>
    <g id="xtick_6">
     <g id="text_6">
      <!-- 100 -->
      <g transform="translate(977.708125 287.06881)scale(0.08 -0.08)">
       <defs>
        <path id="DejaVuSans-31" d="M 794 531 
L 1825 531 
L 1825 4091 
L 703 3866 
L 703 4441 
L 1819 4666 
L 2450 4666 
L 2450 531 
L 3481 531 
L 3481 0 
L 794 0 
L 794 531 
z
" transform="scale(0.015625)"/>
       </defs>
       <use xlink:href="#DejaVuSans-31"/>
       <use xlink:href="#DejaVuSans-30" x="63.623047"/>
       <use xlink:href="#DejaVuSans-30" x="127.246094"/>
      </g>
     </g>
    </g>
    <g id="text_7">
     <!-- % GC -->
     <g transform="translate(503.085156 300.330997)scale(0.1 -0.1)">
      <defs>
       <path id="DejaVuSans-25" d="M 4653 2053 
Q 4381 2053 4226 1822 
Q 4072 1591 4072 1178 
Q 4072 772 4226 539 
Q 4381 306 4653 306 
Q 4919 306 5073 539 
Q 5228 772 5228 1178 
Q 5228 1588 5073 1820 
Q 4919 2053 4653 2053 
z
M 4653 2450 
Q 5147 2450 5437 2106 
Q 5728 1763 5728 1178 
Q 5728 594 5436 251 
Q 5144 -91 4653 -91 
Q 4153 -91 3862 251 
Q 3572 594 3572 1178 
Q 3572 1766 3864 2108 
Q 4156 2450 4653 2450 
z
M 1428 4353 
Q 1159 4353 1004 4120 
Q 850 3888 850 3481 
Q 850 3069 1003 2837 
Q 1156 2606 1428 2606 
Q 1700 2606 1854 2837 
Q 2009 3069 2009 3481 
Q 2009 3884 1853 4118 
Q 1697 4353 1428 4353 
z
M 4250 4750 
L 4750 4750 
L 1831 -91 
L 1331 -91 
L 4250 4750 
z
M 1428 4750 
Q 1922 4750 2215 4408 
Q 2509 4066 2509 3481 
Q 2509 2891 2217 2550 
Q 1925 2209 1428 2209 
Q 931 2209 642 2551 
Q 353 2894 353 3481 
Q 353 4063 643 4406 
Q 934 4750 1428 4750 
z
" transform="scale(0.015625)"/>
       <path id="DejaVuSans-20" transform="scale(0.015625)"/>
       <path id="DejaVuSans-47" d="M 3809 666 
L 3809 1919 
L 2778 1919 
L 2778 2438 
L 4434 2438 
L 4434 434 
Q 4069 175 3628 42 
Q 3188 -91 2688 -91 
Q 1594 -91 976 548 
Q 359 1188 359 2328 
Q 359 3472 976 4111 
Q 1594 4750 2688 4750 
Q 3144 4750 3555 4637 
Q 3966 4525 4313 4306 
L 4313 3634 
Q 3963 3931 3569 4081 
Q 3175 4231 2741 4231 
Q 1884 4231 1454 3753 
Q 1025 3275 1025 2328 
Q 1025 1384 1454 906 
Q 1884 428 2741 428 
Q 3075 428 3337 486 
Q 3600 544 3809 666 
z
" transform="scale(0.015625)"/>
       <path id="DejaVuSans-43" d="M 4122 4306 
L 4122 3641 
Q 3803 3938 3442 4084 
Q 3081 4231 2675 4231 
Q 1875 4231 1450 3742 
Q 1025 3253 1025 2328 
Q 1025 1406 1450 917 
Q 1875 428 2675 428 
Q 3081 428 3442 575 
Q 3803 722 4122 1019 
L 4122 359 
Q 3791 134 3420 21 
Q 3050 -91 2638 -91 
Q 1578 -91 968 557 
Q 359 1206 359 2328 
Q 359 3453 968 4101 
Q 1578 4750 2638 4750 
Q 3056 4750 3426 4639 
Q 3797 4528 4122 4306 
z
" transform="scale(0.015625)"/>
      </defs>
      <use xlink:href="#DejaVuSans-25"/>
      <use xlink:href="#DejaVuSans-20" x="95.019531"/>
      <use xlink:href="#DejaVuSans-47" x="126.806641"/>
      <use xlink:href="#DejaVuSans-43" x="204.296875"/>
     </g>
    </g>
   </g>
   <g id="matplotlib.axis_2">
    <g id="ytick_1">
     <g id="line2d_1">
      <path d="M 48.238125 273.99006 
L 985.343125 273.99006 
" clip-path="url(#pc7e82453e5)" style="fill: none; stroke: #dedede; stroke-linecap: square"/>
     </g>
     <g id="text_8">
      <!-- 0 -->
      <g transform="translate(36.148125 277.029435)scale(0.08 -0.08)">
       <use xlink:href="#DejaVuSans-30"/>
      </g>
     </g>
    </g>
    <g id="ytick_2">
     <g id="line2d_2">
      <path d="M 48.238125 240.062886 
L 985.343125 240.062886 
" clip-path="url(#pc7e82453e5)" style="fill: none; stroke: #dedede; stroke-linecap: square"/>
     </g>
     <g id="text_9">
      <!-- 1000 -->
      <g transform="translate(20.878125 243.102261)scale(0.08 -0.08)">
       <use xlink:href="#DejaVuSans-31"/>
       <use xlink:href="#DejaVuSans-30" x="63.623047"/>
       <use xlink:href="#DejaVuSans-30" x="127.246094"/>
       <use xlink:href="#DejaVuSans-30" x="190.869141"/>
      </g>
     </g>
    </g>
    <g id="ytick_3">
     <g id="line2d_3">
      <path d="M 48.238125 206.135712 
L 985.343125 206.135712 
" clip-path="url(#pc7e82453e5)" style="fill: none; stroke: #dedede; stroke-linecap: square"/>
     </g>
     <g id="text_10">
      <!-- 2000 -->
      <g transform="translate(20.878125 209.175087)scale(0.08 -0.08)">
       <use xlink:href="#DejaVuSans-32"/>
       <use xlink:href="#DejaVuSans-30" x="63.623047"/>
       <use xlink:href="#DejaVuSans-30" x="127.246094"/>
       <use xlink:href="#DejaVuSans-30" x="190.869141"/>
      </g>
     </g>
    </g>
    <g id="ytick_4">
     <g id="line2d_4">
      <path d="M 48.238125 172.208538 
L 985.343125 172.208538 
" clip-path="url(#pc7e82453e5)" style="fill: none; stroke: #dedede; stroke-linecap: square"/>
     </g>
     <g id="text_11">
      <!-- 3000 -->
      <g transform="translate(20.878125 175.247913)scale(0.08 -0.08)">
       <defs>
        <path id="DejaVuSans-33" d="M 2597 2516 
Q 3050 2419 3304 2112 
Q 3559 1806 3559 1356 
Q 3559 666 3084 287 
Q 2609 -91 1734 -91 
Q 1441 -91 1130 -33 
Q 819 25 488 141 
L 488 750 
Q 750 597 1062 519 
Q 1375 441 1716 441 
Q 2309 441 2620 675 
Q 2931 909 2931 1356 
Q 2931 1769 2642 2001 
Q 2353 2234 1838 2234 
L 1294 2234 
L 1294 2753 
L 1863 2753 
Q 2328 2753 2575 2939 
Q 2822 3125 2822 3475 
Q 2822 3834 2567 4026 
Q 2313 4219 1838 4219 
Q 1578 4219 1281 4162 
Q 984 4106 628 3988 
L 628 4550 
Q 988 4650 1302 4700 
Q 1616 4750 1894 4750 
Q 2613 4750 3031 4423 
Q 3450 4097 3450 3541 
Q 3450 3153 3228 2886 
Q 3006 2619 2597 2516 
z
" transform="scale(0.015625)"/>
       </defs>
       <use xlink:href="#DejaVuSans-33"/>
       <use xlink:href="#DejaVuSans-30" x="63.623047"/>
       <use xlink:href="#DejaVuSans-30" x="127.246094"/>
       <use xlink:href="#DejaVuSans-30" x="190.869141"/>
      </g>
     </g>
    </g>
    <g id="ytick_5">
     <g id="line2d_5">
      <path d="M 48.238125 138.281363 
L 985.343125 138.281363 
" clip-path="url(#pc7e82453e5)" style="fill: none; stroke: #dedede; stroke-linecap: square"/>
     </g>
     <g id="text_12">
      <!-- 4000 -->
      <g transform="translate(20.878125 141.320738)scale(0.08 -0.08)">
       <use xlink:href="#DejaVuSans-34"/>
       <use xlink:href="#DejaVuSans-30" x="63.623047"/>
       <use xlink:href="#DejaVuSans-30" x="127.246094"/>
       <use xlink:href="#DejaVuSans-30" x="190.869141"/>
      </g>
     </g>
    </g>
    <g id="ytick_6">
     <g id="line2d_6">
      <path d="M 48.238125 104.354189 
L 985.343125 104.354189 
" clip-path="url(#pc7e82453e5)" style="fill: none; stroke: #dedede; stroke-linecap: square"/>
     </g>
     <g id="text_13">
      <!-- 5000 -->
      <g transform="translate(20.878125 107.393564)scale(0.08 -0.08)">
       <defs>
        <path id="DejaVuSans-35" d="M 691 4666 
L 3169 4666 
L 3169 4134 
L 1269 4134 
L 1269 2991 
Q 1406 3038 1543 3061 
Q 1681 3084 1819 3084 
Q 2600 3084 3056 2656 
Q 3513 2228 3513 1497 
Q 3513 744 3044 326 
Q 2575 -91 1722 -91 
Q 1428 -91 1123 -41 
Q 819 9 494 109 
L 494 744 
Q 775 591 1075 516 
Q 1375 441 1709 441 
Q 2250 441 2565 725 
Q 2881 1009 2881 1497 
Q 2881 1984 2565 2268 
Q 2250 2553 1709 2553 
Q 1456 2553 1204 2497 
Q 953 2441 691 2322 
L 691 4666 
z
" transform="scale(0.015625)"/>
       </defs>
       <use xlink:href="#DejaVuSans-35"/>
       <use xlink:href="#DejaVuSans-30" x="63.623047"/>
       <use xlink:href="#DejaVuSans-30" x="127.246094"/>
       <use xlink:href="#DejaVuSans-30" x="190.869141"/>
      </g>
     </g>
    </g>
    <g id="ytick_7">
     <g id="line2d_7">
      <path d="M 48.238125 70.427015 
L 985.343125 70.427015 
" clip-path="url(#pc7e82453e5)" style="fill: none; stroke: #dedede; stroke-linecap: square"/>
     </g>
     <g id="text_14">
      <!-- 6000 -->
      <g transform="translate(20.878125 73.46639)scale(0.08 -0.08)">
       <use xlink:href="#DejaVuSans-36"/>
       <use xlink:href="#DejaVuSans-30" x="63.623047"/>
       <use xlink:href="#DejaVuSans-30" x="127.246094"/>
       <use xlink:href="#DejaVuSans-30" x="190.869141"/>
      </g>
     </g>
    </g>
    <g id="ytick_8">
     <g id="line2d_8">
      <path d="M 48.238125 36.499841 
L 985.343125 36.499841 
" clip-path="url(#pc7e82453e5)" style="fill: none; stroke: #dedede; stroke-linecap: square"/>
     </g>
     <g id="text_15">
      <!-- 7000 -->
      <g transform="translate(20.878125 39.539216)scale(0.08 -0.08)">
       <defs>
        <path id="DejaVuSans-37" d="M 525 4666 
L 3525 4666 
L 3525 4397 
L 1831 0 
L 1172 0 
L 2766 4134 
L 525 4134 
L 525 4666 
z
" transform="scale(0.015625)"/>
       </defs>
       <use xlink:href="#DejaVuSans-37"/>
       <use xlink:href="#DejaVuSans-30" x="63.623047"/>
       <use xlink:href="#DejaVuSans-30" x="127.246094"/>
       <use xlink:href="#DejaVuSans-30" x="190.869141"/>
      </g>
     </g>
    </g>
    <g id="text_16">
     <!-- Count -->
     <g transform="translate(14.798438 167.584897)rotate(-90)scale(0.1 -0.1)">
      <defs>
       <path id="DejaVuSans-6f" d="M 1959 3097 
Q 1497 3097 1228 2736 
Q 959 2375 959 1747 
Q 959 1119 1226 758 
Q 1494 397 1959 397 
Q 2419 397 2687 759 
Q 2956 1122 2956 1747 
Q 2956 2369 2687 2733 
Q 2419 3097 1959 3097 
z
M 1959 3584 
Q 2709 3584 3137 3096 
Q 3566 2609 3566 1747 
Q 3566 888 3137 398 
Q 2709 -91 1959 -91 
Q 1206 -91 779 398 
Q 353 888 353 1747 
Q 353 2609 779 3096 
Q 1206 3584 1959 3584 
z
" transform="scale(0.015625)"/>
       <path id="DejaVuSans-75" d="M 544 1381 
L 544 3500 
L 1119 3500 
L 1119 1403 
Q 1119 906 1312 657 
Q 1506 409 1894 409 
Q 2359 409 2629 706 
Q 2900 1003 2900 1516 
L 2900 3500 
L 3475 3500 
L 3475 0 
L 2900 0 
L 2900 538 
Q 2691 219 2414 64 
Q 2138 -91 1772 -91 
Q 1169 -91 856 284 
Q 544 659 544 1381 
z
M 1991 3584 
L 1991 3584 
z
" transform="scale(0.015625)"/>
       <path id="DejaVuSans-6e" d="M 3513 2113 
L 3513 0 
L 2938 0 
L 2938 2094 
Q 2938 2591 2744 2837 
Q 2550 3084 2163 3084 
Q 1697 3084 1428 2787 
Q 1159 2491 1159 1978 
L 1159 0 
L 581 0 
L 581 3500 
L 1159 3500 
L 1159 2956 
Q 1366 3272 1645 3428 
Q 1925 3584 2291 3584 
Q 2894 3584 3203 3211 
Q 3513 2838 3513 2113 
z
" transform="scale(0.015625)"/>
       <path id="DejaVuSans-74" d="M 1172 4494 
L 1172 3500 
L 2356 3500 
L 2356 3053 
L 1172 3053 
L 1172 1153 
Q 1172 725 1289 603 
Q 1406 481 1766 481 
L 2356 481 
L 2356 0 
L 1766 0 
Q 1100 0 847 248 
Q 594 497 594 1153 
L 594 3053 
L 172 3053 
L 172 3500 
L 594 3500 
L 594 4494 
L 1172 4494 
z
" transform="scale(0.015625)"/>
      </defs>
      <use xlink:href="#DejaVuSans-43"/>
      <use xlink:href="#DejaVuSans-6f" x="69.824219"/>
      <use xlink:href="#DejaVuSans-75" x="131.005859"/>
      <use xlink:href="#DejaVuSans-6e" x="194.384766"/>
      <use xlink:href="#DejaVuSans-74" x="257.763672"/>
     </g>
    </g>
   </g>
   <g id="line2d_9">
    <path d="M 48.238125 273.99006 
L 57.609175 273.99006 
L 66.980225 273.99006 
L 76.351275 273.99006 
L 85.722325 273.99006 
L 95.093375 273.99006 
L 104.464425 273.973096 
L 113.835475 273.973096 
L 123.206525 273.973096 
L 132.577575 273.956133 
L 141.948625 273.973096 
L 151.319675 273.956133 
L 160.690725 273.956133 
L 170.061775 273.956133 
L 179.432825 273.769533 
L 188.803875 273.464189 
L 198.174925 272.8535 
L 207.545975 272.6669 
L 216.917025 272.90439 
L 226.288075 272.565119 
L 235.659125 272.225847 
L 245.030175 272.836536 
L 254.401225 272.649937 
L 263.772275 272.514228 
L 273.143325 272.785645 
L 282.514375 271.004469 
L 291.885425 268.324222 
L 301.256475 264.117252 
L 310.627525 260.130809 
L 319.998575 255.703313 
L 329.369625 248.307189 
L 338.740675 239.944141 
L 348.111725 228.73121 
L 357.482775 225.898291 
L 366.853825 227.034851 
L 376.224875 220.724397 
L 385.595925 204.354535 
L 394.966975 185.881189 
L 404.338025 182.963452 
L 413.709075 185.609771 
L 423.080125 185.949043 
L 432.451175 177.229759 
L 441.822225 161.708077 
L 451.193275 159.248357 
L 460.564325 166.966789 
L 469.935375 171.648739 
L 479.306425 174.871821 
L 488.677475 183.76074 
L 498.048525 204.507207 
L 507.419575 224.693876 
L 516.790625 240.266449 
L 526.161675 253.27752 
L 535.532725 259.537084 
L 544.903775 262.590529 
L 554.274825 265.185958 
L 563.645875 266.4243 
L 573.016925 266.6109 
L 582.387975 269.833981 
L 591.759025 272.327628 
L 601.130075 273.107953 
L 610.501125 273.447225 
L 619.872175 273.464189 
L 629.243225 273.582934 
L 638.614275 273.633825 
L 647.985325 273.684715 
L 657.356375 273.854351 
L 666.727425 273.956133 
L 676.098475 273.973096 
L 685.469525 273.99006 
L 694.840575 273.99006 
L 704.211625 273.99006 
L 713.582675 273.99006 
L 722.953725 273.99006 
L 732.324775 273.99006 
L 741.695825 273.99006 
L 751.066875 273.99006 
L 760.437925 273.99006 
L 769.808975 273.99006 
L 779.180025 273.99006 
L 788.551075 273.99006 
L 797.922125 273.99006 
L 807.293175 273.99006 
L 816.664225 273.99006 
L 826.035275 273.99006 
L 835.406325 273.99006 
L 844.777375 273.99006 
L 854.148425 273.99006 
L 863.519475 273.99006 
L 872.890525 273.99006 
L 882.261575 273.99006 
L 891.632625 273.99006 
L 901.003675 273.99006 
L 910.374725 273.99006 
L 919.745775 273.99006 
L 929.116825 273.99006 
L 938.487875 273.99006 
L 947.858925 273.99006 
L 957.229975 273.99006 
L 966.601025 273.99006 
L 975.972075 273.99006 
L 985.343125 273.99006 
" clip-path="url(#pc7e82453e5)" style="fill: none; stroke: #f0ad4e; stroke-linecap: square"/>
   </g>
   <g id="line2d_10">
    <path d="M 48.238125 270.834833 
L 57.609175 272.259774 
L 66.980225 273.616861 
L 76.351275 273.633825 
L 85.722325 273.75257 
L 95.093375 273.803461 
L 104.464425 273.803461 
L 113.835475 273.786497 
L 123.206525 273.837388 
L 132.577575 273.871315 
L 141.948625 273.820424 
L 151.319675 273.837388 
L 160.690725 273.854351 
L 170.061775 273.820424 
L 179.432825 273.854351 
L 188.803875 273.871315 
L 198.174925 273.922206 
L 207.545975 273.888278 
L 216.917025 273.803461 
L 226.288075 273.667752 
L 235.659125 273.549007 
L 245.030175 273.56597 
L 254.401225 273.396334 
L 263.772275 273.32848 
L 273.143325 272.785645 
L 282.514375 271.716939 
L 291.885425 269.206328 
L 301.256475 265.355594 
L 310.627525 261.92895 
L 319.998575 256.924691 
L 329.369625 251.106181 
L 338.740675 245.372489 
L 348.111725 235.279154 
L 357.482775 229.969552 
L 366.853825 229.155299 
L 376.224875 222.743063 
L 385.595925 203.455465 
L 394.966975 183.472359 
L 404.338025 180.351059 
L 413.709075 173.701333 
L 423.080125 169.172055 
L 432.451175 171.292504 
L 441.822225 162.658038 
L 451.193275 154.413735 
L 460.564325 160.435808 
L 469.935375 175.177165 
L 479.306425 184.541065 
L 488.677475 193.480876 
L 498.048525 209.206121 
L 507.419575 225.389383 
L 516.790625 240.011995 
L 526.161675 251.598125 
L 535.532725 258.451414 
L 544.903775 261.352188 
L 554.274825 262.709275 
L 563.645875 264.778832 
L 573.016925 267.662642 
L 582.387975 269.850945 
L 591.759025 271.683012 
L 601.130075 273.192771 
L 610.501125 273.226699 
L 619.872175 273.192771 
L 629.243225 273.498116 
L 638.614275 273.481152 
L 647.985325 273.379371 
L 657.356375 273.718643 
L 666.727425 273.973096 
L 676.098475 273.99006 
L 685.469525 273.99006 
L 694.840575 273.99006 
L 704.211625 273.99006 
L 713.582675 273.973096 
L 722.953725 273.973096 
L 732.324775 273.99006 
L 741.695825 273.99006 
L 751.066875 273.99006 
L 760.437925 273.99006 
L 769.808975 273.99006 
L 779.180025 273.99006 
L 788.551075 273.99006 
L 797.922125 273.99006 
L 807.293175 273.99006 
L 816.664225 273.99006 
L 826.035275 273.99006 
L 835.406325 273.99006 
L 844.777375 273.99006 
L 854.148425 273.99006 
L 863.519475 273.99006 
L 872.890525 273.99006 
L 882.261575 273.99006 
L 891.632625 273.99006 
L 901.003675 273.99006 
L 910.374725 273.99006 
L 919.745775 273.99006 
L 929.116825 273.99006 
L 938.487875 273.99006 
L 947.858925 273.99006 
L 957.229975 273.99006 
L 966.601025 273.99006 
L 975.972075 273.99006 
L 985.343125 273.99006 
" clip-path="url(#pc7e82453e5)" style="fill: none; stroke: #f0ad4e; stroke-linecap: square"/>
   </g>
   <g id="line2d_11">
    <path d="M 48.238125 273.99006 
L 57.609175 273.99006 
L 66.980225 273.99006 
L 76.351275 273.99006 
L 85.722325 273.99006 
L 95.093375 273.99006 
L 104.464425 273.99006 
L 113.835475 273.973096 
L 123.206525 273.973096 
L 132.577575 273.973096 
L 141.948625 273.973096 
L 151.319675 273.956133 
L 160.690725 273.956133 
L 170.061775 273.973096 
L 179.432825 273.75257 
L 188.803875 273.362407 
L 198.174925 272.989208 
L 207.545975 272.802609 
L 216.917025 273.124917 
L 226.288075 272.531192 
L 235.659125 271.564267 
L 245.030175 272.42941 
L 254.401225 272.259774 
L 263.772275 271.886575 
L 273.143325 272.344592 
L 282.514375 270.919651 
L 291.885425 267.98495 
L 301.256475 263.574418 
L 310.627525 259.672793 
L 319.998575 254.889061 
L 329.369625 248.578607 
L 338.740675 241.318191 
L 348.111725 229.223154 
L 357.482775 225.8474 
L 366.853825 227.967848 
L 376.224875 221.860957 
L 385.595925 207.102636 
L 394.966975 191.241682 
L 404.338025 187.255239 
L 413.709075 186.135643 
L 423.080125 185.440135 
L 432.451175 175.804818 
L 441.822225 159.655483 
L 451.193275 157.382362 
L 460.564325 166.084683 
L 469.935375 171.869266 
L 479.306425 173.633479 
L 488.677475 184.218757 
L 498.048525 203.947409 
L 507.419575 223.099299 
L 516.790625 238.485272 
L 526.161675 251.71687 
L 535.532725 260.029028 
L 544.903775 262.064658 
L 554.274825 264.371706 
L 563.645875 266.169846 
L 573.016925 267.102844 
L 582.387975 270.529488 
L 591.759025 272.327628 
L 601.130075 273.09099 
L 610.501125 273.56597 
L 619.872175 273.379371 
L 629.243225 273.447225 
L 638.614275 273.616861 
L 647.985325 273.718643 
L 657.356375 273.905242 
L 666.727425 273.99006 
L 676.098475 273.99006 
L 685.469525 273.99006 
L 694.840575 273.99006 
L 704.211625 273.99006 
L 713.582675 273.99006 
L 722.953725 273.99006 
L 732.324775 273.99006 
L 741.695825 273.99006 
L 751.066875 273.99006 
L 760.437925 273.99006 
L 769.808975 273.99006 
L 779.180025 273.99006 
L 788.551075 273.99006 
L 797.922125 273.99006 
L 807.293175 273.99006 
L 816.664225 273.99006 
L 826.035275 273.99006 
L 835.406325 273.99006 
L 844.777375 273.99006 
L 854.148425 273.99006 
L 863.519475 273.99006 
L 872.890525 273.99006 
L 882.261575 273.99006 
L 891.632625 273.99006 
L 901.003675 273.99006 
L 910.374725 273.99006 
L 919.745775 273.99006 
L 929.116825 273.99006 
L 938.487875 273.99006 
L 947.858925 273.99006 
L 957.229975 273.99006 
L 966.601025 273.99006 
L 975.972075 273.99006 
L 985.343125 273.99006 
" clip-path="url(#pc7e82453e5)" style="fill: none; stroke: #f0ad4e; stroke-linecap: square"/>
   </g>
   <g id="line2d_12">
    <path d="M 48.238125 273.99006 
L 57.609175 273.99006 
L 66.980225 273.99006 
L 76.351275 273.99006 
L 85.722325 273.99006 
L 95.093375 273.99006 
L 104.464425 273.973096 
L 113.835475 273.973096 
L 123.206525 273.99006 
L 132.577575 273.973096 
L 141.948625 273.973096 
L 151.319675 273.973096 
L 160.690725 273.939169 
L 170.061775 273.922206 
L 179.432825 273.616861 
L 188.803875 272.734755 
L 198.174925 271.445522 
L 207.545975 270.970541 
L 216.917025 271.666049 
L 226.288075 270.512525 
L 235.659125 269.274183 
L 245.030175 271.089287 
L 254.401225 270.834833 
L 263.772275 270.461634 
L 273.143325 271.055359 
L 282.514375 268.341186 
L 291.885425 261.725387 
L 301.256475 252.531122 
L 310.627525 245.966214 
L 319.998575 236.619278 
L 329.369625 224.134078 
L 338.740675 207.000855 
L 348.111725 180.486768 
L 357.482775 177.925266 
L 366.853825 181.945637 
L 376.224875 170.461288 
L 385.595925 140.791974 
L 394.966975 107.746907 
L 404.338025 105.677349 
L 413.709075 105.287186 
L 423.080125 101.012363 
L 432.451175 82.233672 
L 441.822225 49.188604 
L 451.193275 43.030822 
L 460.564325 56.07582 
L 469.935375 61.741658 
L 479.306425 67.594096 
L 488.677475 91.852026 
L 498.048525 133.786013 
L 507.419575 171.69963 
L 516.790625 201.436798 
L 526.161675 227.526795 
L 535.532725 243.828802 
L 544.903775 250.563346 
L 554.274825 255.228333 
L 563.645875 257.48449 
L 573.016925 259.04514 
L 582.387975 266.017174 
L 591.759025 270.902687 
L 601.130075 272.717791 
L 610.501125 273.430262 
L 619.872175 273.379371 
L 629.243225 273.633825 
L 638.614275 273.718643 
L 647.985325 273.701679 
L 657.356375 273.871315 
L 666.727425 273.99006 
L 676.098475 273.99006 
L 685.469525 273.973096 
L 694.840575 273.973096 
L 704.211625 273.99006 
L 713.582675 273.99006 
L 722.953725 273.99006 
L 732.324775 273.99006 
L 741.695825 273.99006 
L 751.066875 273.99006 
L 760.437925 273.99006 
L 769.808975 273.99006 
L 779.180025 273.99006 
L 788.551075 273.99006 
L 797.922125 273.99006 
L 807.293175 273.99006 
L 816.664225 273.99006 
L 826.035275 273.99006 
L 835.406325 273.99006 
L 844.777375 273.99006 
L 854.148425 273.99006 
L 863.519475 273.99006 
L 872.890525 273.99006 
L 882.261575 273.99006 
L 891.632625 273.99006 
L 901.003675 273.99006 
L 910.374725 273.99006 
L 919.745775 273.99006 
L 929.116825 273.99006 
L 938.487875 273.99006 
L 947.858925 273.99006 
L 957.229975 273.99006 
L 966.601025 273.99006 
L 975.972075 273.99006 
L 985.343125 273.99006 
" clip-path="url(#pc7e82453e5)" style="fill: none; stroke: #f0ad4e; stroke-linecap: square"/>
   </g>
   <g id="line2d_13">
    <path d="M 48.238125 273.956133 
L 57.609175 273.956133 
L 66.980225 273.956133 
L 76.351275 273.973096 
L 85.722325 273.99006 
L 95.093375 273.99006 
L 104.464425 273.973096 
L 113.835475 273.956133 
L 123.206525 273.973096 
L 132.577575 273.99006 
L 141.948625 273.956133 
L 151.319675 273.956133 
L 160.690725 273.939169 
L 170.061775 273.922206 
L 179.432825 273.650788 
L 188.803875 272.887427 
L 198.174925 272.259774 
L 207.545975 272.073175 
L 216.917025 272.157993 
L 226.288075 271.428558 
L 235.659125 270.699124 
L 245.030175 271.886575 
L 254.401225 271.988357 
L 263.772275 271.462486 
L 273.143325 270.936614 
L 282.514375 268.850093 
L 291.885425 262.861947 
L 301.256475 252.734685 
L 310.627525 244.778763 
L 319.998575 234.210448 
L 329.369625 219.486055 
L 338.740675 199.774367 
L 348.111725 171.818375 
L 357.482775 168.510476 
L 366.853825 174.345949 
L 376.224875 159.248357 
L 385.595925 121.690975 
L 394.966975 85.694243 
L 404.338025 84.235375 
L 413.709075 85.812989 
L 423.080125 87.288821 
L 432.451175 74.684875 
L 441.822225 48.849332 
L 451.193275 48.747551 
L 460.564325 69.358309 
L 469.935375 88.459308 
L 479.306425 94.091219 
L 488.677475 111.190515 
L 498.048525 149.358586 
L 507.419575 184.439284 
L 516.790625 210.783735 
L 526.161675 232.225709 
L 535.532725 247.136702 
L 544.903775 253.51501 
L 554.274825 257.382708 
L 563.645875 259.248703 
L 573.016925 260.436154 
L 582.387975 266.526082 
L 591.759025 271.224995 
L 601.130075 272.955281 
L 610.501125 273.481152 
L 619.872175 273.532043 
L 629.243225 273.616861 
L 638.614275 273.599897 
L 647.985325 273.667752 
L 657.356375 273.905242 
L 666.727425 273.99006 
L 676.098475 273.99006 
L 685.469525 273.973096 
L 694.840575 273.956133 
L 704.211625 273.973096 
L 713.582675 273.99006 
L 722.953725 273.99006 
L 732.324775 273.99006 
L 741.695825 273.99006 
L 751.066875 273.99006 
L 760.437925 273.99006 
L 769.808975 273.99006 
L 779.180025 273.99006 
L 788.551075 273.99006 
L 797.922125 273.99006 
L 807.293175 273.99006 
L 816.664225 273.99006 
L 826.035275 273.99006 
L 835.406325 273.99006 
L 844.777375 273.99006 
L 854.148425 273.99006 
L 863.519475 273.99006 
L 872.890525 273.99006 
L 882.261575 273.99006 
L 891.632625 273.99006 
L 901.003675 273.99006 
L 910.374725 273.99006 
L 919.745775 273.99006 
L 929.116825 273.99006 
L 938.487875 273.99006 
L 947.858925 273.99006 
L 957.229975 273.99006 
L 966.601025 273.99006 
L 975.972075 273.99006 
L 985.343125 273.99006 
" clip-path="url(#pc7e82453e5)" style="fill: none; stroke: #f0ad4e; stroke-linecap: square"/>
   </g>
   <g id="line2d_14">
    <path d="M 48.238125 267.917096 
L 57.609175 270.614306 
L 66.980225 273.260626 
L 76.351275 273.277589 
L 85.722325 273.32848 
L 95.093375 273.362407 
L 104.464425 273.51508 
L 113.835475 273.599897 
L 123.206525 273.56597 
L 132.577575 273.430262 
L 141.948625 273.532043 
L 151.319675 273.735606 
L 160.690725 273.803461 
L 170.061775 273.837388 
L 179.432825 273.803461 
L 188.803875 273.701679 
L 198.174925 273.599897 
L 207.545975 273.599897 
L 216.917025 273.481152 
L 226.288075 273.141881 
L 235.659125 273.209735 
L 245.030175 273.345444 
L 254.401225 273.057063 
L 263.772275 272.90439 
L 273.143325 271.598194 
L 282.514375 269.5456 
L 291.885425 264.558306 
L 301.256475 255.669386 
L 310.627525 245.287671 
L 319.998575 230.76684 
L 329.369625 222.217192 
L 338.740675 214.702323 
L 348.111725 188.663217 
L 357.482775 175.9066 
L 366.853825 175.143238 
L 376.224875 160.927752 
L 385.595925 120.571378 
L 394.966975 84.642501 
L 404.338025 76.822287 
L 413.709075 55.465131 
L 423.080125 54.175899 
L 432.451175 66.457536 
L 441.822225 55.855294 
L 451.193275 46.491394 
L 460.564325 58.111451 
L 469.935375 88.272709 
L 479.306425 107.865652 
L 488.677475 125.897945 
L 498.048525 158.841231 
L 507.419575 188.256091 
L 516.790625 211.496205 
L 526.161675 232.955143 
L 535.532725 246.780466 
L 544.903775 252.259705 
L 554.274825 254.549789 
L 563.645875 258.061252 
L 573.016925 263.150328 
L 582.387975 267.238552 
L 591.759025 270.44467 
L 601.130075 272.768682 
L 610.501125 273.32848 
L 619.872175 273.294553 
L 629.243225 273.379371 
L 638.614275 273.582934 
L 647.985325 273.413298 
L 657.356375 273.633825 
L 666.727425 273.973096 
L 676.098475 273.99006 
L 685.469525 273.973096 
L 694.840575 273.973096 
L 704.211625 273.99006 
L 713.582675 273.99006 
L 722.953725 273.99006 
L 732.324775 273.99006 
L 741.695825 273.99006 
L 751.066875 273.973096 
L 760.437925 273.973096 
L 769.808975 273.99006 
L 779.180025 273.99006 
L 788.551075 273.99006 
L 797.922125 273.99006 
L 807.293175 273.99006 
L 816.664225 273.99006 
L 826.035275 273.99006 
L 835.406325 273.99006 
L 844.777375 273.99006 
L 854.148425 273.99006 
L 863.519475 273.99006 
L 872.890525 273.99006 
L 882.261575 273.99006 
L 891.632625 273.99006 
L 901.003675 273.99006 
L 910.374725 273.99006 
L 919.745775 273.99006 
L 929.116825 273.99006 
L 938.487875 273.99006 
L 947.858925 273.99006 
L 957.229975 273.99006 
L 966.601025 273.99006 
L 975.972075 273.99006 
L 985.343125 273.99006 
" clip-path="url(#pc7e82453e5)" style="fill: none; stroke: #5cb85c; stroke-linecap: square"/>
   </g>
   <g id="line2d_15">
    <path d="M 48.238125 273.99006 
L 57.609175 273.99006 
L 66.980225 273.99006 
L 76.351275 273.99006 
L 85.722325 273.99006 
L 95.093375 273.99006 
L 104.464425 273.973096 
L 113.835475 273.973096 
L 123.206525 273.973096 
L 132.577575 273.939169 
L 141.948625 273.939169 
L 151.319675 273.973096 
L 160.690725 273.99006 
L 170.061775 273.99006 
L 179.432825 273.650788 
L 188.803875 273.243662 
L 198.174925 272.785645 
L 207.545975 272.531192 
L 216.917025 272.921354 
L 226.288075 272.649937 
L 235.659125 271.784794 
L 245.030175 272.42941 
L 254.401225 272.768682 
L 263.772275 272.548155 
L 273.143325 272.616009 
L 282.514375 271.581231 
L 291.885425 268.341186 
L 301.256475 263.167291 
L 310.627525 259.146921 
L 319.998575 254.83817 
L 329.369625 248.341116 
L 338.740675 238.196891 
L 348.111725 224.982257 
L 357.482775 224.066223 
L 366.853825 225.864363 
L 376.224875 217.823623 
L 385.595925 203.370647 
L 394.966975 187.06864 
L 404.338025 184.558029 
L 413.709075 184.84641 
L 423.080125 185.609771 
L 432.451175 179.876079 
L 441.822225 163.964234 
L 451.193275 160.35099 
L 460.564325 167.560515 
L 469.935375 172.17461 
L 479.306425 174.498622 
L 488.677475 185.949043 
L 498.048525 206.03393 
L 507.419575 225.287601 
L 516.790625 241.148555 
L 526.161675 252.717722 
L 535.532725 260.351336 
L 544.903775 262.505712 
L 554.274825 264.252961 
L 563.645875 266.576972 
L 573.016925 266.899281 
L 582.387975 270.224144 
L 591.759025 272.768682 
L 601.130075 273.481152 
L 610.501125 273.75257 
L 619.872175 273.701679 
L 629.243225 273.820424 
L 638.614275 273.922206 
L 647.985325 273.888278 
L 657.356375 273.888278 
L 666.727425 273.956133 
L 676.098475 273.99006 
L 685.469525 273.99006 
L 694.840575 273.99006 
L 704.211625 273.99006 
L 713.582675 273.99006 
L 722.953725 273.99006 
L 732.324775 273.99006 
L 741.695825 273.99006 
L 751.066875 273.99006 
L 760.437925 273.99006 
L 769.808975 273.99006 
L 779.180025 273.99006 
L 788.551075 273.99006 
L 797.922125 273.99006 
L 807.293175 273.99006 
L 816.664225 273.99006 
L 826.035275 273.99006 
L 835.406325 273.99006 
L 844.777375 273.99006 
L 854.148425 273.99006 
L 863.519475 273.99006 
L 872.890525 273.99006 
L 882.261575 273.99006 
L 891.632625 273.99006 
L 901.003675 273.99006 
L 910.374725 273.99006 
L 919.745775 273.99006 
L 929.116825 273.99006 
L 938.487875 273.99006 
L 947.858925 273.99006 
L 957.229975 273.99006 
L 966.601025 273.99006 
L 975.972075 273.99006 
L 985.343125 273.99006 
" clip-path="url(#pc7e82453e5)" style="fill: none; stroke: #f0ad4e; stroke-linecap: square"/>
   </g>
   <g id="line2d_16">
    <path d="M 48.238125 270.291998 
L 57.609175 271.971393 
L 66.980225 273.75257 
L 76.351275 273.820424 
L 85.722325 273.75257 
L 95.093375 273.75257 
L 104.464425 273.837388 
L 113.835475 273.820424 
L 123.206525 273.769533 
L 132.577575 273.820424 
L 141.948625 273.803461 
L 151.319675 273.786497 
L 160.690725 273.837388 
L 170.061775 273.854351 
L 179.432825 273.735606 
L 188.803875 273.718643 
L 198.174925 273.803461 
L 207.545975 273.735606 
L 216.917025 273.735606 
L 226.288075 273.582934 
L 235.659125 273.481152 
L 245.030175 273.447225 
L 254.401225 273.362407 
L 263.772275 273.413298 
L 273.143325 272.700827 
L 282.514375 271.784794 
L 291.885425 269.630418 
L 301.256475 265.406485 
L 310.627525 260.41919 
L 319.998575 254.617644 
L 329.369625 250.088366 
L 338.740675 244.727872 
L 348.111725 232.395344 
L 357.482775 228.595501 
L 366.853825 228.985663 
L 376.224875 221.487758 
L 385.595925 201.572507 
L 394.966975 182.20009 
L 404.338025 179.163608 
L 413.709075 170.546106 
L 423.080125 170.698778 
L 432.451175 175.24502 
L 441.822225 165.558811 
L 451.193275 160.062609 
L 460.564325 163.964234 
L 469.935375 173.837042 
L 479.306425 183.998231 
L 488.677475 193.005895 
L 498.048525 209.358793 
L 507.419575 226.32238 
L 516.790625 239.146852 
L 526.161675 251.140108 
L 535.532725 259.842428 
L 544.903775 262.336076 
L 554.274825 262.030731 
L 563.645875 264.812759 
L 573.016925 267.951023 
L 582.387975 270.088435 
L 591.759025 272.039247 
L 601.130075 273.413298 
L 610.501125 273.51508 
L 619.872175 273.633825 
L 629.243225 273.803461 
L 638.614275 273.718643 
L 647.985325 273.667752 
L 657.356375 273.820424 
L 666.727425 273.956133 
L 676.098475 273.956133 
L 685.469525 273.973096 
L 694.840575 273.99006 
L 704.211625 273.99006 
L 713.582675 273.99006 
L 722.953725 273.99006 
L 732.324775 273.99006 
L 741.695825 273.99006 
L 751.066875 273.99006 
L 760.437925 273.99006 
L 769.808975 273.99006 
L 779.180025 273.99006 
L 788.551075 273.99006 
L 797.922125 273.99006 
L 807.293175 273.99006 
L 816.664225 273.99006 
L 826.035275 273.99006 
L 835.406325 273.99006 
L 844.777375 273.99006 
L 854.148425 273.99006 
L 863.519475 273.99006 
L 872.890525 273.99006 
L 882.261575 273.99006 
L 891.632625 273.99006 
L 901.003675 273.99006 
L 910.374725 273.99006 
L 919.745775 273.99006 
L 929.116825 273.99006 
L 938.487875 273.99006 
L 947.858925 273.99006 
L 957.229975 273.99006 
L 966.601025 273.99006 
L 975.972075 273.99006 
L 985.343125 273.99006 
" clip-path="url(#pc7e82453e5)" style="fill: none; stroke: #f0ad4e; stroke-linecap: square"/>
   </g>
   <g id="line2d_17">
    <path d="M 48.238125 273.99006 
L 985.343125 273.99006 
" clip-path="url(#pc7e82453e5)" style="fill: none; stroke: #dedede; stroke-width: 2; stroke-linecap: square"/>
   </g>
   <g id="text_17">
    <!-- FastQC: Per Sequence GC Content -->
    <g transform="translate(380.154375 19.3575)scale(0.16 -0.16)">
     <defs>
      <path id="DejaVuSans-46" d="M 628 4666 
L 3309 4666 
L 3309 4134 
L 1259 4134 
L 1259 2759 
L 3109 2759 
L 3109 2228 
L 1259 2228 
L 1259 0 
L 628 0 
L 628 4666 
z
" transform="scale(0.015625)"/>
      <path id="DejaVuSans-61" d="M 2194 1759 
Q 1497 1759 1228 1600 
Q 959 1441 959 1056 
Q 959 750 1161 570 
Q 1363 391 1709 391 
Q 2188 391 2477 730 
Q 2766 1069 2766 1631 
L 2766 1759 
L 2194 1759 
z
M 3341 1997 
L 3341 0 
L 2766 0 
L 2766 531 
Q 2569 213 2275 61 
Q 1981 -91 1556 -91 
Q 1019 -91 701 211 
Q 384 513 384 1019 
Q 384 1609 779 1909 
Q 1175 2209 1959 2209 
L 2766 2209 
L 2766 2266 
Q 2766 2663 2505 2880 
Q 2244 3097 1772 3097 
Q 1472 3097 1187 3025 
Q 903 2953 641 2809 
L 641 3341 
Q 956 3463 1253 3523 
Q 1550 3584 1831 3584 
Q 2591 3584 2966 3190 
Q 3341 2797 3341 1997 
z
" transform="scale(0.015625)"/>
      <path id="DejaVuSans-73" d="M 2834 3397 
L 2834 2853 
Q 2591 2978 2328 3040 
Q 2066 3103 1784 3103 
Q 1356 3103 1142 2972 
Q 928 2841 928 2578 
Q 928 2378 1081 2264 
Q 1234 2150 1697 2047 
L 1894 2003 
Q 2506 1872 2764 1633 
Q 3022 1394 3022 966 
Q 3022 478 2636 193 
Q 2250 -91 1575 -91 
Q 1294 -91 989 -36 
Q 684 19 347 128 
L 347 722 
Q 666 556 975 473 
Q 1284 391 1588 391 
Q 1994 391 2212 530 
Q 2431 669 2431 922 
Q 2431 1156 2273 1281 
Q 2116 1406 1581 1522 
L 1381 1569 
Q 847 1681 609 1914 
Q 372 2147 372 2553 
Q 372 3047 722 3315 
Q 1072 3584 1716 3584 
Q 2034 3584 2315 3537 
Q 2597 3491 2834 3397 
z
" transform="scale(0.015625)"/>
      <path id="DejaVuSans-51" d="M 2522 4238 
Q 1834 4238 1429 3725 
Q 1025 3213 1025 2328 
Q 1025 1447 1429 934 
Q 1834 422 2522 422 
Q 3209 422 3611 934 
Q 4013 1447 4013 2328 
Q 4013 3213 3611 3725 
Q 3209 4238 2522 4238 
z
M 3406 84 
L 4238 -825 
L 3475 -825 
L 2784 -78 
Q 2681 -84 2626 -87 
Q 2572 -91 2522 -91 
Q 1538 -91 948 567 
Q 359 1225 359 2328 
Q 359 3434 948 4092 
Q 1538 4750 2522 4750 
Q 3503 4750 4090 4092 
Q 4678 3434 4678 2328 
Q 4678 1516 4351 937 
Q 4025 359 3406 84 
z
" transform="scale(0.015625)"/>
      <path id="DejaVuSans-3a" d="M 750 794 
L 1409 794 
L 1409 0 
L 750 0 
L 750 794 
z
M 750 3309 
L 1409 3309 
L 1409 2516 
L 750 2516 
L 750 3309 
z
" transform="scale(0.015625)"/>
      <path id="DejaVuSans-50" d="M 1259 4147 
L 1259 2394 
L 2053 2394 
Q 2494 2394 2734 2622 
Q 2975 2850 2975 3272 
Q 2975 3691 2734 3919 
Q 2494 4147 2053 4147 
L 1259 4147 
z
M 628 4666 
L 2053 4666 
Q 2838 4666 3239 4311 
Q 3641 3956 3641 3272 
Q 3641 2581 3239 2228 
Q 2838 1875 2053 1875 
L 1259 1875 
L 1259 0 
L 628 0 
L 628 4666 
z
" transform="scale(0.015625)"/>
      <path id="DejaVuSans-65" d="M 3597 1894 
L 3597 1613 
L 953 1613 
Q 991 1019 1311 708 
Q 1631 397 2203 397 
Q 2534 397 2845 478 
Q 3156 559 3463 722 
L 3463 178 
Q 3153 47 2828 -22 
Q 2503 -91 2169 -91 
Q 1331 -91 842 396 
Q 353 884 353 1716 
Q 353 2575 817 3079 
Q 1281 3584 2069 3584 
Q 2775 3584 3186 3129 
Q 3597 2675 3597 1894 
z
M 3022 2063 
Q 3016 2534 2758 2815 
Q 2500 3097 2075 3097 
Q 1594 3097 1305 2825 
Q 1016 2553 972 2059 
L 3022 2063 
z
" transform="scale(0.015625)"/>
      <path id="DejaVuSans-72" d="M 2631 2963 
Q 2534 3019 2420 3045 
Q 2306 3072 2169 3072 
Q 1681 3072 1420 2755 
Q 1159 2438 1159 1844 
L 1159 0 
L 581 0 
L 581 3500 
L 1159 3500 
L 1159 2956 
Q 1341 3275 1631 3429 
Q 1922 3584 2338 3584 
Q 2397 3584 2469 3576 
Q 2541 3569 2628 3553 
L 2631 2963 
z
" transform="scale(0.015625)"/>
      <path id="DejaVuSans-53" d="M 3425 4513 
L 3425 3897 
Q 3066 4069 2747 4153 
Q 2428 4238 2131 4238 
Q 1616 4238 1336 4038 
Q 1056 3838 1056 3469 
Q 1056 3159 1242 3001 
Q 1428 2844 1947 2747 
L 2328 2669 
Q 3034 2534 3370 2195 
Q 3706 1856 3706 1288 
Q 3706 609 3251 259 
Q 2797 -91 1919 -91 
Q 1588 -91 1214 -16 
Q 841 59 441 206 
L 441 856 
Q 825 641 1194 531 
Q 1563 422 1919 422 
Q 2459 422 2753 634 
Q 3047 847 3047 1241 
Q 3047 1584 2836 1778 
Q 2625 1972 2144 2069 
L 1759 2144 
Q 1053 2284 737 2584 
Q 422 2884 422 3419 
Q 422 4038 858 4394 
Q 1294 4750 2059 4750 
Q 2388 4750 2728 4690 
Q 3069 4631 3425 4513 
z
" transform="scale(0.015625)"/>
      <path id="DejaVuSans-71" d="M 947 1747 
Q 947 1113 1208 752 
Q 1469 391 1925 391 
Q 2381 391 2643 752 
Q 2906 1113 2906 1747 
Q 2906 2381 2643 2742 
Q 2381 3103 1925 3103 
Q 1469 3103 1208 2742 
Q 947 2381 947 1747 
z
M 2906 525 
Q 2725 213 2448 61 
Q 2172 -91 1784 -91 
Q 1150 -91 751 415 
Q 353 922 353 1747 
Q 353 2572 751 3078 
Q 1150 3584 1784 3584 
Q 2172 3584 2448 3432 
Q 2725 3281 2906 2969 
L 2906 3500 
L 3481 3500 
L 3481 -1331 
L 2906 -1331 
L 2906 525 
z
" transform="scale(0.015625)"/>
      <path id="DejaVuSans-63" d="M 3122 3366 
L 3122 2828 
Q 2878 2963 2633 3030 
Q 2388 3097 2138 3097 
Q 1578 3097 1268 2742 
Q 959 2388 959 1747 
Q 959 1106 1268 751 
Q 1578 397 2138 397 
Q 2388 397 2633 464 
Q 2878 531 3122 666 
L 3122 134 
Q 2881 22 2623 -34 
Q 2366 -91 2075 -91 
Q 1284 -91 818 406 
Q 353 903 353 1747 
Q 353 2603 823 3093 
Q 1294 3584 2113 3584 
Q 2378 3584 2631 3529 
Q 2884 3475 3122 3366 
z
" transform="scale(0.015625)"/>
     </defs>
     <use xlink:href="#DejaVuSans-46"/>
     <use xlink:href="#DejaVuSans-61" x="48.394531"/>
     <use xlink:href="#DejaVuSans-73" x="109.673828"/>
     <use xlink:href="#DejaVuSans-74" x="161.773438"/>
     <use xlink:href="#DejaVuSans-51" x="200.982422"/>
     <use xlink:href="#DejaVuSans-43" x="279.693359"/>
     <use xlink:href="#DejaVuSans-3a" x="349.517578"/>
     <use xlink:href="#DejaVuSans-20" x="383.208984"/>
     <use xlink:href="#DejaVuSans-50" x="414.996094"/>
     <use xlink:href="#DejaVuSans-65" x="471.673828"/>
     <use xlink:href="#DejaVuSans-72" x="533.197266"/>
     <use xlink:href="#DejaVuSans-20" x="574.310547"/>
     <use xlink:href="#DejaVuSans-53" x="606.097656"/>
     <use xlink:href="#DejaVuSans-65" x="669.574219"/>
     <use xlink:href="#DejaVuSans-71" x="731.097656"/>
     <use xlink:href="#DejaVuSans-75" x="794.574219"/>
     <use xlink:href="#DejaVuSans-65" x="857.953125"/>
     <use xlink:href="#DejaVuSans-6e" x="919.476562"/>
     <use xlink:href="#DejaVuSans-63" x="982.855469"/>
     <use xlink:href="#DejaVuSans-65" x="1037.835938"/>
     <use xlink:href="#DejaVuSans-20" x="1099.359375"/>
     <use xlink:href="#DejaVuSans-47" x="1131.146484"/>
     <use xlink:href="#DejaVuSans-43" x="1208.636719"/>
     <use xlink:href="#DejaVuSans-20" x="1278.460938"/>
     <use xlink:href="#DejaVuSans-43" x="1310.248047"/>
     <use xlink:href="#DejaVuSans-6f" x="1380.072266"/>
     <use xlink:href="#DejaVuSans-6e" x="1441.253906"/>
     <use xlink:href="#DejaVuSans-74" x="1504.632812"/>
     <use xlink:href="#DejaVuSans-65" x="1543.841797"/>
     <use xlink:href="#DejaVuSans-6e" x="1605.365234"/>
     <use xlink:href="#DejaVuSans-74" x="1668.744141"/>
    </g>
   </g>
   <g id="legend_1">
    <g id="line2d_18">
     <path d="M 55.438125 303.490394 
L 63.438125 303.490394 
L 71.438125 303.490394 
" style="fill: none; stroke: #f0ad4e; stroke-linecap: square"/>
    </g>
    <g id="text_18">
     <!-- RAP1_IAA_30M_REP1_1 -->
     <g transform="translate(77.838125 306.290394)scale(0.08 -0.08)">
      <defs>
       <path id="DejaVuSans-52" d="M 2841 2188 
Q 3044 2119 3236 1894 
Q 3428 1669 3622 1275 
L 4263 0 
L 3584 0 
L 2988 1197 
Q 2756 1666 2539 1819 
Q 2322 1972 1947 1972 
L 1259 1972 
L 1259 0 
L 628 0 
L 628 4666 
L 2053 4666 
Q 2853 4666 3247 4331 
Q 3641 3997 3641 3322 
Q 3641 2881 3436 2590 
Q 3231 2300 2841 2188 
z
M 1259 4147 
L 1259 2491 
L 2053 2491 
Q 2509 2491 2742 2702 
Q 2975 2913 2975 3322 
Q 2975 3731 2742 3939 
Q 2509 4147 2053 4147 
L 1259 4147 
z
" transform="scale(0.015625)"/>
       <path id="DejaVuSans-41" d="M 2188 4044 
L 1331 1722 
L 3047 1722 
L 2188 4044 
z
M 1831 4666 
L 2547 4666 
L 4325 0 
L 3669 0 
L 3244 1197 
L 1141 1197 
L 716 0 
L 50 0 
L 1831 4666 
z
" transform="scale(0.015625)"/>
       <path id="DejaVuSans-5f" d="M 3263 -1063 
L 3263 -1509 
L -63 -1509 
L -63 -1063 
L 3263 -1063 
z
" transform="scale(0.015625)"/>
       <path id="DejaVuSans-49" d="M 628 4666 
L 1259 4666 
L 1259 0 
L 628 0 
L 628 4666 
z
" transform="scale(0.015625)"/>
       <path id="DejaVuSans-4d" d="M 628 4666 
L 1569 4666 
L 2759 1491 
L 3956 4666 
L 4897 4666 
L 4897 0 
L 4281 0 
L 4281 4097 
L 3078 897 
L 2444 897 
L 1241 4097 
L 1241 0 
L 628 0 
L 628 4666 
z
" transform="scale(0.015625)"/>
       <path id="DejaVuSans-45" d="M 628 4666 
L 3578 4666 
L 3578 4134 
L 1259 4134 
L 1259 2753 
L 3481 2753 
L 3481 2222 
L 1259 2222 
L 1259 531 
L 3634 531 
L 3634 0 
L 628 0 
L 628 4666 
z
" transform="scale(0.015625)"/>
      </defs>
      <use xlink:href="#DejaVuSans-52"/>
      <use xlink:href="#DejaVuSans-41" x="65.482422"/>
      <use xlink:href="#DejaVuSans-50" x="133.890625"/>
      <use xlink:href="#DejaVuSans-31" x="194.193359"/>
      <use xlink:href="#DejaVuSans-5f" x="257.816406"/>
      <use xlink:href="#DejaVuSans-49" x="307.816406"/>
      <use xlink:href="#DejaVuSans-41" x="337.308594"/>
      <use xlink:href="#DejaVuSans-41" x="408.466797"/>
      <use xlink:href="#DejaVuSans-5f" x="476.875"/>
      <use xlink:href="#DejaVuSans-33" x="526.875"/>
      <use xlink:href="#DejaVuSans-30" x="590.498047"/>
      <use xlink:href="#DejaVuSans-4d" x="654.121094"/>
      <use xlink:href="#DejaVuSans-5f" x="740.400391"/>
      <use xlink:href="#DejaVuSans-52" x="790.400391"/>
      <use xlink:href="#DejaVuSans-45" x="859.882812"/>
      <use xlink:href="#DejaVuSans-50" x="923.066406"/>
      <use xlink:href="#DejaVuSans-31" x="983.369141"/>
      <use xlink:href="#DejaVuSans-5f" x="1046.992188"/>
      <use xlink:href="#DejaVuSans-31" x="1096.992188"/>
     </g>
    </g>
    <g id="line2d_19">
     <path d="M 55.438125 315.455394 
L 63.438125 315.455394 
L 71.438125 315.455394 
" style="fill: none; stroke: #f0ad4e; stroke-linecap: square"/>
    </g>
    <g id="text_19">
     <!-- RAP1_IAA_30M_REP1_2 -->
     <g transform="translate(77.838125 318.255394)scale(0.08 -0.08)">
      <use xlink:href="#DejaVuSans-52"/>
      <use xlink:href="#DejaVuSans-41" x="65.482422"/>
      <use xlink:href="#DejaVuSans-50" x="133.890625"/>
      <use xlink:href="#DejaVuSans-31" x="194.193359"/>
      <use xlink:href="#DejaVuSans-5f" x="257.816406"/>
      <use xlink:href="#DejaVuSans-49" x="307.816406"/>
      <use xlink:href="#DejaVuSans-41" x="337.308594"/>
      <use xlink:href="#DejaVuSans-41" x="408.466797"/>
      <use xlink:href="#DejaVuSans-5f" x="476.875"/>
      <use xlink:href="#DejaVuSans-33" x="526.875"/>
      <use xlink:href="#DejaVuSans-30" x="590.498047"/>
      <use xlink:href="#DejaVuSans-4d" x="654.121094"/>
      <use xlink:href="#DejaVuSans-5f" x="740.400391"/>
      <use xlink:href="#DejaVuSans-52" x="790.400391"/>
      <use xlink:href="#DejaVuSans-45" x="859.882812"/>
      <use xlink:href="#DejaVuSans-50" x="923.066406"/>
      <use xlink:href="#DejaVuSans-31" x="983.369141"/>
      <use xlink:href="#DejaVuSans-5f" x="1046.992188"/>
      <use xlink:href="#DejaVuSans-32" x="1096.992188"/>
     </g>
    </g>
    <g id="line2d_20">
     <path d="M 290.803125 303.490394 
L 298.803125 303.490394 
L 306.803125 303.490394 
" style="fill: none; stroke: #f0ad4e; stroke-linecap: square"/>
    </g>
    <g id="text_20">
     <!-- RAP1_UNINDUCED_REP1 -->
     <g transform="translate(313.203125 306.290394)scale(0.08 -0.08)">
      <defs>
       <path id="DejaVuSans-55" d="M 556 4666 
L 1191 4666 
L 1191 1831 
Q 1191 1081 1462 751 
Q 1734 422 2344 422 
Q 2950 422 3222 751 
Q 3494 1081 3494 1831 
L 3494 4666 
L 4128 4666 
L 4128 1753 
Q 4128 841 3676 375 
Q 3225 -91 2344 -91 
Q 1459 -91 1007 375 
Q 556 841 556 1753 
L 556 4666 
z
" transform="scale(0.015625)"/>
       <path id="DejaVuSans-4e" d="M 628 4666 
L 1478 4666 
L 3547 763 
L 3547 4666 
L 4159 4666 
L 4159 0 
L 3309 0 
L 1241 3903 
L 1241 0 
L 628 0 
L 628 4666 
z
" transform="scale(0.015625)"/>
       <path id="DejaVuSans-44" d="M 1259 4147 
L 1259 519 
L 2022 519 
Q 2988 519 3436 956 
Q 3884 1394 3884 2338 
Q 3884 3275 3436 3711 
Q 2988 4147 2022 4147 
L 1259 4147 
z
M 628 4666 
L 1925 4666 
Q 3281 4666 3915 4102 
Q 4550 3538 4550 2338 
Q 4550 1131 3912 565 
Q 3275 0 1925 0 
L 628 0 
L 628 4666 
z
" transform="scale(0.015625)"/>
      </defs>
      <use xlink:href="#DejaVuSans-52"/>
      <use xlink:href="#DejaVuSans-41" x="65.482422"/>
      <use xlink:href="#DejaVuSans-50" x="133.890625"/>
      <use xlink:href="#DejaVuSans-31" x="194.193359"/>
      <use xlink:href="#DejaVuSans-5f" x="257.816406"/>
      <use xlink:href="#DejaVuSans-55" x="307.816406"/>
      <use xlink:href="#DejaVuSans-4e" x="381.009766"/>
      <use xlink:href="#DejaVuSans-49" x="455.814453"/>
      <use xlink:href="#DejaVuSans-4e" x="485.306641"/>
      <use xlink:href="#DejaVuSans-44" x="560.111328"/>
      <use xlink:href="#DejaVuSans-55" x="637.113281"/>
      <use xlink:href="#DejaVuSans-43" x="710.306641"/>
      <use xlink:href="#DejaVuSans-45" x="780.130859"/>
      <use xlink:href="#DejaVuSans-44" x="843.314453"/>
      <use xlink:href="#DejaVuSans-5f" x="920.316406"/>
      <use xlink:href="#DejaVuSans-52" x="970.316406"/>
      <use xlink:href="#DejaVuSans-45" x="1039.798828"/>
      <use xlink:href="#DejaVuSans-50" x="1102.982422"/>
      <use xlink:href="#DejaVuSans-31" x="1163.285156"/>
     </g>
    </g>
    <g id="line2d_21">
     <path d="M 290.803125 315.455394 
L 298.803125 315.455394 
L 306.803125 315.455394 
" style="fill: none; stroke: #f0ad4e; stroke-linecap: square"/>
    </g>
    <g id="text_21">
     <!-- RAP1_UNINDUCED_REP2 -->
     <g transform="translate(313.203125 318.255394)scale(0.08 -0.08)">
      <use xlink:href="#DejaVuSans-52"/>
      <use xlink:href="#DejaVuSans-41" x="65.482422"/>
      <use xlink:href="#DejaVuSans-50" x="133.890625"/>
      <use xlink:href="#DejaVuSans-31" x="194.193359"/>
      <use xlink:href="#DejaVuSans-5f" x="257.816406"/>
      <use xlink:href="#DejaVuSans-55" x="307.816406"/>
      <use xlink:href="#DejaVuSans-4e" x="381.009766"/>
      <use xlink:href="#DejaVuSans-49" x="455.814453"/>
      <use xlink:href="#DejaVuSans-4e" x="485.306641"/>
      <use xlink:href="#DejaVuSans-44" x="560.111328"/>
      <use xlink:href="#DejaVuSans-55" x="637.113281"/>
      <use xlink:href="#DejaVuSans-43" x="710.306641"/>
      <use xlink:href="#DejaVuSans-45" x="780.130859"/>
      <use xlink:href="#DejaVuSans-44" x="843.314453"/>
      <use xlink:href="#DejaVuSans-5f" x="920.316406"/>
      <use xlink:href="#DejaVuSans-52" x="970.316406"/>
      <use xlink:href="#DejaVuSans-45" x="1039.798828"/>
      <use xlink:href="#DejaVuSans-50" x="1102.982422"/>
      <use xlink:href="#DejaVuSans-32" x="1163.285156"/>
     </g>
    </g>
    <g id="line2d_22">
     <path d="M 531.471875 303.490394 
L 539.471875 303.490394 
L 547.471875 303.490394 
" style="fill: none; stroke: #f0ad4e; stroke-linecap: square"/>
    </g>
    <g id="text_22">
     <!-- WT_REP1_1 -->
     <g transform="translate(553.871875 306.290394)scale(0.08 -0.08)">
      <defs>
       <path id="DejaVuSans-57" d="M 213 4666 
L 850 4666 
L 1831 722 
L 2809 4666 
L 3519 4666 
L 4500 722 
L 5478 4666 
L 6119 4666 
L 4947 0 
L 4153 0 
L 3169 4050 
L 2175 0 
L 1381 0 
L 213 4666 
z
" transform="scale(0.015625)"/>
       <path id="DejaVuSans-54" d="M -19 4666 
L 3928 4666 
L 3928 4134 
L 2272 4134 
L 2272 0 
L 1638 0 
L 1638 4134 
L -19 4134 
L -19 4666 
z
" transform="scale(0.015625)"/>
      </defs>
      <use xlink:href="#DejaVuSans-57"/>
      <use xlink:href="#DejaVuSans-54" x="98.876953"/>
      <use xlink:href="#DejaVuSans-5f" x="159.960938"/>
      <use xlink:href="#DejaVuSans-52" x="209.960938"/>
      <use xlink:href="#DejaVuSans-45" x="279.443359"/>
      <use xlink:href="#DejaVuSans-50" x="342.626953"/>
      <use xlink:href="#DejaVuSans-31" x="402.929688"/>
      <use xlink:href="#DejaVuSans-5f" x="466.552734"/>
      <use xlink:href="#DejaVuSans-31" x="516.552734"/>
     </g>
    </g>
    <g id="line2d_23">
     <path d="M 531.471875 315.455394 
L 539.471875 315.455394 
L 547.471875 315.455394 
" style="fill: none; stroke: #5cb85c; stroke-linecap: square"/>
    </g>
    <g id="text_23">
     <!-- WT_REP1_2 -->
     <g transform="translate(553.871875 318.255394)scale(0.08 -0.08)">
      <use xlink:href="#DejaVuSans-57"/>
      <use xlink:href="#DejaVuSans-54" x="98.876953"/>
      <use xlink:href="#DejaVuSans-5f" x="159.960938"/>
      <use xlink:href="#DejaVuSans-52" x="209.960938"/>
      <use xlink:href="#DejaVuSans-45" x="279.443359"/>
      <use xlink:href="#DejaVuSans-50" x="342.626953"/>
      <use xlink:href="#DejaVuSans-31" x="402.929688"/>
      <use xlink:href="#DejaVuSans-5f" x="466.552734"/>
      <use xlink:href="#DejaVuSans-32" x="516.552734"/>
     </g>
    </g>
    <g id="line2d_24">
     <path d="M 720.400625 303.490394 
L 728.400625 303.490394 
L 736.400625 303.490394 
" style="fill: none; stroke: #f0ad4e; stroke-linecap: square"/>
    </g>
    <g id="text_24">
     <!-- WT_REP2_1 -->
     <g transform="translate(742.800625 306.290394)scale(0.08 -0.08)">
      <use xlink:href="#DejaVuSans-57"/>
      <use xlink:href="#DejaVuSans-54" x="98.876953"/>
      <use xlink:href="#DejaVuSans-5f" x="159.960938"/>
      <use xlink:href="#DejaVuSans-52" x="209.960938"/>
      <use xlink:href="#DejaVuSans-45" x="279.443359"/>
      <use xlink:href="#DejaVuSans-50" x="342.626953"/>
      <use xlink:href="#DejaVuSans-32" x="402.929688"/>
      <use xlink:href="#DejaVuSans-5f" x="466.552734"/>
      <use xlink:href="#DejaVuSans-31" x="516.552734"/>
     </g>
    </g>
    <g id="line2d_25">
     <path d="M 909.329375 303.490394 
L 917.329375 303.490394 
L 925.329375 303.490394 
" style="fill: none; stroke: #f0ad4e; stroke-linecap: square"/>
    </g>
    <g id="text_25">
     <!-- WT_REP2_2 -->
     <g transform="translate(931.729375 306.290394)scale(0.08 -0.08)">
      <use xlink:href="#DejaVuSans-57"/>
      <use xlink:href="#DejaVuSans-54" x="98.876953"/>
      <use xlink:href="#DejaVuSans-5f" x="159.960938"/>
      <use xlink:href="#DejaVuSans-52" x="209.960938"/>
      <use xlink:href="#DejaVuSans-45" x="279.443359"/>
      <use xlink:href="#DejaVuSans-50" x="342.626953"/>
      <use xlink:href="#DejaVuSans-32" x="402.929688"/>
      <use xlink:href="#DejaVuSans-5f" x="466.552734"/>
      <use xlink:href="#DejaVuSans-32" x="516.552734"/>
     </g>
    </g>
   </g>
  </g>
 </g>
 <defs>
  <clipPath id="pc7e82453e5">
   <rect x="48.238125" y="31.48286" width="937.105" height="242.5072"/>
  </clipPath>
 </defs>
</svg>
