<?xml version="1.0" encoding="utf-8" standalone="no"?>
<!DOCTYPE svg PUBLIC "-//W3C//DTD SVG 1.1//EN"
  "http://www.w3.org/Graphics/SVG/1.1/DTD/svg11.dtd">
<svg xmlns:xlink="http://www.w3.org/1999/xlink" width="912.189375pt" height="426.2pt" viewBox="0 0 912.189375 426.2" xmlns="http://www.w3.org/2000/svg" version="1.1">
 <metadata>
  <rdf:RDF xmlns:dc="http://purl.org/dc/elements/1.1/" xmlns:cc="http://creativecommons.org/ns#" xmlns:rdf="http://www.w3.org/1999/02/22-rdf-syntax-ns#">
   <cc:Work>
    <dc:type rdf:resource="http://purl.org/dc/dcmitype/StillImage"/>
    <dc:date>2023-03-08T12:55:24.821974</dc:date>
    <dc:format>image/svg+xml</dc:format>
    <dc:creator>
     <cc:Agent>
      <dc:title>Matplotlib v3.5.3, https://matplotlib.org/</dc:title>
     </cc:Agent>
    </dc:creator>
   </cc:Work>
  </rdf:RDF>
 </metadata>
 <defs>
  <style type="text/css">*{stroke-linejoin: round; stroke-linecap: butt}</style>
 </defs>
 <g id="figure_1">
  <g id="axes_1">
   <g id="patch_1">
    <path d="M 112.35375 339.84 
L 893.55375 339.84 
L 893.55375 7.2 
L 112.35375 7.2 
z
" style="fill: #ffffff"/>
   </g>
   <g id="matplotlib.axis_1">
    <g id="xtick_1">
     <g id="line2d_1">
      <path d="M 112.35375 339.84 
L 112.35375 7.2 
" clip-path="url(#p082c7e7f21)" style="fill: none; stroke: #dedede; stroke-linecap: square"/>
     </g>
     <g id="text_1">
      <!-- 0% -->
      <g transform="translate(106.008125 352.91875)scale(0.08 -0.08)">
       <defs>
        <path id="DejaVuSans-30" d="M 2034 4250 
Q 1547 4250 1301 3770 
Q 1056 3291 1056 2328 
Q 1056 1369 1301 889 
Q 1547 409 2034 409 
Q 2525 409 2770 889 
Q 3016 1369 3016 2328 
Q 3016 3291 2770 3770 
Q 2525 4250 2034 4250 
z
M 2034 4750 
Q 2819 4750 3233 4129 
Q 3647 3509 3647 2328 
Q 3647 1150 3233 529 
Q 2819 -91 2034 -91 
Q 1250 -91 836 529 
Q 422 1150 422 2328 
Q 422 3509 836 4129 
Q 1250 4750 2034 4750 
z
" transform="scale(0.015625)"/>
        <path id="DejaVuSans-25" d="M 4653 2053 
Q 4381 2053 4226 1822 
Q 4072 1591 4072 1178 
Q 4072 772 4226 539 
Q 4381 306 4653 306 
Q 4919 306 5073 539 
Q 5228 772 5228 1178 
Q 5228 1588 5073 1820 
Q 4919 2053 4653 2053 
z
M 4653 2450 
Q 5147 2450 5437 2106 
Q 5728 1763 5728 1178 
Q 5728 594 5436 251 
Q 5144 -91 4653 -91 
Q 4153 -91 3862 251 
Q 3572 594 3572 1178 
Q 3572 1766 3864 2108 
Q 4156 2450 4653 2450 
z
M 1428 4353 
Q 1159 4353 1004 4120 
Q 850 3888 850 3481 
Q 850 3069 1003 2837 
Q 1156 2606 1428 2606 
Q 1700 2606 1854 2837 
Q 2009 3069 2009 3481 
Q 2009 3884 1853 4118 
Q 1697 4353 1428 4353 
z
M 4250 4750 
L 4750 4750 
L 1831 -91 
L 1331 -91 
L 4250 4750 
z
M 1428 4750 
Q 1922 4750 2215 4408 
Q 2509 4066 2509 3481 
Q 2509 2891 2217 2550 
Q 1925 2209 1428 2209 
Q 931 2209 642 2551 
Q 353 2894 353 3481 
Q 353 4063 643 4406 
Q 934 4750 1428 4750 
z
" transform="scale(0.015625)"/>
       </defs>
       <use xlink:href="#DejaVuSans-30"/>
       <use xlink:href="#DejaVuSans-25" x="63.623047"/>
      </g>
     </g>
    </g>
    <g id="xtick_2">
     <g id="line2d_2">
      <path d="M 268.59375 339.84 
L 268.59375 7.2 
" clip-path="url(#p082c7e7f21)" style="fill: none; stroke: #dedede; stroke-linecap: square"/>
     </g>
     <g id="text_2">
      <!-- 20% -->
      <g transform="translate(259.703125 352.91875)scale(0.08 -0.08)">
       <defs>
        <path id="DejaVuSans-32" d="M 1228 531 
L 3431 531 
L 3431 0 
L 469 0 
L 469 531 
Q 828 903 1448 1529 
Q 2069 2156 2228 2338 
Q 2531 2678 2651 2914 
Q 2772 3150 2772 3378 
Q 2772 3750 2511 3984 
Q 2250 4219 1831 4219 
Q 1534 4219 1204 4116 
Q 875 4013 500 3803 
L 500 4441 
Q 881 4594 1212 4672 
Q 1544 4750 1819 4750 
Q 2544 4750 2975 4387 
Q 3406 4025 3406 3419 
Q 3406 3131 3298 2873 
Q 3191 2616 2906 2266 
Q 2828 2175 2409 1742 
Q 1991 1309 1228 531 
z
" transform="scale(0.015625)"/>
       </defs>
       <use xlink:href="#DejaVuSans-32"/>
       <use xlink:href="#DejaVuSans-30" x="63.623047"/>
       <use xlink:href="#DejaVuSans-25" x="127.246094"/>
      </g>
     </g>
    </g>
    <g id="xtick_3">
     <g id="line2d_3">
      <path d="M 424.83375 339.84 
L 424.83375 7.2 
" clip-path="url(#p082c7e7f21)" style="fill: none; stroke: #dedede; stroke-linecap: square"/>
     </g>
     <g id="text_3">
      <!-- 40% -->
      <g transform="translate(415.943125 352.91875)scale(0.08 -0.08)">
       <defs>
        <path id="DejaVuSans-34" d="M 2419 4116 
L 825 1625 
L 2419 1625 
L 2419 4116 
z
M 2253 4666 
L 3047 4666 
L 3047 1625 
L 3713 1625 
L 3713 1100 
L 3047 1100 
L 3047 0 
L 2419 0 
L 2419 1100 
L 313 1100 
L 313 1709 
L 2253 4666 
z
" transform="scale(0.015625)"/>
       </defs>
       <use xlink:href="#DejaVuSans-34"/>
       <use xlink:href="#DejaVuSans-30" x="63.623047"/>
       <use xlink:href="#DejaVuSans-25" x="127.246094"/>
      </g>
     </g>
    </g>
    <g id="xtick_4">
     <g id="line2d_4">
      <path d="M 581.07375 339.84 
L 581.07375 7.2 
" clip-path="url(#p082c7e7f21)" style="fill: none; stroke: #dedede; stroke-linecap: square"/>
     </g>
     <g id="text_4">
      <!-- 60% -->
      <g transform="translate(572.183125 352.91875)scale(0.08 -0.08)">
       <defs>
        <path id="DejaVuSans-36" d="M 2113 2584 
Q 1688 2584 1439 2293 
Q 1191 2003 1191 1497 
Q 1191 994 1439 701 
Q 1688 409 2113 409 
Q 2538 409 2786 701 
Q 3034 994 3034 1497 
Q 3034 2003 2786 2293 
Q 2538 2584 2113 2584 
z
M 3366 4563 
L 3366 3988 
Q 3128 4100 2886 4159 
Q 2644 4219 2406 4219 
Q 1781 4219 1451 3797 
Q 1122 3375 1075 2522 
Q 1259 2794 1537 2939 
Q 1816 3084 2150 3084 
Q 2853 3084 3261 2657 
Q 3669 2231 3669 1497 
Q 3669 778 3244 343 
Q 2819 -91 2113 -91 
Q 1303 -91 875 529 
Q 447 1150 447 2328 
Q 447 3434 972 4092 
Q 1497 4750 2381 4750 
Q 2619 4750 2861 4703 
Q 3103 4656 3366 4563 
z
" transform="scale(0.015625)"/>
       </defs>
       <use xlink:href="#DejaVuSans-36"/>
       <use xlink:href="#DejaVuSans-30" x="63.623047"/>
       <use xlink:href="#DejaVuSans-25" x="127.246094"/>
      </g>
     </g>
    </g>
    <g id="xtick_5">
     <g id="line2d_5">
      <path d="M 737.31375 339.84 
L 737.31375 7.2 
" clip-path="url(#p082c7e7f21)" style="fill: none; stroke: #dedede; stroke-linecap: square"/>
     </g>
     <g id="text_5">
      <!-- 80% -->
      <g transform="translate(728.423125 352.91875)scale(0.08 -0.08)">
       <defs>
        <path id="DejaVuSans-38" d="M 2034 2216 
Q 1584 2216 1326 1975 
Q 1069 1734 1069 1313 
Q 1069 891 1326 650 
Q 1584 409 2034 409 
Q 2484 409 2743 651 
Q 3003 894 3003 1313 
Q 3003 1734 2745 1975 
Q 2488 2216 2034 2216 
z
M 1403 2484 
Q 997 2584 770 2862 
Q 544 3141 544 3541 
Q 544 4100 942 4425 
Q 1341 4750 2034 4750 
Q 2731 4750 3128 4425 
Q 3525 4100 3525 3541 
Q 3525 3141 3298 2862 
Q 3072 2584 2669 2484 
Q 3125 2378 3379 2068 
Q 3634 1759 3634 1313 
Q 3634 634 3220 271 
Q 2806 -91 2034 -91 
Q 1263 -91 848 271 
Q 434 634 434 1313 
Q 434 1759 690 2068 
Q 947 2378 1403 2484 
z
M 1172 3481 
Q 1172 3119 1398 2916 
Q 1625 2713 2034 2713 
Q 2441 2713 2670 2916 
Q 2900 3119 2900 3481 
Q 2900 3844 2670 4047 
Q 2441 4250 2034 4250 
Q 1625 4250 1398 4047 
Q 1172 3844 1172 3481 
z
" transform="scale(0.015625)"/>
       </defs>
       <use xlink:href="#DejaVuSans-38"/>
       <use xlink:href="#DejaVuSans-30" x="63.623047"/>
       <use xlink:href="#DejaVuSans-25" x="127.246094"/>
      </g>
     </g>
    </g>
    <g id="xtick_6">
     <g id="line2d_6">
      <path d="M 893.55375 339.84 
L 893.55375 7.2 
" clip-path="url(#p082c7e7f21)" style="fill: none; stroke: #dedede; stroke-linecap: square"/>
     </g>
     <g id="text_6">
      <!-- 100% -->
      <g transform="translate(882.118125 352.91875)scale(0.08 -0.08)">
       <defs>
        <path id="DejaVuSans-31" d="M 794 531 
L 1825 531 
L 1825 4091 
L 703 3866 
L 703 4441 
L 1819 4666 
L 2450 4666 
L 2450 531 
L 3481 531 
L 3481 0 
L 794 0 
L 794 531 
z
" transform="scale(0.015625)"/>
       </defs>
       <use xlink:href="#DejaVuSans-31"/>
       <use xlink:href="#DejaVuSans-30" x="63.623047"/>
       <use xlink:href="#DejaVuSans-30" x="127.246094"/>
       <use xlink:href="#DejaVuSans-25" x="190.869141"/>
      </g>
     </g>
    </g>
    <g id="text_7">
     <!-- Number of reads -->
     <g transform="translate(461.007656 366.180937)scale(0.1 -0.1)">
      <defs>
       <path id="DejaVuSans-4e" d="M 628 4666 
L 1478 4666 
L 3547 763 
L 3547 4666 
L 4159 4666 
L 4159 0 
L 3309 0 
L 1241 3903 
L 1241 0 
L 628 0 
L 628 4666 
z
" transform="scale(0.015625)"/>
       <path id="DejaVuSans-75" d="M 544 1381 
L 544 3500 
L 1119 3500 
L 1119 1403 
Q 1119 906 1312 657 
Q 1506 409 1894 409 
Q 2359 409 2629 706 
Q 2900 1003 2900 1516 
L 2900 3500 
L 3475 3500 
L 3475 0 
L 2900 0 
L 2900 538 
Q 2691 219 2414 64 
Q 2138 -91 1772 -91 
Q 1169 -91 856 284 
Q 544 659 544 1381 
z
M 1991 3584 
L 1991 3584 
z
" transform="scale(0.015625)"/>
       <path id="DejaVuSans-6d" d="M 3328 2828 
Q 3544 3216 3844 3400 
Q 4144 3584 4550 3584 
Q 5097 3584 5394 3201 
Q 5691 2819 5691 2113 
L 5691 0 
L 5113 0 
L 5113 2094 
Q 5113 2597 4934 2840 
Q 4756 3084 4391 3084 
Q 3944 3084 3684 2787 
Q 3425 2491 3425 1978 
L 3425 0 
L 2847 0 
L 2847 2094 
Q 2847 2600 2669 2842 
Q 2491 3084 2119 3084 
Q 1678 3084 1418 2786 
Q 1159 2488 1159 1978 
L 1159 0 
L 581 0 
L 581 3500 
L 1159 3500 
L 1159 2956 
Q 1356 3278 1631 3431 
Q 1906 3584 2284 3584 
Q 2666 3584 2933 3390 
Q 3200 3197 3328 2828 
z
" transform="scale(0.015625)"/>
       <path id="DejaVuSans-62" d="M 3116 1747 
Q 3116 2381 2855 2742 
Q 2594 3103 2138 3103 
Q 1681 3103 1420 2742 
Q 1159 2381 1159 1747 
Q 1159 1113 1420 752 
Q 1681 391 2138 391 
Q 2594 391 2855 752 
Q 3116 1113 3116 1747 
z
M 1159 2969 
Q 1341 3281 1617 3432 
Q 1894 3584 2278 3584 
Q 2916 3584 3314 3078 
Q 3713 2572 3713 1747 
Q 3713 922 3314 415 
Q 2916 -91 2278 -91 
Q 1894 -91 1617 61 
Q 1341 213 1159 525 
L 1159 0 
L 581 0 
L 581 4863 
L 1159 4863 
L 1159 2969 
z
" transform="scale(0.015625)"/>
       <path id="DejaVuSans-65" d="M 3597 1894 
L 3597 1613 
L 953 1613 
Q 991 1019 1311 708 
Q 1631 397 2203 397 
Q 2534 397 2845 478 
Q 3156 559 3463 722 
L 3463 178 
Q 3153 47 2828 -22 
Q 2503 -91 2169 -91 
Q 1331 -91 842 396 
Q 353 884 353 1716 
Q 353 2575 817 3079 
Q 1281 3584 2069 3584 
Q 2775 3584 3186 3129 
Q 3597 2675 3597 1894 
z
M 3022 2063 
Q 3016 2534 2758 2815 
Q 2500 3097 2075 3097 
Q 1594 3097 1305 2825 
Q 1016 2553 972 2059 
L 3022 2063 
z
" transform="scale(0.015625)"/>
       <path id="DejaVuSans-72" d="M 2631 2963 
Q 2534 3019 2420 3045 
Q 2306 3072 2169 3072 
Q 1681 3072 1420 2755 
Q 1159 2438 1159 1844 
L 1159 0 
L 581 0 
L 581 3500 
L 1159 3500 
L 1159 2956 
Q 1341 3275 1631 3429 
Q 1922 3584 2338 3584 
Q 2397 3584 2469 3576 
Q 2541 3569 2628 3553 
L 2631 2963 
z
" transform="scale(0.015625)"/>
       <path id="DejaVuSans-20" transform="scale(0.015625)"/>
       <path id="DejaVuSans-6f" d="M 1959 3097 
Q 1497 3097 1228 2736 
Q 959 2375 959 1747 
Q 959 1119 1226 758 
Q 1494 397 1959 397 
Q 2419 397 2687 759 
Q 2956 1122 2956 1747 
Q 2956 2369 2687 2733 
Q 2419 3097 1959 3097 
z
M 1959 3584 
Q 2709 3584 3137 3096 
Q 3566 2609 3566 1747 
Q 3566 888 3137 398 
Q 2709 -91 1959 -91 
Q 1206 -91 779 398 
Q 353 888 353 1747 
Q 353 2609 779 3096 
Q 1206 3584 1959 3584 
z
" transform="scale(0.015625)"/>
       <path id="DejaVuSans-66" d="M 2375 4863 
L 2375 4384 
L 1825 4384 
Q 1516 4384 1395 4259 
Q 1275 4134 1275 3809 
L 1275 3500 
L 2222 3500 
L 2222 3053 
L 1275 3053 
L 1275 0 
L 697 0 
L 697 3053 
L 147 3053 
L 147 3500 
L 697 3500 
L 697 3744 
Q 697 4328 969 4595 
Q 1241 4863 1831 4863 
L 2375 4863 
z
" transform="scale(0.015625)"/>
       <path id="DejaVuSans-61" d="M 2194 1759 
Q 1497 1759 1228 1600 
Q 959 1441 959 1056 
Q 959 750 1161 570 
Q 1363 391 1709 391 
Q 2188 391 2477 730 
Q 2766 1069 2766 1631 
L 2766 1759 
L 2194 1759 
z
M 3341 1997 
L 3341 0 
L 2766 0 
L 2766 531 
Q 2569 213 2275 61 
Q 1981 -91 1556 -91 
Q 1019 -91 701 211 
Q 384 513 384 1019 
Q 384 1609 779 1909 
Q 1175 2209 1959 2209 
L 2766 2209 
L 2766 2266 
Q 2766 2663 2505 2880 
Q 2244 3097 1772 3097 
Q 1472 3097 1187 3025 
Q 903 2953 641 2809 
L 641 3341 
Q 956 3463 1253 3523 
Q 1550 3584 1831 3584 
Q 2591 3584 2966 3190 
Q 3341 2797 3341 1997 
z
" transform="scale(0.015625)"/>
       <path id="DejaVuSans-64" d="M 2906 2969 
L 2906 4863 
L 3481 4863 
L 3481 0 
L 2906 0 
L 2906 525 
Q 2725 213 2448 61 
Q 2172 -91 1784 -91 
Q 1150 -91 751 415 
Q 353 922 353 1747 
Q 353 2572 751 3078 
Q 1150 3584 1784 3584 
Q 2172 3584 2448 3432 
Q 2725 3281 2906 2969 
z
M 947 1747 
Q 947 1113 1208 752 
Q 1469 391 1925 391 
Q 2381 391 2643 752 
Q 2906 1113 2906 1747 
Q 2906 2381 2643 2742 
Q 2381 3103 1925 3103 
Q 1469 3103 1208 2742 
Q 947 2381 947 1747 
z
" transform="scale(0.015625)"/>
       <path id="DejaVuSans-73" d="M 2834 3397 
L 2834 2853 
Q 2591 2978 2328 3040 
Q 2066 3103 1784 3103 
Q 1356 3103 1142 2972 
Q 928 2841 928 2578 
Q 928 2378 1081 2264 
Q 1234 2150 1697 2047 
L 1894 2003 
Q 2506 1872 2764 1633 
Q 3022 1394 3022 966 
Q 3022 478 2636 193 
Q 2250 -91 1575 -91 
Q 1294 -91 989 -36 
Q 684 19 347 128 
L 347 722 
Q 666 556 975 473 
Q 1284 391 1588 391 
Q 1994 391 2212 530 
Q 2431 669 2431 922 
Q 2431 1156 2273 1281 
Q 2116 1406 1581 1522 
L 1381 1569 
Q 847 1681 609 1914 
Q 372 2147 372 2553 
Q 372 3047 722 3315 
Q 1072 3584 1716 3584 
Q 2034 3584 2315 3537 
Q 2597 3491 2834 3397 
z
" transform="scale(0.015625)"/>
      </defs>
      <use xlink:href="#DejaVuSans-4e"/>
      <use xlink:href="#DejaVuSans-75" x="74.804688"/>
      <use xlink:href="#DejaVuSans-6d" x="138.183594"/>
      <use xlink:href="#DejaVuSans-62" x="235.595703"/>
      <use xlink:href="#DejaVuSans-65" x="299.072266"/>
      <use xlink:href="#DejaVuSans-72" x="360.595703"/>
      <use xlink:href="#DejaVuSans-20" x="401.708984"/>
      <use xlink:href="#DejaVuSans-6f" x="433.496094"/>
      <use xlink:href="#DejaVuSans-66" x="494.677734"/>
      <use xlink:href="#DejaVuSans-20" x="529.882812"/>
      <use xlink:href="#DejaVuSans-72" x="561.669922"/>
      <use xlink:href="#DejaVuSans-65" x="600.533203"/>
      <use xlink:href="#DejaVuSans-61" x="662.056641"/>
      <use xlink:href="#DejaVuSans-64" x="723.335938"/>
      <use xlink:href="#DejaVuSans-73" x="786.8125"/>
     </g>
    </g>
   </g>
   <g id="matplotlib.axis_2">
    <g id="ytick_1">
     <g id="text_8">
      <!-- RAP1_IAA_30M_REP1_1 -->
      <g transform="translate(12.50375 30.95875)scale(0.08 -0.08)">
       <defs>
        <path id="DejaVuSans-52" d="M 2841 2188 
Q 3044 2119 3236 1894 
Q 3428 1669 3622 1275 
L 4263 0 
L 3584 0 
L 2988 1197 
Q 2756 1666 2539 1819 
Q 2322 1972 1947 1972 
L 1259 1972 
L 1259 0 
L 628 0 
L 628 4666 
L 2053 4666 
Q 2853 4666 3247 4331 
Q 3641 3997 3641 3322 
Q 3641 2881 3436 2590 
Q 3231 2300 2841 2188 
z
M 1259 4147 
L 1259 2491 
L 2053 2491 
Q 2509 2491 2742 2702 
Q 2975 2913 2975 3322 
Q 2975 3731 2742 3939 
Q 2509 4147 2053 4147 
L 1259 4147 
z
" transform="scale(0.015625)"/>
        <path id="DejaVuSans-41" d="M 2188 4044 
L 1331 1722 
L 3047 1722 
L 2188 4044 
z
M 1831 4666 
L 2547 4666 
L 4325 0 
L 3669 0 
L 3244 1197 
L 1141 1197 
L 716 0 
L 50 0 
L 1831 4666 
z
" transform="scale(0.015625)"/>
        <path id="DejaVuSans-50" d="M 1259 4147 
L 1259 2394 
L 2053 2394 
Q 2494 2394 2734 2622 
Q 2975 2850 2975 3272 
Q 2975 3691 2734 3919 
Q 2494 4147 2053 4147 
L 1259 4147 
z
M 628 4666 
L 2053 4666 
Q 2838 4666 3239 4311 
Q 3641 3956 3641 3272 
Q 3641 2581 3239 2228 
Q 2838 1875 2053 1875 
L 1259 1875 
L 1259 0 
L 628 0 
L 628 4666 
z
" transform="scale(0.015625)"/>
        <path id="DejaVuSans-5f" d="M 3263 -1063 
L 3263 -1509 
L -63 -1509 
L -63 -1063 
L 3263 -1063 
z
" transform="scale(0.015625)"/>
        <path id="DejaVuSans-49" d="M 628 4666 
L 1259 4666 
L 1259 0 
L 628 0 
L 628 4666 
z
" transform="scale(0.015625)"/>
        <path id="DejaVuSans-33" d="M 2597 2516 
Q 3050 2419 3304 2112 
Q 3559 1806 3559 1356 
Q 3559 666 3084 287 
Q 2609 -91 1734 -91 
Q 1441 -91 1130 -33 
Q 819 25 488 141 
L 488 750 
Q 750 597 1062 519 
Q 1375 441 1716 441 
Q 2309 441 2620 675 
Q 2931 909 2931 1356 
Q 2931 1769 2642 2001 
Q 2353 2234 1838 2234 
L 1294 2234 
L 1294 2753 
L 1863 2753 
Q 2328 2753 2575 2939 
Q 2822 3125 2822 3475 
Q 2822 3834 2567 4026 
Q 2313 4219 1838 4219 
Q 1578 4219 1281 4162 
Q 984 4106 628 3988 
L 628 4550 
Q 988 4650 1302 4700 
Q 1616 4750 1894 4750 
Q 2613 4750 3031 4423 
Q 3450 4097 3450 3541 
Q 3450 3153 3228 2886 
Q 3006 2619 2597 2516 
z
" transform="scale(0.015625)"/>
        <path id="DejaVuSans-4d" d="M 628 4666 
L 1569 4666 
L 2759 1491 
L 3956 4666 
L 4897 4666 
L 4897 0 
L 4281 0 
L 4281 4097 
L 3078 897 
L 2444 897 
L 1241 4097 
L 1241 0 
L 628 0 
L 628 4666 
z
" transform="scale(0.015625)"/>
        <path id="DejaVuSans-45" d="M 628 4666 
L 3578 4666 
L 3578 4134 
L 1259 4134 
L 1259 2753 
L 3481 2753 
L 3481 2222 
L 1259 2222 
L 1259 531 
L 3634 531 
L 3634 0 
L 628 0 
L 628 4666 
z
" transform="scale(0.015625)"/>
       </defs>
       <use xlink:href="#DejaVuSans-52"/>
       <use xlink:href="#DejaVuSans-41" x="65.482422"/>
       <use xlink:href="#DejaVuSans-50" x="133.890625"/>
       <use xlink:href="#DejaVuSans-31" x="194.193359"/>
       <use xlink:href="#DejaVuSans-5f" x="257.816406"/>
       <use xlink:href="#DejaVuSans-49" x="307.816406"/>
       <use xlink:href="#DejaVuSans-41" x="337.308594"/>
       <use xlink:href="#DejaVuSans-41" x="408.466797"/>
       <use xlink:href="#DejaVuSans-5f" x="476.875"/>
       <use xlink:href="#DejaVuSans-33" x="526.875"/>
       <use xlink:href="#DejaVuSans-30" x="590.498047"/>
       <use xlink:href="#DejaVuSans-4d" x="654.121094"/>
       <use xlink:href="#DejaVuSans-5f" x="740.400391"/>
       <use xlink:href="#DejaVuSans-52" x="790.400391"/>
       <use xlink:href="#DejaVuSans-45" x="859.882812"/>
       <use xlink:href="#DejaVuSans-50" x="923.066406"/>
       <use xlink:href="#DejaVuSans-31" x="983.369141"/>
       <use xlink:href="#DejaVuSans-5f" x="1046.992188"/>
       <use xlink:href="#DejaVuSans-31" x="1096.992188"/>
      </g>
     </g>
    </g>
    <g id="ytick_2">
     <g id="text_9">
      <!-- RAP1_IAA_30M_REP1_2 -->
      <g transform="translate(12.50375 72.53875)scale(0.08 -0.08)">
       <use xlink:href="#DejaVuSans-52"/>
       <use xlink:href="#DejaVuSans-41" x="65.482422"/>
       <use xlink:href="#DejaVuSans-50" x="133.890625"/>
       <use xlink:href="#DejaVuSans-31" x="194.193359"/>
       <use xlink:href="#DejaVuSans-5f" x="257.816406"/>
       <use xlink:href="#DejaVuSans-49" x="307.816406"/>
       <use xlink:href="#DejaVuSans-41" x="337.308594"/>
       <use xlink:href="#DejaVuSans-41" x="408.466797"/>
       <use xlink:href="#DejaVuSans-5f" x="476.875"/>
       <use xlink:href="#DejaVuSans-33" x="526.875"/>
       <use xlink:href="#DejaVuSans-30" x="590.498047"/>
       <use xlink:href="#DejaVuSans-4d" x="654.121094"/>
       <use xlink:href="#DejaVuSans-5f" x="740.400391"/>
       <use xlink:href="#DejaVuSans-52" x="790.400391"/>
       <use xlink:href="#DejaVuSans-45" x="859.882812"/>
       <use xlink:href="#DejaVuSans-50" x="923.066406"/>
       <use xlink:href="#DejaVuSans-31" x="983.369141"/>
       <use xlink:href="#DejaVuSans-5f" x="1046.992188"/>
       <use xlink:href="#DejaVuSans-32" x="1096.992188"/>
      </g>
     </g>
    </g>
    <g id="ytick_3">
     <g id="text_10">
      <!-- RAP1_UNINDUCED_REP1 -->
      <g transform="translate(7.2 114.11875)scale(0.08 -0.08)">
       <defs>
        <path id="DejaVuSans-55" d="M 556 4666 
L 1191 4666 
L 1191 1831 
Q 1191 1081 1462 751 
Q 1734 422 2344 422 
Q 2950 422 3222 751 
Q 3494 1081 3494 1831 
L 3494 4666 
L 4128 4666 
L 4128 1753 
Q 4128 841 3676 375 
Q 3225 -91 2344 -91 
Q 1459 -91 1007 375 
Q 556 841 556 1753 
L 556 4666 
z
" transform="scale(0.015625)"/>
        <path id="DejaVuSans-44" d="M 1259 4147 
L 1259 519 
L 2022 519 
Q 2988 519 3436 956 
Q 3884 1394 3884 2338 
Q 3884 3275 3436 3711 
Q 2988 4147 2022 4147 
L 1259 4147 
z
M 628 4666 
L 1925 4666 
Q 3281 4666 3915 4102 
Q 4550 3538 4550 2338 
Q 4550 1131 3912 565 
Q 3275 0 1925 0 
L 628 0 
L 628 4666 
z
" transform="scale(0.015625)"/>
        <path id="DejaVuSans-43" d="M 4122 4306 
L 4122 3641 
Q 3803 3938 3442 4084 
Q 3081 4231 2675 4231 
Q 1875 4231 1450 3742 
Q 1025 3253 1025 2328 
Q 1025 1406 1450 917 
Q 1875 428 2675 428 
Q 3081 428 3442 575 
Q 3803 722 4122 1019 
L 4122 359 
Q 3791 134 3420 21 
Q 3050 -91 2638 -91 
Q 1578 -91 968 557 
Q 359 1206 359 2328 
Q 359 3453 968 4101 
Q 1578 4750 2638 4750 
Q 3056 4750 3426 4639 
Q 3797 4528 4122 4306 
z
" transform="scale(0.015625)"/>
       </defs>
       <use xlink:href="#DejaVuSans-52"/>
       <use xlink:href="#DejaVuSans-41" x="65.482422"/>
       <use xlink:href="#DejaVuSans-50" x="133.890625"/>
       <use xlink:href="#DejaVuSans-31" x="194.193359"/>
       <use xlink:href="#DejaVuSans-5f" x="257.816406"/>
       <use xlink:href="#DejaVuSans-55" x="307.816406"/>
       <use xlink:href="#DejaVuSans-4e" x="381.009766"/>
       <use xlink:href="#DejaVuSans-49" x="455.814453"/>
       <use xlink:href="#DejaVuSans-4e" x="485.306641"/>
       <use xlink:href="#DejaVuSans-44" x="560.111328"/>
       <use xlink:href="#DejaVuSans-55" x="637.113281"/>
       <use xlink:href="#DejaVuSans-43" x="710.306641"/>
       <use xlink:href="#DejaVuSans-45" x="780.130859"/>
       <use xlink:href="#DejaVuSans-44" x="843.314453"/>
       <use xlink:href="#DejaVuSans-5f" x="920.316406"/>
       <use xlink:href="#DejaVuSans-52" x="970.316406"/>
       <use xlink:href="#DejaVuSans-45" x="1039.798828"/>
       <use xlink:href="#DejaVuSans-50" x="1102.982422"/>
       <use xlink:href="#DejaVuSans-31" x="1163.285156"/>
      </g>
     </g>
    </g>
    <g id="ytick_4">
     <g id="text_11">
      <!-- RAP1_UNINDUCED_REP2 -->
      <g transform="translate(7.2 155.69875)scale(0.08 -0.08)">
       <use xlink:href="#DejaVuSans-52"/>
       <use xlink:href="#DejaVuSans-41" x="65.482422"/>
       <use xlink:href="#DejaVuSans-50" x="133.890625"/>
       <use xlink:href="#DejaVuSans-31" x="194.193359"/>
       <use xlink:href="#DejaVuSans-5f" x="257.816406"/>
       <use xlink:href="#DejaVuSans-55" x="307.816406"/>
       <use xlink:href="#DejaVuSans-4e" x="381.009766"/>
       <use xlink:href="#DejaVuSans-49" x="455.814453"/>
       <use xlink:href="#DejaVuSans-4e" x="485.306641"/>
       <use xlink:href="#DejaVuSans-44" x="560.111328"/>
       <use xlink:href="#DejaVuSans-55" x="637.113281"/>
       <use xlink:href="#DejaVuSans-43" x="710.306641"/>
       <use xlink:href="#DejaVuSans-45" x="780.130859"/>
       <use xlink:href="#DejaVuSans-44" x="843.314453"/>
       <use xlink:href="#DejaVuSans-5f" x="920.316406"/>
       <use xlink:href="#DejaVuSans-52" x="970.316406"/>
       <use xlink:href="#DejaVuSans-45" x="1039.798828"/>
       <use xlink:href="#DejaVuSans-50" x="1102.982422"/>
       <use xlink:href="#DejaVuSans-32" x="1163.285156"/>
      </g>
     </g>
    </g>
    <g id="ytick_5">
     <g id="text_12">
      <!-- WT_REP1_1 -->
      <g transform="translate(58.94 197.238125)scale(0.08 -0.08)">
       <defs>
        <path id="DejaVuSans-57" d="M 213 4666 
L 850 4666 
L 1831 722 
L 2809 4666 
L 3519 4666 
L 4500 722 
L 5478 4666 
L 6119 4666 
L 4947 0 
L 4153 0 
L 3169 4050 
L 2175 0 
L 1381 0 
L 213 4666 
z
" transform="scale(0.015625)"/>
        <path id="DejaVuSans-54" d="M -19 4666 
L 3928 4666 
L 3928 4134 
L 2272 4134 
L 2272 0 
L 1638 0 
L 1638 4134 
L -19 4134 
L -19 4666 
z
" transform="scale(0.015625)"/>
       </defs>
       <use xlink:href="#DejaVuSans-57"/>
       <use xlink:href="#DejaVuSans-54" x="98.876953"/>
       <use xlink:href="#DejaVuSans-5f" x="159.960938"/>
       <use xlink:href="#DejaVuSans-52" x="209.960938"/>
       <use xlink:href="#DejaVuSans-45" x="279.443359"/>
       <use xlink:href="#DejaVuSans-50" x="342.626953"/>
       <use xlink:href="#DejaVuSans-31" x="402.929688"/>
       <use xlink:href="#DejaVuSans-5f" x="466.552734"/>
       <use xlink:href="#DejaVuSans-31" x="516.552734"/>
      </g>
     </g>
    </g>
    <g id="ytick_6">
     <g id="text_13">
      <!-- WT_REP1_2 -->
      <g transform="translate(58.94 238.85875)scale(0.08 -0.08)">
       <use xlink:href="#DejaVuSans-57"/>
       <use xlink:href="#DejaVuSans-54" x="98.876953"/>
       <use xlink:href="#DejaVuSans-5f" x="159.960938"/>
       <use xlink:href="#DejaVuSans-52" x="209.960938"/>
       <use xlink:href="#DejaVuSans-45" x="279.443359"/>
       <use xlink:href="#DejaVuSans-50" x="342.626953"/>
       <use xlink:href="#DejaVuSans-31" x="402.929688"/>
       <use xlink:href="#DejaVuSans-5f" x="466.552734"/>
       <use xlink:href="#DejaVuSans-32" x="516.552734"/>
      </g>
     </g>
    </g>
    <g id="ytick_7">
     <g id="text_14">
      <!-- WT_REP2_1 -->
      <g transform="translate(58.94 280.43875)scale(0.08 -0.08)">
       <use xlink:href="#DejaVuSans-57"/>
       <use xlink:href="#DejaVuSans-54" x="98.876953"/>
       <use xlink:href="#DejaVuSans-5f" x="159.960938"/>
       <use xlink:href="#DejaVuSans-52" x="209.960938"/>
       <use xlink:href="#DejaVuSans-45" x="279.443359"/>
       <use xlink:href="#DejaVuSans-50" x="342.626953"/>
       <use xlink:href="#DejaVuSans-32" x="402.929688"/>
       <use xlink:href="#DejaVuSans-5f" x="466.552734"/>
       <use xlink:href="#DejaVuSans-31" x="516.552734"/>
      </g>
     </g>
    </g>
    <g id="ytick_8">
     <g id="text_15">
      <!-- WT_REP2_2 -->
      <g transform="translate(58.94 322.01875)scale(0.08 -0.08)">
       <use xlink:href="#DejaVuSans-57"/>
       <use xlink:href="#DejaVuSans-54" x="98.876953"/>
       <use xlink:href="#DejaVuSans-5f" x="159.960938"/>
       <use xlink:href="#DejaVuSans-52" x="209.960938"/>
       <use xlink:href="#DejaVuSans-45" x="279.443359"/>
       <use xlink:href="#DejaVuSans-50" x="342.626953"/>
       <use xlink:href="#DejaVuSans-32" x="402.929688"/>
       <use xlink:href="#DejaVuSans-5f" x="466.552734"/>
       <use xlink:href="#DejaVuSans-32" x="516.552734"/>
      </g>
     </g>
    </g>
   </g>
   <g id="patch_2">
    <path d="M 112.35375 11.358 
L 388.788503 11.358 
L 388.788503 44.622 
L 112.35375 44.622 
z
" clip-path="url(#p082c7e7f21)" style="fill: #7cb5ec"/>
   </g>
   <g id="patch_3">
    <path d="M 112.35375 52.938 
L 385.54076 52.938 
L 385.54076 86.202 
L 112.35375 86.202 
z
" clip-path="url(#p082c7e7f21)" style="fill: #7cb5ec"/>
   </g>
   <g id="patch_4">
    <path d="M 112.35375 94.518 
L 391.21193 94.518 
L 391.21193 127.782 
L 112.35375 127.782 
z
" clip-path="url(#p082c7e7f21)" style="fill: #7cb5ec"/>
   </g>
   <g id="patch_5">
    <path d="M 112.35375 136.098 
L 332.692612 136.098 
L 332.692612 169.362 
L 112.35375 169.362 
z
" clip-path="url(#p082c7e7f21)" style="fill: #7cb5ec"/>
   </g>
   <g id="patch_6">
    <path d="M 112.35375 177.678 
L 314.515122 177.678 
L 314.515122 210.942 
L 112.35375 210.942 
z
" clip-path="url(#p082c7e7f21)" style="fill: #7cb5ec"/>
   </g>
   <g id="patch_7">
    <path d="M 112.35375 219.258 
L 319.717055 219.258 
L 319.717055 252.522 
L 112.35375 252.522 
z
" clip-path="url(#p082c7e7f21)" style="fill: #7cb5ec"/>
   </g>
   <g id="patch_8">
    <path d="M 112.35375 260.838 
L 371.016355 260.838 
L 371.016355 294.102 
L 112.35375 294.102 
z
" clip-path="url(#p082c7e7f21)" style="fill: #7cb5ec"/>
   </g>
   <g id="patch_9">
    <path d="M 112.35375 302.418 
L 384.784691 302.418 
L 384.784691 335.682 
L 112.35375 335.682 
z
" clip-path="url(#p082c7e7f21)" style="fill: #7cb5ec"/>
   </g>
   <g id="patch_10">
    <path d="M 388.788503 11.358 
L 893.55375 11.358 
L 893.55375 44.622 
L 388.788503 44.622 
z
" clip-path="url(#p082c7e7f21)" style="fill: #434348"/>
   </g>
   <g id="patch_11">
    <path d="M 385.54076 52.938 
L 893.55375 52.938 
L 893.55375 86.202 
L 385.54076 86.202 
z
" clip-path="url(#p082c7e7f21)" style="fill: #434348"/>
   </g>
   <g id="patch_12">
    <path d="M 391.21193 94.518 
L 893.55375 94.518 
L 893.55375 127.782 
L 391.21193 127.782 
z
" clip-path="url(#p082c7e7f21)" style="fill: #434348"/>
   </g>
   <g id="patch_13">
    <path d="M 332.692612 136.098 
L 893.55375 136.098 
L 893.55375 169.362 
L 332.692612 169.362 
z
" clip-path="url(#p082c7e7f21)" style="fill: #434348"/>
   </g>
   <g id="patch_14">
    <path d="M 314.515122 177.678 
L 893.55375 177.678 
L 893.55375 210.942 
L 314.515122 210.942 
z
" clip-path="url(#p082c7e7f21)" style="fill: #434348"/>
   </g>
   <g id="patch_15">
    <path d="M 319.717055 219.258 
L 893.55375 219.258 
L 893.55375 252.522 
L 319.717055 252.522 
z
" clip-path="url(#p082c7e7f21)" style="fill: #434348"/>
   </g>
   <g id="patch_16">
    <path d="M 371.016355 260.838 
L 893.55375 260.838 
L 893.55375 294.102 
L 371.016355 294.102 
z
" clip-path="url(#p082c7e7f21)" style="fill: #434348"/>
   </g>
   <g id="patch_17">
    <path d="M 384.784691 302.418 
L 893.55375 302.418 
L 893.55375 335.682 
L 384.784691 335.682 
z
" clip-path="url(#p082c7e7f21)" style="fill: #434348"/>
   </g>
   <g id="text_16">
    <!-- FastQC: Sequence Counts -->
    <g transform="translate(399.82375 -20.52)scale(0.16 -0.16)">
     <defs>
      <path id="DejaVuSans-46" d="M 628 4666 
L 3309 4666 
L 3309 4134 
L 1259 4134 
L 1259 2759 
L 3109 2759 
L 3109 2228 
L 1259 2228 
L 1259 0 
L 628 0 
L 628 4666 
z
" transform="scale(0.015625)"/>
      <path id="DejaVuSans-74" d="M 1172 4494 
L 1172 3500 
L 2356 3500 
L 2356 3053 
L 1172 3053 
L 1172 1153 
Q 1172 725 1289 603 
Q 1406 481 1766 481 
L 2356 481 
L 2356 0 
L 1766 0 
Q 1100 0 847 248 
Q 594 497 594 1153 
L 594 3053 
L 172 3053 
L 172 3500 
L 594 3500 
L 594 4494 
L 1172 4494 
z
" transform="scale(0.015625)"/>
      <path id="DejaVuSans-51" d="M 2522 4238 
Q 1834 4238 1429 3725 
Q 1025 3213 1025 2328 
Q 1025 1447 1429 934 
Q 1834 422 2522 422 
Q 3209 422 3611 934 
Q 4013 1447 4013 2328 
Q 4013 3213 3611 3725 
Q 3209 4238 2522 4238 
z
M 3406 84 
L 4238 -825 
L 3475 -825 
L 2784 -78 
Q 2681 -84 2626 -87 
Q 2572 -91 2522 -91 
Q 1538 -91 948 567 
Q 359 1225 359 2328 
Q 359 3434 948 4092 
Q 1538 4750 2522 4750 
Q 3503 4750 4090 4092 
Q 4678 3434 4678 2328 
Q 4678 1516 4351 937 
Q 4025 359 3406 84 
z
" transform="scale(0.015625)"/>
      <path id="DejaVuSans-3a" d="M 750 794 
L 1409 794 
L 1409 0 
L 750 0 
L 750 794 
z
M 750 3309 
L 1409 3309 
L 1409 2516 
L 750 2516 
L 750 3309 
z
" transform="scale(0.015625)"/>
      <path id="DejaVuSans-53" d="M 3425 4513 
L 3425 3897 
Q 3066 4069 2747 4153 
Q 2428 4238 2131 4238 
Q 1616 4238 1336 4038 
Q 1056 3838 1056 3469 
Q 1056 3159 1242 3001 
Q 1428 2844 1947 2747 
L 2328 2669 
Q 3034 2534 3370 2195 
Q 3706 1856 3706 1288 
Q 3706 609 3251 259 
Q 2797 -91 1919 -91 
Q 1588 -91 1214 -16 
Q 841 59 441 206 
L 441 856 
Q 825 641 1194 531 
Q 1563 422 1919 422 
Q 2459 422 2753 634 
Q 3047 847 3047 1241 
Q 3047 1584 2836 1778 
Q 2625 1972 2144 2069 
L 1759 2144 
Q 1053 2284 737 2584 
Q 422 2884 422 3419 
Q 422 4038 858 4394 
Q 1294 4750 2059 4750 
Q 2388 4750 2728 4690 
Q 3069 4631 3425 4513 
z
" transform="scale(0.015625)"/>
      <path id="DejaVuSans-71" d="M 947 1747 
Q 947 1113 1208 752 
Q 1469 391 1925 391 
Q 2381 391 2643 752 
Q 2906 1113 2906 1747 
Q 2906 2381 2643 2742 
Q 2381 3103 1925 3103 
Q 1469 3103 1208 2742 
Q 947 2381 947 1747 
z
M 2906 525 
Q 2725 213 2448 61 
Q 2172 -91 1784 -91 
Q 1150 -91 751 415 
Q 353 922 353 1747 
Q 353 2572 751 3078 
Q 1150 3584 1784 3584 
Q 2172 3584 2448 3432 
Q 2725 3281 2906 2969 
L 2906 3500 
L 3481 3500 
L 3481 -1331 
L 2906 -1331 
L 2906 525 
z
" transform="scale(0.015625)"/>
      <path id="DejaVuSans-6e" d="M 3513 2113 
L 3513 0 
L 2938 0 
L 2938 2094 
Q 2938 2591 2744 2837 
Q 2550 3084 2163 3084 
Q 1697 3084 1428 2787 
Q 1159 2491 1159 1978 
L 1159 0 
L 581 0 
L 581 3500 
L 1159 3500 
L 1159 2956 
Q 1366 3272 1645 3428 
Q 1925 3584 2291 3584 
Q 2894 3584 3203 3211 
Q 3513 2838 3513 2113 
z
" transform="scale(0.015625)"/>
      <path id="DejaVuSans-63" d="M 3122 3366 
L 3122 2828 
Q 2878 2963 2633 3030 
Q 2388 3097 2138 3097 
Q 1578 3097 1268 2742 
Q 959 2388 959 1747 
Q 959 1106 1268 751 
Q 1578 397 2138 397 
Q 2388 397 2633 464 
Q 2878 531 3122 666 
L 3122 134 
Q 2881 22 2623 -34 
Q 2366 -91 2075 -91 
Q 1284 -91 818 406 
Q 353 903 353 1747 
Q 353 2603 823 3093 
Q 1294 3584 2113 3584 
Q 2378 3584 2631 3529 
Q 2884 3475 3122 3366 
z
" transform="scale(0.015625)"/>
     </defs>
     <use xlink:href="#DejaVuSans-46"/>
     <use xlink:href="#DejaVuSans-61" x="48.394531"/>
     <use xlink:href="#DejaVuSans-73" x="109.673828"/>
     <use xlink:href="#DejaVuSans-74" x="161.773438"/>
     <use xlink:href="#DejaVuSans-51" x="200.982422"/>
     <use xlink:href="#DejaVuSans-43" x="279.693359"/>
     <use xlink:href="#DejaVuSans-3a" x="349.517578"/>
     <use xlink:href="#DejaVuSans-20" x="383.208984"/>
     <use xlink:href="#DejaVuSans-53" x="414.996094"/>
     <use xlink:href="#DejaVuSans-65" x="478.472656"/>
     <use xlink:href="#DejaVuSans-71" x="539.996094"/>
     <use xlink:href="#DejaVuSans-75" x="603.472656"/>
     <use xlink:href="#DejaVuSans-65" x="666.851562"/>
     <use xlink:href="#DejaVuSans-6e" x="728.375"/>
     <use xlink:href="#DejaVuSans-63" x="791.753906"/>
     <use xlink:href="#DejaVuSans-65" x="846.734375"/>
     <use xlink:href="#DejaVuSans-20" x="908.257812"/>
     <use xlink:href="#DejaVuSans-43" x="940.044922"/>
     <use xlink:href="#DejaVuSans-6f" x="1009.869141"/>
     <use xlink:href="#DejaVuSans-75" x="1071.050781"/>
     <use xlink:href="#DejaVuSans-6e" x="1134.429688"/>
     <use xlink:href="#DejaVuSans-74" x="1197.808594"/>
     <use xlink:href="#DejaVuSans-73" x="1237.017578"/>
    </g>
   </g>
   <g id="legend_1">
    <g id="patch_18">
     <path d="M 119.55375 414.13625 
L 135.55375 414.13625 
L 135.55375 408.53625 
L 119.55375 408.53625 
z
" style="fill: #7cb5ec"/>
    </g>
    <g id="text_17">
     <!-- Unique Reads -->
     <g transform="translate(141.95375 414.13625)scale(0.08 -0.08)">
      <defs>
       <path id="DejaVuSans-69" d="M 603 3500 
L 1178 3500 
L 1178 0 
L 603 0 
L 603 3500 
z
M 603 4863 
L 1178 4863 
L 1178 4134 
L 603 4134 
L 603 4863 
z
" transform="scale(0.015625)"/>
      </defs>
      <use xlink:href="#DejaVuSans-55"/>
      <use xlink:href="#DejaVuSans-6e" x="73.193359"/>
      <use xlink:href="#DejaVuSans-69" x="136.572266"/>
      <use xlink:href="#DejaVuSans-71" x="164.355469"/>
      <use xlink:href="#DejaVuSans-75" x="227.832031"/>
      <use xlink:href="#DejaVuSans-65" x="291.210938"/>
      <use xlink:href="#DejaVuSans-20" x="352.734375"/>
      <use xlink:href="#DejaVuSans-52" x="384.521484"/>
      <use xlink:href="#DejaVuSans-65" x="449.503906"/>
      <use xlink:href="#DejaVuSans-61" x="511.027344"/>
      <use xlink:href="#DejaVuSans-64" x="572.306641"/>
      <use xlink:href="#DejaVuSans-73" x="635.783203"/>
     </g>
    </g>
    <g id="patch_19">
     <path d="M 799.0275 414.13625 
L 815.0275 414.13625 
L 815.0275 408.53625 
L 799.0275 408.53625 
z
" style="fill: #434348"/>
    </g>
    <g id="text_18">
     <!-- Duplicate Reads -->
     <g transform="translate(821.4275 414.13625)scale(0.08 -0.08)">
      <defs>
       <path id="DejaVuSans-70" d="M 1159 525 
L 1159 -1331 
L 581 -1331 
L 581 3500 
L 1159 3500 
L 1159 2969 
Q 1341 3281 1617 3432 
Q 1894 3584 2278 3584 
Q 2916 3584 3314 3078 
Q 3713 2572 3713 1747 
Q 3713 922 3314 415 
Q 2916 -91 2278 -91 
Q 1894 -91 1617 61 
Q 1341 213 1159 525 
z
M 3116 1747 
Q 3116 2381 2855 2742 
Q 2594 3103 2138 3103 
Q 1681 3103 1420 2742 
Q 1159 2381 1159 1747 
Q 1159 1113 1420 752 
Q 1681 391 2138 391 
Q 2594 391 2855 752 
Q 3116 1113 3116 1747 
z
" transform="scale(0.015625)"/>
       <path id="DejaVuSans-6c" d="M 603 4863 
L 1178 4863 
L 1178 0 
L 603 0 
L 603 4863 
z
" transform="scale(0.015625)"/>
      </defs>
      <use xlink:href="#DejaVuSans-44"/>
      <use xlink:href="#DejaVuSans-75" x="77.001953"/>
      <use xlink:href="#DejaVuSans-70" x="140.380859"/>
      <use xlink:href="#DejaVuSans-6c" x="203.857422"/>
      <use xlink:href="#DejaVuSans-69" x="231.640625"/>
      <use xlink:href="#DejaVuSans-63" x="259.423828"/>
      <use xlink:href="#DejaVuSans-61" x="314.404297"/>
      <use xlink:href="#DejaVuSans-74" x="375.683594"/>
      <use xlink:href="#DejaVuSans-65" x="414.892578"/>
      <use xlink:href="#DejaVuSans-20" x="476.416016"/>
      <use xlink:href="#DejaVuSans-52" x="508.203125"/>
      <use xlink:href="#DejaVuSans-65" x="573.185547"/>
      <use xlink:href="#DejaVuSans-61" x="634.708984"/>
      <use xlink:href="#DejaVuSans-64" x="695.988281"/>
      <use xlink:href="#DejaVuSans-73" x="759.464844"/>
     </g>
    </g>
   </g>
  </g>
 </g>
 <defs>
  <clipPath id="p082c7e7f21">
   <rect x="112.35375" y="7.2" width="781.2" height="332.64"/>
  </clipPath>
 </defs>
</svg>
