<?xml version="1.0" encoding="utf-8" standalone="no"?>
<!DOCTYPE svg PUBLIC "-//W3C//DTD SVG 1.1//EN"
  "http://www.w3.org/Graphics/SVG/1.1/DTD/svg11.dtd">
<svg xmlns:xlink="http://www.w3.org/1999/xlink" width="1000.178125pt" height="330.541644pt" viewBox="0 0 1000.178125 330.541644" xmlns="http://www.w3.org/2000/svg" version="1.1">
 <metadata>
  <rdf:RDF xmlns:dc="http://purl.org/dc/elements/1.1/" xmlns:cc="http://creativecommons.org/ns#" xmlns:rdf="http://www.w3.org/1999/02/22-rdf-syntax-ns#">
   <cc:Work>
    <dc:type rdf:resource="http://purl.org/dc/dcmitype/StillImage"/>
    <dc:date>2023-03-08T12:55:26.991697</dc:date>
    <dc:format>image/svg+xml</dc:format>
    <dc:creator>
     <cc:Agent>
      <dc:title>Matplotlib v3.5.3, https://matplotlib.org/</dc:title>
     </cc:Agent>
    </dc:creator>
   </cc:Work>
  </rdf:RDF>
 </metadata>
 <defs>
  <style type="text/css">*{stroke-linejoin: round; stroke-linecap: butt}</style>
 </defs>
 <g id="figure_1">
  <g id="axes_1">
   <g id="patch_1">
    <path d="M 48.238125 273.99006 
L 985.343125 273.99006 
L 985.343125 31.48286 
L 48.238125 31.48286 
z
" style="fill: #ffffff"/>
   </g>
   <g id="matplotlib.axis_1">
    <g id="xtick_1">
     <g id="text_1">
      <!-- 0 -->
      <g transform="translate(45.693125 287.06881)scale(0.08 -0.08)">
       <defs>
        <path id="DejaVuSans-30" d="M 2034 4250 
Q 1547 4250 1301 3770 
Q 1056 3291 1056 2328 
Q 1056 1369 1301 889 
Q 1547 409 2034 409 
Q 2525 409 2770 889 
Q 3016 1369 3016 2328 
Q 3016 3291 2770 3770 
Q 2525 4250 2034 4250 
z
M 2034 4750 
Q 2819 4750 3233 4129 
Q 3647 3509 3647 2328 
Q 3647 1150 3233 529 
Q 2819 -91 2034 -91 
Q 1250 -91 836 529 
Q 422 1150 422 2328 
Q 422 3509 836 4129 
Q 1250 4750 2034 4750 
z
" transform="scale(0.015625)"/>
       </defs>
       <use xlink:href="#DejaVuSans-30"/>
      </g>
     </g>
    </g>
    <g id="xtick_2">
     <g id="text_2">
      <!-- 20 -->
      <g transform="translate(230.569125 287.06881)scale(0.08 -0.08)">
       <defs>
        <path id="DejaVuSans-32" d="M 1228 531 
L 3431 531 
L 3431 0 
L 469 0 
L 469 531 
Q 828 903 1448 1529 
Q 2069 2156 2228 2338 
Q 2531 2678 2651 2914 
Q 2772 3150 2772 3378 
Q 2772 3750 2511 3984 
Q 2250 4219 1831 4219 
Q 1534 4219 1204 4116 
Q 875 4013 500 3803 
L 500 4441 
Q 881 4594 1212 4672 
Q 1544 4750 1819 4750 
Q 2544 4750 2975 4387 
Q 3406 4025 3406 3419 
Q 3406 3131 3298 2873 
Q 3191 2616 2906 2266 
Q 2828 2175 2409 1742 
Q 1991 1309 1228 531 
z
" transform="scale(0.015625)"/>
       </defs>
       <use xlink:href="#DejaVuSans-32"/>
       <use xlink:href="#DejaVuSans-30" x="63.623047"/>
      </g>
     </g>
    </g>
    <g id="xtick_3">
     <g id="text_3">
      <!-- 40 -->
      <g transform="translate(417.990125 287.06881)scale(0.08 -0.08)">
       <defs>
        <path id="DejaVuSans-34" d="M 2419 4116 
L 825 1625 
L 2419 1625 
L 2419 4116 
z
M 2253 4666 
L 3047 4666 
L 3047 1625 
L 3713 1625 
L 3713 1100 
L 3047 1100 
L 3047 0 
L 2419 0 
L 2419 1100 
L 313 1100 
L 313 1709 
L 2253 4666 
z
" transform="scale(0.015625)"/>
       </defs>
       <use xlink:href="#DejaVuSans-34"/>
       <use xlink:href="#DejaVuSans-30" x="63.623047"/>
      </g>
     </g>
    </g>
    <g id="xtick_4">
     <g id="text_4">
      <!-- 60 -->
      <g transform="translate(605.411125 287.06881)scale(0.08 -0.08)">
       <defs>
        <path id="DejaVuSans-36" d="M 2113 2584 
Q 1688 2584 1439 2293 
Q 1191 2003 1191 1497 
Q 1191 994 1439 701 
Q 1688 409 2113 409 
Q 2538 409 2786 701 
Q 3034 994 3034 1497 
Q 3034 2003 2786 2293 
Q 2538 2584 2113 2584 
z
M 3366 4563 
L 3366 3988 
Q 3128 4100 2886 4159 
Q 2644 4219 2406 4219 
Q 1781 4219 1451 3797 
Q 1122 3375 1075 2522 
Q 1259 2794 1537 2939 
Q 1816 3084 2150 3084 
Q 2853 3084 3261 2657 
Q 3669 2231 3669 1497 
Q 3669 778 3244 343 
Q 2819 -91 2113 -91 
Q 1303 -91 875 529 
Q 447 1150 447 2328 
Q 447 3434 972 4092 
Q 1497 4750 2381 4750 
Q 2619 4750 2861 4703 
Q 3103 4656 3366 4563 
z
" transform="scale(0.015625)"/>
       </defs>
       <use xlink:href="#DejaVuSans-36"/>
       <use xlink:href="#DejaVuSans-30" x="63.623047"/>
      </g>
     </g>
    </g>
    <g id="xtick_5">
     <g id="text_5">
      <!-- 80 -->
      <g transform="translate(792.832125 287.06881)scale(0.08 -0.08)">
       <defs>
        <path id="DejaVuSans-38" d="M 2034 2216 
Q 1584 2216 1326 1975 
Q 1069 1734 1069 1313 
Q 1069 891 1326 650 
Q 1584 409 2034 409 
Q 2484 409 2743 651 
Q 3003 894 3003 1313 
Q 3003 1734 2745 1975 
Q 2488 2216 2034 2216 
z
M 1403 2484 
Q 997 2584 770 2862 
Q 544 3141 544 3541 
Q 544 4100 942 4425 
Q 1341 4750 2034 4750 
Q 2731 4750 3128 4425 
Q 3525 4100 3525 3541 
Q 3525 3141 3298 2862 
Q 3072 2584 2669 2484 
Q 3125 2378 3379 2068 
Q 3634 1759 3634 1313 
Q 3634 634 3220 271 
Q 2806 -91 2034 -91 
Q 1263 -91 848 271 
Q 434 634 434 1313 
Q 434 1759 690 2068 
Q 947 2378 1403 2484 
z
M 1172 3481 
Q 1172 3119 1398 2916 
Q 1625 2713 2034 2713 
Q 2441 2713 2670 2916 
Q 2900 3119 2900 3481 
Q 2900 3844 2670 4047 
Q 2441 4250 2034 4250 
Q 1625 4250 1398 4047 
Q 1172 3844 1172 3481 
z
" transform="scale(0.015625)"/>
       </defs>
       <use xlink:href="#DejaVuSans-38"/>
       <use xlink:href="#DejaVuSans-30" x="63.623047"/>
      </g>
     </g>
    </g>
    <g id="xtick_6">
     <g id="text_6">
      <!-- 100 -->
      <g transform="translate(977.708125 287.06881)scale(0.08 -0.08)">
       <defs>
        <path id="DejaVuSans-31" d="M 794 531 
L 1825 531 
L 1825 4091 
L 703 3866 
L 703 4441 
L 1819 4666 
L 2450 4666 
L 2450 531 
L 3481 531 
L 3481 0 
L 794 0 
L 794 531 
z
" transform="scale(0.015625)"/>
       </defs>
       <use xlink:href="#DejaVuSans-31"/>
       <use xlink:href="#DejaVuSans-30" x="63.623047"/>
       <use xlink:href="#DejaVuSans-30" x="127.246094"/>
      </g>
     </g>
    </g>
    <g id="text_7">
     <!-- % GC -->
     <g transform="translate(503.085156 300.330997)scale(0.1 -0.1)">
      <defs>
       <path id="DejaVuSans-25" d="M 4653 2053 
Q 4381 2053 4226 1822 
Q 4072 1591 4072 1178 
Q 4072 772 4226 539 
Q 4381 306 4653 306 
Q 4919 306 5073 539 
Q 5228 772 5228 1178 
Q 5228 1588 5073 1820 
Q 4919 2053 4653 2053 
z
M 4653 2450 
Q 5147 2450 5437 2106 
Q 5728 1763 5728 1178 
Q 5728 594 5436 251 
Q 5144 -91 4653 -91 
Q 4153 -91 3862 251 
Q 3572 594 3572 1178 
Q 3572 1766 3864 2108 
Q 4156 2450 4653 2450 
z
M 1428 4353 
Q 1159 4353 1004 4120 
Q 850 3888 850 3481 
Q 850 3069 1003 2837 
Q 1156 2606 1428 2606 
Q 1700 2606 1854 2837 
Q 2009 3069 2009 3481 
Q 2009 3884 1853 4118 
Q 1697 4353 1428 4353 
z
M 4250 4750 
L 4750 4750 
L 1831 -91 
L 1331 -91 
L 4250 4750 
z
M 1428 4750 
Q 1922 4750 2215 4408 
Q 2509 4066 2509 3481 
Q 2509 2891 2217 2550 
Q 1925 2209 1428 2209 
Q 931 2209 642 2551 
Q 353 2894 353 3481 
Q 353 4063 643 4406 
Q 934 4750 1428 4750 
z
" transform="scale(0.015625)"/>
       <path id="DejaVuSans-20" transform="scale(0.015625)"/>
       <path id="DejaVuSans-47" d="M 3809 666 
L 3809 1919 
L 2778 1919 
L 2778 2438 
L 4434 2438 
L 4434 434 
Q 4069 175 3628 42 
Q 3188 -91 2688 -91 
Q 1594 -91 976 548 
Q 359 1188 359 2328 
Q 359 3472 976 4111 
Q 1594 4750 2688 4750 
Q 3144 4750 3555 4637 
Q 3966 4525 4313 4306 
L 4313 3634 
Q 3963 3931 3569 4081 
Q 3175 4231 2741 4231 
Q 1884 4231 1454 3753 
Q 1025 3275 1025 2328 
Q 1025 1384 1454 906 
Q 1884 428 2741 428 
Q 3075 428 3337 486 
Q 3600 544 3809 666 
z
" transform="scale(0.015625)"/>
       <path id="DejaVuSans-43" d="M 4122 4306 
L 4122 3641 
Q 3803 3938 3442 4084 
Q 3081 4231 2675 4231 
Q 1875 4231 1450 3742 
Q 1025 3253 1025 2328 
Q 1025 1406 1450 917 
Q 1875 428 2675 428 
Q 3081 428 3442 575 
Q 3803 722 4122 1019 
L 4122 359 
Q 3791 134 3420 21 
Q 3050 -91 2638 -91 
Q 1578 -91 968 557 
Q 359 1206 359 2328 
Q 359 3453 968 4101 
Q 1578 4750 2638 4750 
Q 3056 4750 3426 4639 
Q 3797 4528 4122 4306 
z
" transform="scale(0.015625)"/>
      </defs>
      <use xlink:href="#DejaVuSans-25"/>
      <use xlink:href="#DejaVuSans-20" x="95.019531"/>
      <use xlink:href="#DejaVuSans-47" x="126.806641"/>
      <use xlink:href="#DejaVuSans-43" x="204.296875"/>
     </g>
    </g>
   </g>
   <g id="matplotlib.axis_2">
    <g id="ytick_1">
     <g id="line2d_1">
      <path d="M 48.238125 273.99006 
L 985.343125 273.99006 
" clip-path="url(#p7d67e7242a)" style="fill: none; stroke: #dedede; stroke-linecap: square"/>
     </g>
     <g id="text_8">
      <!-- 0 -->
      <g transform="translate(36.148125 277.029435)scale(0.08 -0.08)">
       <use xlink:href="#DejaVuSans-30"/>
      </g>
     </g>
    </g>
    <g id="ytick_2">
     <g id="line2d_2">
      <path d="M 48.238125 239.771342 
L 985.343125 239.771342 
" clip-path="url(#p7d67e7242a)" style="fill: none; stroke: #dedede; stroke-linecap: square"/>
     </g>
     <g id="text_9">
      <!-- 1000 -->
      <g transform="translate(20.878125 242.810717)scale(0.08 -0.08)">
       <use xlink:href="#DejaVuSans-31"/>
       <use xlink:href="#DejaVuSans-30" x="63.623047"/>
       <use xlink:href="#DejaVuSans-30" x="127.246094"/>
       <use xlink:href="#DejaVuSans-30" x="190.869141"/>
      </g>
     </g>
    </g>
    <g id="ytick_3">
     <g id="line2d_3">
      <path d="M 48.238125 205.552624 
L 985.343125 205.552624 
" clip-path="url(#p7d67e7242a)" style="fill: none; stroke: #dedede; stroke-linecap: square"/>
     </g>
     <g id="text_10">
      <!-- 2000 -->
      <g transform="translate(20.878125 208.591999)scale(0.08 -0.08)">
       <use xlink:href="#DejaVuSans-32"/>
       <use xlink:href="#DejaVuSans-30" x="63.623047"/>
       <use xlink:href="#DejaVuSans-30" x="127.246094"/>
       <use xlink:href="#DejaVuSans-30" x="190.869141"/>
      </g>
     </g>
    </g>
    <g id="ytick_4">
     <g id="line2d_4">
      <path d="M 48.238125 171.333906 
L 985.343125 171.333906 
" clip-path="url(#p7d67e7242a)" style="fill: none; stroke: #dedede; stroke-linecap: square"/>
     </g>
     <g id="text_11">
      <!-- 3000 -->
      <g transform="translate(20.878125 174.373281)scale(0.08 -0.08)">
       <defs>
        <path id="DejaVuSans-33" d="M 2597 2516 
Q 3050 2419 3304 2112 
Q 3559 1806 3559 1356 
Q 3559 666 3084 287 
Q 2609 -91 1734 -91 
Q 1441 -91 1130 -33 
Q 819 25 488 141 
L 488 750 
Q 750 597 1062 519 
Q 1375 441 1716 441 
Q 2309 441 2620 675 
Q 2931 909 2931 1356 
Q 2931 1769 2642 2001 
Q 2353 2234 1838 2234 
L 1294 2234 
L 1294 2753 
L 1863 2753 
Q 2328 2753 2575 2939 
Q 2822 3125 2822 3475 
Q 2822 3834 2567 4026 
Q 2313 4219 1838 4219 
Q 1578 4219 1281 4162 
Q 984 4106 628 3988 
L 628 4550 
Q 988 4650 1302 4700 
Q 1616 4750 1894 4750 
Q 2613 4750 3031 4423 
Q 3450 4097 3450 3541 
Q 3450 3153 3228 2886 
Q 3006 2619 2597 2516 
z
" transform="scale(0.015625)"/>
       </defs>
       <use xlink:href="#DejaVuSans-33"/>
       <use xlink:href="#DejaVuSans-30" x="63.623047"/>
       <use xlink:href="#DejaVuSans-30" x="127.246094"/>
       <use xlink:href="#DejaVuSans-30" x="190.869141"/>
      </g>
     </g>
    </g>
    <g id="ytick_5">
     <g id="line2d_5">
      <path d="M 48.238125 137.115187 
L 985.343125 137.115187 
" clip-path="url(#p7d67e7242a)" style="fill: none; stroke: #dedede; stroke-linecap: square"/>
     </g>
     <g id="text_12">
      <!-- 4000 -->
      <g transform="translate(20.878125 140.154562)scale(0.08 -0.08)">
       <use xlink:href="#DejaVuSans-34"/>
       <use xlink:href="#DejaVuSans-30" x="63.623047"/>
       <use xlink:href="#DejaVuSans-30" x="127.246094"/>
       <use xlink:href="#DejaVuSans-30" x="190.869141"/>
      </g>
     </g>
    </g>
    <g id="ytick_6">
     <g id="line2d_6">
      <path d="M 48.238125 102.896469 
L 985.343125 102.896469 
" clip-path="url(#p7d67e7242a)" style="fill: none; stroke: #dedede; stroke-linecap: square"/>
     </g>
     <g id="text_13">
      <!-- 5000 -->
      <g transform="translate(20.878125 105.935844)scale(0.08 -0.08)">
       <defs>
        <path id="DejaVuSans-35" d="M 691 4666 
L 3169 4666 
L 3169 4134 
L 1269 4134 
L 1269 2991 
Q 1406 3038 1543 3061 
Q 1681 3084 1819 3084 
Q 2600 3084 3056 2656 
Q 3513 2228 3513 1497 
Q 3513 744 3044 326 
Q 2575 -91 1722 -91 
Q 1428 -91 1123 -41 
Q 819 9 494 109 
L 494 744 
Q 775 591 1075 516 
Q 1375 441 1709 441 
Q 2250 441 2565 725 
Q 2881 1009 2881 1497 
Q 2881 1984 2565 2268 
Q 2250 2553 1709 2553 
Q 1456 2553 1204 2497 
Q 953 2441 691 2322 
L 691 4666 
z
" transform="scale(0.015625)"/>
       </defs>
       <use xlink:href="#DejaVuSans-35"/>
       <use xlink:href="#DejaVuSans-30" x="63.623047"/>
       <use xlink:href="#DejaVuSans-30" x="127.246094"/>
       <use xlink:href="#DejaVuSans-30" x="190.869141"/>
      </g>
     </g>
    </g>
    <g id="ytick_7">
     <g id="line2d_7">
      <path d="M 48.238125 68.677751 
L 985.343125 68.677751 
" clip-path="url(#p7d67e7242a)" style="fill: none; stroke: #dedede; stroke-linecap: square"/>
     </g>
     <g id="text_14">
      <!-- 6000 -->
      <g transform="translate(20.878125 71.717126)scale(0.08 -0.08)">
       <use xlink:href="#DejaVuSans-36"/>
       <use xlink:href="#DejaVuSans-30" x="63.623047"/>
       <use xlink:href="#DejaVuSans-30" x="127.246094"/>
       <use xlink:href="#DejaVuSans-30" x="190.869141"/>
      </g>
     </g>
    </g>
    <g id="ytick_8">
     <g id="line2d_8">
      <path d="M 48.238125 34.459033 
L 985.343125 34.459033 
" clip-path="url(#p7d67e7242a)" style="fill: none; stroke: #dedede; stroke-linecap: square"/>
     </g>
     <g id="text_15">
      <!-- 7000 -->
      <g transform="translate(20.878125 37.498408)scale(0.08 -0.08)">
       <defs>
        <path id="DejaVuSans-37" d="M 525 4666 
L 3525 4666 
L 3525 4397 
L 1831 0 
L 1172 0 
L 2766 4134 
L 525 4134 
L 525 4666 
z
" transform="scale(0.015625)"/>
       </defs>
       <use xlink:href="#DejaVuSans-37"/>
       <use xlink:href="#DejaVuSans-30" x="63.623047"/>
       <use xlink:href="#DejaVuSans-30" x="127.246094"/>
       <use xlink:href="#DejaVuSans-30" x="190.869141"/>
      </g>
     </g>
    </g>
    <g id="text_16">
     <!-- Count -->
     <g transform="translate(14.798438 167.584897)rotate(-90)scale(0.1 -0.1)">
      <defs>
       <path id="DejaVuSans-6f" d="M 1959 3097 
Q 1497 3097 1228 2736 
Q 959 2375 959 1747 
Q 959 1119 1226 758 
Q 1494 397 1959 397 
Q 2419 397 2687 759 
Q 2956 1122 2956 1747 
Q 2956 2369 2687 2733 
Q 2419 3097 1959 3097 
z
M 1959 3584 
Q 2709 3584 3137 3096 
Q 3566 2609 3566 1747 
Q 3566 888 3137 398 
Q 2709 -91 1959 -91 
Q 1206 -91 779 398 
Q 353 888 353 1747 
Q 353 2609 779 3096 
Q 1206 3584 1959 3584 
z
" transform="scale(0.015625)"/>
       <path id="DejaVuSans-75" d="M 544 1381 
L 544 3500 
L 1119 3500 
L 1119 1403 
Q 1119 906 1312 657 
Q 1506 409 1894 409 
Q 2359 409 2629 706 
Q 2900 1003 2900 1516 
L 2900 3500 
L 3475 3500 
L 3475 0 
L 2900 0 
L 2900 538 
Q 2691 219 2414 64 
Q 2138 -91 1772 -91 
Q 1169 -91 856 284 
Q 544 659 544 1381 
z
M 1991 3584 
L 1991 3584 
z
" transform="scale(0.015625)"/>
       <path id="DejaVuSans-6e" d="M 3513 2113 
L 3513 0 
L 2938 0 
L 2938 2094 
Q 2938 2591 2744 2837 
Q 2550 3084 2163 3084 
Q 1697 3084 1428 2787 
Q 1159 2491 1159 1978 
L 1159 0 
L 581 0 
L 581 3500 
L 1159 3500 
L 1159 2956 
Q 1366 3272 1645 3428 
Q 1925 3584 2291 3584 
Q 2894 3584 3203 3211 
Q 3513 2838 3513 2113 
z
" transform="scale(0.015625)"/>
       <path id="DejaVuSans-74" d="M 1172 4494 
L 1172 3500 
L 2356 3500 
L 2356 3053 
L 1172 3053 
L 1172 1153 
Q 1172 725 1289 603 
Q 1406 481 1766 481 
L 2356 481 
L 2356 0 
L 1766 0 
Q 1100 0 847 248 
Q 594 497 594 1153 
L 594 3053 
L 172 3053 
L 172 3500 
L 594 3500 
L 594 4494 
L 1172 4494 
z
" transform="scale(0.015625)"/>
      </defs>
      <use xlink:href="#DejaVuSans-43"/>
      <use xlink:href="#DejaVuSans-6f" x="69.824219"/>
      <use xlink:href="#DejaVuSans-75" x="131.005859"/>
      <use xlink:href="#DejaVuSans-6e" x="194.384766"/>
      <use xlink:href="#DejaVuSans-74" x="257.763672"/>
     </g>
    </g>
   </g>
   <g id="line2d_9">
    <path d="M 48.238125 273.99006 
L 57.609175 273.99006 
L 66.980225 273.99006 
L 76.351275 273.99006 
L 85.722325 273.99006 
L 95.093375 273.99006 
L 104.464425 273.99006 
L 113.835475 273.99006 
L 123.206525 273.938732 
L 132.577575 273.887404 
L 141.948625 273.921623 
L 151.319675 273.938732 
L 160.690725 273.921623 
L 170.061775 273.904513 
L 179.432825 273.750529 
L 188.803875 273.425451 
L 198.174925 272.741077 
L 207.545975 272.638421 
L 216.917025 272.775296 
L 226.288075 272.501546 
L 235.659125 272.313343 
L 245.030175 272.775296 
L 254.401225 272.569983 
L 263.772275 272.39889 
L 273.143325 272.569983 
L 282.514375 270.824829 
L 291.885425 267.950456 
L 301.256475 263.176945 
L 310.627525 258.557418 
L 319.998575 253.937891 
L 329.369625 246.563757 
L 338.740675 238.043297 
L 348.111725 227.161744 
L 357.482775 223.80831 
L 366.853825 224.030732 
L 376.224875 217.186988 
L 385.595925 201.275284 
L 394.966975 182.660301 
L 404.338025 179.666163 
L 413.709075 183.070926 
L 423.080125 182.899832 
L 432.451175 174.208278 
L 441.822225 161.119618 
L 451.193275 160.418134 
L 460.564325 167.894924 
L 469.935375 171.522109 
L 479.306425 174.15695 
L 488.677475 183.122254 
L 498.048525 206.408092 
L 507.419575 227.623697 
L 516.790625 240.455716 
L 526.161675 253.339064 
L 535.532725 259.891948 
L 544.903775 262.526789 
L 554.274825 265.041865 
L 563.645875 266.359286 
L 573.016925 266.530379 
L 582.387975 269.72983 
L 591.759025 272.262015 
L 601.130075 273.066155 
L 610.501125 273.408342 
L 619.872175 273.425451 
L 629.243225 273.545217 
L 638.614275 273.562326 
L 647.985325 273.596545 
L 657.356375 273.818966 
L 666.727425 273.972951 
L 676.098475 273.99006 
L 685.469525 273.99006 
L 694.840575 273.99006 
L 704.211625 273.99006 
L 713.582675 273.99006 
L 722.953725 273.99006 
L 732.324775 273.99006 
L 741.695825 273.99006 
L 751.066875 273.99006 
L 760.437925 273.99006 
L 769.808975 273.99006 
L 779.180025 273.99006 
L 788.551075 273.99006 
L 797.922125 273.99006 
L 807.293175 273.99006 
L 816.664225 273.99006 
L 826.035275 273.99006 
L 835.406325 273.99006 
L 844.777375 273.99006 
L 854.148425 273.99006 
L 863.519475 273.99006 
L 872.890525 273.99006 
L 882.261575 273.99006 
L 891.632625 273.99006 
L 901.003675 273.99006 
L 910.374725 273.99006 
L 919.745775 273.99006 
L 929.116825 273.99006 
L 938.487875 273.99006 
L 947.858925 273.99006 
L 957.229975 273.99006 
L 966.601025 273.99006 
L 975.972075 273.99006 
L 985.343125 273.99006 
" clip-path="url(#p7d67e7242a)" style="fill: none; stroke: #f0ad4e; stroke-linecap: square"/>
   </g>
   <g id="line2d_10">
    <path d="M 48.238125 273.955841 
L 57.609175 273.955841 
L 66.980225 273.955841 
L 76.351275 273.955841 
L 85.722325 273.955841 
L 95.093375 273.938732 
L 104.464425 273.921623 
L 113.835475 273.887404 
L 123.206525 273.887404 
L 132.577575 273.870294 
L 141.948625 273.836076 
L 151.319675 273.870294 
L 160.690725 273.853185 
L 170.061775 273.836076 
L 179.432825 273.887404 
L 188.803875 273.887404 
L 198.174925 273.904513 
L 207.545975 273.887404 
L 216.917025 273.836076 
L 226.288075 273.682092 
L 235.659125 273.510998 
L 245.030175 273.528107 
L 254.401225 273.374123 
L 263.772275 273.288576 
L 273.143325 272.569983 
L 282.514375 271.406547 
L 291.885425 268.754596 
L 301.256475 264.323272 
L 310.627525 260.336791 
L 319.998575 255.084218 
L 329.369625 249.010396 
L 338.740675 242.714152 
L 348.111725 232.739395 
L 357.482775 227.555259 
L 366.853825 225.296824 
L 376.224875 219.25722 
L 385.595925 200.180285 
L 394.966975 180.2821 
L 404.338025 176.894447 
L 413.709075 170.615312 
L 423.080125 166.526176 
L 432.451175 166.235317 
L 441.822225 160.469463 
L 451.193275 156.106576 
L 460.564325 161.359149 
L 469.935375 173.712106 
L 479.306425 183.618425 
L 488.677475 195.25279 
L 498.048525 211.369806 
L 507.419575 227.178854 
L 516.790625 240.780794 
L 526.161675 251.713674 
L 535.532725 258.796949 
L 544.903775 261.363353 
L 554.274825 262.629446 
L 563.645875 264.802334 
L 573.016925 267.642488 
L 582.387975 269.798267 
L 591.759025 271.57764 
L 601.130075 273.168811 
L 610.501125 273.220139 
L 619.872175 273.151701 
L 629.243225 273.45967 
L 638.614275 273.442561 
L 647.985325 273.322795 
L 657.356375 273.682092 
L 666.727425 273.972951 
L 676.098475 273.99006 
L 685.469525 273.99006 
L 694.840575 273.99006 
L 704.211625 273.99006 
L 713.582675 273.99006 
L 722.953725 273.99006 
L 732.324775 273.99006 
L 741.695825 273.99006 
L 751.066875 273.99006 
L 760.437925 273.99006 
L 769.808975 273.99006 
L 779.180025 273.99006 
L 788.551075 273.99006 
L 797.922125 273.99006 
L 807.293175 273.99006 
L 816.664225 273.99006 
L 826.035275 273.99006 
L 835.406325 273.99006 
L 844.777375 273.99006 
L 854.148425 273.99006 
L 863.519475 273.99006 
L 872.890525 273.99006 
L 882.261575 273.99006 
L 891.632625 273.99006 
L 901.003675 273.99006 
L 910.374725 273.99006 
L 919.745775 273.99006 
L 929.116825 273.99006 
L 938.487875 273.99006 
L 947.858925 273.99006 
L 957.229975 273.99006 
L 966.601025 273.99006 
L 975.972075 273.99006 
L 985.343125 273.99006 
" clip-path="url(#p7d67e7242a)" style="fill: none; stroke: #5cb85c; stroke-linecap: square"/>
   </g>
   <g id="line2d_11">
    <path d="M 48.238125 273.955841 
L 57.609175 273.972951 
L 66.980225 273.99006 
L 76.351275 273.99006 
L 85.722325 273.99006 
L 95.093375 273.99006 
L 104.464425 273.99006 
L 113.835475 273.99006 
L 123.206525 273.972951 
L 132.577575 273.955841 
L 141.948625 273.955841 
L 151.319675 273.955841 
L 160.690725 273.938732 
L 170.061775 273.904513 
L 179.432825 273.699201 
L 188.803875 273.305686 
L 198.174925 272.895061 
L 207.545975 272.723967 
L 216.917025 272.877952 
L 226.288075 272.450218 
L 235.659125 271.748734 
L 245.030175 272.415999 
L 254.401225 272.193577 
L 263.772275 271.765843 
L 273.143325 272.090921 
L 282.514375 270.687954 
L 291.885425 267.505613 
L 301.256475 262.458352 
L 310.627525 258.181012 
L 319.998575 253.16797 
L 329.369625 246.187352 
L 338.740675 238.163062 
L 348.111725 226.357604 
L 357.482775 223.363467 
L 366.853825 224.937528 
L 376.224875 217.751597 
L 385.595925 203.054657 
L 394.966975 187.023188 
L 404.338025 182.916942 
L 413.709075 182.626083 
L 423.080125 182.232567 
L 432.451175 172.001171 
L 441.822225 156.53431 
L 451.193275 156.859388 
L 460.564325 167.227659 
L 469.935375 172.497342 
L 479.306425 173.472575 
L 488.677475 183.567097 
L 498.048525 205.210437 
L 507.419575 226.032527 
L 516.790625 239.839779 
L 526.161675 252.209846 
L 535.532725 260.045932 
L 544.903775 262.167493 
L 554.274825 264.511475 
L 563.645875 266.136864 
L 573.016925 266.906785 
L 582.387975 270.379985 
L 591.759025 272.296233 
L 601.130075 273.031936 
L 610.501125 273.545217 
L 619.872175 273.357014 
L 629.243225 273.45967 
L 638.614275 273.664982 
L 647.985325 273.699201 
L 657.356375 273.870294 
L 666.727425 273.99006 
L 676.098475 273.99006 
L 685.469525 273.99006 
L 694.840575 273.99006 
L 704.211625 273.99006 
L 713.582675 273.99006 
L 722.953725 273.99006 
L 732.324775 273.99006 
L 741.695825 273.99006 
L 751.066875 273.99006 
L 760.437925 273.99006 
L 769.808975 273.99006 
L 779.180025 273.99006 
L 788.551075 273.99006 
L 797.922125 273.99006 
L 807.293175 273.99006 
L 816.664225 273.99006 
L 826.035275 273.99006 
L 835.406325 273.99006 
L 844.777375 273.99006 
L 854.148425 273.99006 
L 863.519475 273.99006 
L 872.890525 273.99006 
L 882.261575 273.99006 
L 891.632625 273.99006 
L 901.003675 273.99006 
L 910.374725 273.99006 
L 919.745775 273.99006 
L 929.116825 273.99006 
L 938.487875 273.99006 
L 947.858925 273.99006 
L 957.229975 273.99006 
L 966.601025 273.99006 
L 975.972075 273.99006 
L 985.343125 273.99006 
" clip-path="url(#p7d67e7242a)" style="fill: none; stroke: #f0ad4e; stroke-linecap: square"/>
   </g>
   <g id="line2d_12">
    <path d="M 48.238125 273.99006 
L 57.609175 273.99006 
L 66.980225 273.99006 
L 76.351275 273.99006 
L 85.722325 273.99006 
L 95.093375 273.99006 
L 104.464425 273.972951 
L 113.835475 273.955841 
L 123.206525 273.972951 
L 132.577575 273.955841 
L 141.948625 273.887404 
L 151.319675 273.836076 
L 160.690725 273.818966 
L 170.061775 273.887404 
L 179.432825 273.579435 
L 188.803875 272.621311 
L 198.174925 271.338109 
L 207.545975 270.807719 
L 216.917025 271.252563 
L 226.288075 270.51686 
L 235.659125 269.490299 
L 245.030175 270.961703 
L 254.401225 270.7735 
L 263.772275 270.379985 
L 273.143325 270.568188 
L 282.514375 267.505613 
L 291.885425 260.576322 
L 301.256475 250.635785 
L 310.627525 242.560167 
L 319.998575 232.34588 
L 329.369625 219.770501 
L 338.740675 200.915987 
L 348.111725 174.978199 
L 357.482775 173.472575 
L 366.853825 175.76523 
L 376.224875 162.591023 
L 385.595925 134.548784 
L 394.966975 101.887017 
L 404.338025 98.670458 
L 413.709075 97.027959 
L 423.080125 93.469212 
L 432.451175 76.120322 
L 441.822225 46.127616 
L 451.193275 43.030822 
L 460.564325 55.041592 
L 469.935375 60.995649 
L 479.306425 67.462987 
L 488.677475 91.706948 
L 498.048525 137.098078 
L 507.419575 176.55226 
L 516.790625 203.465282 
L 526.161675 228.222524 
L 535.532725 243.706494 
L 544.903775 250.75555 
L 554.274825 254.930234 
L 563.645875 257.17156 
L 573.016925 258.814059 
L 582.387975 265.72624 
L 591.759025 270.807719 
L 601.130075 272.604202 
L 610.501125 273.357014 
L 619.872175 273.357014 
L 629.243225 273.613654 
L 638.614275 273.71631 
L 647.985325 273.73342 
L 657.356375 273.887404 
L 666.727425 273.972951 
L 676.098475 273.938732 
L 685.469525 273.938732 
L 694.840575 273.972951 
L 704.211625 273.99006 
L 713.582675 273.99006 
L 722.953725 273.99006 
L 732.324775 273.99006 
L 741.695825 273.99006 
L 751.066875 273.99006 
L 760.437925 273.99006 
L 769.808975 273.99006 
L 779.180025 273.99006 
L 788.551075 273.99006 
L 797.922125 273.99006 
L 807.293175 273.99006 
L 816.664225 273.99006 
L 826.035275 273.99006 
L 835.406325 273.99006 
L 844.777375 273.99006 
L 854.148425 273.99006 
L 863.519475 273.99006 
L 872.890525 273.99006 
L 882.261575 273.99006 
L 891.632625 273.99006 
L 901.003675 273.99006 
L 910.374725 273.99006 
L 919.745775 273.99006 
L 929.116825 273.99006 
L 938.487875 273.99006 
L 947.858925 273.99006 
L 957.229975 273.99006 
L 966.601025 273.99006 
L 975.972075 273.99006 
L 985.343125 273.99006 
" clip-path="url(#p7d67e7242a)" style="fill: none; stroke: #f0ad4e; stroke-linecap: square"/>
   </g>
   <g id="line2d_13">
    <path d="M 48.238125 273.921623 
L 57.609175 273.955841 
L 66.980225 273.955841 
L 76.351275 273.921623 
L 85.722325 273.938732 
L 95.093375 273.972951 
L 104.464425 273.972951 
L 113.835475 273.955841 
L 123.206525 273.938732 
L 132.577575 273.938732 
L 141.948625 273.938732 
L 151.319675 273.938732 
L 160.690725 273.904513 
L 170.061775 273.904513 
L 179.432825 273.664982 
L 188.803875 272.877952 
L 198.174925 272.142249 
L 207.545975 271.885609 
L 216.917025 271.731625 
L 226.288075 271.492094 
L 235.659125 271.04725 
L 245.030175 271.765843 
L 254.401225 271.834281 
L 263.772275 271.269672 
L 273.143325 270.756391 
L 282.514375 268.326862 
L 291.885425 261.842415 
L 301.256475 250.704222 
L 310.627525 241.533606 
L 319.998575 230.566507 
L 329.369625 215.236521 
L 338.740675 193.6274 
L 348.111725 166.543285 
L 357.482775 164.26774 
L 366.853825 167.518519 
L 376.224875 151.384393 
L 385.595925 115.266536 
L 394.966975 79.268444 
L 404.338025 76.565166 
L 413.709075 78.498523 
L 423.080125 82.296801 
L 432.451175 70.354468 
L 441.822225 47.855661 
L 451.193275 50.866908 
L 460.564325 71.552123 
L 469.935375 90.509293 
L 479.306425 94.547102 
L 488.677475 109.654666 
L 498.048525 152.222751 
L 507.419575 190.17131 
L 516.790625 212.259492 
L 526.161675 232.636739 
L 535.532725 247.487663 
L 544.903775 253.578595 
L 554.274825 257.017576 
L 563.645875 259.139136 
L 573.016925 260.285463 
L 582.387975 266.496161 
L 591.759025 271.149906 
L 601.130075 272.723967 
L 610.501125 273.442561 
L 619.872175 273.493889 
L 629.243225 273.613654 
L 638.614275 273.630763 
L 647.985325 273.682092 
L 657.356375 273.887404 
L 666.727425 273.921623 
L 676.098475 273.938732 
L 685.469525 273.955841 
L 694.840575 273.972951 
L 704.211625 273.99006 
L 713.582675 273.99006 
L 722.953725 273.99006 
L 732.324775 273.99006 
L 741.695825 273.99006 
L 751.066875 273.99006 
L 760.437925 273.99006 
L 769.808975 273.99006 
L 779.180025 273.99006 
L 788.551075 273.99006 
L 797.922125 273.99006 
L 807.293175 273.99006 
L 816.664225 273.99006 
L 826.035275 273.99006 
L 835.406325 273.99006 
L 844.777375 273.99006 
L 854.148425 273.99006 
L 863.519475 273.99006 
L 872.890525 273.99006 
L 882.261575 273.99006 
L 891.632625 273.99006 
L 901.003675 273.99006 
L 910.374725 273.99006 
L 919.745775 273.99006 
L 929.116825 273.99006 
L 938.487875 273.99006 
L 947.858925 273.99006 
L 957.229975 273.99006 
L 966.601025 273.99006 
L 975.972075 273.99006 
L 985.343125 273.99006 
" clip-path="url(#p7d67e7242a)" style="fill: none; stroke: #f0ad4e; stroke-linecap: square"/>
   </g>
   <g id="line2d_14">
    <path d="M 48.238125 273.955841 
L 57.609175 273.921623 
L 66.980225 273.818966 
L 76.351275 273.836076 
L 85.722325 273.853185 
L 95.093375 273.801857 
L 104.464425 273.818966 
L 113.835475 273.71631 
L 123.206525 273.562326 
L 132.577575 273.528107 
L 141.948625 273.682092 
L 151.319675 273.784748 
L 160.690725 273.818966 
L 170.061775 273.818966 
L 179.432825 273.784748 
L 188.803875 273.750529 
L 198.174925 273.664982 
L 207.545975 273.699201 
L 216.917025 273.630763 
L 226.288075 273.203029 
L 235.659125 273.151701 
L 245.030175 273.288576 
L 254.401225 273.049045 
L 263.772275 272.723967 
L 273.143325 271.355219 
L 282.514375 268.942799 
L 291.885425 263.31382 
L 301.256475 253.031095 
L 310.627525 241.516496 
L 319.998575 227.623697 
L 329.369625 218.162221 
L 338.740675 207.126685 
L 348.111725 181.787724 
L 357.482775 171.21414 
L 366.853825 166.389301 
L 376.224875 152.496501 
L 385.595925 114.445287 
L 394.966975 76.736259 
L 404.338025 66.983925 
L 413.709075 48.642692 
L 423.080125 49.104644 
L 432.451175 58.788542 
L 441.822225 53.176672 
L 451.193275 47.770114 
L 460.564325 59.010963 
L 469.935375 88.285077 
L 479.306425 110.150838 
L 488.677475 130.185897 
L 498.048525 161.59868 
L 507.419575 190.821466 
L 516.790625 212.926757 
L 526.161675 233.440879 
L 535.532725 247.213913 
L 544.903775 252.449377 
L 554.274825 254.570937 
L 563.645875 258.078356 
L 573.016925 263.159836 
L 582.387975 267.197644 
L 591.759025 270.311548 
L 601.130075 272.638421 
L 610.501125 273.254358 
L 619.872175 273.254358 
L 629.243225 273.357014 
L 638.614275 273.545217 
L 647.985325 273.408342 
L 657.356375 273.613654 
L 666.727425 273.904513 
L 676.098475 273.938732 
L 685.469525 273.955841 
L 694.840575 273.972951 
L 704.211625 273.99006 
L 713.582675 273.99006 
L 722.953725 273.99006 
L 732.324775 273.99006 
L 741.695825 273.99006 
L 751.066875 273.99006 
L 760.437925 273.99006 
L 769.808975 273.99006 
L 779.180025 273.99006 
L 788.551075 273.99006 
L 797.922125 273.99006 
L 807.293175 273.99006 
L 816.664225 273.99006 
L 826.035275 273.99006 
L 835.406325 273.99006 
L 844.777375 273.99006 
L 854.148425 273.99006 
L 863.519475 273.99006 
L 872.890525 273.99006 
L 882.261575 273.99006 
L 891.632625 273.99006 
L 901.003675 273.99006 
L 910.374725 273.99006 
L 919.745775 273.99006 
L 929.116825 273.99006 
L 938.487875 273.99006 
L 947.858925 273.99006 
L 957.229975 273.99006 
L 966.601025 273.99006 
L 975.972075 273.99006 
L 985.343125 273.99006 
" clip-path="url(#p7d67e7242a)" style="fill: none; stroke: #5cb85c; stroke-linecap: square"/>
   </g>
   <g id="line2d_15">
    <path d="M 48.238125 273.99006 
L 57.609175 273.99006 
L 66.980225 273.99006 
L 76.351275 273.972951 
L 85.722325 273.955841 
L 95.093375 273.955841 
L 104.464425 273.938732 
L 113.835475 273.938732 
L 123.206525 273.955841 
L 132.577575 273.938732 
L 141.948625 273.938732 
L 151.319675 273.955841 
L 160.690725 273.955841 
L 170.061775 273.955841 
L 179.432825 273.630763 
L 188.803875 273.237248 
L 198.174925 272.758186 
L 207.545975 272.415999 
L 216.917025 272.706858 
L 226.288075 272.706858 
L 235.659125 271.988265 
L 245.030175 272.364671 
L 254.401225 272.65553 
L 263.772275 272.450218 
L 273.143325 272.38178 
L 282.514375 271.149906 
L 291.885425 267.59116 
L 301.256475 262.064837 
L 310.627525 257.855934 
L 319.998575 253.219298 
L 329.369625 246.563757 
L 338.740675 235.767752 
L 348.111725 222.781748 
L 357.482775 221.892062 
L 366.853825 222.319796 
L 376.224875 214.021756 
L 385.595925 199.992082 
L 394.966975 183.738191 
L 404.338025 180.538741 
L 413.709075 180.983584 
L 423.080125 182.728739 
L 432.451175 177.287963 
L 441.822225 162.40282 
L 451.193275 159.117823 
L 460.564325 167.723831 
L 469.935375 173.62656 
L 479.306425 174.772887 
L 488.677475 185.517564 
L 498.048525 208.426996 
L 507.419575 228.61604 
L 516.790625 241.773137 
L 526.161675 253.253517 
L 535.532725 260.713197 
L 544.903775 262.595227 
L 554.274825 264.271944 
L 563.645875 266.444833 
L 573.016925 266.76991 
L 582.387975 270.072017 
L 591.759025 272.689749 
L 601.130075 273.425451 
L 610.501125 273.71631 
L 619.872175 273.699201 
L 629.243225 273.853185 
L 638.614275 273.904513 
L 647.985325 273.870294 
L 657.356375 273.887404 
L 666.727425 273.955841 
L 676.098475 273.99006 
L 685.469525 273.99006 
L 694.840575 273.99006 
L 704.211625 273.99006 
L 713.582675 273.99006 
L 722.953725 273.99006 
L 732.324775 273.99006 
L 741.695825 273.99006 
L 751.066875 273.99006 
L 760.437925 273.99006 
L 769.808975 273.99006 
L 779.180025 273.99006 
L 788.551075 273.99006 
L 797.922125 273.99006 
L 807.293175 273.99006 
L 816.664225 273.99006 
L 826.035275 273.99006 
L 835.406325 273.99006 
L 844.777375 273.99006 
L 854.148425 273.99006 
L 863.519475 273.99006 
L 872.890525 273.99006 
L 882.261575 273.99006 
L 891.632625 273.99006 
L 901.003675 273.99006 
L 910.374725 273.99006 
L 919.745775 273.99006 
L 929.116825 273.99006 
L 938.487875 273.99006 
L 947.858925 273.99006 
L 957.229975 273.99006 
L 966.601025 273.99006 
L 975.972075 273.99006 
L 985.343125 273.99006 
" clip-path="url(#p7d67e7242a)" style="fill: none; stroke: #f0ad4e; stroke-linecap: square"/>
   </g>
   <g id="line2d_16">
    <path d="M 48.238125 273.955841 
L 57.609175 273.955841 
L 66.980225 273.921623 
L 76.351275 273.887404 
L 85.722325 273.904513 
L 95.093375 273.836076 
L 104.464425 273.801857 
L 113.835475 273.836076 
L 123.206525 273.818966 
L 132.577575 273.853185 
L 141.948625 273.836076 
L 151.319675 273.767638 
L 160.690725 273.801857 
L 170.061775 273.836076 
L 179.432825 273.750529 
L 188.803875 273.767638 
L 198.174925 273.784748 
L 207.545975 273.71631 
L 216.917025 273.750529 
L 226.288075 273.579435 
L 235.659125 273.493889 
L 245.030175 273.493889 
L 254.401225 273.391232 
L 263.772275 273.408342 
L 273.143325 272.569983 
L 282.514375 271.372328 
L 291.885425 268.669049 
L 301.256475 263.929757 
L 310.627525 258.916715 
L 319.998575 253.150861 
L 329.369625 248.240475 
L 338.740675 241.448059 
L 348.111725 229.591273 
L 357.482775 226.20362 
L 366.853825 224.971746 
L 376.224875 217.648941 
L 385.595925 197.784975 
L 394.966975 178.109212 
L 404.338025 174.636012 
L 413.709075 167.21055 
L 423.080125 166.765707 
L 432.451175 170.803515 
L 441.822225 163.668913 
L 451.193275 158.775636 
L 460.564325 163.087195 
L 469.935375 173.729216 
L 479.306425 184.747643 
L 488.677475 194.944821 
L 498.048525 212.173946 
L 507.419575 228.479165 
L 516.790625 239.839779 
L 526.161675 251.918987 
L 535.532725 260.422338 
L 544.903775 262.23593 
L 554.274825 262.047727 
L 563.645875 264.836553 
L 573.016925 267.950456 
L 582.387975 269.98647 
L 591.759025 271.988265 
L 601.130075 273.357014 
L 610.501125 273.510998 
L 619.872175 273.664982 
L 629.243225 273.836076 
L 638.614275 273.750529 
L 647.985325 273.699201 
L 657.356375 273.801857 
L 666.727425 273.921623 
L 676.098475 273.955841 
L 685.469525 273.972951 
L 694.840575 273.99006 
L 704.211625 273.99006 
L 713.582675 273.99006 
L 722.953725 273.99006 
L 732.324775 273.99006 
L 741.695825 273.99006 
L 751.066875 273.99006 
L 760.437925 273.99006 
L 769.808975 273.99006 
L 779.180025 273.99006 
L 788.551075 273.99006 
L 797.922125 273.99006 
L 807.293175 273.99006 
L 816.664225 273.99006 
L 826.035275 273.99006 
L 835.406325 273.99006 
L 844.777375 273.99006 
L 854.148425 273.99006 
L 863.519475 273.99006 
L 872.890525 273.99006 
L 882.261575 273.99006 
L 891.632625 273.99006 
L 901.003675 273.99006 
L 910.374725 273.99006 
L 919.745775 273.99006 
L 929.116825 273.99006 
L 938.487875 273.99006 
L 947.858925 273.99006 
L 957.229975 273.99006 
L 966.601025 273.99006 
L 975.972075 273.99006 
L 985.343125 273.99006 
" clip-path="url(#p7d67e7242a)" style="fill: none; stroke: #f0ad4e; stroke-linecap: square"/>
   </g>
   <g id="line2d_17">
    <path d="M 48.238125 273.99006 
L 985.343125 273.99006 
" clip-path="url(#p7d67e7242a)" style="fill: none; stroke: #dedede; stroke-width: 2; stroke-linecap: square"/>
   </g>
   <g id="text_17">
    <!-- FastQC: Per Sequence GC Content -->
    <g transform="translate(380.154375 19.3575)scale(0.16 -0.16)">
     <defs>
      <path id="DejaVuSans-46" d="M 628 4666 
L 3309 4666 
L 3309 4134 
L 1259 4134 
L 1259 2759 
L 3109 2759 
L 3109 2228 
L 1259 2228 
L 1259 0 
L 628 0 
L 628 4666 
z
" transform="scale(0.015625)"/>
      <path id="DejaVuSans-61" d="M 2194 1759 
Q 1497 1759 1228 1600 
Q 959 1441 959 1056 
Q 959 750 1161 570 
Q 1363 391 1709 391 
Q 2188 391 2477 730 
Q 2766 1069 2766 1631 
L 2766 1759 
L 2194 1759 
z
M 3341 1997 
L 3341 0 
L 2766 0 
L 2766 531 
Q 2569 213 2275 61 
Q 1981 -91 1556 -91 
Q 1019 -91 701 211 
Q 384 513 384 1019 
Q 384 1609 779 1909 
Q 1175 2209 1959 2209 
L 2766 2209 
L 2766 2266 
Q 2766 2663 2505 2880 
Q 2244 3097 1772 3097 
Q 1472 3097 1187 3025 
Q 903 2953 641 2809 
L 641 3341 
Q 956 3463 1253 3523 
Q 1550 3584 1831 3584 
Q 2591 3584 2966 3190 
Q 3341 2797 3341 1997 
z
" transform="scale(0.015625)"/>
      <path id="DejaVuSans-73" d="M 2834 3397 
L 2834 2853 
Q 2591 2978 2328 3040 
Q 2066 3103 1784 3103 
Q 1356 3103 1142 2972 
Q 928 2841 928 2578 
Q 928 2378 1081 2264 
Q 1234 2150 1697 2047 
L 1894 2003 
Q 2506 1872 2764 1633 
Q 3022 1394 3022 966 
Q 3022 478 2636 193 
Q 2250 -91 1575 -91 
Q 1294 -91 989 -36 
Q 684 19 347 128 
L 347 722 
Q 666 556 975 473 
Q 1284 391 1588 391 
Q 1994 391 2212 530 
Q 2431 669 2431 922 
Q 2431 1156 2273 1281 
Q 2116 1406 1581 1522 
L 1381 1569 
Q 847 1681 609 1914 
Q 372 2147 372 2553 
Q 372 3047 722 3315 
Q 1072 3584 1716 3584 
Q 2034 3584 2315 3537 
Q 2597 3491 2834 3397 
z
" transform="scale(0.015625)"/>
      <path id="DejaVuSans-51" d="M 2522 4238 
Q 1834 4238 1429 3725 
Q 1025 3213 1025 2328 
Q 1025 1447 1429 934 
Q 1834 422 2522 422 
Q 3209 422 3611 934 
Q 4013 1447 4013 2328 
Q 4013 3213 3611 3725 
Q 3209 4238 2522 4238 
z
M 3406 84 
L 4238 -825 
L 3475 -825 
L 2784 -78 
Q 2681 -84 2626 -87 
Q 2572 -91 2522 -91 
Q 1538 -91 948 567 
Q 359 1225 359 2328 
Q 359 3434 948 4092 
Q 1538 4750 2522 4750 
Q 3503 4750 4090 4092 
Q 4678 3434 4678 2328 
Q 4678 1516 4351 937 
Q 4025 359 3406 84 
z
" transform="scale(0.015625)"/>
      <path id="DejaVuSans-3a" d="M 750 794 
L 1409 794 
L 1409 0 
L 750 0 
L 750 794 
z
M 750 3309 
L 1409 3309 
L 1409 2516 
L 750 2516 
L 750 3309 
z
" transform="scale(0.015625)"/>
      <path id="DejaVuSans-50" d="M 1259 4147 
L 1259 2394 
L 2053 2394 
Q 2494 2394 2734 2622 
Q 2975 2850 2975 3272 
Q 2975 3691 2734 3919 
Q 2494 4147 2053 4147 
L 1259 4147 
z
M 628 4666 
L 2053 4666 
Q 2838 4666 3239 4311 
Q 3641 3956 3641 3272 
Q 3641 2581 3239 2228 
Q 2838 1875 2053 1875 
L 1259 1875 
L 1259 0 
L 628 0 
L 628 4666 
z
" transform="scale(0.015625)"/>
      <path id="DejaVuSans-65" d="M 3597 1894 
L 3597 1613 
L 953 1613 
Q 991 1019 1311 708 
Q 1631 397 2203 397 
Q 2534 397 2845 478 
Q 3156 559 3463 722 
L 3463 178 
Q 3153 47 2828 -22 
Q 2503 -91 2169 -91 
Q 1331 -91 842 396 
Q 353 884 353 1716 
Q 353 2575 817 3079 
Q 1281 3584 2069 3584 
Q 2775 3584 3186 3129 
Q 3597 2675 3597 1894 
z
M 3022 2063 
Q 3016 2534 2758 2815 
Q 2500 3097 2075 3097 
Q 1594 3097 1305 2825 
Q 1016 2553 972 2059 
L 3022 2063 
z
" transform="scale(0.015625)"/>
      <path id="DejaVuSans-72" d="M 2631 2963 
Q 2534 3019 2420 3045 
Q 2306 3072 2169 3072 
Q 1681 3072 1420 2755 
Q 1159 2438 1159 1844 
L 1159 0 
L 581 0 
L 581 3500 
L 1159 3500 
L 1159 2956 
Q 1341 3275 1631 3429 
Q 1922 3584 2338 3584 
Q 2397 3584 2469 3576 
Q 2541 3569 2628 3553 
L 2631 2963 
z
" transform="scale(0.015625)"/>
      <path id="DejaVuSans-53" d="M 3425 4513 
L 3425 3897 
Q 3066 4069 2747 4153 
Q 2428 4238 2131 4238 
Q 1616 4238 1336 4038 
Q 1056 3838 1056 3469 
Q 1056 3159 1242 3001 
Q 1428 2844 1947 2747 
L 2328 2669 
Q 3034 2534 3370 2195 
Q 3706 1856 3706 1288 
Q 3706 609 3251 259 
Q 2797 -91 1919 -91 
Q 1588 -91 1214 -16 
Q 841 59 441 206 
L 441 856 
Q 825 641 1194 531 
Q 1563 422 1919 422 
Q 2459 422 2753 634 
Q 3047 847 3047 1241 
Q 3047 1584 2836 1778 
Q 2625 1972 2144 2069 
L 1759 2144 
Q 1053 2284 737 2584 
Q 422 2884 422 3419 
Q 422 4038 858 4394 
Q 1294 4750 2059 4750 
Q 2388 4750 2728 4690 
Q 3069 4631 3425 4513 
z
" transform="scale(0.015625)"/>
      <path id="DejaVuSans-71" d="M 947 1747 
Q 947 1113 1208 752 
Q 1469 391 1925 391 
Q 2381 391 2643 752 
Q 2906 1113 2906 1747 
Q 2906 2381 2643 2742 
Q 2381 3103 1925 3103 
Q 1469 3103 1208 2742 
Q 947 2381 947 1747 
z
M 2906 525 
Q 2725 213 2448 61 
Q 2172 -91 1784 -91 
Q 1150 -91 751 415 
Q 353 922 353 1747 
Q 353 2572 751 3078 
Q 1150 3584 1784 3584 
Q 2172 3584 2448 3432 
Q 2725 3281 2906 2969 
L 2906 3500 
L 3481 3500 
L 3481 -1331 
L 2906 -1331 
L 2906 525 
z
" transform="scale(0.015625)"/>
      <path id="DejaVuSans-63" d="M 3122 3366 
L 3122 2828 
Q 2878 2963 2633 3030 
Q 2388 3097 2138 3097 
Q 1578 3097 1268 2742 
Q 959 2388 959 1747 
Q 959 1106 1268 751 
Q 1578 397 2138 397 
Q 2388 397 2633 464 
Q 2878 531 3122 666 
L 3122 134 
Q 2881 22 2623 -34 
Q 2366 -91 2075 -91 
Q 1284 -91 818 406 
Q 353 903 353 1747 
Q 353 2603 823 3093 
Q 1294 3584 2113 3584 
Q 2378 3584 2631 3529 
Q 2884 3475 3122 3366 
z
" transform="scale(0.015625)"/>
     </defs>
     <use xlink:href="#DejaVuSans-46"/>
     <use xlink:href="#DejaVuSans-61" x="48.394531"/>
     <use xlink:href="#DejaVuSans-73" x="109.673828"/>
     <use xlink:href="#DejaVuSans-74" x="161.773438"/>
     <use xlink:href="#DejaVuSans-51" x="200.982422"/>
     <use xlink:href="#DejaVuSans-43" x="279.693359"/>
     <use xlink:href="#DejaVuSans-3a" x="349.517578"/>
     <use xlink:href="#DejaVuSans-20" x="383.208984"/>
     <use xlink:href="#DejaVuSans-50" x="414.996094"/>
     <use xlink:href="#DejaVuSans-65" x="471.673828"/>
     <use xlink:href="#DejaVuSans-72" x="533.197266"/>
     <use xlink:href="#DejaVuSans-20" x="574.310547"/>
     <use xlink:href="#DejaVuSans-53" x="606.097656"/>
     <use xlink:href="#DejaVuSans-65" x="669.574219"/>
     <use xlink:href="#DejaVuSans-71" x="731.097656"/>
     <use xlink:href="#DejaVuSans-75" x="794.574219"/>
     <use xlink:href="#DejaVuSans-65" x="857.953125"/>
     <use xlink:href="#DejaVuSans-6e" x="919.476562"/>
     <use xlink:href="#DejaVuSans-63" x="982.855469"/>
     <use xlink:href="#DejaVuSans-65" x="1037.835938"/>
     <use xlink:href="#DejaVuSans-20" x="1099.359375"/>
     <use xlink:href="#DejaVuSans-47" x="1131.146484"/>
     <use xlink:href="#DejaVuSans-43" x="1208.636719"/>
     <use xlink:href="#DejaVuSans-20" x="1278.460938"/>
     <use xlink:href="#DejaVuSans-43" x="1310.248047"/>
     <use xlink:href="#DejaVuSans-6f" x="1380.072266"/>
     <use xlink:href="#DejaVuSans-6e" x="1441.253906"/>
     <use xlink:href="#DejaVuSans-74" x="1504.632812"/>
     <use xlink:href="#DejaVuSans-65" x="1543.841797"/>
     <use xlink:href="#DejaVuSans-6e" x="1605.365234"/>
     <use xlink:href="#DejaVuSans-74" x="1668.744141"/>
    </g>
   </g>
   <g id="legend_1">
    <g id="line2d_18">
     <path d="M 55.438125 303.490394 
L 63.438125 303.490394 
L 71.438125 303.490394 
" style="fill: none; stroke: #f0ad4e; stroke-linecap: square"/>
    </g>
    <g id="text_18">
     <!-- RAP1_IAA_30M_REP1_1 -->
     <g transform="translate(77.838125 306.290394)scale(0.08 -0.08)">
      <defs>
       <path id="DejaVuSans-52" d="M 2841 2188 
Q 3044 2119 3236 1894 
Q 3428 1669 3622 1275 
L 4263 0 
L 3584 0 
L 2988 1197 
Q 2756 1666 2539 1819 
Q 2322 1972 1947 1972 
L 1259 1972 
L 1259 0 
L 628 0 
L 628 4666 
L 2053 4666 
Q 2853 4666 3247 4331 
Q 3641 3997 3641 3322 
Q 3641 2881 3436 2590 
Q 3231 2300 2841 2188 
z
M 1259 4147 
L 1259 2491 
L 2053 2491 
Q 2509 2491 2742 2702 
Q 2975 2913 2975 3322 
Q 2975 3731 2742 3939 
Q 2509 4147 2053 4147 
L 1259 4147 
z
" transform="scale(0.015625)"/>
       <path id="DejaVuSans-41" d="M 2188 4044 
L 1331 1722 
L 3047 1722 
L 2188 4044 
z
M 1831 4666 
L 2547 4666 
L 4325 0 
L 3669 0 
L 3244 1197 
L 1141 1197 
L 716 0 
L 50 0 
L 1831 4666 
z
" transform="scale(0.015625)"/>
       <path id="DejaVuSans-5f" d="M 3263 -1063 
L 3263 -1509 
L -63 -1509 
L -63 -1063 
L 3263 -1063 
z
" transform="scale(0.015625)"/>
       <path id="DejaVuSans-49" d="M 628 4666 
L 1259 4666 
L 1259 0 
L 628 0 
L 628 4666 
z
" transform="scale(0.015625)"/>
       <path id="DejaVuSans-4d" d="M 628 4666 
L 1569 4666 
L 2759 1491 
L 3956 4666 
L 4897 4666 
L 4897 0 
L 4281 0 
L 4281 4097 
L 3078 897 
L 2444 897 
L 1241 4097 
L 1241 0 
L 628 0 
L 628 4666 
z
" transform="scale(0.015625)"/>
       <path id="DejaVuSans-45" d="M 628 4666 
L 3578 4666 
L 3578 4134 
L 1259 4134 
L 1259 2753 
L 3481 2753 
L 3481 2222 
L 1259 2222 
L 1259 531 
L 3634 531 
L 3634 0 
L 628 0 
L 628 4666 
z
" transform="scale(0.015625)"/>
      </defs>
      <use xlink:href="#DejaVuSans-52"/>
      <use xlink:href="#DejaVuSans-41" x="65.482422"/>
      <use xlink:href="#DejaVuSans-50" x="133.890625"/>
      <use xlink:href="#DejaVuSans-31" x="194.193359"/>
      <use xlink:href="#DejaVuSans-5f" x="257.816406"/>
      <use xlink:href="#DejaVuSans-49" x="307.816406"/>
      <use xlink:href="#DejaVuSans-41" x="337.308594"/>
      <use xlink:href="#DejaVuSans-41" x="408.466797"/>
      <use xlink:href="#DejaVuSans-5f" x="476.875"/>
      <use xlink:href="#DejaVuSans-33" x="526.875"/>
      <use xlink:href="#DejaVuSans-30" x="590.498047"/>
      <use xlink:href="#DejaVuSans-4d" x="654.121094"/>
      <use xlink:href="#DejaVuSans-5f" x="740.400391"/>
      <use xlink:href="#DejaVuSans-52" x="790.400391"/>
      <use xlink:href="#DejaVuSans-45" x="859.882812"/>
      <use xlink:href="#DejaVuSans-50" x="923.066406"/>
      <use xlink:href="#DejaVuSans-31" x="983.369141"/>
      <use xlink:href="#DejaVuSans-5f" x="1046.992188"/>
      <use xlink:href="#DejaVuSans-31" x="1096.992188"/>
     </g>
    </g>
    <g id="line2d_19">
     <path d="M 55.438125 315.455394 
L 63.438125 315.455394 
L 71.438125 315.455394 
" style="fill: none; stroke: #5cb85c; stroke-linecap: square"/>
    </g>
    <g id="text_19">
     <!-- RAP1_IAA_30M_REP1_2 -->
     <g transform="translate(77.838125 318.255394)scale(0.08 -0.08)">
      <use xlink:href="#DejaVuSans-52"/>
      <use xlink:href="#DejaVuSans-41" x="65.482422"/>
      <use xlink:href="#DejaVuSans-50" x="133.890625"/>
      <use xlink:href="#DejaVuSans-31" x="194.193359"/>
      <use xlink:href="#DejaVuSans-5f" x="257.816406"/>
      <use xlink:href="#DejaVuSans-49" x="307.816406"/>
      <use xlink:href="#DejaVuSans-41" x="337.308594"/>
      <use xlink:href="#DejaVuSans-41" x="408.466797"/>
      <use xlink:href="#DejaVuSans-5f" x="476.875"/>
      <use xlink:href="#DejaVuSans-33" x="526.875"/>
      <use xlink:href="#DejaVuSans-30" x="590.498047"/>
      <use xlink:href="#DejaVuSans-4d" x="654.121094"/>
      <use xlink:href="#DejaVuSans-5f" x="740.400391"/>
      <use xlink:href="#DejaVuSans-52" x="790.400391"/>
      <use xlink:href="#DejaVuSans-45" x="859.882812"/>
      <use xlink:href="#DejaVuSans-50" x="923.066406"/>
      <use xlink:href="#DejaVuSans-31" x="983.369141"/>
      <use xlink:href="#DejaVuSans-5f" x="1046.992188"/>
      <use xlink:href="#DejaVuSans-32" x="1096.992188"/>
     </g>
    </g>
    <g id="line2d_20">
     <path d="M 290.803125 303.490394 
L 298.803125 303.490394 
L 306.803125 303.490394 
" style="fill: none; stroke: #f0ad4e; stroke-linecap: square"/>
    </g>
    <g id="text_20">
     <!-- RAP1_UNINDUCED_REP1 -->
     <g transform="translate(313.203125 306.290394)scale(0.08 -0.08)">
      <defs>
       <path id="DejaVuSans-55" d="M 556 4666 
L 1191 4666 
L 1191 1831 
Q 1191 1081 1462 751 
Q 1734 422 2344 422 
Q 2950 422 3222 751 
Q 3494 1081 3494 1831 
L 3494 4666 
L 4128 4666 
L 4128 1753 
Q 4128 841 3676 375 
Q 3225 -91 2344 -91 
Q 1459 -91 1007 375 
Q 556 841 556 1753 
L 556 4666 
z
" transform="scale(0.015625)"/>
       <path id="DejaVuSans-4e" d="M 628 4666 
L 1478 4666 
L 3547 763 
L 3547 4666 
L 4159 4666 
L 4159 0 
L 3309 0 
L 1241 3903 
L 1241 0 
L 628 0 
L 628 4666 
z
" transform="scale(0.015625)"/>
       <path id="DejaVuSans-44" d="M 1259 4147 
L 1259 519 
L 2022 519 
Q 2988 519 3436 956 
Q 3884 1394 3884 2338 
Q 3884 3275 3436 3711 
Q 2988 4147 2022 4147 
L 1259 4147 
z
M 628 4666 
L 1925 4666 
Q 3281 4666 3915 4102 
Q 4550 3538 4550 2338 
Q 4550 1131 3912 565 
Q 3275 0 1925 0 
L 628 0 
L 628 4666 
z
" transform="scale(0.015625)"/>
      </defs>
      <use xlink:href="#DejaVuSans-52"/>
      <use xlink:href="#DejaVuSans-41" x="65.482422"/>
      <use xlink:href="#DejaVuSans-50" x="133.890625"/>
      <use xlink:href="#DejaVuSans-31" x="194.193359"/>
      <use xlink:href="#DejaVuSans-5f" x="257.816406"/>
      <use xlink:href="#DejaVuSans-55" x="307.816406"/>
      <use xlink:href="#DejaVuSans-4e" x="381.009766"/>
      <use xlink:href="#DejaVuSans-49" x="455.814453"/>
      <use xlink:href="#DejaVuSans-4e" x="485.306641"/>
      <use xlink:href="#DejaVuSans-44" x="560.111328"/>
      <use xlink:href="#DejaVuSans-55" x="637.113281"/>
      <use xlink:href="#DejaVuSans-43" x="710.306641"/>
      <use xlink:href="#DejaVuSans-45" x="780.130859"/>
      <use xlink:href="#DejaVuSans-44" x="843.314453"/>
      <use xlink:href="#DejaVuSans-5f" x="920.316406"/>
      <use xlink:href="#DejaVuSans-52" x="970.316406"/>
      <use xlink:href="#DejaVuSans-45" x="1039.798828"/>
      <use xlink:href="#DejaVuSans-50" x="1102.982422"/>
      <use xlink:href="#DejaVuSans-31" x="1163.285156"/>
     </g>
    </g>
    <g id="line2d_21">
     <path d="M 290.803125 315.455394 
L 298.803125 315.455394 
L 306.803125 315.455394 
" style="fill: none; stroke: #f0ad4e; stroke-linecap: square"/>
    </g>
    <g id="text_21">
     <!-- RAP1_UNINDUCED_REP2 -->
     <g transform="translate(313.203125 318.255394)scale(0.08 -0.08)">
      <use xlink:href="#DejaVuSans-52"/>
      <use xlink:href="#DejaVuSans-41" x="65.482422"/>
      <use xlink:href="#DejaVuSans-50" x="133.890625"/>
      <use xlink:href="#DejaVuSans-31" x="194.193359"/>
      <use xlink:href="#DejaVuSans-5f" x="257.816406"/>
      <use xlink:href="#DejaVuSans-55" x="307.816406"/>
      <use xlink:href="#DejaVuSans-4e" x="381.009766"/>
      <use xlink:href="#DejaVuSans-49" x="455.814453"/>
      <use xlink:href="#DejaVuSans-4e" x="485.306641"/>
      <use xlink:href="#DejaVuSans-44" x="560.111328"/>
      <use xlink:href="#DejaVuSans-55" x="637.113281"/>
      <use xlink:href="#DejaVuSans-43" x="710.306641"/>
      <use xlink:href="#DejaVuSans-45" x="780.130859"/>
      <use xlink:href="#DejaVuSans-44" x="843.314453"/>
      <use xlink:href="#DejaVuSans-5f" x="920.316406"/>
      <use xlink:href="#DejaVuSans-52" x="970.316406"/>
      <use xlink:href="#DejaVuSans-45" x="1039.798828"/>
      <use xlink:href="#DejaVuSans-50" x="1102.982422"/>
      <use xlink:href="#DejaVuSans-32" x="1163.285156"/>
     </g>
    </g>
    <g id="line2d_22">
     <path d="M 531.471875 303.490394 
L 539.471875 303.490394 
L 547.471875 303.490394 
" style="fill: none; stroke: #f0ad4e; stroke-linecap: square"/>
    </g>
    <g id="text_22">
     <!-- WT_REP1_1 -->
     <g transform="translate(553.871875 306.290394)scale(0.08 -0.08)">
      <defs>
       <path id="DejaVuSans-57" d="M 213 4666 
L 850 4666 
L 1831 722 
L 2809 4666 
L 3519 4666 
L 4500 722 
L 5478 4666 
L 6119 4666 
L 4947 0 
L 4153 0 
L 3169 4050 
L 2175 0 
L 1381 0 
L 213 4666 
z
" transform="scale(0.015625)"/>
       <path id="DejaVuSans-54" d="M -19 4666 
L 3928 4666 
L 3928 4134 
L 2272 4134 
L 2272 0 
L 1638 0 
L 1638 4134 
L -19 4134 
L -19 4666 
z
" transform="scale(0.015625)"/>
      </defs>
      <use xlink:href="#DejaVuSans-57"/>
      <use xlink:href="#DejaVuSans-54" x="98.876953"/>
      <use xlink:href="#DejaVuSans-5f" x="159.960938"/>
      <use xlink:href="#DejaVuSans-52" x="209.960938"/>
      <use xlink:href="#DejaVuSans-45" x="279.443359"/>
      <use xlink:href="#DejaVuSans-50" x="342.626953"/>
      <use xlink:href="#DejaVuSans-31" x="402.929688"/>
      <use xlink:href="#DejaVuSans-5f" x="466.552734"/>
      <use xlink:href="#DejaVuSans-31" x="516.552734"/>
     </g>
    </g>
    <g id="line2d_23">
     <path d="M 531.471875 315.455394 
L 539.471875 315.455394 
L 547.471875 315.455394 
" style="fill: none; stroke: #5cb85c; stroke-linecap: square"/>
    </g>
    <g id="text_23">
     <!-- WT_REP1_2 -->
     <g transform="translate(553.871875 318.255394)scale(0.08 -0.08)">
      <use xlink:href="#DejaVuSans-57"/>
      <use xlink:href="#DejaVuSans-54" x="98.876953"/>
      <use xlink:href="#DejaVuSans-5f" x="159.960938"/>
      <use xlink:href="#DejaVuSans-52" x="209.960938"/>
      <use xlink:href="#DejaVuSans-45" x="279.443359"/>
      <use xlink:href="#DejaVuSans-50" x="342.626953"/>
      <use xlink:href="#DejaVuSans-31" x="402.929688"/>
      <use xlink:href="#DejaVuSans-5f" x="466.552734"/>
      <use xlink:href="#DejaVuSans-32" x="516.552734"/>
     </g>
    </g>
    <g id="line2d_24">
     <path d="M 720.400625 303.490394 
L 728.400625 303.490394 
L 736.400625 303.490394 
" style="fill: none; stroke: #f0ad4e; stroke-linecap: square"/>
    </g>
    <g id="text_24">
     <!-- WT_REP2_1 -->
     <g transform="translate(742.800625 306.290394)scale(0.08 -0.08)">
      <use xlink:href="#DejaVuSans-57"/>
      <use xlink:href="#DejaVuSans-54" x="98.876953"/>
      <use xlink:href="#DejaVuSans-5f" x="159.960938"/>
      <use xlink:href="#DejaVuSans-52" x="209.960938"/>
      <use xlink:href="#DejaVuSans-45" x="279.443359"/>
      <use xlink:href="#DejaVuSans-50" x="342.626953"/>
      <use xlink:href="#DejaVuSans-32" x="402.929688"/>
      <use xlink:href="#DejaVuSans-5f" x="466.552734"/>
      <use xlink:href="#DejaVuSans-31" x="516.552734"/>
     </g>
    </g>
    <g id="line2d_25">
     <path d="M 909.329375 303.490394 
L 917.329375 303.490394 
L 925.329375 303.490394 
" style="fill: none; stroke: #f0ad4e; stroke-linecap: square"/>
    </g>
    <g id="text_25">
     <!-- WT_REP2_2 -->
     <g transform="translate(931.729375 306.290394)scale(0.08 -0.08)">
      <use xlink:href="#DejaVuSans-57"/>
      <use xlink:href="#DejaVuSans-54" x="98.876953"/>
      <use xlink:href="#DejaVuSans-5f" x="159.960938"/>
      <use xlink:href="#DejaVuSans-52" x="209.960938"/>
      <use xlink:href="#DejaVuSans-45" x="279.443359"/>
      <use xlink:href="#DejaVuSans-50" x="342.626953"/>
      <use xlink:href="#DejaVuSans-32" x="402.929688"/>
      <use xlink:href="#DejaVuSans-5f" x="466.552734"/>
      <use xlink:href="#DejaVuSans-32" x="516.552734"/>
     </g>
    </g>
   </g>
  </g>
 </g>
 <defs>
  <clipPath id="p7d67e7242a">
   <rect x="48.238125" y="31.48286" width="937.105" height="242.5072"/>
  </clipPath>
 </defs>
</svg>
