<?xml version="1.0" encoding="utf-8" standalone="no"?>
<!DOCTYPE svg PUBLIC "-//W3C//DTD SVG 1.1//EN"
  "http://www.w3.org/Graphics/SVG/1.1/DTD/svg11.dtd">
<svg xmlns:xlink="http://www.w3.org/1999/xlink" width="1000.198125pt" height="330.541644pt" viewBox="0 0 1000.198125 330.541644" xmlns="http://www.w3.org/2000/svg" version="1.1">
 <metadata>
  <rdf:RDF xmlns:dc="http://purl.org/dc/elements/1.1/" xmlns:cc="http://creativecommons.org/ns#" xmlns:rdf="http://www.w3.org/1999/02/22-rdf-syntax-ns#">
   <cc:Work>
    <dc:type rdf:resource="http://purl.org/dc/dcmitype/StillImage"/>
    <dc:date>2023-03-08T12:55:18.712245</dc:date>
    <dc:format>image/svg+xml</dc:format>
    <dc:creator>
     <cc:Agent>
      <dc:title>Matplotlib v3.5.3, https://matplotlib.org/</dc:title>
     </cc:Agent>
    </dc:creator>
   </cc:Work>
  </rdf:RDF>
 </metadata>
 <defs>
  <style type="text/css">*{stroke-linejoin: round; stroke-linecap: butt}</style>
 </defs>
 <g id="figure_1">
  <g id="axes_1">
   <g id="patch_1">
    <path d="M 53.328125 273.99006 
L 992.998125 273.99006 
L 992.998125 31.48286 
L 53.328125 31.48286 
z
" style="fill: #ffffff"/>
   </g>
   <g id="patch_2">
    <path d="M 751.226268 273.99006 
L 2545.821494 273.99006 
L 2545.821494 31.48286 
L 751.226268 31.48286 
z
" clip-path="url(#pec2d6b0715)" style="fill: #c3e6c3"/>
   </g>
   <g id="patch_3">
    <path d="M 551.826799 273.99006 
L 751.226268 273.99006 
L 751.226268 31.48286 
L 551.826799 31.48286 
z
" clip-path="url(#pec2d6b0715)" style="fill: #e6dcc3"/>
   </g>
   <g id="patch_4">
    <path d="M 53.328125 273.99006 
L 551.826799 273.99006 
L 551.826799 31.48286 
L 53.328125 31.48286 
z
" clip-path="url(#pec2d6b0715)" style="fill: #e6c3c3"/>
   </g>
   <g id="matplotlib.axis_1">
    <g id="xtick_1">
     <g id="text_1">
      <!-- 0 -->
      <g transform="translate(50.783125 287.06881)scale(0.08 -0.08)">
       <defs>
        <path id="DejaVuSans-30" d="M 2034 4250 
Q 1547 4250 1301 3770 
Q 1056 3291 1056 2328 
Q 1056 1369 1301 889 
Q 1547 409 2034 409 
Q 2525 409 2770 889 
Q 3016 1369 3016 2328 
Q 3016 3291 2770 3770 
Q 2525 4250 2034 4250 
z
M 2034 4750 
Q 2819 4750 3233 4129 
Q 3647 3509 3647 2328 
Q 3647 1150 3233 529 
Q 2819 -91 2034 -91 
Q 1250 -91 836 529 
Q 422 1150 422 2328 
Q 422 3509 836 4129 
Q 1250 4750 2034 4750 
z
" transform="scale(0.015625)"/>
       </defs>
       <use xlink:href="#DejaVuSans-30"/>
      </g>
     </g>
    </g>
    <g id="xtick_2">
     <g id="text_2">
      <!-- 5 -->
      <g transform="translate(175.407793 287.06881)scale(0.08 -0.08)">
       <defs>
        <path id="DejaVuSans-35" d="M 691 4666 
L 3169 4666 
L 3169 4134 
L 1269 4134 
L 1269 2991 
Q 1406 3038 1543 3061 
Q 1681 3084 1819 3084 
Q 2600 3084 3056 2656 
Q 3513 2228 3513 1497 
Q 3513 744 3044 326 
Q 2575 -91 1722 -91 
Q 1428 -91 1123 -41 
Q 819 9 494 109 
L 494 744 
Q 775 591 1075 516 
Q 1375 441 1709 441 
Q 2250 441 2565 725 
Q 2881 1009 2881 1497 
Q 2881 1984 2565 2268 
Q 2250 2553 1709 2553 
Q 1456 2553 1204 2497 
Q 953 2441 691 2322 
L 691 4666 
z
" transform="scale(0.015625)"/>
       </defs>
       <use xlink:href="#DejaVuSans-35"/>
      </g>
     </g>
    </g>
    <g id="xtick_3">
     <g id="text_3">
      <!-- 10 -->
      <g transform="translate(297.487462 287.06881)scale(0.08 -0.08)">
       <defs>
        <path id="DejaVuSans-31" d="M 794 531 
L 1825 531 
L 1825 4091 
L 703 3866 
L 703 4441 
L 1819 4666 
L 2450 4666 
L 2450 531 
L 3481 531 
L 3481 0 
L 794 0 
L 794 531 
z
" transform="scale(0.015625)"/>
       </defs>
       <use xlink:href="#DejaVuSans-31"/>
       <use xlink:href="#DejaVuSans-30" x="63.623047"/>
      </g>
     </g>
    </g>
    <g id="xtick_4">
     <g id="text_4">
      <!-- 15 -->
      <g transform="translate(422.11213 287.06881)scale(0.08 -0.08)">
       <use xlink:href="#DejaVuSans-31"/>
       <use xlink:href="#DejaVuSans-35" x="63.623047"/>
      </g>
     </g>
    </g>
    <g id="xtick_5">
     <g id="text_5">
      <!-- 20 -->
      <g transform="translate(546.736799 287.06881)scale(0.08 -0.08)">
       <defs>
        <path id="DejaVuSans-32" d="M 1228 531 
L 3431 531 
L 3431 0 
L 469 0 
L 469 531 
Q 828 903 1448 1529 
Q 2069 2156 2228 2338 
Q 2531 2678 2651 2914 
Q 2772 3150 2772 3378 
Q 2772 3750 2511 3984 
Q 2250 4219 1831 4219 
Q 1534 4219 1204 4116 
Q 875 4013 500 3803 
L 500 4441 
Q 881 4594 1212 4672 
Q 1544 4750 1819 4750 
Q 2544 4750 2975 4387 
Q 3406 4025 3406 3419 
Q 3406 3131 3298 2873 
Q 3191 2616 2906 2266 
Q 2828 2175 2409 1742 
Q 1991 1309 1228 531 
z
" transform="scale(0.015625)"/>
       </defs>
       <use xlink:href="#DejaVuSans-32"/>
       <use xlink:href="#DejaVuSans-30" x="63.623047"/>
      </g>
     </g>
    </g>
    <g id="xtick_6">
     <g id="text_6">
      <!-- 25 -->
      <g transform="translate(671.361467 287.06881)scale(0.08 -0.08)">
       <use xlink:href="#DejaVuSans-32"/>
       <use xlink:href="#DejaVuSans-35" x="63.623047"/>
      </g>
     </g>
    </g>
    <g id="xtick_7">
     <g id="text_7">
      <!-- 30 -->
      <g transform="translate(795.986136 287.06881)scale(0.08 -0.08)">
       <defs>
        <path id="DejaVuSans-33" d="M 2597 2516 
Q 3050 2419 3304 2112 
Q 3559 1806 3559 1356 
Q 3559 666 3084 287 
Q 2609 -91 1734 -91 
Q 1441 -91 1130 -33 
Q 819 25 488 141 
L 488 750 
Q 750 597 1062 519 
Q 1375 441 1716 441 
Q 2309 441 2620 675 
Q 2931 909 2931 1356 
Q 2931 1769 2642 2001 
Q 2353 2234 1838 2234 
L 1294 2234 
L 1294 2753 
L 1863 2753 
Q 2328 2753 2575 2939 
Q 2822 3125 2822 3475 
Q 2822 3834 2567 4026 
Q 2313 4219 1838 4219 
Q 1578 4219 1281 4162 
Q 984 4106 628 3988 
L 628 4550 
Q 988 4650 1302 4700 
Q 1616 4750 1894 4750 
Q 2613 4750 3031 4423 
Q 3450 4097 3450 3541 
Q 3450 3153 3228 2886 
Q 3006 2619 2597 2516 
z
" transform="scale(0.015625)"/>
       </defs>
       <use xlink:href="#DejaVuSans-33"/>
       <use xlink:href="#DejaVuSans-30" x="63.623047"/>
      </g>
     </g>
    </g>
    <g id="xtick_8">
     <g id="text_8">
      <!-- 35 -->
      <g transform="translate(920.610804 287.06881)scale(0.08 -0.08)">
       <use xlink:href="#DejaVuSans-33"/>
       <use xlink:href="#DejaVuSans-35" x="63.623047"/>
      </g>
     </g>
    </g>
    <g id="text_9">
     <!-- Mean Sequence Quality (Phred Score) -->
     <g transform="translate(428.370938 300.330997)scale(0.1 -0.1)">
      <defs>
       <path id="DejaVuSans-4d" d="M 628 4666 
L 1569 4666 
L 2759 1491 
L 3956 4666 
L 4897 4666 
L 4897 0 
L 4281 0 
L 4281 4097 
L 3078 897 
L 2444 897 
L 1241 4097 
L 1241 0 
L 628 0 
L 628 4666 
z
" transform="scale(0.015625)"/>
       <path id="DejaVuSans-65" d="M 3597 1894 
L 3597 1613 
L 953 1613 
Q 991 1019 1311 708 
Q 1631 397 2203 397 
Q 2534 397 2845 478 
Q 3156 559 3463 722 
L 3463 178 
Q 3153 47 2828 -22 
Q 2503 -91 2169 -91 
Q 1331 -91 842 396 
Q 353 884 353 1716 
Q 353 2575 817 3079 
Q 1281 3584 2069 3584 
Q 2775 3584 3186 3129 
Q 3597 2675 3597 1894 
z
M 3022 2063 
Q 3016 2534 2758 2815 
Q 2500 3097 2075 3097 
Q 1594 3097 1305 2825 
Q 1016 2553 972 2059 
L 3022 2063 
z
" transform="scale(0.015625)"/>
       <path id="DejaVuSans-61" d="M 2194 1759 
Q 1497 1759 1228 1600 
Q 959 1441 959 1056 
Q 959 750 1161 570 
Q 1363 391 1709 391 
Q 2188 391 2477 730 
Q 2766 1069 2766 1631 
L 2766 1759 
L 2194 1759 
z
M 3341 1997 
L 3341 0 
L 2766 0 
L 2766 531 
Q 2569 213 2275 61 
Q 1981 -91 1556 -91 
Q 1019 -91 701 211 
Q 384 513 384 1019 
Q 384 1609 779 1909 
Q 1175 2209 1959 2209 
L 2766 2209 
L 2766 2266 
Q 2766 2663 2505 2880 
Q 2244 3097 1772 3097 
Q 1472 3097 1187 3025 
Q 903 2953 641 2809 
L 641 3341 
Q 956 3463 1253 3523 
Q 1550 3584 1831 3584 
Q 2591 3584 2966 3190 
Q 3341 2797 3341 1997 
z
" transform="scale(0.015625)"/>
       <path id="DejaVuSans-6e" d="M 3513 2113 
L 3513 0 
L 2938 0 
L 2938 2094 
Q 2938 2591 2744 2837 
Q 2550 3084 2163 3084 
Q 1697 3084 1428 2787 
Q 1159 2491 1159 1978 
L 1159 0 
L 581 0 
L 581 3500 
L 1159 3500 
L 1159 2956 
Q 1366 3272 1645 3428 
Q 1925 3584 2291 3584 
Q 2894 3584 3203 3211 
Q 3513 2838 3513 2113 
z
" transform="scale(0.015625)"/>
       <path id="DejaVuSans-20" transform="scale(0.015625)"/>
       <path id="DejaVuSans-53" d="M 3425 4513 
L 3425 3897 
Q 3066 4069 2747 4153 
Q 2428 4238 2131 4238 
Q 1616 4238 1336 4038 
Q 1056 3838 1056 3469 
Q 1056 3159 1242 3001 
Q 1428 2844 1947 2747 
L 2328 2669 
Q 3034 2534 3370 2195 
Q 3706 1856 3706 1288 
Q 3706 609 3251 259 
Q 2797 -91 1919 -91 
Q 1588 -91 1214 -16 
Q 841 59 441 206 
L 441 856 
Q 825 641 1194 531 
Q 1563 422 1919 422 
Q 2459 422 2753 634 
Q 3047 847 3047 1241 
Q 3047 1584 2836 1778 
Q 2625 1972 2144 2069 
L 1759 2144 
Q 1053 2284 737 2584 
Q 422 2884 422 3419 
Q 422 4038 858 4394 
Q 1294 4750 2059 4750 
Q 2388 4750 2728 4690 
Q 3069 4631 3425 4513 
z
" transform="scale(0.015625)"/>
       <path id="DejaVuSans-71" d="M 947 1747 
Q 947 1113 1208 752 
Q 1469 391 1925 391 
Q 2381 391 2643 752 
Q 2906 1113 2906 1747 
Q 2906 2381 2643 2742 
Q 2381 3103 1925 3103 
Q 1469 3103 1208 2742 
Q 947 2381 947 1747 
z
M 2906 525 
Q 2725 213 2448 61 
Q 2172 -91 1784 -91 
Q 1150 -91 751 415 
Q 353 922 353 1747 
Q 353 2572 751 3078 
Q 1150 3584 1784 3584 
Q 2172 3584 2448 3432 
Q 2725 3281 2906 2969 
L 2906 3500 
L 3481 3500 
L 3481 -1331 
L 2906 -1331 
L 2906 525 
z
" transform="scale(0.015625)"/>
       <path id="DejaVuSans-75" d="M 544 1381 
L 544 3500 
L 1119 3500 
L 1119 1403 
Q 1119 906 1312 657 
Q 1506 409 1894 409 
Q 2359 409 2629 706 
Q 2900 1003 2900 1516 
L 2900 3500 
L 3475 3500 
L 3475 0 
L 2900 0 
L 2900 538 
Q 2691 219 2414 64 
Q 2138 -91 1772 -91 
Q 1169 -91 856 284 
Q 544 659 544 1381 
z
M 1991 3584 
L 1991 3584 
z
" transform="scale(0.015625)"/>
       <path id="DejaVuSans-63" d="M 3122 3366 
L 3122 2828 
Q 2878 2963 2633 3030 
Q 2388 3097 2138 3097 
Q 1578 3097 1268 2742 
Q 959 2388 959 1747 
Q 959 1106 1268 751 
Q 1578 397 2138 397 
Q 2388 397 2633 464 
Q 2878 531 3122 666 
L 3122 134 
Q 2881 22 2623 -34 
Q 2366 -91 2075 -91 
Q 1284 -91 818 406 
Q 353 903 353 1747 
Q 353 2603 823 3093 
Q 1294 3584 2113 3584 
Q 2378 3584 2631 3529 
Q 2884 3475 3122 3366 
z
" transform="scale(0.015625)"/>
       <path id="DejaVuSans-51" d="M 2522 4238 
Q 1834 4238 1429 3725 
Q 1025 3213 1025 2328 
Q 1025 1447 1429 934 
Q 1834 422 2522 422 
Q 3209 422 3611 934 
Q 4013 1447 4013 2328 
Q 4013 3213 3611 3725 
Q 3209 4238 2522 4238 
z
M 3406 84 
L 4238 -825 
L 3475 -825 
L 2784 -78 
Q 2681 -84 2626 -87 
Q 2572 -91 2522 -91 
Q 1538 -91 948 567 
Q 359 1225 359 2328 
Q 359 3434 948 4092 
Q 1538 4750 2522 4750 
Q 3503 4750 4090 4092 
Q 4678 3434 4678 2328 
Q 4678 1516 4351 937 
Q 4025 359 3406 84 
z
" transform="scale(0.015625)"/>
       <path id="DejaVuSans-6c" d="M 603 4863 
L 1178 4863 
L 1178 0 
L 603 0 
L 603 4863 
z
" transform="scale(0.015625)"/>
       <path id="DejaVuSans-69" d="M 603 3500 
L 1178 3500 
L 1178 0 
L 603 0 
L 603 3500 
z
M 603 4863 
L 1178 4863 
L 1178 4134 
L 603 4134 
L 603 4863 
z
" transform="scale(0.015625)"/>
       <path id="DejaVuSans-74" d="M 1172 4494 
L 1172 3500 
L 2356 3500 
L 2356 3053 
L 1172 3053 
L 1172 1153 
Q 1172 725 1289 603 
Q 1406 481 1766 481 
L 2356 481 
L 2356 0 
L 1766 0 
Q 1100 0 847 248 
Q 594 497 594 1153 
L 594 3053 
L 172 3053 
L 172 3500 
L 594 3500 
L 594 4494 
L 1172 4494 
z
" transform="scale(0.015625)"/>
       <path id="DejaVuSans-79" d="M 2059 -325 
Q 1816 -950 1584 -1140 
Q 1353 -1331 966 -1331 
L 506 -1331 
L 506 -850 
L 844 -850 
Q 1081 -850 1212 -737 
Q 1344 -625 1503 -206 
L 1606 56 
L 191 3500 
L 800 3500 
L 1894 763 
L 2988 3500 
L 3597 3500 
L 2059 -325 
z
" transform="scale(0.015625)"/>
       <path id="DejaVuSans-28" d="M 1984 4856 
Q 1566 4138 1362 3434 
Q 1159 2731 1159 2009 
Q 1159 1288 1364 580 
Q 1569 -128 1984 -844 
L 1484 -844 
Q 1016 -109 783 600 
Q 550 1309 550 2009 
Q 550 2706 781 3412 
Q 1013 4119 1484 4856 
L 1984 4856 
z
" transform="scale(0.015625)"/>
       <path id="DejaVuSans-50" d="M 1259 4147 
L 1259 2394 
L 2053 2394 
Q 2494 2394 2734 2622 
Q 2975 2850 2975 3272 
Q 2975 3691 2734 3919 
Q 2494 4147 2053 4147 
L 1259 4147 
z
M 628 4666 
L 2053 4666 
Q 2838 4666 3239 4311 
Q 3641 3956 3641 3272 
Q 3641 2581 3239 2228 
Q 2838 1875 2053 1875 
L 1259 1875 
L 1259 0 
L 628 0 
L 628 4666 
z
" transform="scale(0.015625)"/>
       <path id="DejaVuSans-68" d="M 3513 2113 
L 3513 0 
L 2938 0 
L 2938 2094 
Q 2938 2591 2744 2837 
Q 2550 3084 2163 3084 
Q 1697 3084 1428 2787 
Q 1159 2491 1159 1978 
L 1159 0 
L 581 0 
L 581 4863 
L 1159 4863 
L 1159 2956 
Q 1366 3272 1645 3428 
Q 1925 3584 2291 3584 
Q 2894 3584 3203 3211 
Q 3513 2838 3513 2113 
z
" transform="scale(0.015625)"/>
       <path id="DejaVuSans-72" d="M 2631 2963 
Q 2534 3019 2420 3045 
Q 2306 3072 2169 3072 
Q 1681 3072 1420 2755 
Q 1159 2438 1159 1844 
L 1159 0 
L 581 0 
L 581 3500 
L 1159 3500 
L 1159 2956 
Q 1341 3275 1631 3429 
Q 1922 3584 2338 3584 
Q 2397 3584 2469 3576 
Q 2541 3569 2628 3553 
L 2631 2963 
z
" transform="scale(0.015625)"/>
       <path id="DejaVuSans-64" d="M 2906 2969 
L 2906 4863 
L 3481 4863 
L 3481 0 
L 2906 0 
L 2906 525 
Q 2725 213 2448 61 
Q 2172 -91 1784 -91 
Q 1150 -91 751 415 
Q 353 922 353 1747 
Q 353 2572 751 3078 
Q 1150 3584 1784 3584 
Q 2172 3584 2448 3432 
Q 2725 3281 2906 2969 
z
M 947 1747 
Q 947 1113 1208 752 
Q 1469 391 1925 391 
Q 2381 391 2643 752 
Q 2906 1113 2906 1747 
Q 2906 2381 2643 2742 
Q 2381 3103 1925 3103 
Q 1469 3103 1208 2742 
Q 947 2381 947 1747 
z
" transform="scale(0.015625)"/>
       <path id="DejaVuSans-6f" d="M 1959 3097 
Q 1497 3097 1228 2736 
Q 959 2375 959 1747 
Q 959 1119 1226 758 
Q 1494 397 1959 397 
Q 2419 397 2687 759 
Q 2956 1122 2956 1747 
Q 2956 2369 2687 2733 
Q 2419 3097 1959 3097 
z
M 1959 3584 
Q 2709 3584 3137 3096 
Q 3566 2609 3566 1747 
Q 3566 888 3137 398 
Q 2709 -91 1959 -91 
Q 1206 -91 779 398 
Q 353 888 353 1747 
Q 353 2609 779 3096 
Q 1206 3584 1959 3584 
z
" transform="scale(0.015625)"/>
       <path id="DejaVuSans-29" d="M 513 4856 
L 1013 4856 
Q 1481 4119 1714 3412 
Q 1947 2706 1947 2009 
Q 1947 1309 1714 600 
Q 1481 -109 1013 -844 
L 513 -844 
Q 928 -128 1133 580 
Q 1338 1288 1338 2009 
Q 1338 2731 1133 3434 
Q 928 4138 513 4856 
z
" transform="scale(0.015625)"/>
      </defs>
      <use xlink:href="#DejaVuSans-4d"/>
      <use xlink:href="#DejaVuSans-65" x="86.279297"/>
      <use xlink:href="#DejaVuSans-61" x="147.802734"/>
      <use xlink:href="#DejaVuSans-6e" x="209.082031"/>
      <use xlink:href="#DejaVuSans-20" x="272.460938"/>
      <use xlink:href="#DejaVuSans-53" x="304.248047"/>
      <use xlink:href="#DejaVuSans-65" x="367.724609"/>
      <use xlink:href="#DejaVuSans-71" x="429.248047"/>
      <use xlink:href="#DejaVuSans-75" x="492.724609"/>
      <use xlink:href="#DejaVuSans-65" x="556.103516"/>
      <use xlink:href="#DejaVuSans-6e" x="617.626953"/>
      <use xlink:href="#DejaVuSans-63" x="681.005859"/>
      <use xlink:href="#DejaVuSans-65" x="735.986328"/>
      <use xlink:href="#DejaVuSans-20" x="797.509766"/>
      <use xlink:href="#DejaVuSans-51" x="829.296875"/>
      <use xlink:href="#DejaVuSans-75" x="908.007812"/>
      <use xlink:href="#DejaVuSans-61" x="971.386719"/>
      <use xlink:href="#DejaVuSans-6c" x="1032.666016"/>
      <use xlink:href="#DejaVuSans-69" x="1060.449219"/>
      <use xlink:href="#DejaVuSans-74" x="1088.232422"/>
      <use xlink:href="#DejaVuSans-79" x="1127.441406"/>
      <use xlink:href="#DejaVuSans-20" x="1186.621094"/>
      <use xlink:href="#DejaVuSans-28" x="1218.408203"/>
      <use xlink:href="#DejaVuSans-50" x="1257.421875"/>
      <use xlink:href="#DejaVuSans-68" x="1317.724609"/>
      <use xlink:href="#DejaVuSans-72" x="1381.103516"/>
      <use xlink:href="#DejaVuSans-65" x="1419.966797"/>
      <use xlink:href="#DejaVuSans-64" x="1481.490234"/>
      <use xlink:href="#DejaVuSans-20" x="1544.966797"/>
      <use xlink:href="#DejaVuSans-53" x="1576.753906"/>
      <use xlink:href="#DejaVuSans-63" x="1640.230469"/>
      <use xlink:href="#DejaVuSans-6f" x="1695.210938"/>
      <use xlink:href="#DejaVuSans-72" x="1756.392578"/>
      <use xlink:href="#DejaVuSans-65" x="1795.255859"/>
      <use xlink:href="#DejaVuSans-29" x="1856.779297"/>
     </g>
    </g>
   </g>
   <g id="matplotlib.axis_2">
    <g id="ytick_1">
     <g id="line2d_1">
      <path d="M 53.328125 273.99006 
L 992.998125 273.99006 
" clip-path="url(#pec2d6b0715)" style="fill: none; stroke: #dedede; stroke-linecap: square"/>
     </g>
     <g id="text_10">
      <!-- 0 -->
      <g transform="translate(41.238125 277.029435)scale(0.08 -0.08)">
       <use xlink:href="#DejaVuSans-30"/>
      </g>
     </g>
    </g>
    <g id="ytick_2">
     <g id="line2d_2">
      <path d="M 53.328125 241.273484 
L 992.998125 241.273484 
" clip-path="url(#pec2d6b0715)" style="fill: none; stroke: #dedede; stroke-linecap: square"/>
     </g>
     <g id="text_11">
      <!-- 10000 -->
      <g transform="translate(20.878125 244.312859)scale(0.08 -0.08)">
       <use xlink:href="#DejaVuSans-31"/>
       <use xlink:href="#DejaVuSans-30" x="63.623047"/>
       <use xlink:href="#DejaVuSans-30" x="127.246094"/>
       <use xlink:href="#DejaVuSans-30" x="190.869141"/>
       <use xlink:href="#DejaVuSans-30" x="254.492188"/>
      </g>
     </g>
    </g>
    <g id="ytick_3">
     <g id="line2d_3">
      <path d="M 53.328125 208.556909 
L 992.998125 208.556909 
" clip-path="url(#pec2d6b0715)" style="fill: none; stroke: #dedede; stroke-linecap: square"/>
     </g>
     <g id="text_12">
      <!-- 20000 -->
      <g transform="translate(20.878125 211.596284)scale(0.08 -0.08)">
       <use xlink:href="#DejaVuSans-32"/>
       <use xlink:href="#DejaVuSans-30" x="63.623047"/>
       <use xlink:href="#DejaVuSans-30" x="127.246094"/>
       <use xlink:href="#DejaVuSans-30" x="190.869141"/>
       <use xlink:href="#DejaVuSans-30" x="254.492188"/>
      </g>
     </g>
    </g>
    <g id="ytick_4">
     <g id="line2d_4">
      <path d="M 53.328125 175.840333 
L 992.998125 175.840333 
" clip-path="url(#pec2d6b0715)" style="fill: none; stroke: #dedede; stroke-linecap: square"/>
     </g>
     <g id="text_13">
      <!-- 30000 -->
      <g transform="translate(20.878125 178.879708)scale(0.08 -0.08)">
       <use xlink:href="#DejaVuSans-33"/>
       <use xlink:href="#DejaVuSans-30" x="63.623047"/>
       <use xlink:href="#DejaVuSans-30" x="127.246094"/>
       <use xlink:href="#DejaVuSans-30" x="190.869141"/>
       <use xlink:href="#DejaVuSans-30" x="254.492188"/>
      </g>
     </g>
    </g>
    <g id="ytick_5">
     <g id="line2d_5">
      <path d="M 53.328125 143.123758 
L 992.998125 143.123758 
" clip-path="url(#pec2d6b0715)" style="fill: none; stroke: #dedede; stroke-linecap: square"/>
     </g>
     <g id="text_14">
      <!-- 40000 -->
      <g transform="translate(20.878125 146.163133)scale(0.08 -0.08)">
       <defs>
        <path id="DejaVuSans-34" d="M 2419 4116 
L 825 1625 
L 2419 1625 
L 2419 4116 
z
M 2253 4666 
L 3047 4666 
L 3047 1625 
L 3713 1625 
L 3713 1100 
L 3047 1100 
L 3047 0 
L 2419 0 
L 2419 1100 
L 313 1100 
L 313 1709 
L 2253 4666 
z
" transform="scale(0.015625)"/>
       </defs>
       <use xlink:href="#DejaVuSans-34"/>
       <use xlink:href="#DejaVuSans-30" x="63.623047"/>
       <use xlink:href="#DejaVuSans-30" x="127.246094"/>
       <use xlink:href="#DejaVuSans-30" x="190.869141"/>
       <use xlink:href="#DejaVuSans-30" x="254.492188"/>
      </g>
     </g>
    </g>
    <g id="ytick_6">
     <g id="line2d_6">
      <path d="M 53.328125 110.407182 
L 992.998125 110.407182 
" clip-path="url(#pec2d6b0715)" style="fill: none; stroke: #dedede; stroke-linecap: square"/>
     </g>
     <g id="text_15">
      <!-- 50000 -->
      <g transform="translate(20.878125 113.446557)scale(0.08 -0.08)">
       <use xlink:href="#DejaVuSans-35"/>
       <use xlink:href="#DejaVuSans-30" x="63.623047"/>
       <use xlink:href="#DejaVuSans-30" x="127.246094"/>
       <use xlink:href="#DejaVuSans-30" x="190.869141"/>
       <use xlink:href="#DejaVuSans-30" x="254.492188"/>
      </g>
     </g>
    </g>
    <g id="ytick_7">
     <g id="line2d_7">
      <path d="M 53.328125 77.690606 
L 992.998125 77.690606 
" clip-path="url(#pec2d6b0715)" style="fill: none; stroke: #dedede; stroke-linecap: square"/>
     </g>
     <g id="text_16">
      <!-- 60000 -->
      <g transform="translate(20.878125 80.729981)scale(0.08 -0.08)">
       <defs>
        <path id="DejaVuSans-36" d="M 2113 2584 
Q 1688 2584 1439 2293 
Q 1191 2003 1191 1497 
Q 1191 994 1439 701 
Q 1688 409 2113 409 
Q 2538 409 2786 701 
Q 3034 994 3034 1497 
Q 3034 2003 2786 2293 
Q 2538 2584 2113 2584 
z
M 3366 4563 
L 3366 3988 
Q 3128 4100 2886 4159 
Q 2644 4219 2406 4219 
Q 1781 4219 1451 3797 
Q 1122 3375 1075 2522 
Q 1259 2794 1537 2939 
Q 1816 3084 2150 3084 
Q 2853 3084 3261 2657 
Q 3669 2231 3669 1497 
Q 3669 778 3244 343 
Q 2819 -91 2113 -91 
Q 1303 -91 875 529 
Q 447 1150 447 2328 
Q 447 3434 972 4092 
Q 1497 4750 2381 4750 
Q 2619 4750 2861 4703 
Q 3103 4656 3366 4563 
z
" transform="scale(0.015625)"/>
       </defs>
       <use xlink:href="#DejaVuSans-36"/>
       <use xlink:href="#DejaVuSans-30" x="63.623047"/>
       <use xlink:href="#DejaVuSans-30" x="127.246094"/>
       <use xlink:href="#DejaVuSans-30" x="190.869141"/>
       <use xlink:href="#DejaVuSans-30" x="254.492188"/>
      </g>
     </g>
    </g>
    <g id="ytick_8">
     <g id="line2d_8">
      <path d="M 53.328125 44.974031 
L 992.998125 44.974031 
" clip-path="url(#pec2d6b0715)" style="fill: none; stroke: #dedede; stroke-linecap: square"/>
     </g>
     <g id="text_17">
      <!-- 70000 -->
      <g transform="translate(20.878125 48.013406)scale(0.08 -0.08)">
       <defs>
        <path id="DejaVuSans-37" d="M 525 4666 
L 3525 4666 
L 3525 4397 
L 1831 0 
L 1172 0 
L 2766 4134 
L 525 4134 
L 525 4666 
z
" transform="scale(0.015625)"/>
       </defs>
       <use xlink:href="#DejaVuSans-37"/>
       <use xlink:href="#DejaVuSans-30" x="63.623047"/>
       <use xlink:href="#DejaVuSans-30" x="127.246094"/>
       <use xlink:href="#DejaVuSans-30" x="190.869141"/>
       <use xlink:href="#DejaVuSans-30" x="254.492188"/>
      </g>
     </g>
    </g>
    <g id="text_18">
     <!-- Count -->
     <g transform="translate(14.798437 167.584897)rotate(-90)scale(0.1 -0.1)">
      <defs>
       <path id="DejaVuSans-43" d="M 4122 4306 
L 4122 3641 
Q 3803 3938 3442 4084 
Q 3081 4231 2675 4231 
Q 1875 4231 1450 3742 
Q 1025 3253 1025 2328 
Q 1025 1406 1450 917 
Q 1875 428 2675 428 
Q 3081 428 3442 575 
Q 3803 722 4122 1019 
L 4122 359 
Q 3791 134 3420 21 
Q 3050 -91 2638 -91 
Q 1578 -91 968 557 
Q 359 1206 359 2328 
Q 359 3453 968 4101 
Q 1578 4750 2638 4750 
Q 3056 4750 3426 4639 
Q 3797 4528 4122 4306 
z
" transform="scale(0.015625)"/>
      </defs>
      <use xlink:href="#DejaVuSans-43"/>
      <use xlink:href="#DejaVuSans-6f" x="69.824219"/>
      <use xlink:href="#DejaVuSans-75" x="131.005859"/>
      <use xlink:href="#DejaVuSans-6e" x="194.384766"/>
      <use xlink:href="#DejaVuSans-74" x="257.763672"/>
     </g>
    </g>
   </g>
   <g id="line2d_9">
    <path d="M 427.20213 273.980245 
L 452.127064 273.986788 
L 477.051998 273.944257 
L 501.976931 273.93117 
L 526.901865 273.826477 
L 551.826799 273.649808 
L 576.751732 273.394618 
L 601.676666 273.191776 
L 626.6016 273.051094 
L 651.526533 272.900598 
L 676.451467 272.697755 
L 701.376401 272.599606 
L 726.301335 272.3117 
L 751.226268 272.102314 
L 776.151202 271.824223 
L 801.076136 271.235324 
L 826.001069 270.800194 
L 850.926003 269.848142 
L 875.850937 268.608183 
L 900.77587 265.866534 
L 925.700804 257.939308 
L 950.625738 162.508329 
" clip-path="url(#pec2d6b0715)" style="fill: none; stroke: #5cb85c; stroke-linecap: square"/>
   </g>
   <g id="line2d_10">
    <path d="M 103.177992 273.639993 
L 128.102926 273.944257 
L 153.02786 273.954072 
L 177.952793 273.957343 
L 202.877727 273.980245 
L 227.802661 273.967158 
L 252.727594 273.976973 
L 277.652528 273.957343 
L 302.577462 273.967158 
L 327.502396 273.976973 
L 352.427329 273.980245 
L 377.352263 273.980245 
L 402.277197 273.983517 
L 427.20213 273.980245 
L 452.127064 273.9508 
L 477.051998 273.934442 
L 501.976931 273.803576 
L 526.901865 273.643264 
L 551.826799 273.31937 
L 576.751732 273.204862 
L 601.676666 272.972574 
L 626.6016 272.818807 
L 651.526533 272.697755 
L 676.451467 272.462196 
L 701.376401 272.321515 
L 726.301335 272.200463 
L 751.226268 271.879841 
L 776.151202 271.676998 
L 801.076136 271.346561 
L 826.001069 270.829639 
L 850.926003 270.028083 
L 875.850937 268.856829 
L 900.77587 266.913465 
L 925.700804 260.25237 
L 950.625738 161.710044 
" clip-path="url(#pec2d6b0715)" style="fill: none; stroke: #5cb85c; stroke-linecap: square"/>
   </g>
   <g id="line2d_11">
    <path d="M 402.277197 273.986788 
L 427.20213 273.983517 
L 452.127064 273.980245 
L 477.051998 273.934442 
L 501.976931 273.898454 
L 526.901865 273.826477 
L 551.826799 273.633449 
L 576.751732 273.401162 
L 601.676666 273.276839 
L 626.6016 273.057638 
L 651.526533 272.956216 
L 676.451467 272.867881 
L 701.376401 272.540716 
L 726.301335 272.37059 
L 751.226268 272.216822 
L 776.151202 271.928916 
L 801.076136 271.431624 
L 826.001069 270.921245 
L 850.926003 270.073886 
L 875.850937 268.987696 
L 900.77587 266.010487 
L 925.700804 259.270873 
L 950.625738 159.632542 
" clip-path="url(#pec2d6b0715)" style="fill: none; stroke: #5cb85c; stroke-linecap: square"/>
   </g>
   <g id="line2d_12">
    <path d="M 427.20213 273.973702 
L 452.127064 273.967158 
L 477.051998 273.954072 
L 501.976931 273.904997 
L 526.901865 273.689068 
L 551.826799 273.404433 
L 576.751732 273.008563 
L 601.676666 272.66831 
L 626.6016 272.321515 
L 651.526533 272.043424 
L 676.451467 271.66064 
L 701.376401 271.457797 
L 726.301335 270.940875 
L 751.226268 270.502473 
L 776.151202 270.080429 
L 801.076136 269.15455 
L 826.001069 267.862245 
L 850.926003 266.609201 
L 875.850937 263.818477 
L 900.77587 259.104018 
L 925.700804 243.458952 
L 950.625738 43.030666 
" clip-path="url(#pec2d6b0715)" style="fill: none; stroke: #5cb85c; stroke-linecap: square"/>
   </g>
   <g id="line2d_13">
    <path d="M 427.20213 273.983517 
L 452.127064 273.957343 
L 477.051998 273.93117 
L 501.976931 273.898454 
L 526.901865 273.685796 
L 551.826799 273.37826 
L 576.751732 272.988933 
L 601.676666 272.543987 
L 626.6016 272.226637 
L 651.526533 271.866754 
L 676.451467 271.493785 
L 701.376401 271.0881 
L 726.301335 270.551548 
L 751.226268 270.296359 
L 776.151202 269.383566 
L 801.076136 268.811026 
L 826.001069 267.446745 
L 850.926003 266.023574 
L 875.850937 263.488039 
L 900.77587 257.677575 
L 925.700804 242.356403 
L 950.625738 49.537993 
" clip-path="url(#pec2d6b0715)" style="fill: none; stroke: #5cb85c; stroke-linecap: square"/>
   </g>
   <g id="line2d_14">
    <path d="M 103.177992 273.329185 
L 128.102926 273.875552 
L 153.02786 273.888639 
L 177.952793 273.934442 
L 202.877727 273.924627 
L 227.802661 273.947528 
L 252.727594 273.940985 
L 277.652528 273.963887 
L 302.577462 273.957343 
L 327.502396 273.976973 
L 352.427329 273.963887 
L 377.352263 273.967158 
L 402.277197 273.954072 
L 427.20213 273.927899 
L 452.127064 273.862465 
L 477.051998 273.744686 
L 501.976931 273.587646 
L 526.901865 273.247394 
L 551.826799 272.753373 
L 576.751732 272.285526 
L 601.676666 271.915829 
L 626.6016 271.578848 
L 651.526533 271.176434 
L 676.451467 271.025938 
L 701.376401 270.715131 
L 726.301335 270.119689 
L 751.226268 269.854685 
L 776.151202 269.210168 
L 801.076136 268.519849 
L 826.001069 267.685576 
L 850.926003 266.553582 
L 875.850937 263.916626 
L 900.77587 259.300318 
L 925.700804 247.528894 
L 950.625738 49.351509 
" clip-path="url(#pec2d6b0715)" style="fill: none; stroke: #5cb85c; stroke-linecap: square"/>
   </g>
   <g id="line2d_15">
    <path d="M 427.20213 273.983517 
L 452.127064 273.973702 
L 477.051998 273.954072 
L 501.976931 273.924627 
L 526.901865 273.85265 
L 551.826799 273.731599 
L 576.751732 273.551658 
L 601.676666 273.427335 
L 626.6016 273.316099 
L 651.526533 273.057638 
L 676.451467 273.113256 
L 701.376401 272.874425 
L 726.301335 272.720657 
L 751.226268 272.498184 
L 776.151202 272.184105 
L 801.076136 271.820951 
L 826.001069 271.578848 
L 850.926003 270.309445 
L 875.850937 269.488259 
L 900.77587 267.39767 
L 925.700804 260.298173 
L 950.625738 153.141573 
" clip-path="url(#pec2d6b0715)" style="fill: none; stroke: #5cb85c; stroke-linecap: square"/>
   </g>
   <g id="line2d_16">
    <path d="M 103.177992 273.594189 
L 128.102926 273.967158 
L 153.02786 273.963887 
L 177.952793 273.97043 
L 202.877727 273.960615 
L 227.802661 273.980245 
L 252.727594 273.957343 
L 277.652528 273.97043 
L 302.577462 273.973702 
L 327.502396 273.973702 
L 352.427329 273.967158 
L 377.352263 273.986788 
L 402.277197 273.973702 
L 427.20213 273.963887 
L 452.127064 273.904997 
L 477.051998 273.810119 
L 501.976931 273.754501 
L 526.901865 273.600733 
L 551.826799 273.466595 
L 576.751732 273.250665 
L 601.676666 273.123071 
L 626.6016 272.916956 
L 651.526533 272.910413 
L 676.451467 272.789362 
L 701.376401 272.534172 
L 726.301335 272.472011 
L 751.226268 272.07614 
L 776.151202 271.909286 
L 801.076136 271.709715 
L 826.001069 271.10773 
L 850.926003 270.731489 
L 875.850937 269.622397 
L 900.77587 267.564525 
L 925.700804 262.104128 
L 950.625738 155.506981 
" clip-path="url(#pec2d6b0715)" style="fill: none; stroke: #5cb85c; stroke-linecap: square"/>
   </g>
   <g id="line2d_17">
    <path d="M 53.328125 273.99006 
L 992.998125 273.99006 
" clip-path="url(#pec2d6b0715)" style="fill: none; stroke: #dedede; stroke-width: 2; stroke-linecap: square"/>
   </g>
   <g id="text_19">
    <!-- FastQC: Per Sequence Quality Scores -->
    <g transform="translate(374.970625 19.3575)scale(0.16 -0.16)">
     <defs>
      <path id="DejaVuSans-46" d="M 628 4666 
L 3309 4666 
L 3309 4134 
L 1259 4134 
L 1259 2759 
L 3109 2759 
L 3109 2228 
L 1259 2228 
L 1259 0 
L 628 0 
L 628 4666 
z
" transform="scale(0.015625)"/>
      <path id="DejaVuSans-73" d="M 2834 3397 
L 2834 2853 
Q 2591 2978 2328 3040 
Q 2066 3103 1784 3103 
Q 1356 3103 1142 2972 
Q 928 2841 928 2578 
Q 928 2378 1081 2264 
Q 1234 2150 1697 2047 
L 1894 2003 
Q 2506 1872 2764 1633 
Q 3022 1394 3022 966 
Q 3022 478 2636 193 
Q 2250 -91 1575 -91 
Q 1294 -91 989 -36 
Q 684 19 347 128 
L 347 722 
Q 666 556 975 473 
Q 1284 391 1588 391 
Q 1994 391 2212 530 
Q 2431 669 2431 922 
Q 2431 1156 2273 1281 
Q 2116 1406 1581 1522 
L 1381 1569 
Q 847 1681 609 1914 
Q 372 2147 372 2553 
Q 372 3047 722 3315 
Q 1072 3584 1716 3584 
Q 2034 3584 2315 3537 
Q 2597 3491 2834 3397 
z
" transform="scale(0.015625)"/>
      <path id="DejaVuSans-3a" d="M 750 794 
L 1409 794 
L 1409 0 
L 750 0 
L 750 794 
z
M 750 3309 
L 1409 3309 
L 1409 2516 
L 750 2516 
L 750 3309 
z
" transform="scale(0.015625)"/>
     </defs>
     <use xlink:href="#DejaVuSans-46"/>
     <use xlink:href="#DejaVuSans-61" x="48.394531"/>
     <use xlink:href="#DejaVuSans-73" x="109.673828"/>
     <use xlink:href="#DejaVuSans-74" x="161.773438"/>
     <use xlink:href="#DejaVuSans-51" x="200.982422"/>
     <use xlink:href="#DejaVuSans-43" x="279.693359"/>
     <use xlink:href="#DejaVuSans-3a" x="349.517578"/>
     <use xlink:href="#DejaVuSans-20" x="383.208984"/>
     <use xlink:href="#DejaVuSans-50" x="414.996094"/>
     <use xlink:href="#DejaVuSans-65" x="471.673828"/>
     <use xlink:href="#DejaVuSans-72" x="533.197266"/>
     <use xlink:href="#DejaVuSans-20" x="574.310547"/>
     <use xlink:href="#DejaVuSans-53" x="606.097656"/>
     <use xlink:href="#DejaVuSans-65" x="669.574219"/>
     <use xlink:href="#DejaVuSans-71" x="731.097656"/>
     <use xlink:href="#DejaVuSans-75" x="794.574219"/>
     <use xlink:href="#DejaVuSans-65" x="857.953125"/>
     <use xlink:href="#DejaVuSans-6e" x="919.476562"/>
     <use xlink:href="#DejaVuSans-63" x="982.855469"/>
     <use xlink:href="#DejaVuSans-65" x="1037.835938"/>
     <use xlink:href="#DejaVuSans-20" x="1099.359375"/>
     <use xlink:href="#DejaVuSans-51" x="1131.146484"/>
     <use xlink:href="#DejaVuSans-75" x="1209.857422"/>
     <use xlink:href="#DejaVuSans-61" x="1273.236328"/>
     <use xlink:href="#DejaVuSans-6c" x="1334.515625"/>
     <use xlink:href="#DejaVuSans-69" x="1362.298828"/>
     <use xlink:href="#DejaVuSans-74" x="1390.082031"/>
     <use xlink:href="#DejaVuSans-79" x="1429.291016"/>
     <use xlink:href="#DejaVuSans-20" x="1488.470703"/>
     <use xlink:href="#DejaVuSans-53" x="1520.257812"/>
     <use xlink:href="#DejaVuSans-63" x="1583.734375"/>
     <use xlink:href="#DejaVuSans-6f" x="1638.714844"/>
     <use xlink:href="#DejaVuSans-72" x="1699.896484"/>
     <use xlink:href="#DejaVuSans-65" x="1738.759766"/>
     <use xlink:href="#DejaVuSans-73" x="1800.283203"/>
    </g>
   </g>
   <g id="legend_1">
    <g id="line2d_18">
     <path d="M 60.528125 303.490394 
L 68.528125 303.490394 
L 76.528125 303.490394 
" style="fill: none; stroke: #5cb85c; stroke-linecap: square"/>
    </g>
    <g id="text_20">
     <!-- RAP1_IAA_30M_REP1_1 -->
     <g transform="translate(82.928125 306.290394)scale(0.08 -0.08)">
      <defs>
       <path id="DejaVuSans-52" d="M 2841 2188 
Q 3044 2119 3236 1894 
Q 3428 1669 3622 1275 
L 4263 0 
L 3584 0 
L 2988 1197 
Q 2756 1666 2539 1819 
Q 2322 1972 1947 1972 
L 1259 1972 
L 1259 0 
L 628 0 
L 628 4666 
L 2053 4666 
Q 2853 4666 3247 4331 
Q 3641 3997 3641 3322 
Q 3641 2881 3436 2590 
Q 3231 2300 2841 2188 
z
M 1259 4147 
L 1259 2491 
L 2053 2491 
Q 2509 2491 2742 2702 
Q 2975 2913 2975 3322 
Q 2975 3731 2742 3939 
Q 2509 4147 2053 4147 
L 1259 4147 
z
" transform="scale(0.015625)"/>
       <path id="DejaVuSans-41" d="M 2188 4044 
L 1331 1722 
L 3047 1722 
L 2188 4044 
z
M 1831 4666 
L 2547 4666 
L 4325 0 
L 3669 0 
L 3244 1197 
L 1141 1197 
L 716 0 
L 50 0 
L 1831 4666 
z
" transform="scale(0.015625)"/>
       <path id="DejaVuSans-5f" d="M 3263 -1063 
L 3263 -1509 
L -63 -1509 
L -63 -1063 
L 3263 -1063 
z
" transform="scale(0.015625)"/>
       <path id="DejaVuSans-49" d="M 628 4666 
L 1259 4666 
L 1259 0 
L 628 0 
L 628 4666 
z
" transform="scale(0.015625)"/>
       <path id="DejaVuSans-45" d="M 628 4666 
L 3578 4666 
L 3578 4134 
L 1259 4134 
L 1259 2753 
L 3481 2753 
L 3481 2222 
L 1259 2222 
L 1259 531 
L 3634 531 
L 3634 0 
L 628 0 
L 628 4666 
z
" transform="scale(0.015625)"/>
      </defs>
      <use xlink:href="#DejaVuSans-52"/>
      <use xlink:href="#DejaVuSans-41" x="65.482422"/>
      <use xlink:href="#DejaVuSans-50" x="133.890625"/>
      <use xlink:href="#DejaVuSans-31" x="194.193359"/>
      <use xlink:href="#DejaVuSans-5f" x="257.816406"/>
      <use xlink:href="#DejaVuSans-49" x="307.816406"/>
      <use xlink:href="#DejaVuSans-41" x="337.308594"/>
      <use xlink:href="#DejaVuSans-41" x="408.466797"/>
      <use xlink:href="#DejaVuSans-5f" x="476.875"/>
      <use xlink:href="#DejaVuSans-33" x="526.875"/>
      <use xlink:href="#DejaVuSans-30" x="590.498047"/>
      <use xlink:href="#DejaVuSans-4d" x="654.121094"/>
      <use xlink:href="#DejaVuSans-5f" x="740.400391"/>
      <use xlink:href="#DejaVuSans-52" x="790.400391"/>
      <use xlink:href="#DejaVuSans-45" x="859.882812"/>
      <use xlink:href="#DejaVuSans-50" x="923.066406"/>
      <use xlink:href="#DejaVuSans-31" x="983.369141"/>
      <use xlink:href="#DejaVuSans-5f" x="1046.992188"/>
      <use xlink:href="#DejaVuSans-31" x="1096.992188"/>
     </g>
    </g>
    <g id="line2d_19">
     <path d="M 60.528125 315.455394 
L 68.528125 315.455394 
L 76.528125 315.455394 
" style="fill: none; stroke: #5cb85c; stroke-linecap: square"/>
    </g>
    <g id="text_21">
     <!-- RAP1_IAA_30M_REP1_2 -->
     <g transform="translate(82.928125 318.255394)scale(0.08 -0.08)">
      <use xlink:href="#DejaVuSans-52"/>
      <use xlink:href="#DejaVuSans-41" x="65.482422"/>
      <use xlink:href="#DejaVuSans-50" x="133.890625"/>
      <use xlink:href="#DejaVuSans-31" x="194.193359"/>
      <use xlink:href="#DejaVuSans-5f" x="257.816406"/>
      <use xlink:href="#DejaVuSans-49" x="307.816406"/>
      <use xlink:href="#DejaVuSans-41" x="337.308594"/>
      <use xlink:href="#DejaVuSans-41" x="408.466797"/>
      <use xlink:href="#DejaVuSans-5f" x="476.875"/>
      <use xlink:href="#DejaVuSans-33" x="526.875"/>
      <use xlink:href="#DejaVuSans-30" x="590.498047"/>
      <use xlink:href="#DejaVuSans-4d" x="654.121094"/>
      <use xlink:href="#DejaVuSans-5f" x="740.400391"/>
      <use xlink:href="#DejaVuSans-52" x="790.400391"/>
      <use xlink:href="#DejaVuSans-45" x="859.882812"/>
      <use xlink:href="#DejaVuSans-50" x="923.066406"/>
      <use xlink:href="#DejaVuSans-31" x="983.369141"/>
      <use xlink:href="#DejaVuSans-5f" x="1046.992188"/>
      <use xlink:href="#DejaVuSans-32" x="1096.992188"/>
     </g>
    </g>
    <g id="line2d_20">
     <path d="M 296.534375 303.490394 
L 304.534375 303.490394 
L 312.534375 303.490394 
" style="fill: none; stroke: #5cb85c; stroke-linecap: square"/>
    </g>
    <g id="text_22">
     <!-- RAP1_UNINDUCED_REP1 -->
     <g transform="translate(318.934375 306.290394)scale(0.08 -0.08)">
      <defs>
       <path id="DejaVuSans-55" d="M 556 4666 
L 1191 4666 
L 1191 1831 
Q 1191 1081 1462 751 
Q 1734 422 2344 422 
Q 2950 422 3222 751 
Q 3494 1081 3494 1831 
L 3494 4666 
L 4128 4666 
L 4128 1753 
Q 4128 841 3676 375 
Q 3225 -91 2344 -91 
Q 1459 -91 1007 375 
Q 556 841 556 1753 
L 556 4666 
z
" transform="scale(0.015625)"/>
       <path id="DejaVuSans-4e" d="M 628 4666 
L 1478 4666 
L 3547 763 
L 3547 4666 
L 4159 4666 
L 4159 0 
L 3309 0 
L 1241 3903 
L 1241 0 
L 628 0 
L 628 4666 
z
" transform="scale(0.015625)"/>
       <path id="DejaVuSans-44" d="M 1259 4147 
L 1259 519 
L 2022 519 
Q 2988 519 3436 956 
Q 3884 1394 3884 2338 
Q 3884 3275 3436 3711 
Q 2988 4147 2022 4147 
L 1259 4147 
z
M 628 4666 
L 1925 4666 
Q 3281 4666 3915 4102 
Q 4550 3538 4550 2338 
Q 4550 1131 3912 565 
Q 3275 0 1925 0 
L 628 0 
L 628 4666 
z
" transform="scale(0.015625)"/>
      </defs>
      <use xlink:href="#DejaVuSans-52"/>
      <use xlink:href="#DejaVuSans-41" x="65.482422"/>
      <use xlink:href="#DejaVuSans-50" x="133.890625"/>
      <use xlink:href="#DejaVuSans-31" x="194.193359"/>
      <use xlink:href="#DejaVuSans-5f" x="257.816406"/>
      <use xlink:href="#DejaVuSans-55" x="307.816406"/>
      <use xlink:href="#DejaVuSans-4e" x="381.009766"/>
      <use xlink:href="#DejaVuSans-49" x="455.814453"/>
      <use xlink:href="#DejaVuSans-4e" x="485.306641"/>
      <use xlink:href="#DejaVuSans-44" x="560.111328"/>
      <use xlink:href="#DejaVuSans-55" x="637.113281"/>
      <use xlink:href="#DejaVuSans-43" x="710.306641"/>
      <use xlink:href="#DejaVuSans-45" x="780.130859"/>
      <use xlink:href="#DejaVuSans-44" x="843.314453"/>
      <use xlink:href="#DejaVuSans-5f" x="920.316406"/>
      <use xlink:href="#DejaVuSans-52" x="970.316406"/>
      <use xlink:href="#DejaVuSans-45" x="1039.798828"/>
      <use xlink:href="#DejaVuSans-50" x="1102.982422"/>
      <use xlink:href="#DejaVuSans-31" x="1163.285156"/>
     </g>
    </g>
    <g id="line2d_21">
     <path d="M 296.534375 315.455394 
L 304.534375 315.455394 
L 312.534375 315.455394 
" style="fill: none; stroke: #5cb85c; stroke-linecap: square"/>
    </g>
    <g id="text_23">
     <!-- RAP1_UNINDUCED_REP2 -->
     <g transform="translate(318.934375 318.255394)scale(0.08 -0.08)">
      <use xlink:href="#DejaVuSans-52"/>
      <use xlink:href="#DejaVuSans-41" x="65.482422"/>
      <use xlink:href="#DejaVuSans-50" x="133.890625"/>
      <use xlink:href="#DejaVuSans-31" x="194.193359"/>
      <use xlink:href="#DejaVuSans-5f" x="257.816406"/>
      <use xlink:href="#DejaVuSans-55" x="307.816406"/>
      <use xlink:href="#DejaVuSans-4e" x="381.009766"/>
      <use xlink:href="#DejaVuSans-49" x="455.814453"/>
      <use xlink:href="#DejaVuSans-4e" x="485.306641"/>
      <use xlink:href="#DejaVuSans-44" x="560.111328"/>
      <use xlink:href="#DejaVuSans-55" x="637.113281"/>
      <use xlink:href="#DejaVuSans-43" x="710.306641"/>
      <use xlink:href="#DejaVuSans-45" x="780.130859"/>
      <use xlink:href="#DejaVuSans-44" x="843.314453"/>
      <use xlink:href="#DejaVuSans-5f" x="920.316406"/>
      <use xlink:href="#DejaVuSans-52" x="970.316406"/>
      <use xlink:href="#DejaVuSans-45" x="1039.798828"/>
      <use xlink:href="#DejaVuSans-50" x="1102.982422"/>
      <use xlink:href="#DejaVuSans-32" x="1163.285156"/>
     </g>
    </g>
    <g id="line2d_22">
     <path d="M 537.844375 303.490394 
L 545.844375 303.490394 
L 553.844375 303.490394 
" style="fill: none; stroke: #5cb85c; stroke-linecap: square"/>
    </g>
    <g id="text_24">
     <!-- WT_REP1_1 -->
     <g transform="translate(560.244375 306.290394)scale(0.08 -0.08)">
      <defs>
       <path id="DejaVuSans-57" d="M 213 4666 
L 850 4666 
L 1831 722 
L 2809 4666 
L 3519 4666 
L 4500 722 
L 5478 4666 
L 6119 4666 
L 4947 0 
L 4153 0 
L 3169 4050 
L 2175 0 
L 1381 0 
L 213 4666 
z
" transform="scale(0.015625)"/>
       <path id="DejaVuSans-54" d="M -19 4666 
L 3928 4666 
L 3928 4134 
L 2272 4134 
L 2272 0 
L 1638 0 
L 1638 4134 
L -19 4134 
L -19 4666 
z
" transform="scale(0.015625)"/>
      </defs>
      <use xlink:href="#DejaVuSans-57"/>
      <use xlink:href="#DejaVuSans-54" x="98.876953"/>
      <use xlink:href="#DejaVuSans-5f" x="159.960938"/>
      <use xlink:href="#DejaVuSans-52" x="209.960938"/>
      <use xlink:href="#DejaVuSans-45" x="279.443359"/>
      <use xlink:href="#DejaVuSans-50" x="342.626953"/>
      <use xlink:href="#DejaVuSans-31" x="402.929688"/>
      <use xlink:href="#DejaVuSans-5f" x="466.552734"/>
      <use xlink:href="#DejaVuSans-31" x="516.552734"/>
     </g>
    </g>
    <g id="line2d_23">
     <path d="M 537.844375 315.455394 
L 545.844375 315.455394 
L 553.844375 315.455394 
" style="fill: none; stroke: #5cb85c; stroke-linecap: square"/>
    </g>
    <g id="text_25">
     <!-- WT_REP1_2 -->
     <g transform="translate(560.244375 318.255394)scale(0.08 -0.08)">
      <use xlink:href="#DejaVuSans-57"/>
      <use xlink:href="#DejaVuSans-54" x="98.876953"/>
      <use xlink:href="#DejaVuSans-5f" x="159.960938"/>
      <use xlink:href="#DejaVuSans-52" x="209.960938"/>
      <use xlink:href="#DejaVuSans-45" x="279.443359"/>
      <use xlink:href="#DejaVuSans-50" x="342.626953"/>
      <use xlink:href="#DejaVuSans-31" x="402.929688"/>
      <use xlink:href="#DejaVuSans-5f" x="466.552734"/>
      <use xlink:href="#DejaVuSans-32" x="516.552734"/>
     </g>
    </g>
    <g id="line2d_24">
     <path d="M 727.414375 303.490394 
L 735.414375 303.490394 
L 743.414375 303.490394 
" style="fill: none; stroke: #5cb85c; stroke-linecap: square"/>
    </g>
    <g id="text_26">
     <!-- WT_REP2_1 -->
     <g transform="translate(749.814375 306.290394)scale(0.08 -0.08)">
      <use xlink:href="#DejaVuSans-57"/>
      <use xlink:href="#DejaVuSans-54" x="98.876953"/>
      <use xlink:href="#DejaVuSans-5f" x="159.960938"/>
      <use xlink:href="#DejaVuSans-52" x="209.960938"/>
      <use xlink:href="#DejaVuSans-45" x="279.443359"/>
      <use xlink:href="#DejaVuSans-50" x="342.626953"/>
      <use xlink:href="#DejaVuSans-32" x="402.929688"/>
      <use xlink:href="#DejaVuSans-5f" x="466.552734"/>
      <use xlink:href="#DejaVuSans-31" x="516.552734"/>
     </g>
    </g>
    <g id="line2d_25">
     <path d="M 916.984375 303.490394 
L 924.984375 303.490394 
L 932.984375 303.490394 
" style="fill: none; stroke: #5cb85c; stroke-linecap: square"/>
    </g>
    <g id="text_27">
     <!-- WT_REP2_2 -->
     <g transform="translate(939.384375 306.290394)scale(0.08 -0.08)">
      <use xlink:href="#DejaVuSans-57"/>
      <use xlink:href="#DejaVuSans-54" x="98.876953"/>
      <use xlink:href="#DejaVuSans-5f" x="159.960938"/>
      <use xlink:href="#DejaVuSans-52" x="209.960938"/>
      <use xlink:href="#DejaVuSans-45" x="279.443359"/>
      <use xlink:href="#DejaVuSans-50" x="342.626953"/>
      <use xlink:href="#DejaVuSans-32" x="402.929688"/>
      <use xlink:href="#DejaVuSans-5f" x="466.552734"/>
      <use xlink:href="#DejaVuSans-32" x="516.552734"/>
     </g>
    </g>
   </g>
  </g>
 </g>
 <defs>
  <clipPath id="pec2d6b0715">
   <rect x="53.328125" y="31.48286" width="939.67" height="242.5072"/>
  </clipPath>
 </defs>
</svg>
