<?xml version="1.0" encoding="utf-8" standalone="no"?>
<!DOCTYPE svg PUBLIC "-//W3C//DTD SVG 1.1//EN"
  "http://www.w3.org/Graphics/SVG/1.1/DTD/svg11.dtd">
<svg xmlns:xlink="http://www.w3.org/1999/xlink" width="1000.318125pt" height="330.541644pt" viewBox="0 0 1000.318125 330.541644" xmlns="http://www.w3.org/2000/svg" version="1.1">
 <metadata>
  <rdf:RDF xmlns:dc="http://purl.org/dc/elements/1.1/" xmlns:cc="http://creativecommons.org/ns#" xmlns:rdf="http://www.w3.org/1999/02/22-rdf-syntax-ns#">
   <cc:Work>
    <dc:type rdf:resource="http://purl.org/dc/dcmitype/StillImage"/>
    <dc:date>2023-03-08T12:55:25.270005</dc:date>
    <dc:format>image/svg+xml</dc:format>
    <dc:creator>
     <cc:Agent>
      <dc:title>Matplotlib v3.5.3, https://matplotlib.org/</dc:title>
     </cc:Agent>
    </dc:creator>
   </cc:Work>
  </rdf:RDF>
 </metadata>
 <defs>
  <style type="text/css">*{stroke-linejoin: round; stroke-linecap: butt}</style>
 </defs>
 <g id="figure_1">
  <g id="axes_1">
   <g id="patch_1">
    <path d="M 38.058125 273.99006 
L 993.118125 273.99006 
L 993.118125 31.48286 
L 38.058125 31.48286 
z
" style="fill: #ffffff"/>
   </g>
   <g id="patch_2">
    <path d="M 38.058125 86.499096 
L 958.476371 86.499096 
L 958.476371 -395.620526 
L 38.058125 -395.620526 
z
" clip-path="url(#p5544882dd3)" style="fill: #c3e6c3"/>
   </g>
   <g id="patch_3">
    <path d="M 38.058125 140.067943 
L 958.476371 140.067943 
L 958.476371 86.499096 
L 38.058125 86.499096 
z
" clip-path="url(#p5544882dd3)" style="fill: #e6dcc3"/>
   </g>
   <g id="patch_4">
    <path d="M 38.058125 273.99006 
L 958.476371 273.99006 
L 958.476371 140.067943 
L 38.058125 140.067943 
z
" clip-path="url(#p5544882dd3)" style="fill: #e6c3c3"/>
   </g>
   <g id="matplotlib.axis_1">
    <g id="xtick_1">
     <g id="text_1">
      <!-- 0 -->
      <g transform="translate(70.154879 287.06881)scale(0.08 -0.08)">
       <defs>
        <path id="DejaVuSans-30" d="M 2034 4250 
Q 1547 4250 1301 3770 
Q 1056 3291 1056 2328 
Q 1056 1369 1301 889 
Q 1547 409 2034 409 
Q 2525 409 2770 889 
Q 3016 1369 3016 2328 
Q 3016 3291 2770 3770 
Q 2525 4250 2034 4250 
z
M 2034 4750 
Q 2819 4750 3233 4129 
Q 3647 3509 3647 2328 
Q 3647 1150 3233 529 
Q 2819 -91 2034 -91 
Q 1250 -91 836 529 
Q 422 1150 422 2328 
Q 422 3509 836 4129 
Q 1250 4750 2034 4750 
z
" transform="scale(0.015625)"/>
       </defs>
       <use xlink:href="#DejaVuSans-30"/>
      </g>
     </g>
    </g>
    <g id="xtick_2">
     <g id="text_2">
      <!-- 20 -->
      <g transform="translate(243.011164 287.06881)scale(0.08 -0.08)">
       <defs>
        <path id="DejaVuSans-32" d="M 1228 531 
L 3431 531 
L 3431 0 
L 469 0 
L 469 531 
Q 828 903 1448 1529 
Q 2069 2156 2228 2338 
Q 2531 2678 2651 2914 
Q 2772 3150 2772 3378 
Q 2772 3750 2511 3984 
Q 2250 4219 1831 4219 
Q 1534 4219 1204 4116 
Q 875 4013 500 3803 
L 500 4441 
Q 881 4594 1212 4672 
Q 1544 4750 1819 4750 
Q 2544 4750 2975 4387 
Q 3406 4025 3406 3419 
Q 3406 3131 3298 2873 
Q 3191 2616 2906 2266 
Q 2828 2175 2409 1742 
Q 1991 1309 1228 531 
z
" transform="scale(0.015625)"/>
       </defs>
       <use xlink:href="#DejaVuSans-32"/>
       <use xlink:href="#DejaVuSans-30" x="63.623047"/>
      </g>
     </g>
    </g>
    <g id="xtick_3">
     <g id="text_3">
      <!-- 40 -->
      <g transform="translate(418.41245 287.06881)scale(0.08 -0.08)">
       <defs>
        <path id="DejaVuSans-34" d="M 2419 4116 
L 825 1625 
L 2419 1625 
L 2419 4116 
z
M 2253 4666 
L 3047 4666 
L 3047 1625 
L 3713 1625 
L 3713 1100 
L 3047 1100 
L 3047 0 
L 2419 0 
L 2419 1100 
L 313 1100 
L 313 1709 
L 2253 4666 
z
" transform="scale(0.015625)"/>
       </defs>
       <use xlink:href="#DejaVuSans-34"/>
       <use xlink:href="#DejaVuSans-30" x="63.623047"/>
      </g>
     </g>
    </g>
    <g id="xtick_4">
     <g id="text_4">
      <!-- 60 -->
      <g transform="translate(593.813736 287.06881)scale(0.08 -0.08)">
       <defs>
        <path id="DejaVuSans-36" d="M 2113 2584 
Q 1688 2584 1439 2293 
Q 1191 2003 1191 1497 
Q 1191 994 1439 701 
Q 1688 409 2113 409 
Q 2538 409 2786 701 
Q 3034 994 3034 1497 
Q 3034 2003 2786 2293 
Q 2538 2584 2113 2584 
z
M 3366 4563 
L 3366 3988 
Q 3128 4100 2886 4159 
Q 2644 4219 2406 4219 
Q 1781 4219 1451 3797 
Q 1122 3375 1075 2522 
Q 1259 2794 1537 2939 
Q 1816 3084 2150 3084 
Q 2853 3084 3261 2657 
Q 3669 2231 3669 1497 
Q 3669 778 3244 343 
Q 2819 -91 2113 -91 
Q 1303 -91 875 529 
Q 447 1150 447 2328 
Q 447 3434 972 4092 
Q 1497 4750 2381 4750 
Q 2619 4750 2861 4703 
Q 3103 4656 3366 4563 
z
" transform="scale(0.015625)"/>
       </defs>
       <use xlink:href="#DejaVuSans-36"/>
       <use xlink:href="#DejaVuSans-30" x="63.623047"/>
      </g>
     </g>
    </g>
    <g id="xtick_5">
     <g id="text_5">
      <!-- 80 -->
      <g transform="translate(769.215021 287.06881)scale(0.08 -0.08)">
       <defs>
        <path id="DejaVuSans-38" d="M 2034 2216 
Q 1584 2216 1326 1975 
Q 1069 1734 1069 1313 
Q 1069 891 1326 650 
Q 1584 409 2034 409 
Q 2484 409 2743 651 
Q 3003 894 3003 1313 
Q 3003 1734 2745 1975 
Q 2488 2216 2034 2216 
z
M 1403 2484 
Q 997 2584 770 2862 
Q 544 3141 544 3541 
Q 544 4100 942 4425 
Q 1341 4750 2034 4750 
Q 2731 4750 3128 4425 
Q 3525 4100 3525 3541 
Q 3525 3141 3298 2862 
Q 3072 2584 2669 2484 
Q 3125 2378 3379 2068 
Q 3634 1759 3634 1313 
Q 3634 634 3220 271 
Q 2806 -91 2034 -91 
Q 1263 -91 848 271 
Q 434 634 434 1313 
Q 434 1759 690 2068 
Q 947 2378 1403 2484 
z
M 1172 3481 
Q 1172 3119 1398 2916 
Q 1625 2713 2034 2713 
Q 2441 2713 2670 2916 
Q 2900 3119 2900 3481 
Q 2900 3844 2670 4047 
Q 2441 4250 2034 4250 
Q 1625 4250 1398 4047 
Q 1172 3844 1172 3481 
z
" transform="scale(0.015625)"/>
       </defs>
       <use xlink:href="#DejaVuSans-38"/>
       <use xlink:href="#DejaVuSans-30" x="63.623047"/>
      </g>
     </g>
    </g>
    <g id="xtick_6">
     <g id="text_6">
      <!-- 100 -->
      <g transform="translate(942.071307 287.06881)scale(0.08 -0.08)">
       <defs>
        <path id="DejaVuSans-31" d="M 794 531 
L 1825 531 
L 1825 4091 
L 703 3866 
L 703 4441 
L 1819 4666 
L 2450 4666 
L 2450 531 
L 3481 531 
L 3481 0 
L 794 0 
L 794 531 
z
" transform="scale(0.015625)"/>
       </defs>
       <use xlink:href="#DejaVuSans-31"/>
       <use xlink:href="#DejaVuSans-30" x="63.623047"/>
       <use xlink:href="#DejaVuSans-30" x="127.246094"/>
      </g>
     </g>
    </g>
    <g id="text_7">
     <!-- Position (bp) -->
     <g transform="translate(484.285 300.330997)scale(0.1 -0.1)">
      <defs>
       <path id="DejaVuSans-50" d="M 1259 4147 
L 1259 2394 
L 2053 2394 
Q 2494 2394 2734 2622 
Q 2975 2850 2975 3272 
Q 2975 3691 2734 3919 
Q 2494 4147 2053 4147 
L 1259 4147 
z
M 628 4666 
L 2053 4666 
Q 2838 4666 3239 4311 
Q 3641 3956 3641 3272 
Q 3641 2581 3239 2228 
Q 2838 1875 2053 1875 
L 1259 1875 
L 1259 0 
L 628 0 
L 628 4666 
z
" transform="scale(0.015625)"/>
       <path id="DejaVuSans-6f" d="M 1959 3097 
Q 1497 3097 1228 2736 
Q 959 2375 959 1747 
Q 959 1119 1226 758 
Q 1494 397 1959 397 
Q 2419 397 2687 759 
Q 2956 1122 2956 1747 
Q 2956 2369 2687 2733 
Q 2419 3097 1959 3097 
z
M 1959 3584 
Q 2709 3584 3137 3096 
Q 3566 2609 3566 1747 
Q 3566 888 3137 398 
Q 2709 -91 1959 -91 
Q 1206 -91 779 398 
Q 353 888 353 1747 
Q 353 2609 779 3096 
Q 1206 3584 1959 3584 
z
" transform="scale(0.015625)"/>
       <path id="DejaVuSans-73" d="M 2834 3397 
L 2834 2853 
Q 2591 2978 2328 3040 
Q 2066 3103 1784 3103 
Q 1356 3103 1142 2972 
Q 928 2841 928 2578 
Q 928 2378 1081 2264 
Q 1234 2150 1697 2047 
L 1894 2003 
Q 2506 1872 2764 1633 
Q 3022 1394 3022 966 
Q 3022 478 2636 193 
Q 2250 -91 1575 -91 
Q 1294 -91 989 -36 
Q 684 19 347 128 
L 347 722 
Q 666 556 975 473 
Q 1284 391 1588 391 
Q 1994 391 2212 530 
Q 2431 669 2431 922 
Q 2431 1156 2273 1281 
Q 2116 1406 1581 1522 
L 1381 1569 
Q 847 1681 609 1914 
Q 372 2147 372 2553 
Q 372 3047 722 3315 
Q 1072 3584 1716 3584 
Q 2034 3584 2315 3537 
Q 2597 3491 2834 3397 
z
" transform="scale(0.015625)"/>
       <path id="DejaVuSans-69" d="M 603 3500 
L 1178 3500 
L 1178 0 
L 603 0 
L 603 3500 
z
M 603 4863 
L 1178 4863 
L 1178 4134 
L 603 4134 
L 603 4863 
z
" transform="scale(0.015625)"/>
       <path id="DejaVuSans-74" d="M 1172 4494 
L 1172 3500 
L 2356 3500 
L 2356 3053 
L 1172 3053 
L 1172 1153 
Q 1172 725 1289 603 
Q 1406 481 1766 481 
L 2356 481 
L 2356 0 
L 1766 0 
Q 1100 0 847 248 
Q 594 497 594 1153 
L 594 3053 
L 172 3053 
L 172 3500 
L 594 3500 
L 594 4494 
L 1172 4494 
z
" transform="scale(0.015625)"/>
       <path id="DejaVuSans-6e" d="M 3513 2113 
L 3513 0 
L 2938 0 
L 2938 2094 
Q 2938 2591 2744 2837 
Q 2550 3084 2163 3084 
Q 1697 3084 1428 2787 
Q 1159 2491 1159 1978 
L 1159 0 
L 581 0 
L 581 3500 
L 1159 3500 
L 1159 2956 
Q 1366 3272 1645 3428 
Q 1925 3584 2291 3584 
Q 2894 3584 3203 3211 
Q 3513 2838 3513 2113 
z
" transform="scale(0.015625)"/>
       <path id="DejaVuSans-20" transform="scale(0.015625)"/>
       <path id="DejaVuSans-28" d="M 1984 4856 
Q 1566 4138 1362 3434 
Q 1159 2731 1159 2009 
Q 1159 1288 1364 580 
Q 1569 -128 1984 -844 
L 1484 -844 
Q 1016 -109 783 600 
Q 550 1309 550 2009 
Q 550 2706 781 3412 
Q 1013 4119 1484 4856 
L 1984 4856 
z
" transform="scale(0.015625)"/>
       <path id="DejaVuSans-62" d="M 3116 1747 
Q 3116 2381 2855 2742 
Q 2594 3103 2138 3103 
Q 1681 3103 1420 2742 
Q 1159 2381 1159 1747 
Q 1159 1113 1420 752 
Q 1681 391 2138 391 
Q 2594 391 2855 752 
Q 3116 1113 3116 1747 
z
M 1159 2969 
Q 1341 3281 1617 3432 
Q 1894 3584 2278 3584 
Q 2916 3584 3314 3078 
Q 3713 2572 3713 1747 
Q 3713 922 3314 415 
Q 2916 -91 2278 -91 
Q 1894 -91 1617 61 
Q 1341 213 1159 525 
L 1159 0 
L 581 0 
L 581 4863 
L 1159 4863 
L 1159 2969 
z
" transform="scale(0.015625)"/>
       <path id="DejaVuSans-70" d="M 1159 525 
L 1159 -1331 
L 581 -1331 
L 581 3500 
L 1159 3500 
L 1159 2969 
Q 1341 3281 1617 3432 
Q 1894 3584 2278 3584 
Q 2916 3584 3314 3078 
Q 3713 2572 3713 1747 
Q 3713 922 3314 415 
Q 2916 -91 2278 -91 
Q 1894 -91 1617 61 
Q 1341 213 1159 525 
z
M 3116 1747 
Q 3116 2381 2855 2742 
Q 2594 3103 2138 3103 
Q 1681 3103 1420 2742 
Q 1159 2381 1159 1747 
Q 1159 1113 1420 752 
Q 1681 391 2138 391 
Q 2594 391 2855 752 
Q 3116 1113 3116 1747 
z
" transform="scale(0.015625)"/>
       <path id="DejaVuSans-29" d="M 513 4856 
L 1013 4856 
Q 1481 4119 1714 3412 
Q 1947 2706 1947 2009 
Q 1947 1309 1714 600 
Q 1481 -109 1013 -844 
L 513 -844 
Q 928 -128 1133 580 
Q 1338 1288 1338 2009 
Q 1338 2731 1133 3434 
Q 928 4138 513 4856 
z
" transform="scale(0.015625)"/>
      </defs>
      <use xlink:href="#DejaVuSans-50"/>
      <use xlink:href="#DejaVuSans-6f" x="56.677734"/>
      <use xlink:href="#DejaVuSans-73" x="117.859375"/>
      <use xlink:href="#DejaVuSans-69" x="169.958984"/>
      <use xlink:href="#DejaVuSans-74" x="197.742188"/>
      <use xlink:href="#DejaVuSans-69" x="236.951172"/>
      <use xlink:href="#DejaVuSans-6f" x="264.734375"/>
      <use xlink:href="#DejaVuSans-6e" x="325.916016"/>
      <use xlink:href="#DejaVuSans-20" x="389.294922"/>
      <use xlink:href="#DejaVuSans-28" x="421.082031"/>
      <use xlink:href="#DejaVuSans-62" x="460.095703"/>
      <use xlink:href="#DejaVuSans-70" x="523.572266"/>
      <use xlink:href="#DejaVuSans-29" x="587.048828"/>
     </g>
    </g>
   </g>
   <g id="matplotlib.axis_2">
    <g id="ytick_1">
     <g id="line2d_1">
      <path d="M 38.058125 273.99006 
L 993.118125 273.99006 
" clip-path="url(#p5544882dd3)" style="fill: none; stroke: #dedede; stroke-linecap: square"/>
     </g>
     <g id="text_8">
      <!-- 0 -->
      <g transform="translate(25.968125 277.029435)scale(0.08 -0.08)">
       <use xlink:href="#DejaVuSans-30"/>
      </g>
     </g>
    </g>
    <g id="ytick_2">
     <g id="line2d_2">
      <path d="M 38.058125 240.509531 
L 993.118125 240.509531 
" clip-path="url(#p5544882dd3)" style="fill: none; stroke: #dedede; stroke-linecap: square"/>
     </g>
     <g id="text_9">
      <!-- 5 -->
      <g transform="translate(25.968125 243.548906)scale(0.08 -0.08)">
       <defs>
        <path id="DejaVuSans-35" d="M 691 4666 
L 3169 4666 
L 3169 4134 
L 1269 4134 
L 1269 2991 
Q 1406 3038 1543 3061 
Q 1681 3084 1819 3084 
Q 2600 3084 3056 2656 
Q 3513 2228 3513 1497 
Q 3513 744 3044 326 
Q 2575 -91 1722 -91 
Q 1428 -91 1123 -41 
Q 819 9 494 109 
L 494 744 
Q 775 591 1075 516 
Q 1375 441 1709 441 
Q 2250 441 2565 725 
Q 2881 1009 2881 1497 
Q 2881 1984 2565 2268 
Q 2250 2553 1709 2553 
Q 1456 2553 1204 2497 
Q 953 2441 691 2322 
L 691 4666 
z
" transform="scale(0.015625)"/>
       </defs>
       <use xlink:href="#DejaVuSans-35"/>
      </g>
     </g>
    </g>
    <g id="ytick_3">
     <g id="line2d_3">
      <path d="M 38.058125 207.029001 
L 993.118125 207.029001 
" clip-path="url(#p5544882dd3)" style="fill: none; stroke: #dedede; stroke-linecap: square"/>
     </g>
     <g id="text_10">
      <!-- 10 -->
      <g transform="translate(20.878125 210.068376)scale(0.08 -0.08)">
       <use xlink:href="#DejaVuSans-31"/>
       <use xlink:href="#DejaVuSans-30" x="63.623047"/>
      </g>
     </g>
    </g>
    <g id="ytick_4">
     <g id="line2d_4">
      <path d="M 38.058125 173.548472 
L 993.118125 173.548472 
" clip-path="url(#p5544882dd3)" style="fill: none; stroke: #dedede; stroke-linecap: square"/>
     </g>
     <g id="text_11">
      <!-- 15 -->
      <g transform="translate(20.878125 176.587847)scale(0.08 -0.08)">
       <use xlink:href="#DejaVuSans-31"/>
       <use xlink:href="#DejaVuSans-35" x="63.623047"/>
      </g>
     </g>
    </g>
    <g id="ytick_5">
     <g id="line2d_5">
      <path d="M 38.058125 140.067943 
L 993.118125 140.067943 
" clip-path="url(#p5544882dd3)" style="fill: none; stroke: #dedede; stroke-linecap: square"/>
     </g>
     <g id="text_12">
      <!-- 20 -->
      <g transform="translate(20.878125 143.107318)scale(0.08 -0.08)">
       <use xlink:href="#DejaVuSans-32"/>
       <use xlink:href="#DejaVuSans-30" x="63.623047"/>
      </g>
     </g>
    </g>
    <g id="ytick_6">
     <g id="line2d_6">
      <path d="M 38.058125 106.587414 
L 993.118125 106.587414 
" clip-path="url(#p5544882dd3)" style="fill: none; stroke: #dedede; stroke-linecap: square"/>
     </g>
     <g id="text_13">
      <!-- 25 -->
      <g transform="translate(20.878125 109.626789)scale(0.08 -0.08)">
       <use xlink:href="#DejaVuSans-32"/>
       <use xlink:href="#DejaVuSans-35" x="63.623047"/>
      </g>
     </g>
    </g>
    <g id="ytick_7">
     <g id="line2d_7">
      <path d="M 38.058125 73.106884 
L 993.118125 73.106884 
" clip-path="url(#p5544882dd3)" style="fill: none; stroke: #dedede; stroke-linecap: square"/>
     </g>
     <g id="text_14">
      <!-- 30 -->
      <g transform="translate(20.878125 76.146259)scale(0.08 -0.08)">
       <defs>
        <path id="DejaVuSans-33" d="M 2597 2516 
Q 3050 2419 3304 2112 
Q 3559 1806 3559 1356 
Q 3559 666 3084 287 
Q 2609 -91 1734 -91 
Q 1441 -91 1130 -33 
Q 819 25 488 141 
L 488 750 
Q 750 597 1062 519 
Q 1375 441 1716 441 
Q 2309 441 2620 675 
Q 2931 909 2931 1356 
Q 2931 1769 2642 2001 
Q 2353 2234 1838 2234 
L 1294 2234 
L 1294 2753 
L 1863 2753 
Q 2328 2753 2575 2939 
Q 2822 3125 2822 3475 
Q 2822 3834 2567 4026 
Q 2313 4219 1838 4219 
Q 1578 4219 1281 4162 
Q 984 4106 628 3988 
L 628 4550 
Q 988 4650 1302 4700 
Q 1616 4750 1894 4750 
Q 2613 4750 3031 4423 
Q 3450 4097 3450 3541 
Q 3450 3153 3228 2886 
Q 3006 2619 2597 2516 
z
" transform="scale(0.015625)"/>
       </defs>
       <use xlink:href="#DejaVuSans-33"/>
       <use xlink:href="#DejaVuSans-30" x="63.623047"/>
      </g>
     </g>
    </g>
    <g id="ytick_8">
     <g id="line2d_8">
      <path d="M 38.058125 39.626355 
L 993.118125 39.626355 
" clip-path="url(#p5544882dd3)" style="fill: none; stroke: #dedede; stroke-linecap: square"/>
     </g>
     <g id="text_15">
      <!-- 35 -->
      <g transform="translate(20.878125 42.66573)scale(0.08 -0.08)">
       <use xlink:href="#DejaVuSans-33"/>
       <use xlink:href="#DejaVuSans-35" x="63.623047"/>
      </g>
     </g>
    </g>
    <g id="text_16">
     <!-- Phred Score -->
     <g transform="translate(14.798438 182.70521)rotate(-90)scale(0.1 -0.1)">
      <defs>
       <path id="DejaVuSans-68" d="M 3513 2113 
L 3513 0 
L 2938 0 
L 2938 2094 
Q 2938 2591 2744 2837 
Q 2550 3084 2163 3084 
Q 1697 3084 1428 2787 
Q 1159 2491 1159 1978 
L 1159 0 
L 581 0 
L 581 4863 
L 1159 4863 
L 1159 2956 
Q 1366 3272 1645 3428 
Q 1925 3584 2291 3584 
Q 2894 3584 3203 3211 
Q 3513 2838 3513 2113 
z
" transform="scale(0.015625)"/>
       <path id="DejaVuSans-72" d="M 2631 2963 
Q 2534 3019 2420 3045 
Q 2306 3072 2169 3072 
Q 1681 3072 1420 2755 
Q 1159 2438 1159 1844 
L 1159 0 
L 581 0 
L 581 3500 
L 1159 3500 
L 1159 2956 
Q 1341 3275 1631 3429 
Q 1922 3584 2338 3584 
Q 2397 3584 2469 3576 
Q 2541 3569 2628 3553 
L 2631 2963 
z
" transform="scale(0.015625)"/>
       <path id="DejaVuSans-65" d="M 3597 1894 
L 3597 1613 
L 953 1613 
Q 991 1019 1311 708 
Q 1631 397 2203 397 
Q 2534 397 2845 478 
Q 3156 559 3463 722 
L 3463 178 
Q 3153 47 2828 -22 
Q 2503 -91 2169 -91 
Q 1331 -91 842 396 
Q 353 884 353 1716 
Q 353 2575 817 3079 
Q 1281 3584 2069 3584 
Q 2775 3584 3186 3129 
Q 3597 2675 3597 1894 
z
M 3022 2063 
Q 3016 2534 2758 2815 
Q 2500 3097 2075 3097 
Q 1594 3097 1305 2825 
Q 1016 2553 972 2059 
L 3022 2063 
z
" transform="scale(0.015625)"/>
       <path id="DejaVuSans-64" d="M 2906 2969 
L 2906 4863 
L 3481 4863 
L 3481 0 
L 2906 0 
L 2906 525 
Q 2725 213 2448 61 
Q 2172 -91 1784 -91 
Q 1150 -91 751 415 
Q 353 922 353 1747 
Q 353 2572 751 3078 
Q 1150 3584 1784 3584 
Q 2172 3584 2448 3432 
Q 2725 3281 2906 2969 
z
M 947 1747 
Q 947 1113 1208 752 
Q 1469 391 1925 391 
Q 2381 391 2643 752 
Q 2906 1113 2906 1747 
Q 2906 2381 2643 2742 
Q 2381 3103 1925 3103 
Q 1469 3103 1208 2742 
Q 947 2381 947 1747 
z
" transform="scale(0.015625)"/>
       <path id="DejaVuSans-53" d="M 3425 4513 
L 3425 3897 
Q 3066 4069 2747 4153 
Q 2428 4238 2131 4238 
Q 1616 4238 1336 4038 
Q 1056 3838 1056 3469 
Q 1056 3159 1242 3001 
Q 1428 2844 1947 2747 
L 2328 2669 
Q 3034 2534 3370 2195 
Q 3706 1856 3706 1288 
Q 3706 609 3251 259 
Q 2797 -91 1919 -91 
Q 1588 -91 1214 -16 
Q 841 59 441 206 
L 441 856 
Q 825 641 1194 531 
Q 1563 422 1919 422 
Q 2459 422 2753 634 
Q 3047 847 3047 1241 
Q 3047 1584 2836 1778 
Q 2625 1972 2144 2069 
L 1759 2144 
Q 1053 2284 737 2584 
Q 422 2884 422 3419 
Q 422 4038 858 4394 
Q 1294 4750 2059 4750 
Q 2388 4750 2728 4690 
Q 3069 4631 3425 4513 
z
" transform="scale(0.015625)"/>
       <path id="DejaVuSans-63" d="M 3122 3366 
L 3122 2828 
Q 2878 2963 2633 3030 
Q 2388 3097 2138 3097 
Q 1578 3097 1268 2742 
Q 959 2388 959 1747 
Q 959 1106 1268 751 
Q 1578 397 2138 397 
Q 2388 397 2633 464 
Q 2878 531 3122 666 
L 3122 134 
Q 2881 22 2623 -34 
Q 2366 -91 2075 -91 
Q 1284 -91 818 406 
Q 353 903 353 1747 
Q 353 2603 823 3093 
Q 1294 3584 2113 3584 
Q 2378 3584 2631 3529 
Q 2884 3475 3122 3366 
z
" transform="scale(0.015625)"/>
      </defs>
      <use xlink:href="#DejaVuSans-50"/>
      <use xlink:href="#DejaVuSans-68" x="60.302734"/>
      <use xlink:href="#DejaVuSans-72" x="123.681641"/>
      <use xlink:href="#DejaVuSans-65" x="162.544922"/>
      <use xlink:href="#DejaVuSans-64" x="224.068359"/>
      <use xlink:href="#DejaVuSans-20" x="287.544922"/>
      <use xlink:href="#DejaVuSans-53" x="319.332031"/>
      <use xlink:href="#DejaVuSans-63" x="382.808594"/>
      <use xlink:href="#DejaVuSans-6f" x="437.789062"/>
      <use xlink:href="#DejaVuSans-72" x="498.970703"/>
      <use xlink:href="#DejaVuSans-65" x="537.833984"/>
     </g>
    </g>
   </g>
   <g id="line2d_9">
    <path d="M 81.469943 59.669082 
L 90.240007 58.741141 
L 99.010072 58.963309 
L 107.780136 59.174449 
L 116.5502 58.883829 
L 125.320265 36.970425 
L 134.090329 34.981538 
L 142.860393 35.027935 
L 151.630457 34.55065 
L 160.400522 34.668257 
L 177.94065 34.766901 
L 195.480779 34.756949 
L 213.020907 34.871664 
L 230.561036 34.967551 
L 248.101164 35.407411 
L 265.641293 35.341783 
L 283.181422 35.388545 
L 300.72155 35.624602 
L 318.261679 35.626875 
L 335.801807 35.574246 
L 353.341936 35.724418 
L 370.882064 35.627038 
L 388.422193 35.819166 
L 405.962322 36.119951 
L 423.50245 36.174354 
L 441.042579 36.112831 
L 458.582707 36.391388 
L 476.122836 36.503105 
L 493.662964 36.514828 
L 511.203093 36.587129 
L 528.743221 36.872343 
L 546.28335 36.710371 
L 563.823479 36.851456 
L 581.363607 36.779018 
L 598.903736 36.908093 
L 616.443864 36.802492 
L 633.983993 37.147276 
L 651.524121 37.023111 
L 669.06425 37.477512 
L 686.604378 37.52718 
L 704.144507 37.550701 
L 721.684636 37.74063 
L 739.224764 38.158963 
L 756.764893 37.85125 
L 774.305021 38.090434 
L 791.84515 38.115677 
L 809.385278 38.283866 
L 826.925407 38.504216 
L 844.465535 38.284363 
L 862.005664 38.387171 
L 879.545793 38.559564 
L 897.085921 38.730585 
L 914.62605 38.593686 
L 932.166178 38.264015 
L 949.706307 36.903185 
" clip-path="url(#p5544882dd3)" style="fill: none; stroke: #5cb85c; stroke-linecap: square"/>
   </g>
   <g id="line2d_10">
    <path d="M 81.469943 61.997677 
L 90.240007 60.86263 
L 99.010072 61.033291 
L 107.780136 61.06866 
L 116.5502 60.746705 
L 125.320265 37.181028 
L 134.090329 36.330549 
L 142.860393 37.351957 
L 151.630457 37.109079 
L 160.400522 37.038474 
L 177.94065 37.444348 
L 195.480779 37.44892 
L 213.020907 37.620522 
L 230.561036 37.655421 
L 248.101164 37.523896 
L 265.641293 37.544506 
L 283.181422 37.375446 
L 300.72155 37.358588 
L 318.261679 37.120477 
L 335.801807 36.997397 
L 353.341936 37.164225 
L 370.882064 37.305389 
L 388.422193 37.016216 
L 405.962322 37.363181 
L 423.50245 37.157443 
L 441.042579 37.328695 
L 458.582707 37.587372 
L 476.122836 37.484854 
L 493.662964 37.670474 
L 511.203093 37.571183 
L 528.743221 37.572843 
L 546.28335 37.523856 
L 563.823479 37.465263 
L 581.363607 37.344971 
L 598.903736 37.469047 
L 616.443864 37.841777 
L 633.983993 37.717742 
L 651.524121 37.541146 
L 669.06425 37.622826 
L 686.604378 37.820351 
L 704.144507 38.010738 
L 721.684636 37.79285 
L 739.224764 37.716268 
L 756.764893 38.270961 
L 774.305021 38.22367 
L 791.84515 38.29612 
L 809.385278 38.310247 
L 826.925407 38.605497 
L 844.465535 38.445932 
L 862.005664 38.554774 
L 879.545793 38.802931 
L 897.085921 38.756627 
L 914.62605 38.724562 
L 932.166178 38.11058 
L 949.706307 36.812327 
" clip-path="url(#p5544882dd3)" style="fill: none; stroke: #5cb85c; stroke-linecap: square"/>
   </g>
   <g id="line2d_11">
    <path d="M 81.469943 59.324717 
L 90.240007 58.495761 
L 99.010072 58.913322 
L 107.780136 58.751845 
L 116.5502 58.621592 
L 125.320265 36.712144 
L 134.090329 35.023008 
L 142.860393 34.629167 
L 151.630457 34.34387 
L 160.400522 34.464676 
L 177.94065 34.379314 
L 195.480779 34.499718 
L 213.020907 34.575766 
L 230.561036 34.762971 
L 248.101164 35.240633 
L 265.641293 35.001654 
L 283.181422 34.956448 
L 300.72155 35.134166 
L 318.261679 35.211846 
L 335.801807 35.224781 
L 353.341936 35.267694 
L 370.882064 35.327608 
L 388.422193 35.69001 
L 405.962322 35.713808 
L 423.50245 35.799521 
L 441.042579 35.890247 
L 458.582707 35.94965 
L 476.122836 35.896893 
L 493.662964 36.016919 
L 511.203093 36.040868 
L 528.743221 36.2867 
L 546.28335 36.344545 
L 563.823479 36.248262 
L 581.363607 36.254931 
L 598.903736 36.50599 
L 616.443864 36.445471 
L 633.983993 36.73855 
L 651.524121 36.62968 
L 669.06425 36.774365 
L 686.604378 36.928593 
L 704.144507 37.108143 
L 721.684636 37.119547 
L 739.224764 37.924851 
L 756.764893 37.552468 
L 774.305021 37.679896 
L 791.84515 37.566273 
L 809.385278 37.619455 
L 826.925407 37.820335 
L 844.465535 37.903285 
L 862.005664 37.811832 
L 879.545793 38.127864 
L 897.085921 38.302012 
L 914.62605 38.214165 
L 932.166178 37.974078 
L 949.706307 36.44928 
" clip-path="url(#p5544882dd3)" style="fill: none; stroke: #5cb85c; stroke-linecap: square"/>
   </g>
   <g id="line2d_12">
    <path d="M 81.469943 59.302006 
L 90.240007 58.270305 
L 99.010072 58.622958 
L 107.780136 58.517932 
L 116.5502 58.416323 
L 125.320265 36.484435 
L 134.090329 34.544814 
L 142.860393 34.143333 
L 151.630457 33.87521 
L 160.400522 33.943898 
L 177.94065 33.91724 
L 195.480779 33.973403 
L 213.020907 34.110043 
L 230.561036 34.487411 
L 248.101164 34.670789 
L 265.641293 34.516227 
L 283.181422 34.640899 
L 300.72155 34.744851 
L 318.261679 34.704873 
L 335.801807 34.845791 
L 353.341936 34.809582 
L 370.882064 34.887759 
L 388.422193 35.072163 
L 405.962322 35.132862 
L 423.50245 35.398431 
L 441.042579 35.382439 
L 458.582707 35.47629 
L 476.122836 35.57591 
L 493.662964 35.590998 
L 511.203093 35.624327 
L 528.743221 35.830013 
L 546.28335 35.845997 
L 563.823479 35.950161 
L 581.363607 35.826936 
L 598.903736 36.022053 
L 616.443864 36.050353 
L 633.983993 36.489635 
L 651.524121 36.262156 
L 669.06425 36.441166 
L 686.604378 36.40729 
L 704.144507 36.544913 
L 721.684636 37.093637 
L 739.224764 37.086304 
L 756.764893 36.870652 
L 774.305021 37.1926 
L 791.84515 37.058748 
L 809.385278 37.029047 
L 826.925407 37.250295 
L 844.465535 37.272396 
L 862.005664 37.391988 
L 879.545793 37.500848 
L 897.085921 37.680828 
L 914.62605 37.845299 
L 932.166178 37.378149 
L 949.706307 35.957103 
" clip-path="url(#p5544882dd3)" style="fill: none; stroke: #5cb85c; stroke-linecap: square"/>
   </g>
   <g id="line2d_13">
    <path d="M 81.469943 59.405914 
L 90.240007 58.669966 
L 99.010072 58.929898 
L 107.780136 58.785977 
L 116.5502 58.550592 
L 125.320265 37.041085 
L 134.090329 34.869084 
L 142.860393 34.674925 
L 151.630457 34.241412 
L 160.400522 34.517889 
L 177.94065 34.42508 
L 195.480779 34.625729 
L 213.020907 34.681684 
L 230.561036 34.81128 
L 248.101164 35.292892 
L 265.641293 35.182012 
L 283.181422 35.120295 
L 300.72155 35.337612 
L 318.261679 35.36549 
L 335.801807 35.51589 
L 353.341936 35.491977 
L 370.882064 35.465326 
L 388.422193 35.704728 
L 405.962322 35.775294 
L 423.50245 36.062507 
L 441.042579 36.018153 
L 458.582707 36.081119 
L 476.122836 36.290732 
L 493.662964 36.31849 
L 511.203093 36.079038 
L 528.743221 36.319255 
L 546.28335 36.531404 
L 563.823479 36.555147 
L 581.363607 36.537326 
L 598.903736 36.936189 
L 616.443864 36.721649 
L 633.983993 36.913648 
L 651.524121 37.025974 
L 669.06425 37.176108 
L 686.604378 37.172096 
L 704.144507 37.360122 
L 721.684636 37.537281 
L 739.224764 38.02478 
L 756.764893 37.707471 
L 774.305021 37.886542 
L 791.84515 37.903716 
L 809.385278 37.948013 
L 826.925407 38.277054 
L 844.465535 38.146863 
L 862.005664 38.3089 
L 879.545793 38.466661 
L 897.085921 38.564004 
L 914.62605 38.80138 
L 932.166178 38.262919 
L 949.706307 36.945546 
" clip-path="url(#p5544882dd3)" style="fill: none; stroke: #5cb85c; stroke-linecap: square"/>
   </g>
   <g id="line2d_14">
    <path d="M 81.469943 62.383874 
L 90.240007 61.168816 
L 99.010072 61.332711 
L 107.780136 61.208091 
L 116.5502 60.955691 
L 125.320265 37.453076 
L 134.090329 36.780951 
L 142.860393 37.578974 
L 151.630457 37.595653 
L 160.400522 37.402065 
L 177.94065 37.664486 
L 195.480779 37.646395 
L 213.020907 37.8305 
L 230.561036 37.882789 
L 248.101164 37.709435 
L 265.641293 37.712418 
L 283.181422 37.628431 
L 300.72155 37.696967 
L 318.261679 37.679451 
L 335.801807 37.413364 
L 353.341936 37.287536 
L 370.882064 37.551521 
L 388.422193 37.359171 
L 405.962322 37.629833 
L 423.50245 37.534762 
L 441.042579 37.582683 
L 458.582707 37.735183 
L 476.122836 37.725765 
L 493.662964 37.80336 
L 511.203093 37.717295 
L 528.743221 37.910095 
L 546.28335 37.696645 
L 563.823479 37.674271 
L 581.363607 37.595453 
L 598.903736 37.665575 
L 616.443864 37.894716 
L 633.983993 37.796897 
L 651.524121 37.683185 
L 669.06425 37.72777 
L 686.604378 38.006153 
L 704.144507 37.97728 
L 721.684636 37.990446 
L 739.224764 38.035898 
L 756.764893 38.346147 
L 774.305021 38.373306 
L 791.84515 38.550084 
L 809.385278 38.430836 
L 826.925407 38.552364 
L 844.465535 38.598992 
L 862.005664 38.62904 
L 879.545793 38.777397 
L 897.085921 38.821602 
L 914.62605 38.771786 
L 932.166178 38.166362 
L 949.706307 36.719108 
" clip-path="url(#p5544882dd3)" style="fill: none; stroke: #5cb85c; stroke-linecap: square"/>
   </g>
   <g id="line2d_15">
    <path d="M 81.469943 58.594125 
L 90.240007 57.577194 
L 99.010072 57.858037 
L 107.780136 57.879299 
L 116.5502 57.716337 
L 125.320265 35.286939 
L 134.090329 33.540381 
L 142.860393 33.224415 
L 151.630457 32.954337 
L 160.400522 33.097248 
L 177.94065 33.026533 
L 195.480779 33.250387 
L 213.020907 33.321708 
L 230.561036 33.823916 
L 248.101164 33.692384 
L 265.641293 33.613263 
L 283.181422 33.608836 
L 300.72155 33.778533 
L 318.261679 33.726932 
L 335.801807 33.83238 
L 353.341936 33.771888 
L 370.882064 33.961796 
L 388.422193 33.992916 
L 405.962322 34.116475 
L 423.50245 34.262657 
L 441.042579 34.47242 
L 458.582707 34.462128 
L 476.122836 34.419162 
L 493.662964 34.576424 
L 511.203093 34.338227 
L 528.743221 34.483718 
L 546.28335 34.52865 
L 563.823479 34.636774 
L 581.363607 34.70615 
L 598.903736 34.828744 
L 616.443864 34.781166 
L 633.983993 35.573157 
L 651.524121 34.94374 
L 669.06425 35.011872 
L 686.604378 34.954947 
L 704.144507 35.2474 
L 721.684636 36.10248 
L 739.224764 35.75533 
L 756.764893 35.537431 
L 774.305021 35.754361 
L 791.84515 35.589563 
L 809.385278 35.746032 
L 826.925407 35.896732 
L 844.465535 35.943058 
L 862.005664 36.043084 
L 879.545793 36.089037 
L 897.085921 36.192308 
L 914.62605 36.13411 
L 932.166178 35.846786 
L 949.706307 34.771282 
" clip-path="url(#p5544882dd3)" style="fill: none; stroke: #5cb85c; stroke-linecap: square"/>
   </g>
   <g id="line2d_16">
    <path d="M 81.469943 61.770738 
L 90.240007 60.61749 
L 99.010072 60.709534 
L 107.780136 60.804001 
L 116.5502 60.384956 
L 125.320265 36.603419 
L 134.090329 36.136602 
L 142.860393 36.675682 
L 151.630457 36.639079 
L 160.400522 36.524225 
L 177.94065 37.010218 
L 195.480779 36.617885 
L 213.020907 36.82411 
L 230.561036 36.863942 
L 248.101164 36.613444 
L 265.641293 36.552539 
L 283.181422 36.448345 
L 300.72155 36.397683 
L 318.261679 36.522554 
L 335.801807 36.372182 
L 353.341936 36.239368 
L 370.882064 36.217934 
L 388.422193 36.194439 
L 405.962322 36.310138 
L 423.50245 36.142359 
L 441.042579 36.320073 
L 458.582707 36.367674 
L 476.122836 36.127266 
L 493.662964 36.809866 
L 511.203093 36.352727 
L 528.743221 36.327626 
L 546.28335 36.131464 
L 563.823479 36.245774 
L 581.363607 36.255217 
L 598.903736 36.296168 
L 616.443864 36.267908 
L 633.983993 36.193101 
L 651.524121 36.193958 
L 669.06425 36.263719 
L 686.604378 36.326991 
L 704.144507 36.497003 
L 721.684636 36.292051 
L 739.224764 36.241512 
L 756.764893 36.588309 
L 774.305021 36.670082 
L 791.84515 36.606336 
L 809.385278 36.45598 
L 826.925407 36.646702 
L 844.465535 36.80265 
L 862.005664 37.138278 
L 879.545793 36.965006 
L 897.085921 36.74693 
L 914.62605 36.867712 
L 932.166178 36.287507 
L 949.706307 35.054057 
" clip-path="url(#p5544882dd3)" style="fill: none; stroke: #5cb85c; stroke-linecap: square"/>
   </g>
   <g id="line2d_17">
    <path d="M 38.058125 273.99006 
L 993.118125 273.99006 
" clip-path="url(#p5544882dd3)" style="fill: none; stroke: #dedede; stroke-width: 2; stroke-linecap: square"/>
   </g>
   <g id="text_17">
    <!-- FastQC: Mean Quality Scores -->
    <g transform="translate(400.349375 19.3575)scale(0.16 -0.16)">
     <defs>
      <path id="DejaVuSans-46" d="M 628 4666 
L 3309 4666 
L 3309 4134 
L 1259 4134 
L 1259 2759 
L 3109 2759 
L 3109 2228 
L 1259 2228 
L 1259 0 
L 628 0 
L 628 4666 
z
" transform="scale(0.015625)"/>
      <path id="DejaVuSans-61" d="M 2194 1759 
Q 1497 1759 1228 1600 
Q 959 1441 959 1056 
Q 959 750 1161 570 
Q 1363 391 1709 391 
Q 2188 391 2477 730 
Q 2766 1069 2766 1631 
L 2766 1759 
L 2194 1759 
z
M 3341 1997 
L 3341 0 
L 2766 0 
L 2766 531 
Q 2569 213 2275 61 
Q 1981 -91 1556 -91 
Q 1019 -91 701 211 
Q 384 513 384 1019 
Q 384 1609 779 1909 
Q 1175 2209 1959 2209 
L 2766 2209 
L 2766 2266 
Q 2766 2663 2505 2880 
Q 2244 3097 1772 3097 
Q 1472 3097 1187 3025 
Q 903 2953 641 2809 
L 641 3341 
Q 956 3463 1253 3523 
Q 1550 3584 1831 3584 
Q 2591 3584 2966 3190 
Q 3341 2797 3341 1997 
z
" transform="scale(0.015625)"/>
      <path id="DejaVuSans-51" d="M 2522 4238 
Q 1834 4238 1429 3725 
Q 1025 3213 1025 2328 
Q 1025 1447 1429 934 
Q 1834 422 2522 422 
Q 3209 422 3611 934 
Q 4013 1447 4013 2328 
Q 4013 3213 3611 3725 
Q 3209 4238 2522 4238 
z
M 3406 84 
L 4238 -825 
L 3475 -825 
L 2784 -78 
Q 2681 -84 2626 -87 
Q 2572 -91 2522 -91 
Q 1538 -91 948 567 
Q 359 1225 359 2328 
Q 359 3434 948 4092 
Q 1538 4750 2522 4750 
Q 3503 4750 4090 4092 
Q 4678 3434 4678 2328 
Q 4678 1516 4351 937 
Q 4025 359 3406 84 
z
" transform="scale(0.015625)"/>
      <path id="DejaVuSans-43" d="M 4122 4306 
L 4122 3641 
Q 3803 3938 3442 4084 
Q 3081 4231 2675 4231 
Q 1875 4231 1450 3742 
Q 1025 3253 1025 2328 
Q 1025 1406 1450 917 
Q 1875 428 2675 428 
Q 3081 428 3442 575 
Q 3803 722 4122 1019 
L 4122 359 
Q 3791 134 3420 21 
Q 3050 -91 2638 -91 
Q 1578 -91 968 557 
Q 359 1206 359 2328 
Q 359 3453 968 4101 
Q 1578 4750 2638 4750 
Q 3056 4750 3426 4639 
Q 3797 4528 4122 4306 
z
" transform="scale(0.015625)"/>
      <path id="DejaVuSans-3a" d="M 750 794 
L 1409 794 
L 1409 0 
L 750 0 
L 750 794 
z
M 750 3309 
L 1409 3309 
L 1409 2516 
L 750 2516 
L 750 3309 
z
" transform="scale(0.015625)"/>
      <path id="DejaVuSans-4d" d="M 628 4666 
L 1569 4666 
L 2759 1491 
L 3956 4666 
L 4897 4666 
L 4897 0 
L 4281 0 
L 4281 4097 
L 3078 897 
L 2444 897 
L 1241 4097 
L 1241 0 
L 628 0 
L 628 4666 
z
" transform="scale(0.015625)"/>
      <path id="DejaVuSans-75" d="M 544 1381 
L 544 3500 
L 1119 3500 
L 1119 1403 
Q 1119 906 1312 657 
Q 1506 409 1894 409 
Q 2359 409 2629 706 
Q 2900 1003 2900 1516 
L 2900 3500 
L 3475 3500 
L 3475 0 
L 2900 0 
L 2900 538 
Q 2691 219 2414 64 
Q 2138 -91 1772 -91 
Q 1169 -91 856 284 
Q 544 659 544 1381 
z
M 1991 3584 
L 1991 3584 
z
" transform="scale(0.015625)"/>
      <path id="DejaVuSans-6c" d="M 603 4863 
L 1178 4863 
L 1178 0 
L 603 0 
L 603 4863 
z
" transform="scale(0.015625)"/>
      <path id="DejaVuSans-79" d="M 2059 -325 
Q 1816 -950 1584 -1140 
Q 1353 -1331 966 -1331 
L 506 -1331 
L 506 -850 
L 844 -850 
Q 1081 -850 1212 -737 
Q 1344 -625 1503 -206 
L 1606 56 
L 191 3500 
L 800 3500 
L 1894 763 
L 2988 3500 
L 3597 3500 
L 2059 -325 
z
" transform="scale(0.015625)"/>
     </defs>
     <use xlink:href="#DejaVuSans-46"/>
     <use xlink:href="#DejaVuSans-61" x="48.394531"/>
     <use xlink:href="#DejaVuSans-73" x="109.673828"/>
     <use xlink:href="#DejaVuSans-74" x="161.773438"/>
     <use xlink:href="#DejaVuSans-51" x="200.982422"/>
     <use xlink:href="#DejaVuSans-43" x="279.693359"/>
     <use xlink:href="#DejaVuSans-3a" x="349.517578"/>
     <use xlink:href="#DejaVuSans-20" x="383.208984"/>
     <use xlink:href="#DejaVuSans-4d" x="414.996094"/>
     <use xlink:href="#DejaVuSans-65" x="501.275391"/>
     <use xlink:href="#DejaVuSans-61" x="562.798828"/>
     <use xlink:href="#DejaVuSans-6e" x="624.078125"/>
     <use xlink:href="#DejaVuSans-20" x="687.457031"/>
     <use xlink:href="#DejaVuSans-51" x="719.244141"/>
     <use xlink:href="#DejaVuSans-75" x="797.955078"/>
     <use xlink:href="#DejaVuSans-61" x="861.333984"/>
     <use xlink:href="#DejaVuSans-6c" x="922.613281"/>
     <use xlink:href="#DejaVuSans-69" x="950.396484"/>
     <use xlink:href="#DejaVuSans-74" x="978.179688"/>
     <use xlink:href="#DejaVuSans-79" x="1017.388672"/>
     <use xlink:href="#DejaVuSans-20" x="1076.568359"/>
     <use xlink:href="#DejaVuSans-53" x="1108.355469"/>
     <use xlink:href="#DejaVuSans-63" x="1171.832031"/>
     <use xlink:href="#DejaVuSans-6f" x="1226.8125"/>
     <use xlink:href="#DejaVuSans-72" x="1287.994141"/>
     <use xlink:href="#DejaVuSans-65" x="1326.857422"/>
     <use xlink:href="#DejaVuSans-73" x="1388.380859"/>
    </g>
   </g>
   <g id="legend_1">
    <g id="line2d_18">
     <path d="M 45.258125 303.490394 
L 53.258125 303.490394 
L 61.258125 303.490394 
" style="fill: none; stroke: #5cb85c; stroke-linecap: square"/>
    </g>
    <g id="text_18">
     <!-- RAP1_IAA_30M_REP1_1 -->
     <g transform="translate(67.658125 306.290394)scale(0.08 -0.08)">
      <defs>
       <path id="DejaVuSans-52" d="M 2841 2188 
Q 3044 2119 3236 1894 
Q 3428 1669 3622 1275 
L 4263 0 
L 3584 0 
L 2988 1197 
Q 2756 1666 2539 1819 
Q 2322 1972 1947 1972 
L 1259 1972 
L 1259 0 
L 628 0 
L 628 4666 
L 2053 4666 
Q 2853 4666 3247 4331 
Q 3641 3997 3641 3322 
Q 3641 2881 3436 2590 
Q 3231 2300 2841 2188 
z
M 1259 4147 
L 1259 2491 
L 2053 2491 
Q 2509 2491 2742 2702 
Q 2975 2913 2975 3322 
Q 2975 3731 2742 3939 
Q 2509 4147 2053 4147 
L 1259 4147 
z
" transform="scale(0.015625)"/>
       <path id="DejaVuSans-41" d="M 2188 4044 
L 1331 1722 
L 3047 1722 
L 2188 4044 
z
M 1831 4666 
L 2547 4666 
L 4325 0 
L 3669 0 
L 3244 1197 
L 1141 1197 
L 716 0 
L 50 0 
L 1831 4666 
z
" transform="scale(0.015625)"/>
       <path id="DejaVuSans-5f" d="M 3263 -1063 
L 3263 -1509 
L -63 -1509 
L -63 -1063 
L 3263 -1063 
z
" transform="scale(0.015625)"/>
       <path id="DejaVuSans-49" d="M 628 4666 
L 1259 4666 
L 1259 0 
L 628 0 
L 628 4666 
z
" transform="scale(0.015625)"/>
       <path id="DejaVuSans-45" d="M 628 4666 
L 3578 4666 
L 3578 4134 
L 1259 4134 
L 1259 2753 
L 3481 2753 
L 3481 2222 
L 1259 2222 
L 1259 531 
L 3634 531 
L 3634 0 
L 628 0 
L 628 4666 
z
" transform="scale(0.015625)"/>
      </defs>
      <use xlink:href="#DejaVuSans-52"/>
      <use xlink:href="#DejaVuSans-41" x="65.482422"/>
      <use xlink:href="#DejaVuSans-50" x="133.890625"/>
      <use xlink:href="#DejaVuSans-31" x="194.193359"/>
      <use xlink:href="#DejaVuSans-5f" x="257.816406"/>
      <use xlink:href="#DejaVuSans-49" x="307.816406"/>
      <use xlink:href="#DejaVuSans-41" x="337.308594"/>
      <use xlink:href="#DejaVuSans-41" x="408.466797"/>
      <use xlink:href="#DejaVuSans-5f" x="476.875"/>
      <use xlink:href="#DejaVuSans-33" x="526.875"/>
      <use xlink:href="#DejaVuSans-30" x="590.498047"/>
      <use xlink:href="#DejaVuSans-4d" x="654.121094"/>
      <use xlink:href="#DejaVuSans-5f" x="740.400391"/>
      <use xlink:href="#DejaVuSans-52" x="790.400391"/>
      <use xlink:href="#DejaVuSans-45" x="859.882812"/>
      <use xlink:href="#DejaVuSans-50" x="923.066406"/>
      <use xlink:href="#DejaVuSans-31" x="983.369141"/>
      <use xlink:href="#DejaVuSans-5f" x="1046.992188"/>
      <use xlink:href="#DejaVuSans-31" x="1096.992188"/>
     </g>
    </g>
    <g id="line2d_19">
     <path d="M 45.258125 315.455394 
L 53.258125 315.455394 
L 61.258125 315.455394 
" style="fill: none; stroke: #5cb85c; stroke-linecap: square"/>
    </g>
    <g id="text_19">
     <!-- RAP1_IAA_30M_REP1_2 -->
     <g transform="translate(67.658125 318.255394)scale(0.08 -0.08)">
      <use xlink:href="#DejaVuSans-52"/>
      <use xlink:href="#DejaVuSans-41" x="65.482422"/>
      <use xlink:href="#DejaVuSans-50" x="133.890625"/>
      <use xlink:href="#DejaVuSans-31" x="194.193359"/>
      <use xlink:href="#DejaVuSans-5f" x="257.816406"/>
      <use xlink:href="#DejaVuSans-49" x="307.816406"/>
      <use xlink:href="#DejaVuSans-41" x="337.308594"/>
      <use xlink:href="#DejaVuSans-41" x="408.466797"/>
      <use xlink:href="#DejaVuSans-5f" x="476.875"/>
      <use xlink:href="#DejaVuSans-33" x="526.875"/>
      <use xlink:href="#DejaVuSans-30" x="590.498047"/>
      <use xlink:href="#DejaVuSans-4d" x="654.121094"/>
      <use xlink:href="#DejaVuSans-5f" x="740.400391"/>
      <use xlink:href="#DejaVuSans-52" x="790.400391"/>
      <use xlink:href="#DejaVuSans-45" x="859.882812"/>
      <use xlink:href="#DejaVuSans-50" x="923.066406"/>
      <use xlink:href="#DejaVuSans-31" x="983.369141"/>
      <use xlink:href="#DejaVuSans-5f" x="1046.992188"/>
      <use xlink:href="#DejaVuSans-32" x="1096.992188"/>
     </g>
    </g>
    <g id="line2d_20">
     <path d="M 285.111875 303.490394 
L 293.111875 303.490394 
L 301.111875 303.490394 
" style="fill: none; stroke: #5cb85c; stroke-linecap: square"/>
    </g>
    <g id="text_20">
     <!-- RAP1_UNINDUCED_REP1 -->
     <g transform="translate(307.511875 306.290394)scale(0.08 -0.08)">
      <defs>
       <path id="DejaVuSans-55" d="M 556 4666 
L 1191 4666 
L 1191 1831 
Q 1191 1081 1462 751 
Q 1734 422 2344 422 
Q 2950 422 3222 751 
Q 3494 1081 3494 1831 
L 3494 4666 
L 4128 4666 
L 4128 1753 
Q 4128 841 3676 375 
Q 3225 -91 2344 -91 
Q 1459 -91 1007 375 
Q 556 841 556 1753 
L 556 4666 
z
" transform="scale(0.015625)"/>
       <path id="DejaVuSans-4e" d="M 628 4666 
L 1478 4666 
L 3547 763 
L 3547 4666 
L 4159 4666 
L 4159 0 
L 3309 0 
L 1241 3903 
L 1241 0 
L 628 0 
L 628 4666 
z
" transform="scale(0.015625)"/>
       <path id="DejaVuSans-44" d="M 1259 4147 
L 1259 519 
L 2022 519 
Q 2988 519 3436 956 
Q 3884 1394 3884 2338 
Q 3884 3275 3436 3711 
Q 2988 4147 2022 4147 
L 1259 4147 
z
M 628 4666 
L 1925 4666 
Q 3281 4666 3915 4102 
Q 4550 3538 4550 2338 
Q 4550 1131 3912 565 
Q 3275 0 1925 0 
L 628 0 
L 628 4666 
z
" transform="scale(0.015625)"/>
      </defs>
      <use xlink:href="#DejaVuSans-52"/>
      <use xlink:href="#DejaVuSans-41" x="65.482422"/>
      <use xlink:href="#DejaVuSans-50" x="133.890625"/>
      <use xlink:href="#DejaVuSans-31" x="194.193359"/>
      <use xlink:href="#DejaVuSans-5f" x="257.816406"/>
      <use xlink:href="#DejaVuSans-55" x="307.816406"/>
      <use xlink:href="#DejaVuSans-4e" x="381.009766"/>
      <use xlink:href="#DejaVuSans-49" x="455.814453"/>
      <use xlink:href="#DejaVuSans-4e" x="485.306641"/>
      <use xlink:href="#DejaVuSans-44" x="560.111328"/>
      <use xlink:href="#DejaVuSans-55" x="637.113281"/>
      <use xlink:href="#DejaVuSans-43" x="710.306641"/>
      <use xlink:href="#DejaVuSans-45" x="780.130859"/>
      <use xlink:href="#DejaVuSans-44" x="843.314453"/>
      <use xlink:href="#DejaVuSans-5f" x="920.316406"/>
      <use xlink:href="#DejaVuSans-52" x="970.316406"/>
      <use xlink:href="#DejaVuSans-45" x="1039.798828"/>
      <use xlink:href="#DejaVuSans-50" x="1102.982422"/>
      <use xlink:href="#DejaVuSans-31" x="1163.285156"/>
     </g>
    </g>
    <g id="line2d_21">
     <path d="M 285.111875 315.455394 
L 293.111875 315.455394 
L 301.111875 315.455394 
" style="fill: none; stroke: #5cb85c; stroke-linecap: square"/>
    </g>
    <g id="text_21">
     <!-- RAP1_UNINDUCED_REP2 -->
     <g transform="translate(307.511875 318.255394)scale(0.08 -0.08)">
      <use xlink:href="#DejaVuSans-52"/>
      <use xlink:href="#DejaVuSans-41" x="65.482422"/>
      <use xlink:href="#DejaVuSans-50" x="133.890625"/>
      <use xlink:href="#DejaVuSans-31" x="194.193359"/>
      <use xlink:href="#DejaVuSans-5f" x="257.816406"/>
      <use xlink:href="#DejaVuSans-55" x="307.816406"/>
      <use xlink:href="#DejaVuSans-4e" x="381.009766"/>
      <use xlink:href="#DejaVuSans-49" x="455.814453"/>
      <use xlink:href="#DejaVuSans-4e" x="485.306641"/>
      <use xlink:href="#DejaVuSans-44" x="560.111328"/>
      <use xlink:href="#DejaVuSans-55" x="637.113281"/>
      <use xlink:href="#DejaVuSans-43" x="710.306641"/>
      <use xlink:href="#DejaVuSans-45" x="780.130859"/>
      <use xlink:href="#DejaVuSans-44" x="843.314453"/>
      <use xlink:href="#DejaVuSans-5f" x="920.316406"/>
      <use xlink:href="#DejaVuSans-52" x="970.316406"/>
      <use xlink:href="#DejaVuSans-45" x="1039.798828"/>
      <use xlink:href="#DejaVuSans-50" x="1102.982422"/>
      <use xlink:href="#DejaVuSans-32" x="1163.285156"/>
     </g>
    </g>
    <g id="line2d_22">
     <path d="M 530.269375 303.490394 
L 538.269375 303.490394 
L 546.269375 303.490394 
" style="fill: none; stroke: #5cb85c; stroke-linecap: square"/>
    </g>
    <g id="text_22">
     <!-- WT_REP1_1 -->
     <g transform="translate(552.669375 306.290394)scale(0.08 -0.08)">
      <defs>
       <path id="DejaVuSans-57" d="M 213 4666 
L 850 4666 
L 1831 722 
L 2809 4666 
L 3519 4666 
L 4500 722 
L 5478 4666 
L 6119 4666 
L 4947 0 
L 4153 0 
L 3169 4050 
L 2175 0 
L 1381 0 
L 213 4666 
z
" transform="scale(0.015625)"/>
       <path id="DejaVuSans-54" d="M -19 4666 
L 3928 4666 
L 3928 4134 
L 2272 4134 
L 2272 0 
L 1638 0 
L 1638 4134 
L -19 4134 
L -19 4666 
z
" transform="scale(0.015625)"/>
      </defs>
      <use xlink:href="#DejaVuSans-57"/>
      <use xlink:href="#DejaVuSans-54" x="98.876953"/>
      <use xlink:href="#DejaVuSans-5f" x="159.960938"/>
      <use xlink:href="#DejaVuSans-52" x="209.960938"/>
      <use xlink:href="#DejaVuSans-45" x="279.443359"/>
      <use xlink:href="#DejaVuSans-50" x="342.626953"/>
      <use xlink:href="#DejaVuSans-31" x="402.929688"/>
      <use xlink:href="#DejaVuSans-5f" x="466.552734"/>
      <use xlink:href="#DejaVuSans-31" x="516.552734"/>
     </g>
    </g>
    <g id="line2d_23">
     <path d="M 530.269375 315.455394 
L 538.269375 315.455394 
L 546.269375 315.455394 
" style="fill: none; stroke: #5cb85c; stroke-linecap: square"/>
    </g>
    <g id="text_23">
     <!-- WT_REP1_2 -->
     <g transform="translate(552.669375 318.255394)scale(0.08 -0.08)">
      <use xlink:href="#DejaVuSans-57"/>
      <use xlink:href="#DejaVuSans-54" x="98.876953"/>
      <use xlink:href="#DejaVuSans-5f" x="159.960938"/>
      <use xlink:href="#DejaVuSans-52" x="209.960938"/>
      <use xlink:href="#DejaVuSans-45" x="279.443359"/>
      <use xlink:href="#DejaVuSans-50" x="342.626953"/>
      <use xlink:href="#DejaVuSans-31" x="402.929688"/>
      <use xlink:href="#DejaVuSans-5f" x="466.552734"/>
      <use xlink:href="#DejaVuSans-32" x="516.552734"/>
     </g>
    </g>
    <g id="line2d_24">
     <path d="M 723.686875 303.490394 
L 731.686875 303.490394 
L 739.686875 303.490394 
" style="fill: none; stroke: #5cb85c; stroke-linecap: square"/>
    </g>
    <g id="text_24">
     <!-- WT_REP2_1 -->
     <g transform="translate(746.086875 306.290394)scale(0.08 -0.08)">
      <use xlink:href="#DejaVuSans-57"/>
      <use xlink:href="#DejaVuSans-54" x="98.876953"/>
      <use xlink:href="#DejaVuSans-5f" x="159.960938"/>
      <use xlink:href="#DejaVuSans-52" x="209.960938"/>
      <use xlink:href="#DejaVuSans-45" x="279.443359"/>
      <use xlink:href="#DejaVuSans-50" x="342.626953"/>
      <use xlink:href="#DejaVuSans-32" x="402.929688"/>
      <use xlink:href="#DejaVuSans-5f" x="466.552734"/>
      <use xlink:href="#DejaVuSans-31" x="516.552734"/>
     </g>
    </g>
    <g id="line2d_25">
     <path d="M 917.104375 303.490394 
L 925.104375 303.490394 
L 933.104375 303.490394 
" style="fill: none; stroke: #5cb85c; stroke-linecap: square"/>
    </g>
    <g id="text_25">
     <!-- WT_REP2_2 -->
     <g transform="translate(939.504375 306.290394)scale(0.08 -0.08)">
      <use xlink:href="#DejaVuSans-57"/>
      <use xlink:href="#DejaVuSans-54" x="98.876953"/>
      <use xlink:href="#DejaVuSans-5f" x="159.960938"/>
      <use xlink:href="#DejaVuSans-52" x="209.960938"/>
      <use xlink:href="#DejaVuSans-45" x="279.443359"/>
      <use xlink:href="#DejaVuSans-50" x="342.626953"/>
      <use xlink:href="#DejaVuSans-32" x="402.929688"/>
      <use xlink:href="#DejaVuSans-5f" x="466.552734"/>
      <use xlink:href="#DejaVuSans-32" x="516.552734"/>
     </g>
    </g>
   </g>
  </g>
 </g>
 <defs>
  <clipPath id="p5544882dd3">
   <rect x="38.058125" y="31.48286" width="955.06" height="242.5072"/>
  </clipPath>
 </defs>
</svg>
