<?xml version="1.0" encoding="utf-8" standalone="no"?>
<!DOCTYPE svg PUBLIC "-//W3C//DTD SVG 1.1//EN"
  "http://www.w3.org/Graphics/SVG/1.1/DTD/svg11.dtd">
<svg xmlns:xlink="http://www.w3.org/1999/xlink" width="1000.238125pt" height="330.541644pt" viewBox="0 0 1000.238125 330.541644" xmlns="http://www.w3.org/2000/svg" version="1.1">
 <metadata>
  <rdf:RDF xmlns:dc="http://purl.org/dc/elements/1.1/" xmlns:cc="http://creativecommons.org/ns#" xmlns:rdf="http://www.w3.org/1999/02/22-rdf-syntax-ns#">
   <cc:Work>
    <dc:type rdf:resource="http://purl.org/dc/dcmitype/StillImage"/>
    <dc:date>2023-03-08T12:55:23.744415</dc:date>
    <dc:format>image/svg+xml</dc:format>
    <dc:creator>
     <cc:Agent>
      <dc:title>Matplotlib v3.5.3, https://matplotlib.org/</dc:title>
     </cc:Agent>
    </dc:creator>
   </cc:Work>
  </rdf:RDF>
 </metadata>
 <defs>
  <style type="text/css">*{stroke-linejoin: round; stroke-linecap: butt}</style>
 </defs>
 <g id="figure_1">
  <g id="axes_1">
   <g id="patch_1">
    <path d="M 48.238125 273.99006 
L 993.038125 273.99006 
L 993.038125 31.48286 
L 48.238125 31.48286 
z
" style="fill: #ffffff"/>
   </g>
   <g id="matplotlib.axis_1">
    <g id="xtick_1">
     <g id="text_1">
      <!-- 0 -->
      <g transform="translate(76.36845 287.06881)scale(0.08 -0.08)">
       <defs>
        <path id="DejaVuSans-30" d="M 2034 4250 
Q 1547 4250 1301 3770 
Q 1056 3291 1056 2328 
Q 1056 1369 1301 889 
Q 1547 409 2034 409 
Q 2525 409 2770 889 
Q 3016 1369 3016 2328 
Q 3016 3291 2770 3770 
Q 2525 4250 2034 4250 
z
M 2034 4750 
Q 2819 4750 3233 4129 
Q 3647 3509 3647 2328 
Q 3647 1150 3233 529 
Q 2819 -91 2034 -91 
Q 1250 -91 836 529 
Q 422 1150 422 2328 
Q 422 3509 836 4129 
Q 1250 4750 2034 4750 
z
" transform="scale(0.015625)"/>
       </defs>
       <use xlink:href="#DejaVuSans-30"/>
      </g>
     </g>
    </g>
    <g id="xtick_2">
     <g id="text_2">
      <!-- 10 -->
      <g transform="translate(196.524748 287.06881)scale(0.08 -0.08)">
       <defs>
        <path id="DejaVuSans-31" d="M 794 531 
L 1825 531 
L 1825 4091 
L 703 3866 
L 703 4441 
L 1819 4666 
L 2450 4666 
L 2450 531 
L 3481 531 
L 3481 0 
L 794 0 
L 794 531 
z
" transform="scale(0.015625)"/>
       </defs>
       <use xlink:href="#DejaVuSans-31"/>
       <use xlink:href="#DejaVuSans-30" x="63.623047"/>
      </g>
     </g>
    </g>
    <g id="xtick_3">
     <g id="text_3">
      <!-- 20 -->
      <g transform="translate(319.226047 287.06881)scale(0.08 -0.08)">
       <defs>
        <path id="DejaVuSans-32" d="M 1228 531 
L 3431 531 
L 3431 0 
L 469 0 
L 469 531 
Q 828 903 1448 1529 
Q 2069 2156 2228 2338 
Q 2531 2678 2651 2914 
Q 2772 3150 2772 3378 
Q 2772 3750 2511 3984 
Q 2250 4219 1831 4219 
Q 1534 4219 1204 4116 
Q 875 4013 500 3803 
L 500 4441 
Q 881 4594 1212 4672 
Q 1544 4750 1819 4750 
Q 2544 4750 2975 4387 
Q 3406 4025 3406 3419 
Q 3406 3131 3298 2873 
Q 3191 2616 2906 2266 
Q 2828 2175 2409 1742 
Q 1991 1309 1228 531 
z
" transform="scale(0.015625)"/>
       </defs>
       <use xlink:href="#DejaVuSans-32"/>
       <use xlink:href="#DejaVuSans-30" x="63.623047"/>
      </g>
     </g>
    </g>
    <g id="xtick_4">
     <g id="text_4">
      <!-- 30 -->
      <g transform="translate(441.927346 287.06881)scale(0.08 -0.08)">
       <defs>
        <path id="DejaVuSans-33" d="M 2597 2516 
Q 3050 2419 3304 2112 
Q 3559 1806 3559 1356 
Q 3559 666 3084 287 
Q 2609 -91 1734 -91 
Q 1441 -91 1130 -33 
Q 819 25 488 141 
L 488 750 
Q 750 597 1062 519 
Q 1375 441 1716 441 
Q 2309 441 2620 675 
Q 2931 909 2931 1356 
Q 2931 1769 2642 2001 
Q 2353 2234 1838 2234 
L 1294 2234 
L 1294 2753 
L 1863 2753 
Q 2328 2753 2575 2939 
Q 2822 3125 2822 3475 
Q 2822 3834 2567 4026 
Q 2313 4219 1838 4219 
Q 1578 4219 1281 4162 
Q 984 4106 628 3988 
L 628 4550 
Q 988 4650 1302 4700 
Q 1616 4750 1894 4750 
Q 2613 4750 3031 4423 
Q 3450 4097 3450 3541 
Q 3450 3153 3228 2886 
Q 3006 2619 2597 2516 
z
" transform="scale(0.015625)"/>
       </defs>
       <use xlink:href="#DejaVuSans-33"/>
       <use xlink:href="#DejaVuSans-30" x="63.623047"/>
      </g>
     </g>
    </g>
    <g id="xtick_5">
     <g id="text_5">
      <!-- 40 -->
      <g transform="translate(564.628644 287.06881)scale(0.08 -0.08)">
       <defs>
        <path id="DejaVuSans-34" d="M 2419 4116 
L 825 1625 
L 2419 1625 
L 2419 4116 
z
M 2253 4666 
L 3047 4666 
L 3047 1625 
L 3713 1625 
L 3713 1100 
L 3047 1100 
L 3047 0 
L 2419 0 
L 2419 1100 
L 313 1100 
L 313 1709 
L 2253 4666 
z
" transform="scale(0.015625)"/>
       </defs>
       <use xlink:href="#DejaVuSans-34"/>
       <use xlink:href="#DejaVuSans-30" x="63.623047"/>
      </g>
     </g>
    </g>
    <g id="xtick_6">
     <g id="text_6">
      <!-- 50 -->
      <g transform="translate(687.329943 287.06881)scale(0.08 -0.08)">
       <defs>
        <path id="DejaVuSans-35" d="M 691 4666 
L 3169 4666 
L 3169 4134 
L 1269 4134 
L 1269 2991 
Q 1406 3038 1543 3061 
Q 1681 3084 1819 3084 
Q 2600 3084 3056 2656 
Q 3513 2228 3513 1497 
Q 3513 744 3044 326 
Q 2575 -91 1722 -91 
Q 1428 -91 1123 -41 
Q 819 9 494 109 
L 494 744 
Q 775 591 1075 516 
Q 1375 441 1709 441 
Q 2250 441 2565 725 
Q 2881 1009 2881 1497 
Q 2881 1984 2565 2268 
Q 2250 2553 1709 2553 
Q 1456 2553 1204 2497 
Q 953 2441 691 2322 
L 691 4666 
z
" transform="scale(0.015625)"/>
       </defs>
       <use xlink:href="#DejaVuSans-35"/>
       <use xlink:href="#DejaVuSans-30" x="63.623047"/>
      </g>
     </g>
    </g>
    <g id="xtick_7">
     <g id="text_7">
      <!-- 60 -->
      <g transform="translate(810.031242 287.06881)scale(0.08 -0.08)">
       <defs>
        <path id="DejaVuSans-36" d="M 2113 2584 
Q 1688 2584 1439 2293 
Q 1191 2003 1191 1497 
Q 1191 994 1439 701 
Q 1688 409 2113 409 
Q 2538 409 2786 701 
Q 3034 994 3034 1497 
Q 3034 2003 2786 2293 
Q 2538 2584 2113 2584 
z
M 3366 4563 
L 3366 3988 
Q 3128 4100 2886 4159 
Q 2644 4219 2406 4219 
Q 1781 4219 1451 3797 
Q 1122 3375 1075 2522 
Q 1259 2794 1537 2939 
Q 1816 3084 2150 3084 
Q 2853 3084 3261 2657 
Q 3669 2231 3669 1497 
Q 3669 778 3244 343 
Q 2819 -91 2113 -91 
Q 1303 -91 875 529 
Q 447 1150 447 2328 
Q 447 3434 972 4092 
Q 1497 4750 2381 4750 
Q 2619 4750 2861 4703 
Q 3103 4656 3366 4563 
z
" transform="scale(0.015625)"/>
       </defs>
       <use xlink:href="#DejaVuSans-36"/>
       <use xlink:href="#DejaVuSans-30" x="63.623047"/>
      </g>
     </g>
    </g>
    <g id="xtick_8">
     <g id="text_8">
      <!-- 70 -->
      <g transform="translate(932.732541 287.06881)scale(0.08 -0.08)">
       <defs>
        <path id="DejaVuSans-37" d="M 525 4666 
L 3525 4666 
L 3525 4397 
L 1831 0 
L 1172 0 
L 2766 4134 
L 525 4134 
L 525 4666 
z
" transform="scale(0.015625)"/>
       </defs>
       <use xlink:href="#DejaVuSans-37"/>
       <use xlink:href="#DejaVuSans-30" x="63.623047"/>
      </g>
     </g>
    </g>
    <g id="text_9">
     <!-- Length Trimmed (bp) -->
     <g transform="translate(468.210781 300.330997)scale(0.1 -0.1)">
      <defs>
       <path id="DejaVuSans-4c" d="M 628 4666 
L 1259 4666 
L 1259 531 
L 3531 531 
L 3531 0 
L 628 0 
L 628 4666 
z
" transform="scale(0.015625)"/>
       <path id="DejaVuSans-65" d="M 3597 1894 
L 3597 1613 
L 953 1613 
Q 991 1019 1311 708 
Q 1631 397 2203 397 
Q 2534 397 2845 478 
Q 3156 559 3463 722 
L 3463 178 
Q 3153 47 2828 -22 
Q 2503 -91 2169 -91 
Q 1331 -91 842 396 
Q 353 884 353 1716 
Q 353 2575 817 3079 
Q 1281 3584 2069 3584 
Q 2775 3584 3186 3129 
Q 3597 2675 3597 1894 
z
M 3022 2063 
Q 3016 2534 2758 2815 
Q 2500 3097 2075 3097 
Q 1594 3097 1305 2825 
Q 1016 2553 972 2059 
L 3022 2063 
z
" transform="scale(0.015625)"/>
       <path id="DejaVuSans-6e" d="M 3513 2113 
L 3513 0 
L 2938 0 
L 2938 2094 
Q 2938 2591 2744 2837 
Q 2550 3084 2163 3084 
Q 1697 3084 1428 2787 
Q 1159 2491 1159 1978 
L 1159 0 
L 581 0 
L 581 3500 
L 1159 3500 
L 1159 2956 
Q 1366 3272 1645 3428 
Q 1925 3584 2291 3584 
Q 2894 3584 3203 3211 
Q 3513 2838 3513 2113 
z
" transform="scale(0.015625)"/>
       <path id="DejaVuSans-67" d="M 2906 1791 
Q 2906 2416 2648 2759 
Q 2391 3103 1925 3103 
Q 1463 3103 1205 2759 
Q 947 2416 947 1791 
Q 947 1169 1205 825 
Q 1463 481 1925 481 
Q 2391 481 2648 825 
Q 2906 1169 2906 1791 
z
M 3481 434 
Q 3481 -459 3084 -895 
Q 2688 -1331 1869 -1331 
Q 1566 -1331 1297 -1286 
Q 1028 -1241 775 -1147 
L 775 -588 
Q 1028 -725 1275 -790 
Q 1522 -856 1778 -856 
Q 2344 -856 2625 -561 
Q 2906 -266 2906 331 
L 2906 616 
Q 2728 306 2450 153 
Q 2172 0 1784 0 
Q 1141 0 747 490 
Q 353 981 353 1791 
Q 353 2603 747 3093 
Q 1141 3584 1784 3584 
Q 2172 3584 2450 3431 
Q 2728 3278 2906 2969 
L 2906 3500 
L 3481 3500 
L 3481 434 
z
" transform="scale(0.015625)"/>
       <path id="DejaVuSans-74" d="M 1172 4494 
L 1172 3500 
L 2356 3500 
L 2356 3053 
L 1172 3053 
L 1172 1153 
Q 1172 725 1289 603 
Q 1406 481 1766 481 
L 2356 481 
L 2356 0 
L 1766 0 
Q 1100 0 847 248 
Q 594 497 594 1153 
L 594 3053 
L 172 3053 
L 172 3500 
L 594 3500 
L 594 4494 
L 1172 4494 
z
" transform="scale(0.015625)"/>
       <path id="DejaVuSans-68" d="M 3513 2113 
L 3513 0 
L 2938 0 
L 2938 2094 
Q 2938 2591 2744 2837 
Q 2550 3084 2163 3084 
Q 1697 3084 1428 2787 
Q 1159 2491 1159 1978 
L 1159 0 
L 581 0 
L 581 4863 
L 1159 4863 
L 1159 2956 
Q 1366 3272 1645 3428 
Q 1925 3584 2291 3584 
Q 2894 3584 3203 3211 
Q 3513 2838 3513 2113 
z
" transform="scale(0.015625)"/>
       <path id="DejaVuSans-20" transform="scale(0.015625)"/>
       <path id="DejaVuSans-54" d="M -19 4666 
L 3928 4666 
L 3928 4134 
L 2272 4134 
L 2272 0 
L 1638 0 
L 1638 4134 
L -19 4134 
L -19 4666 
z
" transform="scale(0.015625)"/>
       <path id="DejaVuSans-72" d="M 2631 2963 
Q 2534 3019 2420 3045 
Q 2306 3072 2169 3072 
Q 1681 3072 1420 2755 
Q 1159 2438 1159 1844 
L 1159 0 
L 581 0 
L 581 3500 
L 1159 3500 
L 1159 2956 
Q 1341 3275 1631 3429 
Q 1922 3584 2338 3584 
Q 2397 3584 2469 3576 
Q 2541 3569 2628 3553 
L 2631 2963 
z
" transform="scale(0.015625)"/>
       <path id="DejaVuSans-69" d="M 603 3500 
L 1178 3500 
L 1178 0 
L 603 0 
L 603 3500 
z
M 603 4863 
L 1178 4863 
L 1178 4134 
L 603 4134 
L 603 4863 
z
" transform="scale(0.015625)"/>
       <path id="DejaVuSans-6d" d="M 3328 2828 
Q 3544 3216 3844 3400 
Q 4144 3584 4550 3584 
Q 5097 3584 5394 3201 
Q 5691 2819 5691 2113 
L 5691 0 
L 5113 0 
L 5113 2094 
Q 5113 2597 4934 2840 
Q 4756 3084 4391 3084 
Q 3944 3084 3684 2787 
Q 3425 2491 3425 1978 
L 3425 0 
L 2847 0 
L 2847 2094 
Q 2847 2600 2669 2842 
Q 2491 3084 2119 3084 
Q 1678 3084 1418 2786 
Q 1159 2488 1159 1978 
L 1159 0 
L 581 0 
L 581 3500 
L 1159 3500 
L 1159 2956 
Q 1356 3278 1631 3431 
Q 1906 3584 2284 3584 
Q 2666 3584 2933 3390 
Q 3200 3197 3328 2828 
z
" transform="scale(0.015625)"/>
       <path id="DejaVuSans-64" d="M 2906 2969 
L 2906 4863 
L 3481 4863 
L 3481 0 
L 2906 0 
L 2906 525 
Q 2725 213 2448 61 
Q 2172 -91 1784 -91 
Q 1150 -91 751 415 
Q 353 922 353 1747 
Q 353 2572 751 3078 
Q 1150 3584 1784 3584 
Q 2172 3584 2448 3432 
Q 2725 3281 2906 2969 
z
M 947 1747 
Q 947 1113 1208 752 
Q 1469 391 1925 391 
Q 2381 391 2643 752 
Q 2906 1113 2906 1747 
Q 2906 2381 2643 2742 
Q 2381 3103 1925 3103 
Q 1469 3103 1208 2742 
Q 947 2381 947 1747 
z
" transform="scale(0.015625)"/>
       <path id="DejaVuSans-28" d="M 1984 4856 
Q 1566 4138 1362 3434 
Q 1159 2731 1159 2009 
Q 1159 1288 1364 580 
Q 1569 -128 1984 -844 
L 1484 -844 
Q 1016 -109 783 600 
Q 550 1309 550 2009 
Q 550 2706 781 3412 
Q 1013 4119 1484 4856 
L 1984 4856 
z
" transform="scale(0.015625)"/>
       <path id="DejaVuSans-62" d="M 3116 1747 
Q 3116 2381 2855 2742 
Q 2594 3103 2138 3103 
Q 1681 3103 1420 2742 
Q 1159 2381 1159 1747 
Q 1159 1113 1420 752 
Q 1681 391 2138 391 
Q 2594 391 2855 752 
Q 3116 1113 3116 1747 
z
M 1159 2969 
Q 1341 3281 1617 3432 
Q 1894 3584 2278 3584 
Q 2916 3584 3314 3078 
Q 3713 2572 3713 1747 
Q 3713 922 3314 415 
Q 2916 -91 2278 -91 
Q 1894 -91 1617 61 
Q 1341 213 1159 525 
L 1159 0 
L 581 0 
L 581 4863 
L 1159 4863 
L 1159 2969 
z
" transform="scale(0.015625)"/>
       <path id="DejaVuSans-70" d="M 1159 525 
L 1159 -1331 
L 581 -1331 
L 581 3500 
L 1159 3500 
L 1159 2969 
Q 1341 3281 1617 3432 
Q 1894 3584 2278 3584 
Q 2916 3584 3314 3078 
Q 3713 2572 3713 1747 
Q 3713 922 3314 415 
Q 2916 -91 2278 -91 
Q 1894 -91 1617 61 
Q 1341 213 1159 525 
z
M 3116 1747 
Q 3116 2381 2855 2742 
Q 2594 3103 2138 3103 
Q 1681 3103 1420 2742 
Q 1159 2381 1159 1747 
Q 1159 1113 1420 752 
Q 1681 391 2138 391 
Q 2594 391 2855 752 
Q 3116 1113 3116 1747 
z
" transform="scale(0.015625)"/>
       <path id="DejaVuSans-29" d="M 513 4856 
L 1013 4856 
Q 1481 4119 1714 3412 
Q 1947 2706 1947 2009 
Q 1947 1309 1714 600 
Q 1481 -109 1013 -844 
L 513 -844 
Q 928 -128 1133 580 
Q 1338 1288 1338 2009 
Q 1338 2731 1133 3434 
Q 928 4138 513 4856 
z
" transform="scale(0.015625)"/>
      </defs>
      <use xlink:href="#DejaVuSans-4c"/>
      <use xlink:href="#DejaVuSans-65" x="53.962891"/>
      <use xlink:href="#DejaVuSans-6e" x="115.486328"/>
      <use xlink:href="#DejaVuSans-67" x="178.865234"/>
      <use xlink:href="#DejaVuSans-74" x="242.341797"/>
      <use xlink:href="#DejaVuSans-68" x="281.550781"/>
      <use xlink:href="#DejaVuSans-20" x="344.929688"/>
      <use xlink:href="#DejaVuSans-54" x="376.716797"/>
      <use xlink:href="#DejaVuSans-72" x="423.050781"/>
      <use xlink:href="#DejaVuSans-69" x="464.164062"/>
      <use xlink:href="#DejaVuSans-6d" x="491.947266"/>
      <use xlink:href="#DejaVuSans-6d" x="589.359375"/>
      <use xlink:href="#DejaVuSans-65" x="686.771484"/>
      <use xlink:href="#DejaVuSans-64" x="748.294922"/>
      <use xlink:href="#DejaVuSans-20" x="811.771484"/>
      <use xlink:href="#DejaVuSans-28" x="843.558594"/>
      <use xlink:href="#DejaVuSans-62" x="882.572266"/>
      <use xlink:href="#DejaVuSans-70" x="946.048828"/>
      <use xlink:href="#DejaVuSans-29" x="1009.525391"/>
     </g>
    </g>
   </g>
   <g id="matplotlib.axis_2">
    <g id="ytick_1">
     <g id="line2d_1">
      <path d="M 48.238125 273.99006 
L 993.038125 273.99006 
" clip-path="url(#p6597b5c750)" style="fill: none; stroke: #dedede; stroke-linecap: square"/>
     </g>
     <g id="text_10">
      <!-- 0 -->
      <g transform="translate(36.148125 277.029435)scale(0.08 -0.08)">
       <use xlink:href="#DejaVuSans-30"/>
      </g>
     </g>
    </g>
    <g id="ytick_2">
     <g id="line2d_2">
      <path d="M 48.238125 246.88189 
L 993.038125 246.88189 
" clip-path="url(#p6597b5c750)" style="fill: none; stroke: #dedede; stroke-linecap: square"/>
     </g>
     <g id="text_11">
      <!-- 500 -->
      <g transform="translate(25.968125 249.921265)scale(0.08 -0.08)">
       <use xlink:href="#DejaVuSans-35"/>
       <use xlink:href="#DejaVuSans-30" x="63.623047"/>
       <use xlink:href="#DejaVuSans-30" x="127.246094"/>
      </g>
     </g>
    </g>
    <g id="ytick_3">
     <g id="line2d_3">
      <path d="M 48.238125 219.773721 
L 993.038125 219.773721 
" clip-path="url(#p6597b5c750)" style="fill: none; stroke: #dedede; stroke-linecap: square"/>
     </g>
     <g id="text_12">
      <!-- 1000 -->
      <g transform="translate(20.878125 222.813096)scale(0.08 -0.08)">
       <use xlink:href="#DejaVuSans-31"/>
       <use xlink:href="#DejaVuSans-30" x="63.623047"/>
       <use xlink:href="#DejaVuSans-30" x="127.246094"/>
       <use xlink:href="#DejaVuSans-30" x="190.869141"/>
      </g>
     </g>
    </g>
    <g id="ytick_4">
     <g id="line2d_4">
      <path d="M 48.238125 192.665551 
L 993.038125 192.665551 
" clip-path="url(#p6597b5c750)" style="fill: none; stroke: #dedede; stroke-linecap: square"/>
     </g>
     <g id="text_13">
      <!-- 1500 -->
      <g transform="translate(20.878125 195.704926)scale(0.08 -0.08)">
       <use xlink:href="#DejaVuSans-31"/>
       <use xlink:href="#DejaVuSans-35" x="63.623047"/>
       <use xlink:href="#DejaVuSans-30" x="127.246094"/>
       <use xlink:href="#DejaVuSans-30" x="190.869141"/>
      </g>
     </g>
    </g>
    <g id="ytick_5">
     <g id="line2d_5">
      <path d="M 48.238125 165.557382 
L 993.038125 165.557382 
" clip-path="url(#p6597b5c750)" style="fill: none; stroke: #dedede; stroke-linecap: square"/>
     </g>
     <g id="text_14">
      <!-- 2000 -->
      <g transform="translate(20.878125 168.596757)scale(0.08 -0.08)">
       <use xlink:href="#DejaVuSans-32"/>
       <use xlink:href="#DejaVuSans-30" x="63.623047"/>
       <use xlink:href="#DejaVuSans-30" x="127.246094"/>
       <use xlink:href="#DejaVuSans-30" x="190.869141"/>
      </g>
     </g>
    </g>
    <g id="ytick_6">
     <g id="line2d_6">
      <path d="M 48.238125 138.449212 
L 993.038125 138.449212 
" clip-path="url(#p6597b5c750)" style="fill: none; stroke: #dedede; stroke-linecap: square"/>
     </g>
     <g id="text_15">
      <!-- 2500 -->
      <g transform="translate(20.878125 141.488587)scale(0.08 -0.08)">
       <use xlink:href="#DejaVuSans-32"/>
       <use xlink:href="#DejaVuSans-35" x="63.623047"/>
       <use xlink:href="#DejaVuSans-30" x="127.246094"/>
       <use xlink:href="#DejaVuSans-30" x="190.869141"/>
      </g>
     </g>
    </g>
    <g id="ytick_7">
     <g id="line2d_7">
      <path d="M 48.238125 111.341042 
L 993.038125 111.341042 
" clip-path="url(#p6597b5c750)" style="fill: none; stroke: #dedede; stroke-linecap: square"/>
     </g>
     <g id="text_16">
      <!-- 3000 -->
      <g transform="translate(20.878125 114.380417)scale(0.08 -0.08)">
       <use xlink:href="#DejaVuSans-33"/>
       <use xlink:href="#DejaVuSans-30" x="63.623047"/>
       <use xlink:href="#DejaVuSans-30" x="127.246094"/>
       <use xlink:href="#DejaVuSans-30" x="190.869141"/>
      </g>
     </g>
    </g>
    <g id="ytick_8">
     <g id="line2d_8">
      <path d="M 48.238125 84.232873 
L 993.038125 84.232873 
" clip-path="url(#p6597b5c750)" style="fill: none; stroke: #dedede; stroke-linecap: square"/>
     </g>
     <g id="text_17">
      <!-- 3500 -->
      <g transform="translate(20.878125 87.272248)scale(0.08 -0.08)">
       <use xlink:href="#DejaVuSans-33"/>
       <use xlink:href="#DejaVuSans-35" x="63.623047"/>
       <use xlink:href="#DejaVuSans-30" x="127.246094"/>
       <use xlink:href="#DejaVuSans-30" x="190.869141"/>
      </g>
     </g>
    </g>
    <g id="ytick_9">
     <g id="line2d_9">
      <path d="M 48.238125 57.124703 
L 993.038125 57.124703 
" clip-path="url(#p6597b5c750)" style="fill: none; stroke: #dedede; stroke-linecap: square"/>
     </g>
     <g id="text_18">
      <!-- 4000 -->
      <g transform="translate(20.878125 60.164078)scale(0.08 -0.08)">
       <use xlink:href="#DejaVuSans-34"/>
       <use xlink:href="#DejaVuSans-30" x="63.623047"/>
       <use xlink:href="#DejaVuSans-30" x="127.246094"/>
       <use xlink:href="#DejaVuSans-30" x="190.869141"/>
      </g>
     </g>
    </g>
    <g id="text_19">
     <!-- Observed / Expected -->
     <g transform="translate(14.798438 204.985679)rotate(-90)scale(0.1 -0.1)">
      <defs>
       <path id="DejaVuSans-4f" d="M 2522 4238 
Q 1834 4238 1429 3725 
Q 1025 3213 1025 2328 
Q 1025 1447 1429 934 
Q 1834 422 2522 422 
Q 3209 422 3611 934 
Q 4013 1447 4013 2328 
Q 4013 3213 3611 3725 
Q 3209 4238 2522 4238 
z
M 2522 4750 
Q 3503 4750 4090 4092 
Q 4678 3434 4678 2328 
Q 4678 1225 4090 567 
Q 3503 -91 2522 -91 
Q 1538 -91 948 565 
Q 359 1222 359 2328 
Q 359 3434 948 4092 
Q 1538 4750 2522 4750 
z
" transform="scale(0.015625)"/>
       <path id="DejaVuSans-73" d="M 2834 3397 
L 2834 2853 
Q 2591 2978 2328 3040 
Q 2066 3103 1784 3103 
Q 1356 3103 1142 2972 
Q 928 2841 928 2578 
Q 928 2378 1081 2264 
Q 1234 2150 1697 2047 
L 1894 2003 
Q 2506 1872 2764 1633 
Q 3022 1394 3022 966 
Q 3022 478 2636 193 
Q 2250 -91 1575 -91 
Q 1294 -91 989 -36 
Q 684 19 347 128 
L 347 722 
Q 666 556 975 473 
Q 1284 391 1588 391 
Q 1994 391 2212 530 
Q 2431 669 2431 922 
Q 2431 1156 2273 1281 
Q 2116 1406 1581 1522 
L 1381 1569 
Q 847 1681 609 1914 
Q 372 2147 372 2553 
Q 372 3047 722 3315 
Q 1072 3584 1716 3584 
Q 2034 3584 2315 3537 
Q 2597 3491 2834 3397 
z
" transform="scale(0.015625)"/>
       <path id="DejaVuSans-76" d="M 191 3500 
L 800 3500 
L 1894 563 
L 2988 3500 
L 3597 3500 
L 2284 0 
L 1503 0 
L 191 3500 
z
" transform="scale(0.015625)"/>
       <path id="DejaVuSans-2f" d="M 1625 4666 
L 2156 4666 
L 531 -594 
L 0 -594 
L 1625 4666 
z
" transform="scale(0.015625)"/>
       <path id="DejaVuSans-45" d="M 628 4666 
L 3578 4666 
L 3578 4134 
L 1259 4134 
L 1259 2753 
L 3481 2753 
L 3481 2222 
L 1259 2222 
L 1259 531 
L 3634 531 
L 3634 0 
L 628 0 
L 628 4666 
z
" transform="scale(0.015625)"/>
       <path id="DejaVuSans-78" d="M 3513 3500 
L 2247 1797 
L 3578 0 
L 2900 0 
L 1881 1375 
L 863 0 
L 184 0 
L 1544 1831 
L 300 3500 
L 978 3500 
L 1906 2253 
L 2834 3500 
L 3513 3500 
z
" transform="scale(0.015625)"/>
       <path id="DejaVuSans-63" d="M 3122 3366 
L 3122 2828 
Q 2878 2963 2633 3030 
Q 2388 3097 2138 3097 
Q 1578 3097 1268 2742 
Q 959 2388 959 1747 
Q 959 1106 1268 751 
Q 1578 397 2138 397 
Q 2388 397 2633 464 
Q 2878 531 3122 666 
L 3122 134 
Q 2881 22 2623 -34 
Q 2366 -91 2075 -91 
Q 1284 -91 818 406 
Q 353 903 353 1747 
Q 353 2603 823 3093 
Q 1294 3584 2113 3584 
Q 2378 3584 2631 3529 
Q 2884 3475 3122 3366 
z
" transform="scale(0.015625)"/>
      </defs>
      <use xlink:href="#DejaVuSans-4f"/>
      <use xlink:href="#DejaVuSans-62" x="78.710938"/>
      <use xlink:href="#DejaVuSans-73" x="142.1875"/>
      <use xlink:href="#DejaVuSans-65" x="194.287109"/>
      <use xlink:href="#DejaVuSans-72" x="255.810547"/>
      <use xlink:href="#DejaVuSans-76" x="296.923828"/>
      <use xlink:href="#DejaVuSans-65" x="356.103516"/>
      <use xlink:href="#DejaVuSans-64" x="417.626953"/>
      <use xlink:href="#DejaVuSans-20" x="481.103516"/>
      <use xlink:href="#DejaVuSans-2f" x="512.890625"/>
      <use xlink:href="#DejaVuSans-20" x="546.582031"/>
      <use xlink:href="#DejaVuSans-45" x="578.369141"/>
      <use xlink:href="#DejaVuSans-78" x="641.552734"/>
      <use xlink:href="#DejaVuSans-70" x="700.732422"/>
      <use xlink:href="#DejaVuSans-65" x="764.208984"/>
      <use xlink:href="#DejaVuSans-63" x="825.732422"/>
      <use xlink:href="#DejaVuSans-74" x="880.712891"/>
      <use xlink:href="#DejaVuSans-65" x="919.921875"/>
      <use xlink:href="#DejaVuSans-64" x="981.445312"/>
     </g>
    </g>
   </g>
   <g id="line2d_10">
    <path d="M 91.18358 273.939574 
L 103.453709 273.932391 
L 115.723839 273.925378 
L 127.993969 273.849314 
L 140.264099 273.762307 
L 152.534229 273.114599 
L 164.804359 270.020025 
L 177.074489 262.062465 
L 189.344619 228.177253 
L 201.614748 263.417874 
L 213.884878 266.833503 
L 226.155008 266.833503 
L 238.425138 266.833503 
L 250.695268 267.267234 
L 262.965398 267.32145 
L 275.235528 268.405777 
L 287.505657 267.755181 
L 299.775787 268.785291 
L 312.045917 269.815402 
L 324.316047 269.002157 
L 336.586177 270.194916 
L 348.856307 270.032267 
L 361.126437 269.923835 
L 373.396567 270.520214 
L 385.666696 270.520214 
L 397.936826 272.200921 
L 410.206956 271.225027 
L 422.477086 271.387676 
L 434.747216 271.550325 
L 447.017346 271.225027 
L 459.287476 271.875623 
L 471.557606 272.472003 
L 483.827735 272.905733 
L 496.097865 272.743084 
L 508.367995 273.014166 
L 520.638125 272.580435 
L 532.908255 272.472003 
L 545.178385 272.688868 
L 557.448515 273.231031 
L 569.718644 273.556329 
L 581.988774 272.797301 
L 594.258904 273.339464 
L 606.529034 273.610546 
L 618.799164 273.718978 
L 631.069294 273.39368 
L 643.339424 273.502113 
L 655.609554 273.556329 
L 667.879683 273.664762 
L 680.149813 273.502113 
L 692.419943 273.881627 
L 704.690073 273.773195 
L 716.960203 273.718978 
L 729.230333 273.935844 
L 741.500463 273.827411 
L 766.040722 273.935844 
L 778.310852 273.827411 
L 790.580982 273.827411 
L 802.851112 273.935844 
L 815.121242 273.881627 
L 827.391372 273.935844 
" clip-path="url(#p6597b5c750)" style="fill: none; stroke: #7cb5ec; stroke-linecap: square"/>
   </g>
   <g id="line2d_11">
    <path d="M 91.18358 273.928509 
L 103.453709 273.940129 
L 115.723839 273.897201 
L 127.993969 273.868191 
L 140.264099 273.706757 
L 152.534229 273.101268 
L 164.804359 270.282362 
L 177.074489 261.588072 
L 189.344619 224.38211 
L 201.614748 263.688956 
L 213.884878 267.213018 
L 226.155008 266.508205 
L 238.425138 268.243128 
L 250.695268 266.453989 
L 262.965398 267.863614 
L 275.235528 268.622642 
L 287.505657 266.833503 
L 299.775787 270.194916 
L 312.045917 268.731075 
L 324.316047 269.164806 
L 336.586177 271.062378 
L 348.856307 270.1407 
L 361.126437 270.032267 
L 373.396567 270.357565 
L 385.666696 270.845512 
L 397.936826 271.929839 
L 410.206956 271.441892 
L 422.477086 270.845512 
L 434.747216 271.984055 
L 447.017346 271.441892 
L 459.287476 271.929839 
L 471.557606 272.634652 
L 483.827735 272.580435 
L 496.097865 272.634652 
L 508.367995 272.851517 
L 520.638125 273.014166 
L 532.908255 272.255137 
L 545.178385 272.905733 
L 557.448515 273.122599 
L 569.718644 273.502113 
L 581.988774 273.068382 
L 594.258904 273.068382 
L 606.529034 273.556329 
L 618.799164 273.664762 
L 631.069294 273.447897 
L 643.339424 273.39368 
L 655.609554 273.502113 
L 667.879683 273.664762 
L 680.149813 273.718978 
L 692.419943 273.827411 
L 704.690073 273.773195 
L 716.960203 273.718978 
L 729.230333 273.935844 
L 741.500463 273.881627 
L 753.770593 273.935844 
L 766.040722 273.935844 
L 778.310852 273.881627 
L 790.580982 273.881627 
L 802.851112 273.827411 
L 815.121242 273.935844 
L 827.391372 273.935844 
L 839.661502 273.935844 
" clip-path="url(#p6597b5c750)" style="fill: none; stroke: #434348; stroke-linecap: square"/>
   </g>
   <g id="line2d_12">
    <path d="M 91.18358 273.940198 
L 103.453709 273.932062 
L 115.723839 273.921214 
L 127.993969 273.84404 
L 140.264099 273.728977 
L 152.534229 272.901289 
L 164.804359 270.212405 
L 177.074489 257.860699 
L 189.344619 223.297783 
L 201.614748 262.929927 
L 213.884878 266.616638 
L 226.155008 265.69496 
L 238.425138 264.66485 
L 250.695268 265.478095 
L 262.965398 266.833503 
L 275.235528 266.399773 
L 287.505657 267.104585 
L 299.775787 267.538316 
L 312.045917 267.267234 
L 324.316047 268.676859 
L 336.586177 269.815402 
L 348.856307 268.243128 
L 361.126437 269.327455 
L 373.396567 270.628647 
L 385.666696 270.303349 
L 397.936826 270.1407 
L 410.206956 270.520214 
L 422.477086 270.73708 
L 434.747216 270.845512 
L 447.017346 271.76719 
L 459.287476 271.333459 
L 471.557606 272.038272 
L 483.827735 272.200921 
L 496.097865 272.146704 
L 508.367995 272.146704 
L 520.638125 272.634652 
L 532.908255 272.797301 
L 545.178385 273.068382 
L 557.448515 271.984055 
L 569.718644 272.851517 
L 581.988774 272.797301 
L 594.258904 273.718978 
L 606.529034 273.556329 
L 618.799164 273.664762 
L 631.069294 273.502113 
L 643.339424 273.339464 
L 655.609554 273.447897 
L 667.879683 273.664762 
L 680.149813 273.447897 
L 692.419943 273.827411 
L 704.690073 273.664762 
L 716.960203 273.718978 
L 729.230333 273.718978 
L 741.500463 273.935844 
L 753.770593 273.773195 
L 766.040722 273.935844 
L 778.310852 273.881627 
L 790.580982 273.935844 
L 802.851112 273.935844 
L 815.121242 273.881627 
L 827.391372 273.935844 
L 864.201761 273.935844 
L 950.09267 273.935844 
" clip-path="url(#p6597b5c750)" style="fill: none; stroke: #90ed7d; stroke-linecap: square"/>
   </g>
   <g id="line2d_13">
    <path d="M 91.18358 273.939572 
L 103.453709 273.933111 
L 115.723839 273.921496 
L 127.993969 273.842652 
L 140.264099 273.687625 
L 152.534229 272.954617 
L 164.804359 269.999382 
L 177.074489 258.773341 
L 189.344619 222.213456 
L 201.614748 43.028455 
L 213.884878 257.779375 
L 226.155008 256.044452 
L 238.425138 258.429971 
L 250.695268 258.104673 
L 262.965398 259.568514 
L 275.235528 259.514297 
L 287.505657 260.21911 
L 299.775787 260.978139 
L 312.045917 262.604629 
L 324.316047 264.990148 
L 336.586177 264.339552 
L 348.856307 264.719066 
L 361.126437 264.122686 
L 373.396567 265.369662 
L 385.666696 266.616638 
L 397.936826 267.700965 
L 410.206956 267.213018 
L 422.477086 267.91783 
L 434.747216 268.731075 
L 447.017346 269.056373 
L 459.287476 269.815402 
L 471.557606 269.815402 
L 483.827735 271.604541 
L 496.097865 270.899729 
L 508.367995 271.496108 
L 520.638125 271.550325 
L 532.908255 272.146704 
L 545.178385 271.929839 
L 557.448515 271.821406 
L 569.718644 271.658757 
L 581.988774 272.092488 
L 594.258904 273.447897 
L 606.529034 272.905733 
L 618.799164 273.339464 
L 631.069294 273.39368 
L 643.339424 273.176815 
L 655.609554 273.122599 
L 667.879683 273.447897 
L 680.149813 273.556329 
L 692.419943 273.176815 
L 704.690073 273.610546 
L 716.960203 273.773195 
L 729.230333 273.773195 
L 741.500463 273.664762 
L 753.770593 273.881627 
L 766.040722 273.881627 
L 778.310852 273.881627 
L 790.580982 273.935844 
L 802.851112 273.773195 
L 815.121242 273.827411 
L 827.391372 273.935844 
" clip-path="url(#p6597b5c750)" style="fill: none; stroke: #f7a35c; stroke-linecap: square"/>
   </g>
   <g id="line2d_14">
    <path d="M 91.18358 273.939344 
L 103.453709 273.931463 
L 115.723839 273.920871 
L 127.993969 273.839737 
L 140.264099 273.728135 
L 152.534229 272.965727 
L 164.804359 270.034934 
L 177.074489 260.327543 
L 189.344619 226.550763 
L 201.614748 56.040376 
L 213.884878 259.948028 
L 226.155008 258.59262 
L 238.425138 258.701052 
L 250.695268 258.158889 
L 262.965398 260.164894 
L 275.235528 261.899816 
L 287.505657 260.273326 
L 299.775787 263.038359 
L 312.045917 261.466086 
L 324.316047 264.935931 
L 336.586177 264.285335 
L 348.856307 265.207013 
L 361.126437 265.749176 
L 373.396567 266.508205 
L 385.666696 267.484099 
L 397.936826 268.188912 
L 410.206956 268.188912 
L 422.477086 266.88772 
L 434.747216 268.351561 
L 447.017346 268.51421 
L 459.287476 270.1407 
L 471.557606 270.791296 
L 483.827735 269.598537 
L 496.097865 270.791296 
L 508.367995 271.496108 
L 520.638125 271.387676 
L 532.908255 271.875623 
L 545.178385 272.309353 
L 557.448515 272.36357 
L 569.718644 272.255137 
L 581.988774 271.279243 
L 594.258904 273.231031 
L 606.529034 273.39368 
L 618.799164 273.068382 
L 631.069294 273.176815 
L 643.339424 272.797301 
L 655.609554 273.39368 
L 667.879683 273.122599 
L 680.149813 273.068382 
L 692.419943 273.122599 
L 704.690073 273.610546 
L 716.960203 273.610546 
L 729.230333 273.610546 
L 741.500463 273.827411 
L 753.770593 273.935844 
L 766.040722 273.827411 
L 778.310852 273.773195 
L 790.580982 273.935844 
L 802.851112 273.827411 
L 827.391372 273.881627 
L 839.661502 273.827411 
L 851.931631 273.827411 
L 876.471891 273.935844 
" clip-path="url(#p6597b5c750)" style="fill: none; stroke: #8085e9; stroke-linecap: square"/>
   </g>
   <g id="line2d_15">
    <path d="M 91.18358 273.928232 
L 103.453709 273.940354 
L 115.723839 273.896999 
L 127.993969 273.872772 
L 140.264099 273.68929 
L 152.534229 272.990168 
L 164.804359 270.088261 
L 177.074489 259.929956 
L 189.344619 224.111028 
L 201.614748 76.642585 
L 213.884878 260.81549 
L 226.155008 256.911913 
L 238.425138 260.81549 
L 250.695268 255.990235 
L 262.965398 261.411869 
L 275.235528 262.170898 
L 287.505657 256.695048 
L 299.775787 265.966042 
L 312.045917 261.24922 
L 324.316047 265.315446 
L 336.586177 265.857609 
L 348.856307 264.556417 
L 361.126437 265.911825 
L 373.396567 265.749176 
L 385.666696 268.676859 
L 397.936826 267.104585 
L 410.206956 268.731075 
L 422.477086 266.237123 
L 434.747216 269.435888 
L 447.017346 267.429883 
L 459.287476 270.845512 
L 471.557606 270.845512 
L 483.827735 269.869618 
L 496.097865 270.357565 
L 508.367995 271.550325 
L 520.638125 271.387676 
L 532.908255 272.146704 
L 545.178385 272.146704 
L 557.448515 272.309353 
L 569.718644 272.417786 
L 581.988774 272.092488 
L 594.258904 272.688868 
L 606.529034 273.176815 
L 618.799164 272.905733 
L 631.069294 273.176815 
L 643.339424 272.634652 
L 655.609554 273.610546 
L 667.879683 272.95995 
L 680.149813 273.231031 
L 692.419943 273.176815 
L 704.690073 273.556329 
L 716.960203 273.664762 
L 729.230333 273.556329 
L 741.500463 273.881627 
L 753.770593 273.935844 
L 766.040722 273.827411 
L 778.310852 273.773195 
L 790.580982 273.935844 
L 802.851112 273.827411 
L 827.391372 273.881627 
L 839.661502 273.827411 
L 851.931631 273.827411 
L 888.742021 273.935844 
" clip-path="url(#p6597b5c750)" style="fill: none; stroke: #f15c80; stroke-linecap: square"/>
   </g>
   <g id="line2d_16">
    <path d="M 91.18358 273.938849 
L 103.453709 273.933345 
L 115.723839 273.918646 
L 127.993969 273.847093 
L 140.264099 273.693426 
L 152.534229 272.910177 
L 164.804359 269.670242 
L 177.074489 258.538403 
L 189.344619 228.719417 
L 201.614748 262.279331 
L 213.884878 264.827499 
L 226.155008 265.261229 
L 238.425138 266.562422 
L 250.695268 266.616638 
L 262.965398 265.803393 
L 275.235528 266.670854 
L 287.505657 267.213018 
L 299.775787 268.026263 
L 312.045917 268.51421 
L 324.316047 268.080479 
L 336.586177 269.056373 
L 348.856307 269.815402 
L 361.126437 269.490104 
L 373.396567 269.761186 
L 385.666696 269.110589 
L 397.936826 271.17081 
L 410.206956 270.357565 
L 422.477086 271.225027 
L 434.747216 271.17081 
L 447.017346 271.279243 
L 459.287476 272.200921 
L 471.557606 272.200921 
L 483.827735 272.580435 
L 496.097865 271.821406 
L 508.367995 272.255137 
L 520.638125 272.580435 
L 532.908255 272.95995 
L 545.178385 272.797301 
L 557.448515 272.688868 
L 569.718644 273.339464 
L 581.988774 272.417786 
L 594.258904 273.610546 
L 606.529034 273.502113 
L 618.799164 273.556329 
L 631.069294 273.502113 
L 643.339424 273.610546 
L 655.609554 273.447897 
L 667.879683 273.664762 
L 680.149813 273.39368 
L 692.419943 273.827411 
L 704.690073 273.664762 
L 716.960203 273.881627 
L 729.230333 273.718978 
L 741.500463 273.773195 
L 753.770593 273.881627 
L 766.040722 273.827411 
L 778.310852 273.773195 
L 790.580982 273.881627 
L 802.851112 273.935844 
L 815.121242 273.935844 
L 827.391372 273.881627 
L 839.661502 273.935844 
" clip-path="url(#p6597b5c750)" style="fill: none; stroke: #e4d354; stroke-linecap: square"/>
   </g>
   <g id="line2d_17">
    <path d="M 91.18358 273.929437 
L 103.453709 273.94006 
L 115.723839 273.897687 
L 127.993969 273.864582 
L 140.264099 273.647875 
L 152.534229 272.932397 
L 164.804359 269.70522 
L 177.074489 258.335092 
L 189.344619 227.092927 
L 201.614748 263.309441 
L 213.884878 264.881715 
L 226.155008 264.827499 
L 238.425138 267.484099 
L 250.695268 264.610633 
L 262.965398 267.104585 
L 275.235528 266.88772 
L 287.505657 265.69496 
L 299.775787 269.761186 
L 312.045917 267.700965 
L 324.316047 267.91783 
L 336.586177 270.303349 
L 348.856307 269.761186 
L 361.126437 269.598537 
L 373.396567 269.598537 
L 385.666696 269.598537 
L 397.936826 270.628647 
L 410.206956 270.628647 
L 422.477086 270.791296 
L 434.747216 271.279243 
L 447.017346 271.225027 
L 459.287476 272.580435 
L 471.557606 272.309353 
L 483.827735 272.472003 
L 496.097865 271.658757 
L 508.367995 272.36357 
L 520.638125 272.634652 
L 532.908255 272.95995 
L 545.178385 272.851517 
L 557.448515 272.743084 
L 569.718644 273.231031 
L 581.988774 273.014166 
L 594.258904 273.39368 
L 606.529034 273.285248 
L 618.799164 273.610546 
L 631.069294 273.502113 
L 643.339424 273.556329 
L 655.609554 273.447897 
L 667.879683 273.664762 
L 680.149813 273.39368 
L 692.419943 273.881627 
L 704.690073 273.664762 
L 716.960203 273.881627 
L 729.230333 273.718978 
L 741.500463 273.773195 
L 753.770593 273.827411 
L 766.040722 273.881627 
L 778.310852 273.773195 
L 790.580982 273.881627 
L 802.851112 273.935844 
L 827.391372 273.827411 
L 839.661502 273.935844 
" clip-path="url(#p6597b5c750)" style="fill: none; stroke: #2b908f; stroke-linecap: square"/>
   </g>
   <g id="line2d_18">
    <path d="M 48.238125 273.99006 
L 993.038125 273.99006 
" clip-path="url(#p6597b5c750)" style="fill: none; stroke: #dedede; stroke-width: 2; stroke-linecap: square"/>
   </g>
   <g id="text_20">
    <!-- Cutadapt: Lengths of Trimmed Sequences (3' end) -->
    <g transform="translate(319.285625 19.3575)scale(0.16 -0.16)">
     <defs>
      <path id="DejaVuSans-43" d="M 4122 4306 
L 4122 3641 
Q 3803 3938 3442 4084 
Q 3081 4231 2675 4231 
Q 1875 4231 1450 3742 
Q 1025 3253 1025 2328 
Q 1025 1406 1450 917 
Q 1875 428 2675 428 
Q 3081 428 3442 575 
Q 3803 722 4122 1019 
L 4122 359 
Q 3791 134 3420 21 
Q 3050 -91 2638 -91 
Q 1578 -91 968 557 
Q 359 1206 359 2328 
Q 359 3453 968 4101 
Q 1578 4750 2638 4750 
Q 3056 4750 3426 4639 
Q 3797 4528 4122 4306 
z
" transform="scale(0.015625)"/>
      <path id="DejaVuSans-75" d="M 544 1381 
L 544 3500 
L 1119 3500 
L 1119 1403 
Q 1119 906 1312 657 
Q 1506 409 1894 409 
Q 2359 409 2629 706 
Q 2900 1003 2900 1516 
L 2900 3500 
L 3475 3500 
L 3475 0 
L 2900 0 
L 2900 538 
Q 2691 219 2414 64 
Q 2138 -91 1772 -91 
Q 1169 -91 856 284 
Q 544 659 544 1381 
z
M 1991 3584 
L 1991 3584 
z
" transform="scale(0.015625)"/>
      <path id="DejaVuSans-61" d="M 2194 1759 
Q 1497 1759 1228 1600 
Q 959 1441 959 1056 
Q 959 750 1161 570 
Q 1363 391 1709 391 
Q 2188 391 2477 730 
Q 2766 1069 2766 1631 
L 2766 1759 
L 2194 1759 
z
M 3341 1997 
L 3341 0 
L 2766 0 
L 2766 531 
Q 2569 213 2275 61 
Q 1981 -91 1556 -91 
Q 1019 -91 701 211 
Q 384 513 384 1019 
Q 384 1609 779 1909 
Q 1175 2209 1959 2209 
L 2766 2209 
L 2766 2266 
Q 2766 2663 2505 2880 
Q 2244 3097 1772 3097 
Q 1472 3097 1187 3025 
Q 903 2953 641 2809 
L 641 3341 
Q 956 3463 1253 3523 
Q 1550 3584 1831 3584 
Q 2591 3584 2966 3190 
Q 3341 2797 3341 1997 
z
" transform="scale(0.015625)"/>
      <path id="DejaVuSans-3a" d="M 750 794 
L 1409 794 
L 1409 0 
L 750 0 
L 750 794 
z
M 750 3309 
L 1409 3309 
L 1409 2516 
L 750 2516 
L 750 3309 
z
" transform="scale(0.015625)"/>
      <path id="DejaVuSans-6f" d="M 1959 3097 
Q 1497 3097 1228 2736 
Q 959 2375 959 1747 
Q 959 1119 1226 758 
Q 1494 397 1959 397 
Q 2419 397 2687 759 
Q 2956 1122 2956 1747 
Q 2956 2369 2687 2733 
Q 2419 3097 1959 3097 
z
M 1959 3584 
Q 2709 3584 3137 3096 
Q 3566 2609 3566 1747 
Q 3566 888 3137 398 
Q 2709 -91 1959 -91 
Q 1206 -91 779 398 
Q 353 888 353 1747 
Q 353 2609 779 3096 
Q 1206 3584 1959 3584 
z
" transform="scale(0.015625)"/>
      <path id="DejaVuSans-66" d="M 2375 4863 
L 2375 4384 
L 1825 4384 
Q 1516 4384 1395 4259 
Q 1275 4134 1275 3809 
L 1275 3500 
L 2222 3500 
L 2222 3053 
L 1275 3053 
L 1275 0 
L 697 0 
L 697 3053 
L 147 3053 
L 147 3500 
L 697 3500 
L 697 3744 
Q 697 4328 969 4595 
Q 1241 4863 1831 4863 
L 2375 4863 
z
" transform="scale(0.015625)"/>
      <path id="DejaVuSans-53" d="M 3425 4513 
L 3425 3897 
Q 3066 4069 2747 4153 
Q 2428 4238 2131 4238 
Q 1616 4238 1336 4038 
Q 1056 3838 1056 3469 
Q 1056 3159 1242 3001 
Q 1428 2844 1947 2747 
L 2328 2669 
Q 3034 2534 3370 2195 
Q 3706 1856 3706 1288 
Q 3706 609 3251 259 
Q 2797 -91 1919 -91 
Q 1588 -91 1214 -16 
Q 841 59 441 206 
L 441 856 
Q 825 641 1194 531 
Q 1563 422 1919 422 
Q 2459 422 2753 634 
Q 3047 847 3047 1241 
Q 3047 1584 2836 1778 
Q 2625 1972 2144 2069 
L 1759 2144 
Q 1053 2284 737 2584 
Q 422 2884 422 3419 
Q 422 4038 858 4394 
Q 1294 4750 2059 4750 
Q 2388 4750 2728 4690 
Q 3069 4631 3425 4513 
z
" transform="scale(0.015625)"/>
      <path id="DejaVuSans-71" d="M 947 1747 
Q 947 1113 1208 752 
Q 1469 391 1925 391 
Q 2381 391 2643 752 
Q 2906 1113 2906 1747 
Q 2906 2381 2643 2742 
Q 2381 3103 1925 3103 
Q 1469 3103 1208 2742 
Q 947 2381 947 1747 
z
M 2906 525 
Q 2725 213 2448 61 
Q 2172 -91 1784 -91 
Q 1150 -91 751 415 
Q 353 922 353 1747 
Q 353 2572 751 3078 
Q 1150 3584 1784 3584 
Q 2172 3584 2448 3432 
Q 2725 3281 2906 2969 
L 2906 3500 
L 3481 3500 
L 3481 -1331 
L 2906 -1331 
L 2906 525 
z
" transform="scale(0.015625)"/>
      <path id="DejaVuSans-27" d="M 1147 4666 
L 1147 2931 
L 616 2931 
L 616 4666 
L 1147 4666 
z
" transform="scale(0.015625)"/>
     </defs>
     <use xlink:href="#DejaVuSans-43"/>
     <use xlink:href="#DejaVuSans-75" x="69.824219"/>
     <use xlink:href="#DejaVuSans-74" x="133.203125"/>
     <use xlink:href="#DejaVuSans-61" x="172.412109"/>
     <use xlink:href="#DejaVuSans-64" x="233.691406"/>
     <use xlink:href="#DejaVuSans-61" x="297.167969"/>
     <use xlink:href="#DejaVuSans-70" x="358.447266"/>
     <use xlink:href="#DejaVuSans-74" x="421.923828"/>
     <use xlink:href="#DejaVuSans-3a" x="461.132812"/>
     <use xlink:href="#DejaVuSans-20" x="494.824219"/>
     <use xlink:href="#DejaVuSans-4c" x="526.611328"/>
     <use xlink:href="#DejaVuSans-65" x="580.574219"/>
     <use xlink:href="#DejaVuSans-6e" x="642.097656"/>
     <use xlink:href="#DejaVuSans-67" x="705.476562"/>
     <use xlink:href="#DejaVuSans-74" x="768.953125"/>
     <use xlink:href="#DejaVuSans-68" x="808.162109"/>
     <use xlink:href="#DejaVuSans-73" x="871.541016"/>
     <use xlink:href="#DejaVuSans-20" x="923.640625"/>
     <use xlink:href="#DejaVuSans-6f" x="955.427734"/>
     <use xlink:href="#DejaVuSans-66" x="1016.609375"/>
     <use xlink:href="#DejaVuSans-20" x="1051.814453"/>
     <use xlink:href="#DejaVuSans-54" x="1083.601562"/>
     <use xlink:href="#DejaVuSans-72" x="1129.935547"/>
     <use xlink:href="#DejaVuSans-69" x="1171.048828"/>
     <use xlink:href="#DejaVuSans-6d" x="1198.832031"/>
     <use xlink:href="#DejaVuSans-6d" x="1296.244141"/>
     <use xlink:href="#DejaVuSans-65" x="1393.65625"/>
     <use xlink:href="#DejaVuSans-64" x="1455.179688"/>
     <use xlink:href="#DejaVuSans-20" x="1518.65625"/>
     <use xlink:href="#DejaVuSans-53" x="1550.443359"/>
     <use xlink:href="#DejaVuSans-65" x="1613.919922"/>
     <use xlink:href="#DejaVuSans-71" x="1675.443359"/>
     <use xlink:href="#DejaVuSans-75" x="1738.919922"/>
     <use xlink:href="#DejaVuSans-65" x="1802.298828"/>
     <use xlink:href="#DejaVuSans-6e" x="1863.822266"/>
     <use xlink:href="#DejaVuSans-63" x="1927.201172"/>
     <use xlink:href="#DejaVuSans-65" x="1982.181641"/>
     <use xlink:href="#DejaVuSans-73" x="2043.705078"/>
     <use xlink:href="#DejaVuSans-20" x="2095.804688"/>
     <use xlink:href="#DejaVuSans-28" x="2127.591797"/>
     <use xlink:href="#DejaVuSans-33" x="2166.605469"/>
     <use xlink:href="#DejaVuSans-27" x="2230.228516"/>
     <use xlink:href="#DejaVuSans-20" x="2257.71875"/>
     <use xlink:href="#DejaVuSans-65" x="2289.505859"/>
     <use xlink:href="#DejaVuSans-6e" x="2351.029297"/>
     <use xlink:href="#DejaVuSans-64" x="2414.408203"/>
     <use xlink:href="#DejaVuSans-29" x="2477.884766"/>
    </g>
   </g>
   <g id="legend_1">
    <g id="line2d_19">
     <path d="M 55.438125 303.490394 
L 63.438125 303.490394 
L 71.438125 303.490394 
" style="fill: none; stroke: #7cb5ec; stroke-linecap: square"/>
    </g>
    <g id="text_21">
     <!-- RAP1_IAA_30M_REP1_1 - Adapter 1 -->
     <g transform="translate(77.838125 306.290394)scale(0.08 -0.08)">
      <defs>
       <path id="DejaVuSans-52" d="M 2841 2188 
Q 3044 2119 3236 1894 
Q 3428 1669 3622 1275 
L 4263 0 
L 3584 0 
L 2988 1197 
Q 2756 1666 2539 1819 
Q 2322 1972 1947 1972 
L 1259 1972 
L 1259 0 
L 628 0 
L 628 4666 
L 2053 4666 
Q 2853 4666 3247 4331 
Q 3641 3997 3641 3322 
Q 3641 2881 3436 2590 
Q 3231 2300 2841 2188 
z
M 1259 4147 
L 1259 2491 
L 2053 2491 
Q 2509 2491 2742 2702 
Q 2975 2913 2975 3322 
Q 2975 3731 2742 3939 
Q 2509 4147 2053 4147 
L 1259 4147 
z
" transform="scale(0.015625)"/>
       <path id="DejaVuSans-41" d="M 2188 4044 
L 1331 1722 
L 3047 1722 
L 2188 4044 
z
M 1831 4666 
L 2547 4666 
L 4325 0 
L 3669 0 
L 3244 1197 
L 1141 1197 
L 716 0 
L 50 0 
L 1831 4666 
z
" transform="scale(0.015625)"/>
       <path id="DejaVuSans-50" d="M 1259 4147 
L 1259 2394 
L 2053 2394 
Q 2494 2394 2734 2622 
Q 2975 2850 2975 3272 
Q 2975 3691 2734 3919 
Q 2494 4147 2053 4147 
L 1259 4147 
z
M 628 4666 
L 2053 4666 
Q 2838 4666 3239 4311 
Q 3641 3956 3641 3272 
Q 3641 2581 3239 2228 
Q 2838 1875 2053 1875 
L 1259 1875 
L 1259 0 
L 628 0 
L 628 4666 
z
" transform="scale(0.015625)"/>
       <path id="DejaVuSans-5f" d="M 3263 -1063 
L 3263 -1509 
L -63 -1509 
L -63 -1063 
L 3263 -1063 
z
" transform="scale(0.015625)"/>
       <path id="DejaVuSans-49" d="M 628 4666 
L 1259 4666 
L 1259 0 
L 628 0 
L 628 4666 
z
" transform="scale(0.015625)"/>
       <path id="DejaVuSans-4d" d="M 628 4666 
L 1569 4666 
L 2759 1491 
L 3956 4666 
L 4897 4666 
L 4897 0 
L 4281 0 
L 4281 4097 
L 3078 897 
L 2444 897 
L 1241 4097 
L 1241 0 
L 628 0 
L 628 4666 
z
" transform="scale(0.015625)"/>
       <path id="DejaVuSans-2d" d="M 313 2009 
L 1997 2009 
L 1997 1497 
L 313 1497 
L 313 2009 
z
" transform="scale(0.015625)"/>
      </defs>
      <use xlink:href="#DejaVuSans-52"/>
      <use xlink:href="#DejaVuSans-41" x="65.482422"/>
      <use xlink:href="#DejaVuSans-50" x="133.890625"/>
      <use xlink:href="#DejaVuSans-31" x="194.193359"/>
      <use xlink:href="#DejaVuSans-5f" x="257.816406"/>
      <use xlink:href="#DejaVuSans-49" x="307.816406"/>
      <use xlink:href="#DejaVuSans-41" x="337.308594"/>
      <use xlink:href="#DejaVuSans-41" x="408.466797"/>
      <use xlink:href="#DejaVuSans-5f" x="476.875"/>
      <use xlink:href="#DejaVuSans-33" x="526.875"/>
      <use xlink:href="#DejaVuSans-30" x="590.498047"/>
      <use xlink:href="#DejaVuSans-4d" x="654.121094"/>
      <use xlink:href="#DejaVuSans-5f" x="740.400391"/>
      <use xlink:href="#DejaVuSans-52" x="790.400391"/>
      <use xlink:href="#DejaVuSans-45" x="859.882812"/>
      <use xlink:href="#DejaVuSans-50" x="923.066406"/>
      <use xlink:href="#DejaVuSans-31" x="983.369141"/>
      <use xlink:href="#DejaVuSans-5f" x="1046.992188"/>
      <use xlink:href="#DejaVuSans-31" x="1096.992188"/>
      <use xlink:href="#DejaVuSans-20" x="1160.615234"/>
      <use xlink:href="#DejaVuSans-2d" x="1192.402344"/>
      <use xlink:href="#DejaVuSans-20" x="1228.486328"/>
      <use xlink:href="#DejaVuSans-41" x="1260.273438"/>
      <use xlink:href="#DejaVuSans-64" x="1326.931641"/>
      <use xlink:href="#DejaVuSans-61" x="1390.408203"/>
      <use xlink:href="#DejaVuSans-70" x="1451.6875"/>
      <use xlink:href="#DejaVuSans-74" x="1515.164062"/>
      <use xlink:href="#DejaVuSans-65" x="1554.373047"/>
      <use xlink:href="#DejaVuSans-72" x="1615.896484"/>
      <use xlink:href="#DejaVuSans-20" x="1657.009766"/>
      <use xlink:href="#DejaVuSans-31" x="1688.796875"/>
     </g>
    </g>
    <g id="line2d_20">
     <path d="M 55.438125 315.455394 
L 63.438125 315.455394 
L 71.438125 315.455394 
" style="fill: none; stroke: #434348; stroke-linecap: square"/>
    </g>
    <g id="text_22">
     <!-- RAP1_IAA_30M_REP1_2 - Adapter 1 -->
     <g transform="translate(77.838125 318.255394)scale(0.08 -0.08)">
      <use xlink:href="#DejaVuSans-52"/>
      <use xlink:href="#DejaVuSans-41" x="65.482422"/>
      <use xlink:href="#DejaVuSans-50" x="133.890625"/>
      <use xlink:href="#DejaVuSans-31" x="194.193359"/>
      <use xlink:href="#DejaVuSans-5f" x="257.816406"/>
      <use xlink:href="#DejaVuSans-49" x="307.816406"/>
      <use xlink:href="#DejaVuSans-41" x="337.308594"/>
      <use xlink:href="#DejaVuSans-41" x="408.466797"/>
      <use xlink:href="#DejaVuSans-5f" x="476.875"/>
      <use xlink:href="#DejaVuSans-33" x="526.875"/>
      <use xlink:href="#DejaVuSans-30" x="590.498047"/>
      <use xlink:href="#DejaVuSans-4d" x="654.121094"/>
      <use xlink:href="#DejaVuSans-5f" x="740.400391"/>
      <use xlink:href="#DejaVuSans-52" x="790.400391"/>
      <use xlink:href="#DejaVuSans-45" x="859.882812"/>
      <use xlink:href="#DejaVuSans-50" x="923.066406"/>
      <use xlink:href="#DejaVuSans-31" x="983.369141"/>
      <use xlink:href="#DejaVuSans-5f" x="1046.992188"/>
      <use xlink:href="#DejaVuSans-32" x="1096.992188"/>
      <use xlink:href="#DejaVuSans-20" x="1160.615234"/>
      <use xlink:href="#DejaVuSans-2d" x="1192.402344"/>
      <use xlink:href="#DejaVuSans-20" x="1228.486328"/>
      <use xlink:href="#DejaVuSans-41" x="1260.273438"/>
      <use xlink:href="#DejaVuSans-64" x="1326.931641"/>
      <use xlink:href="#DejaVuSans-61" x="1390.408203"/>
      <use xlink:href="#DejaVuSans-70" x="1451.6875"/>
      <use xlink:href="#DejaVuSans-74" x="1515.164062"/>
      <use xlink:href="#DejaVuSans-65" x="1554.373047"/>
      <use xlink:href="#DejaVuSans-72" x="1615.896484"/>
      <use xlink:href="#DejaVuSans-20" x="1657.009766"/>
      <use xlink:href="#DejaVuSans-31" x="1688.796875"/>
     </g>
    </g>
    <g id="line2d_21">
     <path d="M 280.890938 303.490394 
L 288.890938 303.490394 
L 296.890938 303.490394 
" style="fill: none; stroke: #90ed7d; stroke-linecap: square"/>
    </g>
    <g id="text_23">
     <!-- RAP1_UNINDUCED_REP1 - Adapter 1 -->
     <g transform="translate(303.290937 306.290394)scale(0.08 -0.08)">
      <defs>
       <path id="DejaVuSans-55" d="M 556 4666 
L 1191 4666 
L 1191 1831 
Q 1191 1081 1462 751 
Q 1734 422 2344 422 
Q 2950 422 3222 751 
Q 3494 1081 3494 1831 
L 3494 4666 
L 4128 4666 
L 4128 1753 
Q 4128 841 3676 375 
Q 3225 -91 2344 -91 
Q 1459 -91 1007 375 
Q 556 841 556 1753 
L 556 4666 
z
" transform="scale(0.015625)"/>
       <path id="DejaVuSans-4e" d="M 628 4666 
L 1478 4666 
L 3547 763 
L 3547 4666 
L 4159 4666 
L 4159 0 
L 3309 0 
L 1241 3903 
L 1241 0 
L 628 0 
L 628 4666 
z
" transform="scale(0.015625)"/>
       <path id="DejaVuSans-44" d="M 1259 4147 
L 1259 519 
L 2022 519 
Q 2988 519 3436 956 
Q 3884 1394 3884 2338 
Q 3884 3275 3436 3711 
Q 2988 4147 2022 4147 
L 1259 4147 
z
M 628 4666 
L 1925 4666 
Q 3281 4666 3915 4102 
Q 4550 3538 4550 2338 
Q 4550 1131 3912 565 
Q 3275 0 1925 0 
L 628 0 
L 628 4666 
z
" transform="scale(0.015625)"/>
      </defs>
      <use xlink:href="#DejaVuSans-52"/>
      <use xlink:href="#DejaVuSans-41" x="65.482422"/>
      <use xlink:href="#DejaVuSans-50" x="133.890625"/>
      <use xlink:href="#DejaVuSans-31" x="194.193359"/>
      <use xlink:href="#DejaVuSans-5f" x="257.816406"/>
      <use xlink:href="#DejaVuSans-55" x="307.816406"/>
      <use xlink:href="#DejaVuSans-4e" x="381.009766"/>
      <use xlink:href="#DejaVuSans-49" x="455.814453"/>
      <use xlink:href="#DejaVuSans-4e" x="485.306641"/>
      <use xlink:href="#DejaVuSans-44" x="560.111328"/>
      <use xlink:href="#DejaVuSans-55" x="637.113281"/>
      <use xlink:href="#DejaVuSans-43" x="710.306641"/>
      <use xlink:href="#DejaVuSans-45" x="780.130859"/>
      <use xlink:href="#DejaVuSans-44" x="843.314453"/>
      <use xlink:href="#DejaVuSans-5f" x="920.316406"/>
      <use xlink:href="#DejaVuSans-52" x="970.316406"/>
      <use xlink:href="#DejaVuSans-45" x="1039.798828"/>
      <use xlink:href="#DejaVuSans-50" x="1102.982422"/>
      <use xlink:href="#DejaVuSans-31" x="1163.285156"/>
      <use xlink:href="#DejaVuSans-20" x="1226.908203"/>
      <use xlink:href="#DejaVuSans-2d" x="1258.695312"/>
      <use xlink:href="#DejaVuSans-20" x="1294.779297"/>
      <use xlink:href="#DejaVuSans-41" x="1326.566406"/>
      <use xlink:href="#DejaVuSans-64" x="1393.224609"/>
      <use xlink:href="#DejaVuSans-61" x="1456.701172"/>
      <use xlink:href="#DejaVuSans-70" x="1517.980469"/>
      <use xlink:href="#DejaVuSans-74" x="1581.457031"/>
      <use xlink:href="#DejaVuSans-65" x="1620.666016"/>
      <use xlink:href="#DejaVuSans-72" x="1682.189453"/>
      <use xlink:href="#DejaVuSans-20" x="1723.302734"/>
      <use xlink:href="#DejaVuSans-31" x="1755.089844"/>
     </g>
    </g>
    <g id="line2d_22">
     <path d="M 280.890938 315.455394 
L 288.890938 315.455394 
L 296.890938 315.455394 
" style="fill: none; stroke: #f7a35c; stroke-linecap: square"/>
    </g>
    <g id="text_24">
     <!-- RAP1_UNINDUCED_REP2 - Adapter 1 -->
     <g transform="translate(303.290937 318.255394)scale(0.08 -0.08)">
      <use xlink:href="#DejaVuSans-52"/>
      <use xlink:href="#DejaVuSans-41" x="65.482422"/>
      <use xlink:href="#DejaVuSans-50" x="133.890625"/>
      <use xlink:href="#DejaVuSans-31" x="194.193359"/>
      <use xlink:href="#DejaVuSans-5f" x="257.816406"/>
      <use xlink:href="#DejaVuSans-55" x="307.816406"/>
      <use xlink:href="#DejaVuSans-4e" x="381.009766"/>
      <use xlink:href="#DejaVuSans-49" x="455.814453"/>
      <use xlink:href="#DejaVuSans-4e" x="485.306641"/>
      <use xlink:href="#DejaVuSans-44" x="560.111328"/>
      <use xlink:href="#DejaVuSans-55" x="637.113281"/>
      <use xlink:href="#DejaVuSans-43" x="710.306641"/>
      <use xlink:href="#DejaVuSans-45" x="780.130859"/>
      <use xlink:href="#DejaVuSans-44" x="843.314453"/>
      <use xlink:href="#DejaVuSans-5f" x="920.316406"/>
      <use xlink:href="#DejaVuSans-52" x="970.316406"/>
      <use xlink:href="#DejaVuSans-45" x="1039.798828"/>
      <use xlink:href="#DejaVuSans-50" x="1102.982422"/>
      <use xlink:href="#DejaVuSans-32" x="1163.285156"/>
      <use xlink:href="#DejaVuSans-20" x="1226.908203"/>
      <use xlink:href="#DejaVuSans-2d" x="1258.695312"/>
      <use xlink:href="#DejaVuSans-20" x="1294.779297"/>
      <use xlink:href="#DejaVuSans-41" x="1326.566406"/>
      <use xlink:href="#DejaVuSans-64" x="1393.224609"/>
      <use xlink:href="#DejaVuSans-61" x="1456.701172"/>
      <use xlink:href="#DejaVuSans-70" x="1517.980469"/>
      <use xlink:href="#DejaVuSans-74" x="1581.457031"/>
      <use xlink:href="#DejaVuSans-65" x="1620.666016"/>
      <use xlink:href="#DejaVuSans-72" x="1682.189453"/>
      <use xlink:href="#DejaVuSans-20" x="1723.302734"/>
      <use xlink:href="#DejaVuSans-31" x="1755.089844"/>
     </g>
    </g>
    <g id="line2d_23">
     <path d="M 511.6475 303.490394 
L 519.6475 303.490394 
L 527.6475 303.490394 
" style="fill: none; stroke: #8085e9; stroke-linecap: square"/>
    </g>
    <g id="text_25">
     <!-- WT_REP1_1 - Adapter 1 -->
     <g transform="translate(534.0475 306.290394)scale(0.08 -0.08)">
      <defs>
       <path id="DejaVuSans-57" d="M 213 4666 
L 850 4666 
L 1831 722 
L 2809 4666 
L 3519 4666 
L 4500 722 
L 5478 4666 
L 6119 4666 
L 4947 0 
L 4153 0 
L 3169 4050 
L 2175 0 
L 1381 0 
L 213 4666 
z
" transform="scale(0.015625)"/>
      </defs>
      <use xlink:href="#DejaVuSans-57"/>
      <use xlink:href="#DejaVuSans-54" x="98.876953"/>
      <use xlink:href="#DejaVuSans-5f" x="159.960938"/>
      <use xlink:href="#DejaVuSans-52" x="209.960938"/>
      <use xlink:href="#DejaVuSans-45" x="279.443359"/>
      <use xlink:href="#DejaVuSans-50" x="342.626953"/>
      <use xlink:href="#DejaVuSans-31" x="402.929688"/>
      <use xlink:href="#DejaVuSans-5f" x="466.552734"/>
      <use xlink:href="#DejaVuSans-31" x="516.552734"/>
      <use xlink:href="#DejaVuSans-20" x="580.175781"/>
      <use xlink:href="#DejaVuSans-2d" x="611.962891"/>
      <use xlink:href="#DejaVuSans-20" x="648.046875"/>
      <use xlink:href="#DejaVuSans-41" x="679.833984"/>
      <use xlink:href="#DejaVuSans-64" x="746.492188"/>
      <use xlink:href="#DejaVuSans-61" x="809.96875"/>
      <use xlink:href="#DejaVuSans-70" x="871.248047"/>
      <use xlink:href="#DejaVuSans-74" x="934.724609"/>
      <use xlink:href="#DejaVuSans-65" x="973.933594"/>
      <use xlink:href="#DejaVuSans-72" x="1035.457031"/>
      <use xlink:href="#DejaVuSans-20" x="1076.570312"/>
      <use xlink:href="#DejaVuSans-31" x="1108.357422"/>
     </g>
    </g>
    <g id="line2d_24">
     <path d="M 511.6475 315.455394 
L 519.6475 315.455394 
L 527.6475 315.455394 
" style="fill: none; stroke: #f15c80; stroke-linecap: square"/>
    </g>
    <g id="text_26">
     <!-- WT_REP1_2 - Adapter 1 -->
     <g transform="translate(534.0475 318.255394)scale(0.08 -0.08)">
      <use xlink:href="#DejaVuSans-57"/>
      <use xlink:href="#DejaVuSans-54" x="98.876953"/>
      <use xlink:href="#DejaVuSans-5f" x="159.960938"/>
      <use xlink:href="#DejaVuSans-52" x="209.960938"/>
      <use xlink:href="#DejaVuSans-45" x="279.443359"/>
      <use xlink:href="#DejaVuSans-50" x="342.626953"/>
      <use xlink:href="#DejaVuSans-31" x="402.929688"/>
      <use xlink:href="#DejaVuSans-5f" x="466.552734"/>
      <use xlink:href="#DejaVuSans-32" x="516.552734"/>
      <use xlink:href="#DejaVuSans-20" x="580.175781"/>
      <use xlink:href="#DejaVuSans-2d" x="611.962891"/>
      <use xlink:href="#DejaVuSans-20" x="648.046875"/>
      <use xlink:href="#DejaVuSans-41" x="679.833984"/>
      <use xlink:href="#DejaVuSans-64" x="746.492188"/>
      <use xlink:href="#DejaVuSans-61" x="809.96875"/>
      <use xlink:href="#DejaVuSans-70" x="871.248047"/>
      <use xlink:href="#DejaVuSans-74" x="934.724609"/>
      <use xlink:href="#DejaVuSans-65" x="973.933594"/>
      <use xlink:href="#DejaVuSans-72" x="1035.457031"/>
      <use xlink:href="#DejaVuSans-20" x="1076.570312"/>
      <use xlink:href="#DejaVuSans-31" x="1108.357422"/>
     </g>
    </g>
    <g id="line2d_25">
     <path d="M 690.664062 303.490394 
L 698.664062 303.490394 
L 706.664062 303.490394 
" style="fill: none; stroke: #e4d354; stroke-linecap: square"/>
    </g>
    <g id="text_27">
     <!-- WT_REP2_1 - Adapter 1 -->
     <g transform="translate(713.064062 306.290394)scale(0.08 -0.08)">
      <use xlink:href="#DejaVuSans-57"/>
      <use xlink:href="#DejaVuSans-54" x="98.876953"/>
      <use xlink:href="#DejaVuSans-5f" x="159.960938"/>
      <use xlink:href="#DejaVuSans-52" x="209.960938"/>
      <use xlink:href="#DejaVuSans-45" x="279.443359"/>
      <use xlink:href="#DejaVuSans-50" x="342.626953"/>
      <use xlink:href="#DejaVuSans-32" x="402.929688"/>
      <use xlink:href="#DejaVuSans-5f" x="466.552734"/>
      <use xlink:href="#DejaVuSans-31" x="516.552734"/>
      <use xlink:href="#DejaVuSans-20" x="580.175781"/>
      <use xlink:href="#DejaVuSans-2d" x="611.962891"/>
      <use xlink:href="#DejaVuSans-20" x="648.046875"/>
      <use xlink:href="#DejaVuSans-41" x="679.833984"/>
      <use xlink:href="#DejaVuSans-64" x="746.492188"/>
      <use xlink:href="#DejaVuSans-61" x="809.96875"/>
      <use xlink:href="#DejaVuSans-70" x="871.248047"/>
      <use xlink:href="#DejaVuSans-74" x="934.724609"/>
      <use xlink:href="#DejaVuSans-65" x="973.933594"/>
      <use xlink:href="#DejaVuSans-72" x="1035.457031"/>
      <use xlink:href="#DejaVuSans-20" x="1076.570312"/>
      <use xlink:href="#DejaVuSans-31" x="1108.357422"/>
     </g>
    </g>
    <g id="line2d_26">
     <path d="M 869.680625 303.490394 
L 877.680625 303.490394 
L 885.680625 303.490394 
" style="fill: none; stroke: #2b908f; stroke-linecap: square"/>
    </g>
    <g id="text_28">
     <!-- WT_REP2_2 - Adapter 1 -->
     <g transform="translate(892.080625 306.290394)scale(0.08 -0.08)">
      <use xlink:href="#DejaVuSans-57"/>
      <use xlink:href="#DejaVuSans-54" x="98.876953"/>
      <use xlink:href="#DejaVuSans-5f" x="159.960938"/>
      <use xlink:href="#DejaVuSans-52" x="209.960938"/>
      <use xlink:href="#DejaVuSans-45" x="279.443359"/>
      <use xlink:href="#DejaVuSans-50" x="342.626953"/>
      <use xlink:href="#DejaVuSans-32" x="402.929688"/>
      <use xlink:href="#DejaVuSans-5f" x="466.552734"/>
      <use xlink:href="#DejaVuSans-32" x="516.552734"/>
      <use xlink:href="#DejaVuSans-20" x="580.175781"/>
      <use xlink:href="#DejaVuSans-2d" x="611.962891"/>
      <use xlink:href="#DejaVuSans-20" x="648.046875"/>
      <use xlink:href="#DejaVuSans-41" x="679.833984"/>
      <use xlink:href="#DejaVuSans-64" x="746.492188"/>
      <use xlink:href="#DejaVuSans-61" x="809.96875"/>
      <use xlink:href="#DejaVuSans-70" x="871.248047"/>
      <use xlink:href="#DejaVuSans-74" x="934.724609"/>
      <use xlink:href="#DejaVuSans-65" x="973.933594"/>
      <use xlink:href="#DejaVuSans-72" x="1035.457031"/>
      <use xlink:href="#DejaVuSans-20" x="1076.570312"/>
      <use xlink:href="#DejaVuSans-31" x="1108.357422"/>
     </g>
    </g>
   </g>
  </g>
 </g>
 <defs>
  <clipPath id="p6597b5c750">
   <rect x="48.238125" y="31.48286" width="944.8" height="242.5072"/>
  </clipPath>
 </defs>
</svg>
